<?xml version="1.0" encoding="UTF-8" standalone="no"?>
<!-- Created with Inkscape (http://www.inkscape.org/) -->

<svg
   width="256"
   height="256"
   viewBox="0 0 67.733332 67.733335"
   version="1.1"
   id="svg43459"
   inkscape:version="1.1.1 (3bf5ae0d25, 2021-09-20)"
   sodipodi:docname="gasstation.svg"
   xmlns:inkscape="http://www.inkscape.org/namespaces/inkscape"
   xmlns:sodipodi="http://sodipodi.sourceforge.net/DTD/sodipodi-0.dtd"
   xmlns="http://www.w3.org/2000/svg"
   xmlns:svg="http://www.w3.org/2000/svg">
  <sodipodi:namedview
     id="namedview43461"
     pagecolor="#ffffff"
     bordercolor="#666666"
     borderopacity="1.0"
     inkscape:pageshadow="2"
     inkscape:pageopacity="0.0"
     inkscape:pagecheckerboard="0"
     inkscape:document-units="mm"
     showgrid="false"
     units="px"
     inkscape:zoom="3.0429688"
     inkscape:cx="127.83569"
     inkscape:cy="128.32863"
     inkscape:window-width="1680"
     inkscape:window-height="1021"
     inkscape:window-x="0"
     inkscape:window-y="15"
     inkscape:window-maximized="1"
     inkscape:current-layer="g46454" />
  <defs
     id="defs43456" />
  <g
     inkscape:label="Capa 1"
     inkscape:groupmode="layer"
     id="layer1">
    <g
       id="g46454"
       transform="translate(0,1.8012381)">
      <g
         id="g58653"
         transform="translate(-3.7079577)">
        <g
           id="g58096">
          <path
             id="rect52968"
             style="font-variation-settings:normal;opacity:1;vector-effect:none;fill:#000000;fill-opacity:1;stroke:none;stroke-width:0.2;stroke-linecap:round;stroke-linejoin:round;stroke-miterlimit:1;stroke-dasharray:none;stroke-dashoffset:0;stroke-opacity:1;-inkscape-stroke:none;stop-color:#000000;stop-opacity:1"
             d="m 82.15625,29.134766 c -6.00163,0 -10.833984,4.830401 -10.833984,10.832031 V 216.72656 c 0,6.00163 4.832354,10.83399 10.833984,10.83399 h 71.45508 c 6.00163,0 10.83398,-4.83236 10.83398,-10.83399 V 39.966797 c 0,-6.00163 -4.83235,-10.832031 -10.83398,-10.832031 z m 10.855469,10.25 h 49.744141 c 5.16698,0 9.32812,4.159193 9.32812,9.326172 v 36.884765 c 0,5.166978 -4.16114,9.328125 -9.32812,9.328125 H 93.011719 c -5.166978,0 -9.326172,-4.161147 -9.326172,-9.328125 V 48.710938 c 0,-5.166979 4.159194,-9.326172 9.326172,-9.326172 z"
             transform="matrix(0.26458333,0,0,0.26458333,0,-1.8012381)" />
          <rect
             style="font-variation-settings:normal;opacity:1;vector-effect:none;fill:#000000;fill-opacity:1;stroke:none;stroke-width:0.0529167;stroke-linecap:round;stroke-linejoin:round;stroke-miterlimit:1;stroke-dasharray:none;stroke-dashoffset:0;stroke-opacity:1;-inkscape-stroke:none;stop-color:#000000;stop-opacity:1"
             id="rect53606"
             width="24.638763"
             height="28.944723"
             x="18.870762"
             y="29.462534"
             rx="0"
             ry="0" />
        </g>
        <path
           style="fill:none;stroke:#000000;stroke-width:2;stroke-linecap:butt;stroke-linejoin:miter;stroke-miterlimit:4;stroke-dasharray:none;stroke-opacity:1"
           d="m 43.509525,29.462534 c 10.26954,0.324776 5.213542,12.891702 4.985148,15.632701 -0.560547,6.727248 4.81258,14.36242 8.641351,7.16518 2.327204,-4.374628 1.20526,-18.319418 -0.743796,-25.909606 -1.497279,-5.830837 -2.442732,-6.350307 -8.428841,-10.825058"
           id="path54160"
           sodipodi:nodetypes="csssc" />
        <path
           id="rect54184"
           style="opacity:1;stroke-width:0.2;stroke-linecap:round;stroke-linejoin:round;stop-color:#000000;stop-opacity:1"
           d="m 52.776618,20.474706 1.700429,2.022525 1.908102,2.765358 0.935396,1.917642 c 0,0 0.404395,1.875113 -1.177085,2.025452 l -2.382504,-0.190534 c -1.390915,-0.111236 -1.767059,-1.66107 -1.89366,-3.579734 l -0.226657,-3.435018 z"
           sodipodi:nodetypes="cccccsscc" />
      </g>
    </g>
  </g>
</svg>
