<?xml version="1.0" encoding="UTF-8" standalone="no"?>
<!-- Created with Inkscape (http://www.inkscape.org/) -->

<svg
   xmlns:dc="http://purl.org/dc/elements/1.1/"
   xmlns:cc="http://creativecommons.org/ns#"
   xmlns:rdf="http://www.w3.org/1999/02/22-rdf-syntax-ns#"
   xmlns:svg="http://www.w3.org/2000/svg"
   xmlns="http://www.w3.org/2000/svg"
   xmlns:sodipodi="http://sodipodi.sourceforge.net/DTD/sodipodi-0.dtd"
   xmlns:inkscape="http://www.inkscape.org/namespaces/inkscape"
   width="64px"
   height="64px"
   id="svg3810"
   version="1.1"
   inkscape:version="0.48.3.1 r9886"
   sodipodi:docname="map_galiza.svg"
   inkscape:export-filename="/home/vokimon/Documents/map_galiza.png"
   inkscape:export-xdpi="90"
   inkscape:export-ydpi="90">
  <defs
     id="defs3812" />
  <sodipodi:namedview
     id="base"
     pagecolor="#ffffff"
     bordercolor="#666666"
     borderopacity="1.0"
     inkscape:pageopacity="0.0"
     inkscape:pageshadow="2"
     inkscape:zoom="5.5"
     inkscape:cx="32.154231"
     inkscape:cy="9.8282738"
     inkscape:current-layer="layer1"
     showgrid="true"
     inkscape:document-units="px"
     inkscape:grid-bbox="true"
     inkscape:window-width="1680"
     inkscape:window-height="995"
     inkscape:window-x="-2"
     inkscape:window-y="-3"
     inkscape:window-maximized="1" />
  <metadata
     id="metadata3815">
    <rdf:RDF>
      <cc:Work
         rdf:about="">
        <dc:format>image/svg+xml</dc:format>
        <dc:type
           rdf:resource="http://purl.org/dc/dcmitype/StillImage" />
        <dc:title></dc:title>
      </cc:Work>
    </rdf:RDF>
  </metadata>
  <g
     id="layer1"
     inkscape:label="Layer 1"
     inkscape:groupmode="layer">
    <g
       id="g6643"
       style="fill:#622a21;fill-opacity:1;stroke:none"
       transform="matrix(5.0059853,0,0,5.0059853,-2.4696187,-24.614378)">
      <path
         inkscape:connector-curvature="0"
         d="m 7.0910938,11.063901 -0.035141,-0.03512 -0.035141,0.03512 -0.035141,0 -0.035141,0.03512 -0.035141,0 -0.035141,0.03512 -0.035141,0 0,-0.03512 -0.035141,0 0,-0.03512 0.035141,0 -0.035141,0 -0.035152,-0.0704 -0.035141,0 -0.035141,0 -0.035141,0.03527 -0.035147,0 -0.035145,0 0,0.03512 -0.035146,-0.03512 0,-0.03527 -0.070248,0.03527 -0.035147,0 -0.035146,0 0,-0.03527 -0.035147,0 0,-0.03512 -0.035145,0 -0.035147,0 0,-0.03498 -0.070243,0.07009 -0.035146,0.03527 -0.035146,0 0,-0.03527 -0.035147,0.03527 0.035147,0.03512 0.035146,0.03512 -0.035146,0.03512 -0.070248,0 -0.035145,-0.03512 0,-0.03512 -0.035146,0.03512 -0.035147,0 0.035147,-0.03512 -0.035147,0 -0.035147,0 -0.035146,0.03512 -0.035146,0.03512 0,0.03512 -0.035147,0.03512 -0.035147,-0.03512 -0.035146,-0.03512 0,-0.03512 0.035146,0 -0.035146,-0.03512 -0.035147,0 -0.035145,0 0.035145,-0.03512 -0.035145,-0.03527 -0.035147,0.03527 0,0.03512 -0.035147,-0.0704 0,0.03527 -0.035147,-0.03527 -0.035145,0.03527 0,0.03512 0.035145,0 0.035147,0 0,0.03512 0,0.03512 0,0.03512 0,0.07024 -0.035147,0 0.035147,0.03497 -0.035147,0 -0.070242,0.03512 0,0.03512 0,0.03512 -0.035147,-0.03512 -0.035147,-0.03512 -0.035146,0.03512 -0.035147,-0.03512 -0.035147,0 0,0.03512 0,0.03512 -0.035147,-0.03512 -0.035146,0.03512 0,0.03512 -0.035147,0 0,0.03497 0.035147,0.03512 -0.035147,0 -0.035145,0 -0.035092,0.03512 -0.035147,0.03512 -0.035147,-0.03512 -0.035147,0 -0.035146,0 -0.035092,0.03512 -0.070248,-0.07024 -0.035145,-0.03512 -0.070243,0 -0.035146,0.03512 -0.035147,0 0,-0.03512 -0.035147,0 0,0.03512 -0.035147,0 0,-0.03512 -0.035092,-0.03497 -0.035146,0 0,0.03497 0,0.03512 -0.035147,0 -0.035146,0.03512 -0.035147,0 -0.035147,0 -0.035147,0 -0.035146,0.105371 0,0.03512 -0.035147,0 -0.035147,0 -0.035147,0 0,-0.03512 -0.070242,0 0,-0.03512 -0.035147,0 0,0.03512 -0.070248,0 -0.035147,0 0,0.03512 -0.1404959,0.03512 -0.035147,0 -0.035146,0.03512 0,0.03497 0,0.03512 -0.035147,0 0,0.03512 0,0.03512 -0.035146,0.03498 -0.035147,0.03512 0,-0.03512 0,0.03512 -0.035146,0.03512 0,0.03527 -0.035147,0 -0.035147,0 0,-0.03527 -0.035147,0.03527 -0.035146,0.03512 -0.035147,0 -0.035147,0.03497 -0.035147,0 0,-0.03497 0,0.03497 -0.035146,-0.03497 0,-0.03512 -0.035147,0 0,-0.03527 0.035147,-0.03512 0,-0.03512 -0.035147,0 -0.035146,0 0,-0.07009 -0.035147,-0.03512 0,-0.03512 0,0.03512 0,0.03512 0,-0.03512 0,0.03512 0,0.07009 -0.035147,0 0,0.03512 -0.035147,0.07025 -0.035146,0 0.035146,0.03512 0.035147,0 0.035147,0.03498 0,0.03512 -0.035147,0 -0.035147,0 -0.035146,0 0,0.03512 0,0.03527 0,0.03498 0,0.03512 -0.035092,-0.03512 0,0.03512 0,-0.03512 -0.035147,-0.03498 -0.035145,0 -0.035147,0.03498 0,-0.03498 0.035147,0 0,-0.03527 0,-0.03512 0.035145,0 0,-0.03512 0,-0.03498 -0.070248,-0.03512 -0.035146,0 0.035146,0 -0.035146,0 0,0.03512 0,0.03498 -0.035147,0 -0.035146,0.03512 -0.035147,0.03512 -0.035146,0.03527 0,-0.03527 0,0.03527 -0.035147,0.03498 0.035147,0 -0.035147,0 0.035147,0.03512 0.035146,0.03512 0,0.03512 -0.035146,0 -0.035147,0.03512 0,-0.03512 -0.035146,0.03512 0,-0.03512 -0.035092,0 -0.035147,0.03512 0,0.03497 0,0.03512 -0.035146,0 -0.070248,0 -0.035147,0.03513 0,0.03511 0,-0.03511 0,0.03511 0.035147,0.03498 0,0.03512 -0.035147,0.03513 -0.035147,0.03513 -0.035147,0 -0.035146,0.03511 0.035146,0.07009 -0.035146,-0.03511 0,-0.03497 -0.035147,0 0,0.03497 -0.035092,0 -0.035147,-0.03497 0,0.03497 -0.035147,-0.03497 0,0.03497 0,-0.03497 0,-0.03511 0.035147,0 -0.035147,-0.03513 0.035147,0 0,-0.03513 0.035147,0 0,-0.03513 -0.035147,-0.07009 -0.035147,-0.105371 -0.035147,0 -0.035146,0 -0.035147,0 0,0.03497 -0.035147,0 -0.035146,-0.03497 0,-0.03512 0.035146,0 0.035147,-0.03512 0,-0.03512 -0.035147,0 0.035147,-0.03512 0.035147,0 0.035146,-0.03498 0,-0.03527 0,-0.03512 0,-0.03512 0,0.03512 0.035147,-0.03512 0.035147,0 0.035147,-0.105371 0,-0.03512 0,-0.03512 0,-0.03498 0,-0.03512 0,-0.03512 0.035092,0 0,-0.03512 0.035147,-0.105371 -0.035147,0 0.035147,0 0,-0.03512 0.035146,-0.03512 0.035147,0 0.035147,-0.07009 0,-0.03512 0.035147,0 0.035146,-0.03512 0,-0.03497 0.035147,-0.03512 0.035147,0 0,0.03512 0.035147,0 0.035092,-0.03512 0.035146,-0.03512 0,-0.03512 0.035147,0 0.035146,-0.03512 0,-0.03498 0,-0.03512 0.035147,0 0,-0.03512 0.070243,-0.03512 0.035146,0 0,0.03512 0.035147,0 0.035147,0 0,0.03512 0,-0.07025 -0.035147,0 0.035147,0 0,-0.03512 -0.035147,0 0,-0.03512 0.035147,-0.03512 0,-0.03527 0.035147,0 0.035092,0 0,-0.03512 0,-0.03497 0,0.07009 -0.035092,0 -0.035147,-0.03512 0,-0.03497 -0.035147,0 0.035147,0 -0.035147,0.03497 -0.035147,0.10552 -0.035146,0.03512 -0.035147,0 0,-0.03512 -0.035147,0 0,-0.03512 0,0.03512 -0.035146,0 -0.035147,0.03512 0.035147,0 -0.035147,0.03512 0,0.03512 -0.035147,0 -0.035147,0.03512 0,-0.03512 0,-0.03512 -0.035092,0 0,-0.03512 -0.035147,0.03512 0,0.03512 -0.035147,0 0,0.03512 0,-0.03512 -0.035146,0 -0.035147,0 0,-0.03512 0,0.03512 -0.035147,-0.03512 0,0.03512 0,-0.07025 0,-0.03512 -0.035146,-0.03512 0,0.03512 -0.035147,0 0,0.03512 -0.035147,0 -0.035147,0 0,0.03512 0,-0.03512 -0.035092,0 -0.035147,0.03512 0,-0.03512 -0.035147,0.03512 0.035147,0 0,0.03512 0.035147,0 0,0.03512 0,0.03512 -0.035147,0.03497 -0.035147,0 -0.035146,0 -0.035147,0.03512 0.035147,0.03512 0,0.03512 -0.035147,0 -0.035147,0 0,-0.03512 -0.035147,-0.07024 -0.035146,0 -0.035147,0 0,0.03512 0,-0.03512 0,-0.03497 -0.035147,-0.03512 0,-0.03512 0,-0.03512 -0.035092,-0.07009 -0.035147,0 0,-0.03512 -0.035147,0 0.035147,0 -0.035147,0 0,-0.03527 0.035147,0 0.035147,-0.03512 0,0.03512 0.035092,0 0.035147,-0.03512 0.035147,0 0.035146,-0.03497 0,-0.03512 0,-0.0704 0,-0.03497 -0.035146,-0.03512 -0.035147,0 0,-0.03512 -0.035147,0.03512 0,-0.03512 -0.035092,0 0,-0.03512 0,-0.03512 -0.035147,0 0.035147,-0.03497 -0.035147,0 0,-0.03512 0.035147,-0.03512 -0.035147,0 0.035147,-0.03512 0.035092,-0.03497 -0.035092,0 0,-0.03512 0.035092,0 0.035147,-0.03512 0.035147,0 -0.035147,0 0,-0.03512 -0.035147,0 -0.035092,0 0,-0.03512 -0.035147,0.03512 0,-0.03512 -0.035147,0 0,-0.03497 0,-0.03512 -0.035147,0 0,-0.03512 0,-0.03512 0,-0.03497 -0.035146,-0.03527 0,0.03527 0,-0.03527 -0.035147,-0.07024 0,0.03512 0,0.03512 0,0.03527 0,0.03497 0.035147,0.03512 -0.035147,0.03512 0.035147,0.03512 -0.035147,0 -0.035146,0 -0.035147,0 -0.035147,0 0.035147,-0.07025 -0.035147,0 -0.035147,0 0.035147,-0.03512 -0.035147,-0.03497 -0.035092,0 -0.035146,0.03497 0.035146,0 -0.035146,0.03512 -0.035147,0 -0.070248,0.03512 -0.035146,0.03512 0.035146,0.03498 0,0.03512 -0.035146,0.03512 0,0.07024 -0.035147,0.03497 0,-0.07009 -0.035146,0 0,-0.03512 0.035146,-0.07024 0,-0.03498 -0.035146,-0.03512 -0.035147,0 0,-0.03512 -0.035146,0 0.035146,-0.03512 0,-0.03497 0.035147,0 -0.035147,-0.03527 0.035147,0.03527 0,-0.03527 0.035146,0 0,-0.07025 0.035147,-0.03512 0.035146,-0.070251 0.035147,0 -0.035147,-0.03512 0.035147,-0.03512 0,-0.034972 0,-0.03512 0,-0.03512 0,-0.03512 -0.035147,-0.03512 0,0.03512 -0.035146,0 0,-0.03512 0,-0.1404929 -0.035147,-0.034972 -0.035146,0 0,-0.03512 0,-0.03512 0.035146,-0.03512 0,0.03512 0,0.070251 0.035147,-0.03512 0,0.03512 0.035146,0 0,-0.03512 0.035147,0 0.035147,-0.03512 0.035147,-0.070251 0,-0.034972 0,-0.03512 0,-0.03512 0,-0.03512 0.035146,0 0,0.03512 0.035092,-0.03512 0.035147,0.03512 0.035146,0 0,-0.03512 0,-0.034972 0,-0.03512 0,-0.03512 0.035147,0.03512 0,0.03512 0.035147,0 0.035147,0 0,0.034972 0,0.03512 0.035145,0 0.035147,0 0,-0.070091 -0.035147,0 0.035147,0 0.035146,0 0.035147,0 0,-0.03512 0.035092,-0.070251 0,-0.03512 -0.035092,0 0,-0.034982 0.035092,-0.070401 0,-0.03512 -0.035092,0.03512 0,0.03527 -0.035147,0 0,0.03512 -0.035146,0 0,0.034972 -0.035147,0 0,0.03512 -0.035145,-0.03512 0,-0.034972 0,0.034972 -0.035147,-0.034972 0.035147,0 0,-0.070401 -0.035147,-0.03512 0,-0.034972 0,-0.03512 0.035147,0 -0.035147,0.03512 0.035147,0 0.035145,0 0,-0.03512 0.035147,0 0,-0.03512 0.035146,0 0,-0.070091 0.035147,-0.03512 0,-0.03512 0,0.03512 0.035092,0 0,0.03512 0,-0.03512 0,0.03512 0.035147,0 0.035147,-0.03512 0,-0.03512 0.035146,0 0.035147,0 0,-0.03512 0.035146,0.03512 0.035147,0 0,0.03512 0.035146,0.03512 0.035147,-0.03512 -0.035147,0 0.035147,0 0.035146,0 0,0.070091 0,-0.034972 0.035092,0 0,0.034972 0.035147,0 0,-0.034972 0.035146,0 0.035147,0 0.105366,-0.03512 0,-0.070251 0,-0.03512 0.035147,-0.034972 0,0.034972 0.035147,0 0,-0.034972 0.035146,-0.03512 0.035092,0 -0.035092,-0.03512 0,-0.03512 0.035092,0.03512 0.035147,0.03512 -0.035147,0.03512 0.035147,0 0.035146,0.034972 0,-0.034972 0.035147,0 0,-0.03512 0.035147,0 0.035147,0 0.035146,0 0.035147,0 0,-0.03512 0,0.03512 0.035146,0 0.035147,-0.03512 -0.035147,-0.03512 0,-0.034982 -0.035146,0.034982 0,-0.070102 0,-0.03512 0,-0.03512 -0.035147,0 -0.035146,0 -0.035147,0 0,-0.03512 -0.035147,-0.034971 0,-0.03512 0.070242,-0.03512 0.035147,0 0.035146,-0.03512 0.035147,0 0.035146,0.03512 0.035147,0.03512 0.035092,0 -0.035092,-0.03512 0.035092,-0.03512 0.035146,0 0.035147,0 0,-0.034982 0,-0.03527 0,-0.03512 0,-0.03512 0.035146,0 0.035147,0 0.035146,0 0.035147,0.03512 0.035147,0 0,-0.03512 0.035147,0 0,0.03512 0.035146,-0.03512 0,0.03512 0,-0.03512 0.035147,0.03512 0,-0.03512 0,-0.03527 0,-0.070091 0.035146,0 0,-0.03512 0.035147,0 0,0.03512 0,0.070091 0.035146,0 0.035147,0.03527 0.035146,0 -0.035146,0 0.035146,0.03512 0,0.03512 0.035147,0 0,0.03527 0,-0.03527 0.035147,0.03527 0,0.034982 0.035147,0 0.035146,0 0.035147,0 0.035147,0.03512 0.035146,0.03512 0.070248,0 0.035146,-0.03512 0,0.03512 0.035147,0.03512 0.070248,0 0.1053671,-0.070251 0.070248,0 0.070243,-0.03512 0.070248,-0.034972 0.035147,0 0.035145,0 0,-0.03527 0.035147,0.03527 0.035092,-0.03527 0,0.03527 0.035145,0 0.070248,0 0,0.034972 0.035147,0 0.070243,0 0.1053723,-0.034972 0,-0.03527 0.035092,0 0.035147,0 0,-0.03512 0.035146,-0.03512 0.035147,-0.070091 -0.035147,0 0.035147,0 -0.035147,0 0.035147,-0.03527 0.035146,0 -0.035146,0.03527 0.035146,0 0.035092,0 0,-0.03527 0.035147,0 -0.035147,0 0.035147,0 0.035147,0 0,-0.03512 0,-0.03512 0.035147,0 0.035146,0 0,-0.034972 0.035147,-0.03512 0,0.03512 0.035145,0 0.035147,0 0,0.034972 0.035145,0.03512 0.035147,-0.03512 0,-0.034972 -0.035147,0 0,-0.03512 0.035147,0 -0.035147,0 0.035147,0 0.035146,0 -0.035146,-0.03512 0.070243,0.03512 -0.035146,0.03512 0,0.034972 0.035146,0.03512 0,0.03512 0,-0.03512 -0.035146,0 -0.035147,0 0,0.03512 0.035147,0 0,0.03527 0.035146,0.034972 0,0.03527 0,0.03512 0.035147,0 0.035147,-0.03512 0,0.03512 0.035146,0 0,-0.03512 0.035147,0 0.035147,0 -0.035147,-0.03527 0.035147,0 -0.035147,-0.034972 0.035147,0 -0.035147,0 0.035147,-0.03527 0.035146,-0.03512 -0.035146,0 0.035146,0 0,-0.070092 -0.035146,0 -0.035147,0 0.035147,-0.03512 0.035146,0 -0.035146,-0.03512 0.035146,-0.03512 0.035147,0 -0.035147,0 0.035147,0 0.035147,0 0.035147,0 0.035146,0 0.035145,0.03512 0,-0.03512 0,0.03512 0,0.03512 0,0.03512 0.035146,0 0.035146,0 0.035147,0 0.035146,0 0,0.034972 0,0.03512 0.035146,0.03512 0.035145,0.03527 0,0.034972 -0.035145,0 0.035145,0.070401 0,-0.03512 0.035146,0.03512 0.035147,0.03512 0.035146,0.03527 0.035146,0.034971 0.035145,0 -0.035145,-0.070241 0.035145,0.03527 -0.035145,-0.070251 -0.035146,-0.03512 0.035146,-0.03527 0.035145,0 0,-0.034982 -0.035145,0 0,-0.03527 0,-0.03512 0,-0.03512 -0.035146,-0.034982 0.035146,0 0,-0.03512 0.035145,-0.03512 0,-0.03512 0.035147,0 0.035147,-0.03512 0.035146,0 0.070248,0 0,-0.034971 -0.035147,0 -0.035146,0 0,-0.03512 -0.035146,0 -0.035145,0 0,0.03512 -0.035146,0 -0.035147,-0.03512 -0.070243,-0.03512 -0.035145,0.03512 0.035145,0.03512 -0.035145,0 -0.035146,-0.03512 -0.035145,0 0.035145,0 -0.035145,-0.03512 -0.070248,-0.03512 0,-0.034982 -0.035145,0 0,0.034982 0,-0.034982 -0.035146,0 -0.070248,0 -0.035146,-0.03512 0.035146,0 0.035146,0 0,-0.03512 -0.035146,0 0,-0.03512 0.035146,0 0.070248,0 0.035145,-0.03512 0,0.03512 0.035146,-0.03512 0,0.03512 0.035147,0 0,-0.03512 0.035146,0 0.035146,0 0.035145,0.03512 0,-0.03512 0.035146,0.03512 0.035146,0 0.035147,0 0.035146,0 0.035146,0 0,-0.03512 0,0.03512 0.035145,0 0,-0.03512 0.035146,0 0,-0.034971 0.035147,0 0.035146,-0.03512 0,-0.03512 0.035146,-0.03512 0,-0.034982 -0.035146,0 0.035146,0 0,-0.03512 0.035145,0 -0.035145,0 0.035145,-0.03527 0,-0.03512 -0.035145,0 -0.035146,0 0,0.03512 0,-0.03512 0.035146,0.03512 -0.035146,0.03527 0,0.03512 -0.035146,0 -0.035147,0.034982 -0.035146,0.03512 -0.035145,-0.03512 0,0.03512 0.035145,0 0,0.03512 -0.035145,0 -0.035146,0 0,-0.03512 -0.035146,0 0,0.03512 -0.035147,0 -0.035146,0 0,0.03512 -0.035146,-0.03512 0.035146,0 0,-0.03512 -0.035146,0.03512 -0.035145,0 0,-0.03512 0.035145,-0.03512 0,-0.034982 -0.035145,0 0,0.034982 -0.035146,0 0,0.03512 0,0.03512 -0.035146,0 0,0.03512 -0.070248,0 0,0.034971 -0.035145,0 -0.035147,0 0,-0.034971 -0.035146,0 -0.035146,0 0,-0.03512 -0.035146,0.03512 -0.035145,0 -0.035147,0.034971 -0.035147,-0.034971 0.035147,0 -0.035147,-0.03512 0.035147,0 0,-0.03512 0.035147,0 0.035145,-0.03512 0,-0.034982 0.035146,-0.070401 -0.035146,0 0,-0.03512 -0.035145,0 0.035145,0 0,-0.03512 -0.035145,0 0.035145,-0.070091 0.035146,0 0.035146,0 0.035146,0 0.035147,-0.03527 0,-0.03512 -0.035147,-0.034972 -0.035146,0 0,-0.03512 0,-0.03512 -0.035146,0 0,-0.03512 0,-0.03512 0.035146,0 0.035146,0 0,0.03512 0.035147,0.03512 0.070243,0 0,-0.03512 0,0.03512 0.035147,0.03512 0.070248,-0.03512 0.035147,-0.03512 0.035146,0 0.035145,-0.03512 0.035146,-0.03497 0.035147,-0.03512 0,-0.03512 0.035147,0 0,-0.03512 0.035146,0 0,-0.034971 0.035146,0 0.035146,-0.03512 -0.035146,0 0,-0.03512 0.035146,0 0,0.03512 0,-0.03512 0,-0.03512 0.035147,0 0,0.03512 m 0,-0.0032 0.035147,0.03512 0.070243,-0.03512 0.035152,0 0,-0.03512 0,-0.03512 0.035141,0 0.035141,-0.03497 0.035141,0 0,-0.03512 0.035141,0 0.035141,0 0,-0.03512 0.035141,0.03512 0,-0.03512 0,-0.03512 0.035141,0 0,-0.03512 0,-0.03512 0.035141,0 -0.035141,0.03512 0.035141,0 0,0.03512 0,0.03512 0,0.03512 0.035141,0 0.035141,0 0,-0.03512 0.070251,0 0,-0.070251 -0.035141,0.03512 -0.035141,-0.03512 0,0.03512 -0.035141,-0.03512 0.035141,0 -0.035141,0 0.035141,-0.03512 -0.035141,0 0.035141,0 -0.035141,-0.03512 0.035141,0 0,-0.03512 0,-0.03512 0.035141,0.03512 0,-0.03512 -0.035141,0 0.035141,-0.03512 -0.035141,-0.03512 0.035141,0.03512 0,-0.03512 0,-0.03512 0.035141,0 0,-0.03527 0.035141,0 0.035141,0 0.035141,0 0.035141,0 0.035141,0 0.035141,0.03527 0.035141,0 0.035141,0 0.070091,-0.03527 0,-0.034982 0.070251,0 0.035141,-0.03512 0.035141,-0.03512 -0.035141,-0.03512 0.07024,0 0.035141,0 0.035141,0 0,-0.03526 0.035141,0 -0.035141,-0.034982 0.035141,-0.03512 0.035141,-0.03512 0,-0.03512 0.035141,0.03512 0.035141,0 0.070251,0 0.035141,-0.03512 0.035089,0.07024 -0.035089,0 0,0.03512 0,0.034982 0,0.03526 0,0.03512 -0.035141,0 0,0.03512 0.035141,0.03512 0.035089,0 0,0.034982 0,0.03527 0,0.03512 -0.035089,-0.03512 -0.035141,0 -0.035141,-0.03527 0,-0.034982 0,0.034982 0,0.03527 0.035141,0 0,0.03512 -0.035141,0 0,0.03512 0,0.03512 -0.035141,0 0,0.03512 0.035141,0 -0.035141,0 -0.035141,0 0,0.03512 0.070251,0 0,0.03512 0,0.03512 -0.035141,-0.03512 -0.035141,0 -0.035141,0.03512 -0.035141,0 0.035141,0.03512 0.035141,0 0.035141,0 0.035141,0.03512 0,-0.03512 0.035141,0.03512 0,-0.03512 0.035141,-0.03512 0.035088,0 0,0.03512 0.035141,0 0,-0.03512 0,-0.03512 -0.035141,0 0,-0.03512 -0.035088,0 0,-0.03512 -0.035141,-0.070251 0.070241,-0.03512 0.035141,0.03512 0.035141,0 0.035141,0 -0.035141,0 -0.035141,0 0.035141,0.03512 -0.035141,0 0.035141,0 0,0.03512 0,-0.03512 0.070251,0 -0.035141,0 0.035141,0.03512 -0.035141,0 0.07024,-0.03512 0,0.03512 0,-0.03512 -0.035089,0 0,-0.03512 -0.035141,0 0,-0.03512 0,-0.03512 0.035141,0 0.035089,0 0.035141,0 -0.035141,-0.03526 0,-0.034971 0.035141,0 0,0.034971 0.035141,0 0,-0.034971 0.035141,-0.03512 0.035141,0 0.035089,0 0,-0.03512 0.035141,0 0.035141,0 0.035141,-0.03512 0.035141,0 0.035141,0 0.035141,0 0,-0.03527 0.035141,0 0,-0.070092 0.035141,0 0.070241,-0.03512 0.034971,0 0,-0.1053712 0,0.03512 0.035141,0 0.070241,0.070091 -0.035141,0 0,0.03512 0,-0.03512 -0.035141,0.03512 0,0.03512 -0.070102,0.034982 0.034972,0.03527 -0.034972,0 0.034972,0.03512 -0.034972,0 -0.035141,0.03512 0,0.070092 0,0.03527 0,0.03512 -0.035141,0 0,0.03512 0,0.03512 0,0.03512 0.035141,0 -0.035141,0.03512 0,0.03512 -0.035141,0 -0.035141,-0.03512 0.035141,0.070251 0,0.03512 0.035141,0.03512 0.035141,0.070251 0,0.034972 -0.035141,0.03512 -0.035141,-0.03512 0,0.03512 -0.035141,-0.03512 0,0.03512 0,0.03512 -0.035141,0.03512 0,0.03512 -0.035141,0 -0.035141,0 0.035141,0.03497 0.035141,0.03512 -0.035141,0 0.035141,0.03512 -0.035141,0 0,0.03512 0.035141,0 0,0.070091 0,0.03512 0,0.03512 -0.035141,-0.03512 -0.070251,0 -0.035141,0.03512 0.035141,0 0,0.03512 -0.035141,0.034982 0,0.03512 -0.035141,0 0.035141,0.03526 -0.035141,0 0.035141,0 -0.035141,0 0,0.03512 0.035141,0 0,0.034982 -0.035141,0.03512 0.035141,0 0,0.03512 0,0.03527 0,0.03512 0,0.034971 -0.035141,0 -0.035089,0.03512 0.035089,0.03512 -0.07024,0.070092 0,0.070251 -0.035141,0 0,0.03512 0,0.03512 -0.035141,0.070102 0,0.03512 -0.035141,0 0,-0.03512 -0.070241,0.070251 -0.035141,0.034982 0.035141,0 -0.035141,0 0.035141,0.03512 -0.035141,0.03512 -0.035141,0.1053713 -0.07024,0 -0.035141,0 -0.070251,-0.034971 -0.035141,-0.03512 0,0.03512 -0.035141,-0.03512 -0.07024,0.070091 0,0.03512 -0.035141,0 0,0.03512 0.035141,0 0.035141,0.070092 -0.035141,0.035269 0.035141,0.1055102 -0.035141,0.070091 -0.035141,0.03512 -0.035141,0.03512 -0.035141,0.070092 -0.035141,0.03512 -0.070251,0.03512 -0.035141,0.070091 -0.035141,0 0.035141,0.07024 0.070251,0 0,0.03512 -0.035141,0.1756142 -0.070251,0.1053712 0,0.03512 -0.1053713,0.1404927 0.035141,0.070092 0.035141,0.03512 -0.035141,0.070251 0.035141,0.1404918 0,0.070091 0.035141,0.1055102 0.035141,0.070091 0.035141,0.03512 0,0.03512 -0.035141,0.03497 -0.1053712,0.070241 0.035141,0.03512 0.035141,0.070091 0,0.03512 0,0.070251 0.035141,0.1403465 0,0.07025 0.035141,0.07024 0,0.07009 0,0.140637 -0.070251,0.105372 -0.07024,0.03512 -0.035141,0.03498 0.035141,0.10551 -0.1053712,0.07009 0,0.03526 -0.035141,0.03512 -0.070251,0 0,0.03512 -0.035141,0 0,0.03497 -0.035141,0.03512 0,0.03527 -0.035141,0.03512"
         style="color:#000000;fill:#622a21;fill-opacity:1;stroke:none;stroke-width:0.02;marker:none;visibility:visible;display:inline;overflow:visible;enable-background:accumulate"
         id="path24" />
      <path
         inkscape:connector-curvature="0"
         d="m 3.4384579,14.611462 0.035146,0 0,-0.07009 0.035147,-0.03513 0,0.03513 0.035147,0 0.035146,-0.03513 0,-0.03511 0.035147,0.03511 0,-0.03511 0,0.03511 -0.035147,0 0,0.03513 0,-0.03513 0,0.03513 0.035147,-0.03513 0,0.03513 0,-0.03513 0.035147,0 0,-0.03511 0,-0.03513 0,0.03513 0.035146,-0.03513 0,0.03513 0,-0.03513 0.035147,0 0.035147,0 0.035147,0 0,-0.03497 0,-0.03511 0,-0.03513 0.035146,0 0,0.03513 0.035147,0 0,-0.03513 0,0.03513 0,-0.03513 0.035147,0 0.035146,0 0.035147,-0.07025 0,-0.03497 0.035147,0 0,-0.03513 0.035147,0 0.035146,0 0.035147,0 0.035147,0.03513 0,-0.03513 0.035147,0 0.035146,0.03513 0,-0.03513 -0.035146,0 0,-0.03512 0.035146,0 0,-0.03512 0,-0.03498 -0.035146,-0.03513 0,0.03513 0,-0.03513 0.035146,-0.07024 0.035147,0 -0.035147,-0.03513 0.035147,-0.03497 -0.035147,-0.03511 0.035147,-0.03527 -0.035147,0 -0.035146,0 0,-0.03511 -0.035147,0.03511 -0.035147,0.03527 0,0.03511 0.035147,0 0,0.07009 -0.070248,0 0,0.03512 -0.035146,-0.03512 -0.035147,0.03512 0,0.03527 0.035147,0 0,0.03512 0,0.03497 -0.035147,0.03512 -0.070248,0 0,0.03512 -0.035147,0 -0.035147,0.03512 -0.035145,-0.03512 0,0.03512 -0.035147,0 -0.035146,0 0,-0.07024 0,0.03512 -0.035147,0 -0.035147,0 0,-0.03512 0,0.03512 -0.035147,0.03512 0.035147,0 -0.035147,0.03498 -0.070248,0 0,0.03513 -0.035146,0.03511 -0.035147,-0.03511 -0.070099,0 0.035146,0 -0.035146,0 0,0.03511 0.035146,0 -0.035146,0 0,0.03513 -0.035147,0 0,0.03513 0,-0.03513 -0.035147,0 -0.035147,-0.07024 -0.035146,0 0,0.03511 -0.035147,0.03513 -0.035147,-0.03513 -0.035092,-0.03511 -0.070248,0 0,0.03511 -0.035147,0.03513 0,-0.03513 -0.035146,0 0.035146,-0.105376 0,-0.03512 0.035147,-0.07024 0.035146,-0.07009 -0.035146,-0.03526 0.035146,0 0,-0.03511 0,0.03511 0.035147,0.03526 0,0.03513 0.035092,0.03497 0.035145,0.03511 0,0.03513 0.035147,0.03512 0,-0.03512 0,-0.03513 0,-0.03511 0,-0.03497 0,-0.03513 0.035146,-0.07024 -0.035146,0 0,-0.03513 0,-0.03498 -0.035147,0 0.035147,-0.03511 -0.035147,0 0,-0.03527 -0.035145,0 0.035145,-0.03512 0.035147,0 0,0.03512 0.035146,0 0.035147,0 0.035145,0 0,0.03527 0.035147,0.03511 0.035147,0 0.035147,0 0.035146,-0.03511 0.035092,0 0,-0.03527 0.035147,0 0,-0.03512 0.035146,-0.03497 0,-0.03511 0,-0.03513 0.035147,0 0.035147,-0.07024 0,0.03513 0,-0.03513 0.035092,-0.03497 0.035146,0 0,-0.03511 0.070248,-0.03513 0.035147,0.03513 0,-0.03513 0.035092,0 -0.035092,-0.03512 0,0.03512 0,-0.03512 0.035092,0 0,-0.03498 0.035147,0.03498 0.070248,-0.105377 0.035147,0 0.035146,-0.03512 -0.035146,0 0,0.03512 0,-0.03512 0,0.03512 -0.035147,0 -0.035146,0 -0.035147,0 -0.035146,0 0.035146,-0.03512 -0.035146,-0.03497 0,-0.03513 -0.035092,0.03513 -0.035147,0 0,0.03497 -0.035146,0.03512 -0.035147,0 -0.070243,0.03513 -0.035147,0 -0.035146,0.07009 -0.035147,0 0,0.03511 -0.035147,0 -0.035092,0.03513 -0.035147,-0.03513 -0.035147,-0.03511 -0.035147,0 -0.035146,0 -0.035147,-0.03498 0,0.03498 -0.035146,0 0,0.03511 -0.035147,0.03513 0,-0.03513 -0.035146,0.03513 -0.035147,0 0.035147,-0.03513 -0.035147,0 0,-0.03511 -0.035092,0 0,-0.03498 -0.035146,-0.07024 -0.035147,0 -0.035146,0 0,-0.03512 0,-0.03497 0.035146,0 0,-0.03513 -0.035146,0 0.035146,0 0,-0.03512 0,-0.07025 -0.035146,-0.03512 0,-0.03513 -0.035147,0 -0.035146,0 -0.035147,-0.03513 -0.035146,0 0,0.03513 -0.035147,0.03513 -0.035147,0 0,-0.03513 0,0.03513 -0.035092,-0.07024 0.035092,-0.03527 0,-0.03497 -0.035092,0 0.035092,-0.03527 0.035147,0 0.035147,0.03527 0,-0.03527 0,0.03527 0.035146,0 0.070242,-0.03527 0,-0.03513 0.035146,0.03513 0,-0.03513 0.035147,0 -0.035147,-0.03511 0,0.03511 0,-0.03511 0.035147,-0.03527 0,0.03527 0.035147,-0.03527 0,0.03527 0.035147,-0.03527 0,0.03527 0.035092,0.03511 -0.035092,0.03513 0.035092,0.03527 -0.035092,0.03497 0.035092,0 -0.035092,0 -0.035147,0.03527 0,0.03513 -0.035147,0 0.035147,0.07009 0.035147,0 0.035092,-0.03512 0,-0.03512 0,0.03512 0.035146,0 -0.035146,-0.03512 0.035146,0 0,0.03512 0.035147,0 0,-0.03512 0,0.03512 0.035146,-0.03512 0,0.03512 0.035147,0.03512 0,-0.03512 0,-0.03512 0,-0.03511 -0.035147,0 0,-0.03527 0,-0.03498 0,-0.03527 0.035147,0 -0.035147,-0.03513 0.035147,-0.03511 0,0.03511 0.035147,0 0.035147,0 0,-0.03511 0.035146,0 -0.035146,0 -0.035147,0 0,-0.03527 0,-0.03497 -0.035147,0.03497 0,-0.03497 0.035147,0 0,-0.03512 0,-0.03513 0.035147,0 -0.035147,0 0.035147,-0.03511 -0.035147,0 -0.035147,0.03511 0,0.03513 0,-0.03513 0,-0.0701 0,-0.03511 0,-0.03513 -0.035147,-0.03511 0,-0.03513 0,-0.03497 0.035147,0 0.035147,0.03497 -0.035147,0.03513 0.035147,0 0,-0.03513 0,-0.03497 -0.035147,0.03497 0,-0.03497 0,-0.03512 0,-0.03513 0.035147,0 0,-0.03513 0,0.03513 0.070248,0 0.035147,-0.03513 0.035147,0.03513 -0.035147,-0.03513 0.035147,-0.03498 0,0.03498 0,-0.03498 0.035092,0 0,-0.03512 0,-0.03512 0,0.03512 0.035146,0 0.035147,0 0,-0.03512 0,0.03512 0,-0.03512 0,-0.03512 -0.035147,-0.03512 0.035147,-0.03497 0,-0.03527 0.035147,0 0,-0.03512 0.035146,-0.03512 0,-0.03497 0.035092,0 0.035147,-0.03512 0.035147,-0.07025 0.035146,-0.03512 0.035147,-0.0701 -0.035147,0 0,-0.03512 0.035147,0 0,-0.03512 0,-0.03497 0.035092,-0.03512 0.035146,0 0.140496,-0.03512 0,-0.03512 0.035147,0 0.070248,0 0,-0.03512 0.035147,0 0,0.03512 0.070242,0 0,0.03512 0.035146,0 0.035147,0 0.035146,0 0,-0.03512 0.035147,-0.105371 0.035147,0 0.035147,0 0.035146,0 0.035147,-0.03512 0.035146,0 0,-0.03512 0,-0.03497 0.035147,0 0.035147,0.03497 0,0.03512 0.035147,0 0,-0.03512 0.035146,0 0,0.03512 0.035147,0 0.035147,-0.03512 0.070248,0 0.035147,0.03512 0.070243,0.07024 0.035147,-0.03512 0.035146,0 0.035147,0 0.035145,0.03512 0.035147,-0.03512 0.035147,-0.03512 0.035147,0 0.035145,0 -0.035145,-0.03512 0,-0.03497 0.035145,0 0,-0.03512 0.035147,-0.03512 0.035147,0.03512 0,-0.03512 0,-0.03512 0.035147,0 0.035146,0.03512 0.035147,-0.03512 0.035147,0.03512 0.035146,0.03512 0,-0.03512 0,-0.03512 0.070243,-0.03512 0.035146,0 -0.035146,-0.03498 0.035146,0 0,-0.07024 0,-0.03512 0,-0.03512 0,-0.03512 -0.035146,0 -0.035147,0 0,-0.03512 0.035147,-0.03527 0.035146,0.03527 0,-0.03527 0.035147,0.0704 0,-0.03512 0.035145,-0.03527 0.035147,0.03527 -0.035147,0.03512 0.035147,0 0.035146,0 0.035147,0.03512 -0.035147,0 0,0.03512 0.035147,0.03512 0.035147,0.03512 0.035147,-0.03512 0,-0.03512 0.035146,-0.03512 0.035147,-0.03512 0.035146,0 0.035147,0 -0.035147,0.03512 0.035147,0 0.035146,-0.03512 0,0.03512 0.035147,0.03512 0.070248,0 0.035146,-0.03512 -0.035146,-0.03512 -0.035146,-0.03512 0.035146,-0.03527 0,0.03527 0.035146,0 0.035145,-0.03527 0.070243,-0.07009 0,0.03497 0.035146,0 0.035146,0 0,0.03512 0.035147,0 0,0.03527 0.035147,0 0.035146,0 0.070248,-0.03527 0,0.03527 0.035147,0.03512 0,-0.03512 0.035145,0 0.035146,0 0.035141,-0.03527 0.035141,0 0.035141,0 0.035141,0.0704 0.035141,0 -0.035141,0 0,0.03512 0.035141,0 0,0.03512 0.035141,0 0.035141,-0.03512 0.035141,0 0.035141,-0.03512 0.035141,0 0.035141,-0.03512 0.035141,0.03512 0.035141,0 0.035141,0.03512 0.035089,-0.03512 0.035141,0 0.035141,0.03512 0.035141,0 -0.070251,0.07025 -0.035141,0.07024 -0.035088,0.03497 0,0.140638 0,0.03497 0.07024,0.07024 0.035141,0.105371 0.035141,0 0,0.03512 0.035141,0.03512 0.070241,0.03512 0.070251,0.03497 0.1404908,0.07024 0.035141,0 -0.035141,0.03512 0.035141,0.07009 -0.035141,0.03512 -0.035141,0 0,0.03527 -0.035141,0.03512 -0.035089,0.03497 0,0.03512 0,0.07025 -0.035141,0.140492 0,0.03512 0,0.07009 -0.035141,0 0,0.03513 -0.035141,0.03513 0,0.03497 0,0.03512 -0.035141,0.07024 -0.070241,0.03511 -0.070251,0 0,0.03498 -0.07024,0 -0.035141,0 -0.070251,-0.03498 -0.035141,0 -0.035141,0.03498 0,0.03513 -0.035141,0.03511 0,0.07009 -0.035141,0 -0.035141,0 -0.035141,-0.03497 -0.035141,-0.03513 -0.035152,0 -0.035141,0.03513 -0.035141,-0.03513 -0.035141,0 -0.070243,-0.03511 -0.035146,0.03511 -0.070248,-0.03511 -0.070243,0 -0.035146,0 -0.035146,0.03511 -0.070248,-0.07024 0,-0.03498 -0.035145,-0.03511 -0.035146,0.03511 -0.035147,0 0,0.03498 -0.070248,0.03513 -0.070243,0.105229 -0.035146,-0.03498 -0.035147,0 -0.035146,0 -0.035146,0.03498 -0.070248,0.03527 0,0.03512 -0.035146,0 0,0.03513 0,0.03527 -0.070243,0 0,0.03497 -0.035147,0.03527 -0.035145,0.03513 -0.035147,-0.03513 -0.070243,0 -0.035147,0 -0.035146,0 0,0.03513 -0.035147,0.03511 -0.070248,-0.03511 0.070248,0.105377 0.035147,0 0,0.07024 0,0.03513 0,0.07009 0,0.03513 0.035146,0.07009 0.035147,0.246006 0,0.03513 -0.035147,0.03497 0.035147,0.07024 -0.035147,0.03512 0,0.03497 0.035147,0 0.035145,0.03511 0,0.03513 0.070248,0.03527 0,0.03513 0,0.03497 0.035147,0 0.035146,0 0.035147,0 0,0.07025 -0.035147,0.03513 0,0.07009 -0.035146,0.03512 0.035146,0.07025 0,0.03498 0,0.07024 0.035147,0 0.035145,0.03511 0.035147,0 0,0.03497 0.035146,0.03513 0.035147,0 0.070243,0 0.035145,-0.03513 0.070248,0 0.070243,0 0.035145,0 -0.035145,0.03513 0,0.03512 0.035145,0.03513 -0.035145,0.03511 -0.035147,0 -0.035145,0.03498 -0.035146,0 0,0.03511 0.035146,0 0.035145,0.03513 0,0.03512 0,0.07009 0.035147,0.03513 0,0.03513 -0.035147,0 -0.035145,0.03526 0,0.03497 -0.1053723,0.03513 0,0.03513 -0.035147,0.03511 -0.035147,0.03513 -0.035146,0 -0.035147,0 -0.035147,-0.03513 -0.070243,0.03513 0,0.03511 0,0.03513 -0.035147,0 -0.035147,0 -0.070248,0.03513 -0.035147,0 0,0.03511 -0.035147,0 -0.070099,0.03498 0,-0.03498 -0.035145,0.03498 0,0.07025 -0.035147,0.03513 -0.035147,-0.03513 -0.070242,0 -0.070248,0 -0.035147,0.07009 -0.035147,0 -0.035146,-0.03498 -0.035092,0 -0.070248,0.03498 -0.035145,0 -0.070243,-0.07009 -0.035147,0 -0.1053723,0 -0.035092,0 -0.070248,0 -0.1404906,0 0,0.03513 0.035147,0.03498 -0.1053723,0.07024 -0.035147,0 -0.035092,0 -0.070248,0 -0.070248,0 -0.1756144,0 -0.035092,0.03513 -0.035147,0.03511 -0.035146,0.03497 -0.035147,0.03513 0,0.03511 0,0.105219 -0.1053671,0.07039 -0.035146,0 -0.035147,0.03512 -0.070248,0 -0.070243,0.03497 -0.070248,0.07025 -0.035147,0.03513 0.035147,0.03497 -0.035147,0.03513 -0.035146,0.03511 -0.070248,0.07025 -0.070099,0.03497 -0.1756144,0.07024 -0.035146,0.03513 -0.035147,0.03498 0,0.03511 -0.035147,0.03513 -0.070243,0.03511 -0.035147,0 -0.035147,-0.07024 0,-0.03511 0,-0.03498 0.035147,0 -0.035147,-0.03513 0.035147,0 -0.035147,0 0.035147,-0.03513 -0.035147,-0.03512 0,-0.03497 0,-0.07025 0,-0.03512 0,-0.03512 0,-0.07009 0,-0.03526 0,-0.03513 0,-0.07009 0,-0.0704 0.035147,0 0,-0.03511 0.035147,-0.03497 -0.035147,0 0,-0.03513 0,-0.03511 -0.035147,0 0.035147,0 0,-0.03513 0,-0.03498 -0.035147,0 0.035147,-0.03513 0.035147,-0.03512 -0.035147,-0.03512 0,-0.03512 0,-0.07009 -0.035147,-0.03513 0,-0.03513 0,-0.03498 0.035147,-0.03511 0,-0.105521 -0.035147,0 0,-0.03513 0,-0.03511 0.070248,0 0,0.03511 0.035147,-0.03511 0.035146,0 0.035147,-0.03513 0.035147,0 0,-0.03512 0.035147,0 0,0.03512 0.035146,0.03513 0,0.03511 0.035092,0 0.035147,-0.03511 -0.035147,-0.03513 0.035147,0 0,-0.03512 0.035146,-0.03497 -0.035146,-0.03527 -0.035147,-0.03513 -0.035092,0 -0.035146,-0.03513 0,-0.03527 0.035146,0 0.035092,0.03527 0.035147,-0.03527 0.035146,-0.03497 0.035147,-0.07024 -0.035147,-0.07009 0.035147,0 0.035147,0 0,-0.03511 0.035146,0.03511 0,-0.03511 0.035147,0 0.035147,-0.03513 0,-0.03498 -4.373e-4,0 z m -0.1404905,-0.421474 0.035092,0 -0.035092,0 0,0 z"
         style="color:#000000;fill:#622a21;fill-opacity:1;stroke:none;stroke-width:0.02;marker:none;visibility:visible;display:inline;overflow:visible;enable-background:accumulate"
         id="path58" />
      <polygon
         transform="matrix(0.1463455,0,0,0.1463455,-23.200961,-0.7883287)"
         points="236.269,111.709 236.029,111.709 235.79,111.709 235.79,111.95 235.79,112.19 235.549,112.19 235.79,112.19 235.79,112.43 235.549,112.43 235.549,112.669 235.309,112.669 235.309,112.91 235.309,113.15 235.309,113.39 235.069,113.39 234.83,113.39 234.349,113.629 234.349,113.869 234.349,114.11 234.589,114.35 234.83,114.59 235.309,114.59 236.029,114.59 236.029,115.31 236.269,115.55 236.509,115.79 236.269,115.79 236.029,116.27 235.79,116.51 235.79,116.75 235.549,116.99 235.549,117.23 235.309,117.23 235.309,117.47 235.549,117.95 235.309,118.19 235.069,118.19 234.83,118.67 234.589,118.67 233.87,118.67 233.87,118.43 233.629,118.43 233.629,118.67 233.389,118.67 233.149,118.67 232.669,118.67 232.669,118.19 232.429,117.71 231.709,117.23 231.469,117.23 231.229,116.99 230.99,116.99 230.509,116.99 230.509,117.47 230.269,117.47 229.79,117.23 229.549,117.71 229.549,117.95 229.549,118.19 229.549,118.43 229.309,118.67 229.549,118.67 229.309,118.911 229.549,118.911 229.549,119.15 229.79,119.63 229.549,119.63 229.79,119.871 229.549,120.11 229.549,120.35 229.309,120.35 229.309,120.59 229.07,121.31 228.83,121.31 228.589,121.31 228.349,121.55 227.87,121.79 227.629,121.79 227.15,121.79 226.669,122.031 226.429,122.27 225.709,122.27 225.469,122.51 225.23,122.75 225.23,122.51 224.75,122.51 224.509,122.51 224.03,122.75 223.79,122.27 223.07,122.51 223.07,122.75 222.83,122.99 222.83,123.231 222.589,123.231 222.589,123.47 222.349,123.71 222.11,123.71 221.87,123.951 221.87,123.71 222.11,123.47 221.87,123.231 222.11,122.99 221.87,122.99 221.389,122.51 221.389,122.27 221.389,122.031 221.389,121.79 221.15,121.55 220.91,121.55 220.669,121.55 220.19,121.55 220.19,121.31 219.709,121.31 219.469,121.31 219.469,121.55 219.469,121.79 219.709,122.031 219.23,122.27 218.509,122.51 218.27,122.51 218.27,122.75 218.03,122.51 217.55,122.75 216.83,122.51 216.35,122.75 216.35,122.51 216.35,122.031 216.59,122.031 216.59,121.79 216.83,121.55 216.83,121.31 216.83,121.071 217.07,121.071 217.31,120.831 217.31,120.59 217.07,120.831 217.07,120.59 216.59,120.831 216.35,120.59 216.11,120.59 215.87,120.59 215.15,120.59 214.91,120.35 214.67,120.11 214.43,120.11 214.19,119.63 213.95,119.39 213.71,119.39 212.75,119.871 212.51,119.871 212.27,119.871 212.27,119.63 212.03,119.63 211.55,120.11 211.07,120.11 210.83,120.35 210.59,120.35 209.87,120.35 209.39,120.35 209.39,120.831 209.15,121.071 208.91,121.071 208.67,121.071 208.67,121.31 208.43,121.55 208.19,121.31 207.95,121.071 208.19,120.831 208.19,120.11 208.19,119.15 208.43,118.67 208.43,118.43 208.19,118.43 207.71,118.19 207.71,118.43 207.47,119.15 207.23,120.11 206.99,120.11 206.75,120.35 206.51,120.35 206.27,120.59 206.03,120.35 205.55,120.35 205.31,120.35 205.07,120.59 205.07,120.831 204.83,120.831 204.83,121.071 204.59,121.31 204.35,121.79 204.11,122.031 203.63,122.031 203.39,122.031 203.39,122.27 203.15,122.27 202.91,122.27 202.91,122.51 202.67,122.51 202.43,122.51 202.19,122.51 201.95,122.75 201.95,122.51 201.71,122.75 201.47,122.75 201.47,122.51 201.23,122.51 200.99,122.51 200.75,122.75 200.03,122.27 199.55,122.27 199.79,120.59 199.79,120.35 199.55,119.871 199.31,119.871 199.07,119.871 198.59,119.871 198.59,119.63 198.83,119.63 198.59,119.63 198.83,119.39 198.59,119.15 198.35,118.911 198.35,118.67 198.35,118.19 198.59,117.95 198.83,117.23 199.55,116.75 199.55,116.51 199.79,116.27 200.03,115.79 200.03,115.55 200.75,115.31 201.23,114.83 201.23,114.59 201.47,114.83 201.71,114.59 201.95,114.59 202.19,114.59 202.43,114.35 202.67,113.869 202.67,113.15 202.43,112.91 202.19,112.19 201.95,111.95 201.71,111.709 201.47,111.709 200.99,111.95 200.75,111.709 200.51,111.709 200.03,112.19 199.79,112.19 199.55,111.709 199.55,111.23 199.55,110.99 199.55,109.549 199.55,109.309 199.55,109.069 199.79,109.069 199.55,109.069 199.31,108.589 200.03,108.349 200.03,108.11 200.27,107.869 200.51,107.869 200.51,107.629 200.27,107.389 200.27,106.91 200.27,106.669 200.03,106.429 199.79,106.429 199.79,106.189 200.03,106.189 200.27,105.95 200.51,105.95 200.75,105.709 200.51,105.469 200.51,105.229 200.75,104.989 200.51,104.989 200.03,104.989 199.55,104.989 199.31,105.229 198.83,105.229 198.59,105.229 198.35,104.989 198.35,104.75 198.11,104.75 197.87,104.509 197.63,104.509 197.63,104.029 197.63,103.79 197.39,103.309 197.63,103.069 197.63,102.589 197.87,102.349 197.87,101.869 197.63,101.869 197.39,101.869 197.15,101.869 197.15,101.629 197.15,101.389 196.67,101.148 196.67,100.909 196.43,100.668 196.19,100.668 196.19,100.429 196.43,100.189 196.19,99.708 196.43,99.469 196.43,99.229 196.19,97.548 195.95,97.069 195.95,96.829 195.95,96.349 195.95,96.109 195.95,95.628 195.71,95.628 195.23,94.909 195.71,95.148 195.95,94.909 195.95,94.668 196.19,94.668 196.43,94.668 196.91,94.668 197.15,94.909 197.39,94.668 197.63,94.428 197.63,94.189 198.11,94.189 198.11,93.948 198.11,93.708 198.35,93.708 198.35,93.468 198.83,93.228 199.07,92.989 199.31,92.989 199.55,92.989 199.79,93.228 200.27,92.508 200.75,92.268 200.75,92.029 200.99,92.029 201.23,91.789 201.47,92.029 201.47,92.268 201.95,92.749 202.19,92.508 202.43,92.508 202.91,92.508 203.39,92.749 203.63,92.508 204.11,92.749 204.35,92.749 204.59,92.989 204.83,92.749 205.07,92.749 205.31,92.989 205.55,93.228 205.79,93.228 206.03,93.228 206.03,92.749 206.27,92.508 206.27,92.268 206.51,92.029 206.75,92.029 207.23,92.268 207.47,92.268 207.95,92.268 207.95,92.029 208.43,92.029 208.67,92.029 208.91,92.508 208.91,92.749 209.63,93.228 209.63,93.708 209.39,93.468 209.15,93.708 209.39,93.948 209.15,93.948 208.91,93.948 208.43,94.189 209.15,94.189 209.15,94.668 208.91,94.668 209.39,94.909 209.63,94.668 209.87,94.668 209.87,94.909 209.87,95.148 210.35,95.148 210.83,95.388 210.83,95.628 211.31,95.628 211.55,95.628 211.79,95.869 212.03,96.109 212.27,96.109 212.51,95.869 212.75,95.628 212.99,95.628 213.23,95.628 213.23,95.869 213.47,95.869 213.71,96.109 213.71,96.349 213.47,96.349 213.23,96.349 212.99,96.349 212.75,96.588 212.51,96.349 212.51,96.588 212.51,96.829 212.51,96.588 212.75,96.588 212.75,96.829 213.23,97.069 213.23,97.309 213.47,97.309 213.95,97.069 214.19,97.309 214.67,97.309 214.91,97.789 214.91,98.269 215.15,98.508 215.63,98.749 215.87,98.749 216.11,98.749 216.35,98.989 216.59,98.989 216.83,99.229 217.07,99.469 217.07,99.948 217.31,99.948 217.31,100.189 217.79,100.189 218.03,99.708 218.75,99.469 218.99,99.708 219.469,100.189 219.709,100.429 219.95,100.429 220.91,100.189 221.629,99.948 221.87,99.708 222.11,99.708 222.589,99.708 222.83,99.229 223.309,99.229 223.549,98.989 224.03,98.749 224.03,98.508 224.27,98.749 224.509,98.749 224.99,99.229 225.23,98.989 225.469,98.989 225.709,98.989 225.469,98.989 225.709,98.989 225.95,98.989 226.19,98.989 226.429,98.989 226.91,98.989 227.15,99.229 227.15,99.469 227.629,99.708 227.87,99.708 228.11,99.948 228.11,100.189 228.349,100.189 228.349,100.429 228.589,100.668 228.83,100.668 229.309,100.909 229.07,101.148 229.07,101.389 228.83,101.869 229.309,102.829 229.79,103.309 229.79,103.069 230.03,102.589 230.03,102.349 230.03,101.869 230.509,101.629 230.269,101.389 230.509,101.389 230.75,101.148 230.99,100.668 230.99,100.429 230.99,100.189 230.99,99.948 231.229,99.948 231.469,99.469 231.469,99.229 231.469,98.989 231.95,98.749 232.189,98.749 232.189,98.508 232.429,98.508 232.429,98.269 232.669,98.029 233.149,98.029 233.149,97.789 233.389,97.548 233.389,97.069 233.629,96.829 233.87,96.588 233.87,96.109 234.349,96.109 234.589,96.109 234.83,96.109 235.069,96.349 235.309,96.588 235.549,96.588 236.029,96.349 236.029,96.588 236.269,96.588 236.75,96.829 236.989,96.829 237.229,96.109 237.229,95.869 238.189,95.869 238.429,95.869 238.669,96.349 238.91,96.349 239.149,96.588 239.87,96.829 240.349,97.309 240.589,97.309 240.83,97.309 241.069,97.069 241.309,97.069 241.309,97.309 241.549,97.548 241.549,97.789 241.79,98.029 241.79,98.508 241.309,98.749 241.309,99.229 241.309,99.469 241.549,99.708 241.309,99.708 241.309,99.948 241.069,100.189 241.069,100.429 240.83,100.429 240.589,100.668 240.83,100.909 241.309,101.148 241.309,101.389 241.549,101.389 241.79,101.389 241.79,101.629 242.029,101.629 242.269,101.629 242.75,101.869 242.75,102.109 242.75,102.349 243.229,102.349 243.469,102.349 243.709,102.589 243.709,103.069 243.709,103.309 243.469,103.79 243.709,104.029 243.709,104.269 243.469,104.029 243.709,104.269 243.709,104.509 243.469,104.75 243.469,104.989 243.229,105.469 242.989,105.709 242.75,106.189 242.75,106.669 242.509,106.669 242.509,106.91 242.269,106.669 242.029,106.91 242.029,106.91 242.029,106.669 241.79,106.91 241.79,107.148 241.549,107.389 241.549,107.629 241.79,107.869 241.79,108.349 242.029,108.349 241.79,108.589 241.549,108.11 241.069,108.11 240.589,107.869 240.349,107.869 239.87,107.869 239.629,107.869 239.389,107.869 238.91,108.349 238.669,108.589 238.91,108.83 238.429,109.309 238.189,109.309 237.469,109.79 237.229,109.79 237.229,110.03 236.989,110.99 236.989,111.23 236.75,111.709 236.509,111.709 "
         style="color:#000000;fill:#622a21;fill-opacity:1;stroke:none;stroke-width:0.1366629;marker:none;visibility:visible;display:inline;overflow:visible;enable-background:accumulate"
         id="polygon88" />
      <polygon
         transform="matrix(0.1463455,0,0,0.1463455,-23.200961,-0.7883287)"
         points="220.429,48.105 220.669,48.345 220.91,48.345 220.91,48.105 220.91,48.585 220.91,48.826 220.91,48.585 220.91,48.105 220.91,47.865 221.15,47.865 221.15,47.625 221.389,47.625 221.629,47.385 221.389,47.385 221.389,47.145 221.389,46.905 221.389,46.665 221.629,46.665 222.11,46.665 222.349,46.665 222.349,46.425 222.349,46.185 222.349,45.944 222.589,45.944 222.83,46.185 223.07,45.706 223.309,46.185 223.309,46.425 223.549,46.425 223.549,46.185 223.79,46.425 224.03,46.185 224.27,46.425 224.75,46.425 224.75,46.665 224.509,46.665 224.75,46.665 224.509,46.665 224.27,46.905 224.509,47.145 224.75,47.145 224.75,47.385 224.99,47.385 225.23,47.385 225.469,47.385 225.469,47.625 225.23,47.625 225.469,47.625 225.469,47.385 225.709,47.385 225.469,47.625 225.709,47.625 225.95,47.625 225.95,47.865 226.19,47.865 226.429,47.865 226.429,48.105 226.669,48.105 226.429,48.105 226.669,48.105 226.91,48.345 227.389,48.585 227.389,48.345 227.629,48.585 227.87,48.585 227.87,49.065 228.11,49.305 227.87,49.065 227.87,49.305 228.11,49.545 228.11,49.786 228.349,49.786 228.349,50.026 228.589,50.026 228.589,50.265 228.349,50.265 228.589,50.505 228.589,50.265 228.589,50.505 228.83,50.505 228.83,50.746 229.07,50.986 229.309,51.465 229.549,51.706 229.549,51.946 229.79,51.946 230.03,52.186 230.269,52.186 230.269,52.425 230.75,52.665 230.99,52.665 230.75,52.906 230.99,52.906 230.509,53.146 230.509,53.385 230.269,53.385 230.269,53.146 230.509,53.385 230.75,53.385 230.75,53.625 230.509,53.625 230.509,53.865 230.99,53.625 230.99,53.385 230.99,53.146 231.229,53.146 231.229,52.906 231.709,53.146 231.95,53.385 232.189,53.385 232.429,53.385 232.669,53.385 232.91,53.385 232.91,53.625 233.149,53.625 233.389,53.625 233.389,53.865 234.349,53.625 234.589,53.865 234.589,53.625 234.83,53.625 234.589,53.625 234.83,53.385 235.069,53.625 235.309,53.625 235.549,53.865 235.549,53.625 235.79,53.625 236.029,53.865 236.269,53.865 236.269,53.625 236.509,53.865 236.269,53.625 236.509,53.625 236.509,53.865 236.75,53.865 236.75,54.106 236.75,53.865 236.989,53.865 237.229,54.106 236.989,54.106 236.989,54.346 237.229,54.346 237.229,54.585 236.989,55.066 236.75,55.545 236.509,56.026 236.75,56.266 236.509,56.506 236.509,56.986 236.269,57.226 236.029,57.226 235.79,57.466 235.549,57.466 235.309,57.946 235.309,58.186 235.309,58.426 235.309,58.186 235.069,58.426 235.069,58.667 234.83,58.667 234.83,58.906 234.589,58.906 234.349,58.906 234.109,59.146 234.109,58.906 233.629,58.667 233.389,58.906 233.149,58.667 232.91,58.667 232.669,58.906 232.91,59.146 232.669,59.386 232.91,59.626 232.91,59.865 232.669,59.626 232.669,59.865 232.429,60.106 232.429,60.346 232.669,60.346 232.669,60.586 232.91,60.827 233.149,61.066 233.389,60.827 233.629,60.586 233.87,60.586 233.87,60.827 234.109,61.066 233.87,61.546 233.87,61.787 233.87,62.026 233.87,62.266 233.87,62.747 234.109,62.747 234.349,62.987 234.349,63.466 234.589,63.466 234.589,63.947 234.83,63.947 235.069,64.186 235.309,64.186 235.549,63.947 235.79,63.947 235.79,64.186 235.79,64.667 235.549,64.907 235.549,65.147 235.549,65.386 235.549,66.107 235.79,66.346 236.029,66.586 236.029,66.827 236.269,67.067 236.509,67.067 236.989,67.787 236.989,67.546 236.989,67.306 237.229,67.306 237.469,68.027 237.709,68.027 237.95,68.267 238.429,68.027 238.429,68.506 238.429,68.747 238.189,69.227 237.95,69.707 238.189,70.427 238.429,70.427 238.669,70.667 238.669,70.907 239.149,71.147 239.149,70.907 239.389,70.667 239.629,70.667 239.87,70.427 240.109,70.427 240.349,70.187 240.589,70.187 240.83,70.187 240.83,69.947 240.83,69.707 241.069,69.466 241.069,68.987 241.309,68.987 241.309,68.747 241.309,69.227 241.549,69.227 241.79,69.707 242.029,69.707 242.269,69.947 242.269,70.187 242.509,70.427 242.509,70.667 242.75,70.907 242.509,70.907 242.509,71.147 242.509,71.387 242.509,71.626 242.029,71.867 241.79,72.107 241.549,72.107 241.549,72.347 241.309,72.347 241.069,72.827 240.589,72.827 240.349,72.827 240.109,73.067 239.87,73.307 239.629,73.547 239.389,73.067 239.149,73.067 239.149,72.827 238.91,73.067 238.91,73.307 238.669,73.307 238.669,73.787 238.429,73.547 238.429,73.787 238.429,74.027 238.189,74.027 238.189,74.267 238.189,74.507 238.189,74.987 237.95,74.987 237.95,75.227 237.95,74.987 237.709,74.748 237.469,75.227 237.229,75.227 237.229,75.467 237.469,75.708 237.469,76.187 237.709,76.187 237.709,76.427 237.95,76.427 237.95,76.667 238.189,76.908 238.189,76.667 238.429,76.667 238.189,76.427 238.189,76.187 238.189,75.947 238.189,75.708 238.189,75.467 238.189,75.227 238.429,75.227 238.429,74.987 238.669,75.227 238.91,75.947 239.149,76.187 239.389,76.427 239.629,76.908 240.109,76.908 240.589,76.908 240.83,76.908 241.069,77.147 241.069,77.387 241.79,78.347 241.79,79.068 241.549,79.547 241.79,80.028 242.029,80.028 241.309,80.028 241.549,80.267 241.79,80.748 242.029,80.988 242.029,81.467 242.269,81.948 241.79,81.708 241.79,81.467 241.549,81.467 241.79,81.467 240.589,81.708 241.069,82.667 241.069,83.148 241.309,83.388 241.549,83.388 241.309,83.627 241.549,83.627 241.069,83.868 241.069,84.108 240.83,84.348 240.589,84.587 240.83,84.828 240.589,85.068 240.349,85.308 240.109,85.548 239.87,85.548 239.629,85.788 239.629,86.028 239.389,86.268 238.429,86.988 238.189,86.988 237.95,86.268 237.709,86.268 237.469,86.508 237.709,86.748 237.469,86.988 237.469,87.228 237.469,87.468 236.989,87.708 236.75,87.468 236.509,87.468 236.269,87.468 235.79,87.948 236.029,87.948 235.79,87.948 235.549,87.948 235.309,88.428 235.069,88.668 235.549,89.148 235.549,89.388 235.79,89.628 235.79,89.869 236.029,89.869 235.79,90.108 236.029,90.108 235.79,90.348 236.029,90.588 236.269,90.829 236.029,90.829 235.79,90.588 235.79,90.829 235.549,90.829 235.309,91.068 235.069,91.068 234.83,91.308 235.069,91.548 234.83,92.029 235.069,92.268 234.83,92.508 235.069,92.989 235.309,92.989 235.309,93.228 234.83,93.468 234.589,93.708 234.589,93.948 234.349,94.428 234.109,94.189 234.349,94.428 234.109,94.909 234.349,94.909 234.349,95.388 234.109,95.628 234.109,95.869 233.87,96.109 233.87,96.588 233.629,96.829 233.389,97.069 233.389,97.548 233.149,97.789 233.149,98.029 232.669,98.029 232.429,98.269 232.429,98.508 232.189,98.508 232.189,98.749 231.95,98.749 231.469,98.989 231.469,99.229 231.469,99.469 231.229,99.948 230.99,99.948 230.99,100.189 230.99,100.429 230.99,100.668 230.75,101.148 230.509,101.389 230.269,101.389 230.509,101.629 230.03,101.869 230.03,102.349 230.03,102.589 229.79,103.069 229.79,103.309 229.309,102.829 228.83,101.869 229.07,101.389 229.07,101.148 229.309,100.909 228.83,100.668 228.589,100.668 228.349,100.429 228.349,100.189 228.11,100.189 228.11,99.948 227.87,99.708 227.629,99.708 227.15,99.469 227.15,99.229 226.91,98.989 226.429,98.989 226.19,98.989 225.95,98.989 225.709,98.989 225.469,98.989 225.709,98.989 225.469,98.989 225.23,98.989 224.99,99.229 224.509,98.749 224.27,98.749 224.03,98.508 224.03,98.749 223.549,98.989 223.309,99.229 222.83,99.229 222.589,99.708 222.11,99.708 221.87,99.708 221.629,99.948 220.91,100.189 219.95,100.429 219.709,100.429 219.469,100.189 218.99,99.708 218.75,99.469 218.03,99.708 217.79,100.189 217.31,100.189 217.31,99.948 217.07,99.948 217.07,99.469 216.83,99.229 216.59,98.989 216.35,98.989 216.11,98.749 215.87,98.749 215.63,98.749 215.15,98.508 214.91,98.269 214.91,97.789 214.67,97.309 214.19,97.309 213.95,97.069 213.47,97.309 213.23,97.309 213.23,97.069 212.75,96.829 212.75,96.588 212.51,96.588 212.51,96.829 212.51,96.588 212.51,96.349 212.75,96.588 212.99,96.349 213.23,96.349 213.47,96.349 213.71,96.349 213.71,96.109 213.47,95.869 213.23,95.869 213.23,95.628 212.99,95.628 212.75,95.628 212.51,95.869 212.27,96.109 212.03,96.109 211.79,95.869 211.55,95.628 211.31,95.628 210.83,95.628 210.83,95.388 210.35,95.148 209.87,95.148 209.87,94.909 209.87,94.668 209.63,94.668 209.39,94.909 208.91,94.668 209.15,94.668 209.15,94.189 208.43,94.189 208.91,93.948 209.15,93.948 209.39,93.948 209.15,93.708 209.39,93.468 209.63,93.708 209.63,93.228 208.91,92.749 208.91,92.508 208.67,92.029 208.43,92.029 208.91,91.789 209.15,91.308 209.15,91.068 209.15,90.829 209.39,90.588 209.39,90.348 209.63,90.348 209.63,89.869 209.63,89.628 209.87,88.668 209.87,88.188 209.87,87.948 210.11,87.708 210.35,87.468 210.35,87.228 210.59,87.228 210.83,86.988 210.59,86.508 210.83,86.268 210.59,86.268 209.63,85.788 209.15,85.548 208.67,85.308 208.43,85.068 208.43,84.828 208.19,84.828 207.95,84.108 207.47,83.627 207.47,83.388 207.47,82.427 207.71,82.188 207.95,81.708 208.43,81.228 208.19,81.228 207.95,80.988 207.71,80.988 207.47,81.228 207.23,80.988 206.99,80.988 207.23,80.748 207.23,80.507 207.47,80.267 207.47,80.028 207.71,80.028 207.71,79.788 208.19,79.788 208.43,79.547 208.43,79.307 209.15,78.828 208.91,78.107 209.15,77.868 209.63,77.627 210.11,76.908 210.11,75.947 210.11,75.467 209.87,74.987 209.87,74.507 209.63,73.547 209.63,73.067 209.63,72.827 209.39,72.347 209.15,72.107 209.87,71.626 210.11,71.387 210.11,71.147 209.87,70.907 209.63,70.427 209.39,69.707 209.39,69.227 209.15,68.267 209.39,67.787 209.15,67.546 208.91,67.067 209.63,66.107 209.63,65.867 210.11,65.147 210.35,63.947 210.35,63.707 209.87,63.707 209.63,63.226 209.87,63.226 210.11,62.747 210.59,62.506 210.83,62.266 211.07,61.787 211.31,61.546 211.55,61.306 211.79,60.827 211.55,60.106 211.79,59.865 211.55,59.386 211.31,59.386 211.31,59.146 211.55,59.146 211.55,58.906 212.03,58.426 212.27,58.667 212.27,58.426 212.51,58.667 212.99,58.906 213.23,58.906 213.71,58.906 213.95,58.186 214.19,57.946 213.95,57.706 214.19,57.706 213.95,57.706 214.19,57.466 214.67,56.986 214.67,57.226 214.91,57.226 214.91,56.986 215.15,56.506 215.15,56.266 215.15,56.026 215.39,56.026 215.39,55.545 215.87,55.066 215.63,54.826 215.87,54.585 216.11,54.585 216.11,54.346 216.11,54.106 216.11,53.865 216.11,53.625 215.87,53.625 216.11,53.385 216.11,53.146 215.87,53.146 215.87,52.906 216.11,52.906 215.87,52.906 216.11,52.906 215.87,52.665 216.11,52.665 216.11,52.425 216.35,52.186 216.35,51.946 216.11,51.946 216.35,51.706 216.83,51.706 217.07,51.946 217.07,51.706 217.07,51.465 217.07,50.986 216.83,50.986 216.83,50.746 217.07,50.746 216.83,50.505 217.07,50.505 216.83,50.265 216.59,50.026 216.83,50.026 217.07,50.026 217.07,49.786 217.31,49.545 217.31,49.305 217.31,49.065 217.55,49.305 217.55,49.065 217.79,49.305 218.03,49.065 218.03,48.826 217.79,48.345 217.55,48.105 217.55,47.865 217.31,47.385 217.55,47.625 217.79,47.625 217.79,47.385 218.03,47.145 217.79,47.145 217.79,46.905 217.79,46.665 217.79,46.425 218.03,46.425 218.03,46.185 218.03,45.944 218.03,45.465 218.03,45.465 218.27,45.706 218.509,45.706 218.75,45.706 218.75,45.465 218.75,45.225 218.99,44.985 218.99,45.225 219.23,45.225 219.469,45.225 219.469,44.985 219.95,44.985 219.95,45.225 219.95,45.465 219.95,45.706 219.95,45.944 220.19,45.944 219.95,46.185 220.19,46.425 220.429,46.425 220.669,46.425 220.669,46.665 220.429,46.665 220.669,46.665 220.429,46.905 220.429,47.145 220.669,47.145 220.669,47.385 220.429,47.625 "
         style="color:#000000;fill:#622a21;fill-opacity:1;stroke:none;stroke-width:0.1366629;marker:none;visibility:visible;display:inline;overflow:visible;enable-background:accumulate"
         id="polygon326" />
    </g>
  </g>
</svg>
