<?xml version="1.0" encoding="UTF-8" standalone="no"?>
<!-- Created with Inkscape (http://www.inkscape.org/) -->

<svg
   xmlns:dc="http://purl.org/dc/elements/1.1/"
   xmlns:cc="http://creativecommons.org/ns#"
   xmlns:rdf="http://www.w3.org/1999/02/22-rdf-syntax-ns#"
   xmlns:svg="http://www.w3.org/2000/svg"
   xmlns="http://www.w3.org/2000/svg"
   xmlns:sodipodi="http://sodipodi.sourceforge.net/DTD/sodipodi-0.dtd"
   xmlns:inkscape="http://www.inkscape.org/namespaces/inkscape"
   width="64"
   height="64"
   id="svg5599"
   sodipodi:version="0.32"
   inkscape:version="0.48.3.1 r9886"
   version="1.0"
   sodipodi:docname="map_baix_llobregat.svg"
   inkscape:export-filename="/home/vokimon/Documents/desconexionibex/map_baix_llobregat.png"
   inkscape:export-xdpi="90"
   inkscape:export-ydpi="90">
  <defs
     id="defs1369">
    <clipPath
       id="SVG_CP_1">
      <path
         id="path6"
         d="m 0,0 0,413.26299 601.51181,0 L 601.51181,0 0,0 z"
         inkscape:connector-curvature="0" />
    </clipPath>
  </defs>
  <sodipodi:namedview
     id="base"
     pagecolor="#ffffff"
     bordercolor="#666666"
     borderopacity="1.0"
     inkscape:pageopacity="0.0"
     inkscape:pageshadow="2"
     inkscape:zoom="2.56"
     inkscape:cx="91.859375"
     inkscape:cy="35.845098"
     inkscape:document-units="px"
     inkscape:current-layer="layer1"
     inkscape:window-width="1024"
     inkscape:window-height="710"
     inkscape:window-x="0"
     inkscape:window-y="0"
     height="400px"
     width="425px"
     showgrid="false"
     inkscape:window-maximized="0" />
  <metadata
     id="metadata1372">
    <rdf:RDF>
      <cc:Work
         rdf:about="">
        <dc:format>image/svg+xml</dc:format>
        <dc:type
           rdf:resource="http://purl.org/dc/dcmitype/StillImage" />
        <dc:title></dc:title>
      </cc:Work>
    </rdf:RDF>
  </metadata>
  <g
     inkscape:label="Capa 1"
     inkscape:groupmode="layer"
     id="layer1"
     transform="translate(0,-336)">
    <path
       inkscape:connector-curvature="0"
       id="path1202"
       d="m 11.873228,339.23438 -0.984972,5.45018 -0.984972,0.75514 -0.262659,0.72231 0.755145,0.75515 0.492486,0.26265 0.755145,0 0.722312,0.22984 0.492487,1.74011 0.492486,0.22983 -0.229827,0.26266 0.229827,0.26266 1.24763,1.70728 0.984972,0.75515 1.247631,0.98497 0,0.26265 0,1.47747 -0.755145,0.22982 -0.722313,0 -0.492485,1.24763 0.984971,1.47746 1.740117,1.24764 1.214798,0.98496 0.26266,1.24764 0,1.47745 0.229827,0.49249 0.262659,0.52532 2.462429,3.93988 -0.229827,0.26266 -0.492485,0.22983 -0.492487,0.98497 0.229827,0.26266 -0.984971,1.47745 0.492486,0.75515 -0.984972,0.49249 -0.262659,0.98498 0.262659,1.24762 -1.247631,0.75515 0.262659,0.98497 0.722313,0.72231 1.510289,0.75515 0.229827,1.47745 0.984972,1.24763 -0.984972,0.98498 -1.214798,0.98497 -1.247631,0 0,0.75515 -1.477457,0.98497 -0.492487,1.24763 -0.755145,0.98497 -0.262659,0 0.262659,0.26266 -0.262659,1.2148 0.492486,1.74012 2.725088,0.98497 -0.492485,2.2326 0.262659,0.26266 0.229826,0 1.510291,0 0,-0.49248 0.229827,0 1.740116,0.49248 0.492487,-0.75515 0.492485,0.26267 0.984972,-1.24764 1.017804,-0.26266 0.229827,0.49248 1.969943,1.5103 -0.492485,0.49248 0,0.72232 0.755145,1.51029 7.190294,0 2.725088,-0.49249 2.725089,-0.49248 3.447401,-1.01782 3.742893,-1.47745 1.969943,-0.98497 0.492487,-0.75514 0.755145,-0.22984 0.229826,0 0.492487,0 0.262658,0.22984 -0.262658,-0.49249 -0.229828,-0.22983 0.229828,0 0.262658,0 0.492487,-0.49248 -0.492487,-0.26267 0.722313,-1.47745 0.262659,-0.49248 0.492486,0.49248 0.262659,0 -0.525318,-0.49248 0,-0.26267 0,-0.22982 -2.19977,-0.26266 -2.232603,-0.98497 -1.247631,-1.47746 -0.984972,-0.75514 0.229827,-0.26267 -0.722312,-0.72231 1.477457,-0.98497 -0.492486,-1.0178 -0.755145,-0.72232 -0.492486,-0.75514 0.26266,-0.22982 0.722312,0.22982 0.755145,-0.22982 0.492486,-1.74012 -0.229827,-0.49249 0,-0.75514 -0.525318,-1.24764 0.755145,-0.98496 -0.229827,-0.72232 -0.262659,-0.75515 -1.969944,0 -0.755145,0.98497 -0.755145,-0.49248 0,-0.75514 1.017804,-0.4925 0,-0.22982 -0.525318,-0.26266 -0.722312,0.75515 0,-0.49249 0.492485,-0.26266 -0.262659,-0.49248 -0.722313,0.49248 -0.755145,0.49248 -0.229826,0.4925 -0.262659,-0.4925 0,-0.22982 0.262659,-0.26266 -0.525318,-1.24763 0.525318,-0.22982 0,-1.47747 0.229826,0 0,-0.26265 0.26266,-0.49248 0.229827,-0.75515 -2.46243,-0.22983 -1.247631,0.49248 -0.262659,-0.75514 -0.722313,-0.49248 -0.262659,-1.2148 -1.214799,-0.52532 -1.740116,0 -0.26266,1.0178 -0.492485,1.2148 0,1.51029 -0.229827,-0.75515 -0.755145,-0.75514 -0.492486,-0.49248 -0.492486,-1.47746 -0.984972,-0.98497 -0.755145,0.49248 -1.24763,-0.75515 -0.229828,-0.49248 0,-0.72231 -0.755145,0.72231 -1.24763,-1.24763 -0.229827,-1.47745 -0.984972,-0.72232 -0.492486,-1.0178 0.229827,-0.49249 0.262659,0.26266 0.722313,-0.98497 0.755144,-1.24763 1.740117,-0.49249 0,-2.2326 -0.984972,-0.26266 -0.262658,-0.22983 -0.492487,-0.49249 -0.492485,-0.98497 -0.262659,-1.0178 -0.492486,-1.2148 -0.229827,-0.49248 -0.492486,-0.4925 0.229827,-1.0178 -0.229827,-0.22982 -0.262659,-1.24763 -1.247631,0 -2.954916,-1.24763 0.722313,-0.49249 -0.984971,-0.72231 -0.984972,-0.75515 -0.755146,0.26266 -0.722312,-0.49248 -1.247631,0 -2.46243,0 -1.740116,-1.24763 -0.755145,-0.75515 z"
       style="color:#000000;fill:#622a21;fill-opacity:1;fill-rule:nonzero;stroke:none;stroke-width:0.02;marker:none;visibility:visible;display:inline;overflow:visible;enable-background:accumulate" />
  </g>
</svg>
