<?xml version="1.0" encoding="UTF-8" standalone="no"?>
<!-- Created with Inkscape (http://www.inkscape.org/) -->

<svg
   xmlns:dc="http://purl.org/dc/elements/1.1/"
   xmlns:cc="http://creativecommons.org/ns#"
   xmlns:rdf="http://www.w3.org/1999/02/22-rdf-syntax-ns#"
   xmlns:svg="http://www.w3.org/2000/svg"
   xmlns="http://www.w3.org/2000/svg"
   xmlns:sodipodi="http://sodipodi.sourceforge.net/DTD/sodipodi-0.dtd"
   xmlns:inkscape="http://www.inkscape.org/namespaces/inkscape"
   width="64px"
   height="64px"
   id="svg3810"
   version="1.1"
   inkscape:version="0.48.3.1 r9886"
   sodipodi:docname="map_andalucia.svg"
   inkscape:export-filename="/home/vokimon/Documents/map_andalucia.png"
   inkscape:export-xdpi="90"
   inkscape:export-ydpi="90">
  <defs
     id="defs3812" />
  <sodipodi:namedview
     id="base"
     pagecolor="#ffffff"
     bordercolor="#666666"
     borderopacity="1.0"
     inkscape:pageopacity="0.0"
     inkscape:pageshadow="2"
     inkscape:zoom="5.5"
     inkscape:cx="32.154231"
     inkscape:cy="9.8282738"
     inkscape:current-layer="layer1"
     showgrid="true"
     inkscape:document-units="px"
     inkscape:grid-bbox="true"
     inkscape:window-width="1680"
     inkscape:window-height="995"
     inkscape:window-x="-2"
     inkscape:window-y="-3"
     inkscape:window-maximized="1" />
  <metadata
     id="metadata3815">
    <rdf:RDF>
      <cc:Work
         rdf:about="">
        <dc:format>image/svg+xml</dc:format>
        <dc:type
           rdf:resource="http://purl.org/dc/dcmitype/StillImage" />
        <dc:title></dc:title>
      </cc:Work>
    </rdf:RDF>
  </metadata>
  <g
     id="layer1"
     inkscape:label="Layer 1"
     inkscape:groupmode="layer">
    <g
       id="g6730"
       transform="matrix(4.1885566,0,0,4.1885566,-78.504937,-127.7508)">
      <polygon
         transform="matrix(0.07317275,0,0,0.07317275,4.0878249,16.135336)"
         points="300.108,256.919 300.348,257.16 300.587,257.16 300.828,257.4 301.308,257.64 301.547,257.64 301.547,257.879 301.788,257.879 301.788,258.119 301.547,258.119 301.788,258.36 302.028,258.36 302.507,258.6 302.748,258.6 303.467,259.08 303.708,259.08 303.948,259.56 304.188,259.56 304.188,259.8 304.427,260.04 304.667,260.52 304.667,260.76 305.148,261 305.387,261 305.387,260.76 305.627,260.76 305.868,261 306.108,261 306.108,261.24 306.348,261.48 306.587,261.48 306.828,261.24 307.068,261.72 307.307,261.96 307.547,261.96 307.788,262.2 308.028,262.44 308.028,262.68 308.268,262.92 308.507,262.92 308.507,263.16 308.988,263.64 309.228,263.88 309.228,264.121 309.467,264.36 309.467,264.6 309.708,264.6 310.188,264.6 310.188,264.84 310.667,264.84 310.908,265.319 311.387,265.081 311.627,265.319 313.307,266.04 313.307,266.281 313.547,266.04 313.547,266.281 313.788,266.281 313.788,266.52 314.028,266.281 314.028,266.52 314.267,266.76 314.507,266.76 314.748,266.76 314.748,267 314.988,266.76 315.227,266.76 315.467,266.76 315.467,267 315.708,267 315.948,267 316.187,267 316.187,267.24 316.427,267 316.427,267.24 316.187,267.48 316.427,267.72 316.427,267.48 316.427,267.72 316.187,267.96 316.427,267.96 316.187,268.201 316.427,268.201 316.667,268.441 316.667,268.68 316.908,268.92 316.908,268.68 317.147,268.68 317.147,269.401 317.147,269.64 317.147,269.88 317.147,270.121 316.908,270.601 316.908,270.84 317.147,271.081 317.387,270.84 317.627,271.321 317.627,271.561 317.627,271.8 317.387,272.04 317.387,272.281 317.627,272.281 317.868,272.521 317.868,272.761 317.868,273 318.107,273 318.107,273.24 318.347,273.481 318.587,273.96 318.347,274.201 318.587,274.441 318.587,274.921 318.587,275.161 318.347,275.401 318.347,275.641 317.868,275.641 317.627,275.641 317.387,275.881 317.387,276.121 317.387,276.361 317.387,276.601 316.908,276.361 316.667,276.601 316.908,277.081 316.908,277.321 316.667,277.081 316.427,277.081 316.427,277.321 316.667,277.561 316.427,277.321 316.427,277.561 316.667,277.561 316.427,277.801 316.187,278.042 316.187,278.281 316.187,278.042 315.948,278.042 315.708,278.042 315.708,278.281 315.708,279.001 315.948,278.761 316.187,278.761 316.187,279.001 315.708,279.24 315.467,279.24 315.227,279.24 315.467,279.721 315.467,279.961 314.988,279.961 314.748,279.961 314.748,280.681 314.988,280.921 315.227,281.881 315.467,282.601 315.467,283.561 315.227,284.282 315.227,284.522 314.988,284.522 314.988,284.761 314.988,285.001 314.748,285.961 314.748,286.682 314.748,287.642 314.507,288.122 314.507,288.362 314.507,288.842 314.507,289.082 314.748,289.082 315.467,289.322 315.948,289.322 316.908,289.562 317.147,289.802 316.908,290.282 316.667,290.282 316.427,290.522 316.187,291.482 315.948,291.962 315.948,292.202 316.187,292.202 317.387,292.682 317.627,292.682 317.868,293.163 318.347,293.642 318.107,293.882 317.627,294.123 316.667,295.083 316.187,295.323 316.427,295.562 316.427,295.802 316.667,296.042 316.427,296.042 316.427,296.283 316.908,296.283 316.908,296.522 317.147,296.283 317.147,296.522 317.387,296.522 317.387,296.283 317.627,296.283 317.868,296.522 318.107,296.522 318.347,297.002 318.347,297.243 318.107,297.483 318.347,297.483 318.347,297.722 318.587,297.962 318.347,297.962 318.828,297.962 318.828,298.443 318.828,298.203 318.828,298.443 319.067,298.682 319.307,298.682 319.547,298.922 319.788,298.922 319.547,298.922 319.547,299.163 319.788,299.163 320.028,299.403 320.028,299.643 320.028,299.882 320.267,299.643 320.267,299.882 320.507,299.882 320.267,300.123 320.507,300.363 320.267,300.603 320.507,300.603 320.748,300.603 320.987,300.842 320.987,300.603 321.227,300.842 321.467,300.842 321.708,300.842 321.227,301.323 320.748,301.563 320.987,301.803 321.227,302.283 321.467,302.283 321.708,302.283 321.948,302.523 322.187,302.763 322.427,303.483 322.667,303.483 322.667,303.723 322.908,303.962 322.908,304.443 323.147,304.443 323.387,305.163 322.908,305.163 322.667,304.923 322.427,304.923 321.708,305.163 321.227,304.923 321.227,305.163 320.748,304.923 320.267,305.163 320.267,305.403 320.267,305.643 320.028,305.643 319.547,305.883 319.307,306.123 318.828,306.603 318.587,307.323 318.347,307.563 317.868,307.083 317.387,307.083 317.147,307.083 316.908,307.083 316.667,307.083 316.187,307.323 316.187,307.563 315.948,307.563 315.708,308.043 315.948,308.523 315.948,309.244 315.708,309.483 315.467,310.443 314.988,310.683 314.988,310.923 315.227,311.164 315.227,311.883 314.988,312.124 314.267,312.843 314.028,313.083 313.788,313.083 313.068,313.564 312.828,313.803 312.828,313.564 312.587,313.564 312.828,313.323 312.828,313.083 313.068,312.843 312.828,312.843 312.347,312.603 311.387,312.603 311.387,312.364 310.908,311.643 311.148,311.404 311.148,311.164 311.387,310.683 311.148,310.683 311.148,310.443 311.148,310.204 311.148,309.963 310.908,310.204 310.667,309.963 310.427,309.963 310.427,310.204 310.188,309.963 309.948,309.723 309.708,309.963 309.467,309.963 309.228,309.963 308.988,309.963 308.988,310.204 308.748,310.443 308.748,310.683 308.507,310.683 308.268,310.683 308.507,310.923 308.268,310.923 308.028,310.683 307.788,310.923 307.788,311.164 308.028,311.164 308.028,311.404 307.788,311.643 307.788,311.404 307.547,311.404 307.547,311.883 307.307,312.124 307.307,311.883 307.068,312.124 306.108,312.603 306.108,312.364 305.868,312.364 305.627,312.364 305.387,312.124 304.908,312.364 304.908,312.603 304.427,312.603 303.948,312.603 303.948,312.364 303.948,312.124 304.188,312.124 304.188,311.883 303.948,311.643 303.948,311.404 303.708,311.404 303.708,311.164 303.708,310.683 303.467,310.683 302.988,310.683 302.507,311.164 302.268,310.683 302.268,310.443 302.268,309.963 302.028,309.483 301.788,309.483 301.547,309.244 301.547,309.003 301.788,308.763 302.028,309.244 302.268,309.244 302.028,309.003 302.268,308.763 301.788,308.523 301.547,308.523 301.308,308.283 301.547,308.283 301.547,308.043 301.788,308.043 302.028,308.043 301.788,307.803 301.547,307.803 301.547,307.563 301.788,307.563 301.547,307.563 301.308,307.803 301.308,307.563 301.308,307.323 301.068,307.323 301.068,307.083 300.828,307.083 300.828,306.843 300.348,306.843 300.348,306.603 300.108,306.843 300.348,306.843 300.108,307.083 299.868,307.083 300.108,307.083 300.108,307.323 299.868,307.323 299.388,307.563 299.148,307.563 298.908,307.323 298.667,307.323 298.428,307.563 298.428,307.323 298.188,307.803 297.708,307.083 297.228,306.603 296.988,306.363 296.988,306.123 297.228,305.883 297.228,305.643 296.988,305.643 296.988,305.403 296.748,305.403 296.748,305.163 296.508,304.923 296.508,304.683 296.268,304.683 296.508,304.683 296.268,304.443 296.268,304.683 296.028,304.443 296.268,304.203 296.508,303.723 296.508,303.243 296.028,303.243 295.788,303.243 295.068,303.243 295.068,303.002 295.308,302.763 295.068,302.523 294.828,302.283 294.348,302.042 294.348,301.563 294.588,301.083 294.348,301.083 294.108,301.323 294.108,301.083 294.108,300.842 294.348,300.842 294.348,300.603 294.108,300.603 293.868,300.603 293.627,300.363 293.627,300.123 293.388,300.123 293.627,299.882 293.148,299.882 293.388,299.643 293.388,299.163 293.627,298.922 293.388,298.682 293.627,298.443 293.627,298.203 293.388,297.962 293.627,297.962 293.388,297.722 293.627,297.722 293.627,297.243 293.627,297.002 293.627,296.522 293.627,296.042 293.388,295.802 293.148,296.042 292.908,296.042 292.668,296.283 292.188,296.522 292.428,296.042 292.668,296.042 292.908,295.802 292.908,294.602 292.428,293.642 292.188,293.402 291.948,292.922 291.708,292.682 291.468,292.202 290.988,292.202 290.028,291.722 290.028,291.962 289.308,292.202 289.068,292.442 288.828,292.682 288.588,292.682 288.828,292.922 288.588,293.163 288.588,293.402 288.828,293.642 289.068,293.642 289.068,293.882 289.068,294.123 289.308,293.882 289.308,294.123 288.828,294.123 288.588,293.882 288.348,293.642 288.588,293.402 288.348,293.163 288.348,292.922 288.108,292.442 287.868,292.442 287.388,292.442 287.868,292.682 287.868,292.922 287.868,293.402 288.108,293.402 287.868,293.642 288.108,293.882 287.628,293.882 287.388,293.882 287.148,293.642 286.668,294.123 286.428,293.642 285.948,293.163 284.749,293.882 284.268,294.123 284.028,294.362 283.548,294.602 283.308,294.842 282.588,295.323 281.869,295.323 281.388,295.562 281.148,295.802 280.668,296.522 280.428,296.522 280.428,296.762 280.188,297.002 279.949,297.002 279.949,296.522 279.949,296.042 279.708,296.042 279.468,295.802 279.228,295.802 278.989,295.562 278.989,295.323 278.749,295.083 278.508,295.083 278.508,294.842 278.508,294.602 278.268,294.602 278.508,294.602 278.268,294.602 278.268,294.362 278.268,294.602 278.268,294.362 278.508,294.362 278.749,294.123 278.989,293.882 278.749,293.882 278.508,293.882 278.268,293.882 278.268,293.642 278.268,293.402 278.268,292.922 278.508,292.682 278.749,292.442 278.989,292.442 279.228,292.442 279.228,292.922 279.228,293.163 279.468,293.163 279.708,292.922 279.708,292.682 279.949,292.442 280.428,291.962 280.668,291.962 280.909,292.202 280.909,292.442 281.148,292.682 281.148,292.442 281.388,292.202 281.628,292.442 281.628,292.202 281.628,291.962 281.628,291.722 281.869,291.482 281.869,291.242 281.869,291.002 281.628,290.762 281.628,290.282 281.388,290.042 281.388,289.802 281.628,289.562 281.628,289.322 281.148,289.082 280.909,288.842 280.668,288.602 280.428,288.362 280.428,288.122 280.428,287.642 280.668,287.402 280.668,287.162 280.909,286.921 280.668,286.682 280.428,286.442 280.188,286.442 279.949,286.202 279.468,286.202 279.228,285.961 278.989,285.721 278.749,285.721 278.508,285.482 278.749,285.482 278.508,285.242 278.508,285.482 278.508,285.242 278.508,285.001 278.268,285.001 278.508,285.001 278.508,284.761 278.268,284.761 278.268,284.522 278.508,284.282 278.508,284.042 278.508,283.801 278.268,283.561 278.268,283.322 278.508,283.322 278.268,283.082 278.508,283.082 278.268,283.082 278.268,282.841 278.268,282.601 278.508,282.601 278.508,282.362 278.268,282.122 278.028,282.122 278.028,281.881 277.789,281.881 277.548,281.641 277.308,281.401 277.068,281.401 276.829,281.162 276.588,281.162 276.588,280.681 276.348,280.441 276.348,280.202 276.108,280.441 276.108,280.202 276.108,279.961 276.108,279.721 276.108,279.481 276.108,279.001 276.108,278.761 276.108,278.281 275.628,277.801 275.388,277.561 275.148,277.321 275.148,277.081 274.909,276.841 274.668,276.601 274.668,276.121 274.428,275.881 274.188,275.641 273.468,275.401 273.468,274.681 273.228,274.681 273.228,274.201 273.708,273.96 273.949,273.96 274.188,273.96 274.188,273.721 274.428,273.481 274.668,273.481 274.909,273.24 274.668,273.24 274.668,273 274.668,272.761 274.668,272.521 274.909,272.281 274.909,272.04 275.148,271.8 275.388,271.561 275.388,271.321 275.388,271.081 275.388,270.84 275.388,269.88 275.148,269.64 275.388,269.401 275.148,269.161 274.909,268.92 274.909,268.68 274.668,268.68 274.909,268.441 274.668,268.441 274.668,267.96 274.428,267.72 274.668,267.72 274.428,267.48 274.428,267.24 273.949,267 273.708,266.76 273.949,266.52 273.949,266.281 274.188,265.8 273.949,265.56 274.188,265.319 274.428,265.319 274.428,265.081 274.188,265.081 274.188,264.84 273.949,264.6 273.708,264.6 273.468,264.36 273.708,263.88 273.949,262.92 273.949,262.68 274.188,262.44 274.428,262.44 274.668,261.96 274.909,261.72 274.909,261.96 275.388,261.72 275.628,261.48 275.628,261.24 275.869,261.24 276.108,261.72 276.348,261.48 276.588,261.48 276.588,261.24 276.829,261.24 277.068,261 277.068,260.76 277.068,260.52 277.308,260.52 277.548,260.28 277.789,260.04 278.028,260.04 278.028,259.8 278.508,259.8 278.749,259.319 278.989,259.319 278.989,259.08 279.228,259.08 279.228,258.839 278.989,258.6 279.468,258.6 279.468,258.119 279.708,258.119 279.949,258.36 280.188,258.36 280.188,258.119 279.949,257.879 279.949,257.64 280.188,257.64 279.949,257.4 280.188,257.16 280.428,257.16 280.668,256.679 280.428,256.679 280.668,256.44 280.909,256.44 281.388,256.679 281.628,256.919 281.869,256.919 282.108,256.679 282.588,256.919 282.588,256.679 282.588,256.44 282.588,256.2 282.829,255.959 283.068,255.719 283.308,255.48 283.548,255.48 283.789,255.48 283.789,255.24 284.268,255 284.268,254.759 284.508,254.759 284.508,254.519 284.749,254.519 284.988,254.28 285.228,254.04 285.228,253.799 285.468,253.799 285.468,254.04 285.708,254.04 285.708,253.799 285.708,253.319 285.948,253.319 285.948,253.799 286.188,253.799 286.188,253.559 286.188,253.319 286.428,253.559 286.668,253.319 286.428,253.319 286.428,253.08 286.668,253.08 287.148,253.08 287.148,252.839 286.908,252.599 286.908,252.119 286.668,251.879 286.668,251.639 286.668,251.16 287.148,251.398 287.148,251.639 287.148,251.398 287.628,251.398 287.868,251.398 288.588,251.398 288.828,251.639 289.308,251.879 289.548,251.639 289.788,251.398 290.268,251.398 290.508,251.16 290.988,251.16 290.988,250.919 291.228,251.16 291.228,251.16 291.468,251.16 291.708,251.16 291.948,251.398 292.188,251.639 292.428,251.879 292.428,252.119 292.428,252.359 292.188,252.359 293.627,252.839 294.348,253.08 294.828,252.839 295.068,252.839 295.548,252.839 295.788,252.839 296.028,252.839 296.268,252.839 296.508,253.08 296.508,253.319 296.508,253.799 296.508,254.28 296.748,254.759 296.508,255 296.748,255.48 296.748,255.719 296.988,255.719 297.468,255.959 297.948,256.44 298.188,256.44 298.667,256.44 299.148,256.44 299.627,256.919 "
         style="color:#000000;fill:#622a21;fill-opacity:1;stroke:none;stroke-width:0.1366629;marker:none;visibility:visible;display:inline;overflow:visible;enable-background:accumulate"
         id="polygon284" />
      <polygon
         transform="matrix(0.07317275,0,0,0.07317275,4.0878249,16.135336)"
         points="369.707,264.6 369.946,264.84 370.186,264.6 370.426,264.6 370.906,264.84 371.146,264.84 371.866,265.081 372.106,265.081 372.106,265.319 371.866,266.04 371.866,266.281 371.866,266.52 372.106,266.76 372.346,267 372.106,267.72 372.346,267.72 372.106,267.96 372.106,268.201 372.106,268.441 372.106,268.92 372.106,269.161 373.306,269.401 373.546,269.64 373.546,270.121 373.546,270.601 373.306,270.84 373.546,271.081 373.306,271.321 373.546,271.321 373.546,271.561 373.546,271.8 373.306,272.281 373.066,272.281 373.066,272.521 373.306,272.761 373.306,273.481 373.306,273.721 373.066,273.721 373.066,273.96 372.826,274.201 372.586,274.201 372.586,274.441 372.346,274.681 372.346,274.921 372.106,274.921 372.106,275.161 371.626,275.641 371.146,275.881 371.146,276.121 371.146,276.361 370.906,276.841 370.426,277.081 370.426,277.321 370.186,277.561 369.946,277.801 369.466,277.801 369.226,278.042 369.466,278.042 369.226,278.042 368.986,278.042 368.986,278.281 368.747,278.281 368.747,278.521 368.266,278.521 368.266,278.761 368.506,278.761 368.506,279.001 368.506,279.24 368.506,280.921 368.266,280.921 368.266,281.162 367.787,281.641 367.066,281.881 366.827,282.362 366.586,282.362 366.346,282.601 366.106,282.601 365.867,282.601 365.867,282.362 365.626,282.122 365.386,282.122 365.146,282.362 364.907,282.362 364.907,282.601 364.667,282.601 364.426,282.841 364.186,283.082 364.186,283.322 363.947,283.801 363.707,283.801 363.466,284.042 363.226,284.282 362.987,284.282 362.987,284.042 362.506,284.522 362.506,284.761 362.266,285.242 362.026,285.482 361.787,285.961 361.546,286.202 361.306,286.921 361.546,286.921 361.546,287.162 361.306,287.402 361.067,287.642 361.067,287.881 360.827,288.122 360.827,288.362 360.586,288.602 360.346,288.842 360.106,289.082 359.867,289.562 359.626,289.802 359.626,290.042 359.626,290.762 359.146,290.762 358.907,291.002 358.667,291.242 358.907,291.722 358.667,291.962 358.667,292.202 358.907,292.202 358.667,292.922 358.907,293.642 358.907,293.882 359.386,293.882 359.386,294.123 359.146,294.362 358.907,294.602 358.186,294.842 357.707,295.323 356.506,295.802 356.506,296.283 356.506,296.522 356.266,296.762 356.506,297.002 356.506,297.243 356.266,297.243 356.027,297.002 355.787,297.243 355.546,297.002 355.067,296.762 354.827,296.762 354.827,296.522 354.827,296.762 354.827,296.522 354.586,296.762 354.586,296.522 354.346,296.522 354.107,296.522 354.107,296.762 353.867,296.762 353.867,297.002 353.626,297.002 353.386,297.002 353.386,297.243 353.147,297.243 352.907,297.243 352.907,297.483 352.667,297.483 352.426,297.243 352.426,297.002 351.947,297.002 351.707,296.762 351.227,296.522 351.227,296.283 350.987,296.283 350.267,295.562 349.787,295.562 348.827,295.562 348.346,295.802 348.107,295.802 347.386,295.562 347.147,295.802 347.386,295.802 347.147,296.042 346.907,296.522 346.667,296.762 346.426,297.002 346.426,297.483 346.187,297.722 345.947,297.722 345.466,297.962 345.227,297.962 344.987,297.962 344.506,298.203 344.267,298.203 344.027,298.443 343.787,298.443 343.546,298.682 343.307,298.682 342.827,298.682 342.586,298.443 342.107,298.443 341.867,298.203 341.626,298.203 341.387,297.962 341.147,297.722 341.147,297.483 340.907,297.243 340.187,297.243 339.467,296.522 338.507,297.243 338.507,297.483 338.507,297.722 338.507,297.962 337.787,298.203 337.787,298.443 337.787,298.682 337.307,298.682 337.067,299.163 336.587,299.163 336.827,299.403 336.347,299.403 335.627,300.123 335.387,300.123 334.907,300.123 334.427,300.363 334.187,300.603 333.708,300.603 333.467,300.603 333.227,300.842 332.747,301.083 332.747,301.323 332.267,301.803 332.267,301.563 331.787,301.803 330.827,302.042 330.827,301.803 330.587,301.563 330.347,301.563 330.107,301.803 330.347,302.042 330.347,302.283 330.347,302.523 329.867,302.763 329.627,302.763 329.627,303.002 329.867,303.002 329.627,303.723 329.627,303.962 329.387,303.962 329.387,304.443 329.147,304.683 329.147,304.923 329.147,305.163 328.907,305.163 328.667,305.403 328.667,305.883 328.427,305.883 328.187,305.643 327.227,305.643 326.748,305.883 326.507,305.883 326.267,306.123 326.027,306.123 325.547,306.123 325.067,306.123 324.587,305.883 324.347,305.643 324.107,305.643 323.387,305.163 323.147,304.443 322.908,304.443 322.908,303.962 322.667,303.723 322.667,303.483 322.427,303.483 322.187,302.763 321.948,302.523 321.708,302.283 321.467,302.283 321.227,302.283 320.987,301.803 320.748,301.563 321.227,301.323 321.708,300.842 321.467,300.842 321.227,300.842 320.987,300.603 320.987,300.842 320.748,300.603 320.507,300.603 320.267,300.603 320.507,300.363 320.267,300.123 320.507,299.882 320.267,299.882 320.267,299.643 320.028,299.882 320.028,299.643 320.028,299.403 319.788,299.163 319.547,299.163 319.547,298.922 319.788,298.922 319.547,298.922 319.307,298.682 319.067,298.682 318.828,298.443 318.828,298.203 318.828,298.443 318.828,297.962 318.347,297.962 318.587,297.962 318.347,297.722 318.347,297.483 318.107,297.483 318.347,297.243 318.347,297.002 318.107,296.522 317.868,296.522 317.627,296.283 317.387,296.283 317.387,296.522 317.147,296.522 317.147,296.283 316.908,296.522 316.908,296.283 316.427,296.283 316.427,296.042 316.667,296.042 316.427,295.802 316.427,295.562 316.187,295.323 316.667,295.083 317.627,294.123 318.107,293.882 318.347,293.642 317.868,293.163 317.627,292.682 317.387,292.682 316.187,292.202 315.948,292.202 315.948,291.962 316.187,291.482 316.427,290.522 316.667,290.282 316.908,290.282 317.147,289.802 316.908,289.562 315.948,289.322 315.467,289.322 314.748,289.082 314.507,289.082 314.507,288.842 314.507,288.362 314.507,288.122 314.748,287.642 314.748,286.682 314.748,285.961 314.988,285.001 314.988,284.761 314.988,284.522 315.227,284.522 315.227,284.282 315.467,283.561 315.467,282.601 315.227,281.881 314.988,280.921 314.748,280.681 314.748,279.961 314.988,279.961 315.467,279.961 315.467,279.721 315.227,279.24 315.467,279.24 315.708,279.24 316.187,279.001 316.187,278.761 315.948,278.761 315.708,279.001 315.708,278.281 315.708,278.042 315.948,278.042 316.187,278.042 316.187,278.281 316.187,278.042 316.427,277.801 316.667,277.561 316.427,277.561 316.427,277.321 316.667,277.561 316.427,277.321 316.427,277.081 316.667,277.081 316.908,277.321 316.908,277.081 316.667,276.601 316.908,276.361 317.387,276.601 317.387,276.361 317.387,276.121 317.387,275.881 317.627,275.641 317.868,275.641 318.347,275.641 318.347,275.401 318.587,275.161 318.587,274.921 318.587,274.441 318.347,274.201 318.587,273.96 318.347,273.481 318.107,273.24 318.107,273 317.868,273 317.868,272.761 317.868,272.521 317.627,272.281 317.387,272.281 317.387,272.04 317.627,271.8 317.627,271.561 317.627,271.321 317.387,270.84 317.147,271.081 316.908,270.84 316.908,270.601 317.147,270.121 317.147,269.88 317.147,269.64 317.147,269.401 317.147,268.68 316.908,268.68 316.908,268.92 316.667,268.68 316.667,268.441 316.427,268.201 316.187,268.201 316.427,267.96 316.187,267.96 316.427,267.72 316.427,267.48 316.427,267.72 316.187,267.48 316.427,267.24 316.427,267 316.187,267.24 316.187,267 315.948,267 315.708,267 315.467,267 315.467,266.76 315.227,266.52 315.227,266.281 315.227,266.04 315.227,265.8 314.988,265.56 315.227,265.319 315.227,265.081 315.467,264.84 315.708,264.6 316.187,264.84 316.908,264.84 317.868,265.081 318.347,265.319 319.067,265.56 319.307,265.319 319.788,265.319 319.788,265.56 320.267,265.56 320.987,265.56 321.227,265.8 321.467,265.8 321.708,265.56 322.187,265.56 322.187,265.8 322.427,265.8 322.908,265.8 323.387,266.04 323.627,266.04 323.868,266.04 324.107,266.04 324.347,266.04 324.587,266.04 325.067,266.281 325.547,266.04 325.788,266.04 326.027,266.04 326.748,266.04 326.987,266.04 327.227,266.04 327.947,265.8 328.187,265.8 328.427,265.8 328.427,266.04 328.667,265.8 329.147,265.319 329.387,265.081 329.147,264.84 329.387,264.36 329.627,264.121 329.867,264.121 330.107,263.88 330.347,264.121 330.827,263.88 331.307,263.88 332.267,264.36 332.507,263.88 333.467,264.36 334.907,264.6 336.107,265.081 336.587,264.84 336.587,265.081 337.067,264.6 337.067,263.64 337.307,262.92 337.787,262.92 338.267,263.16 338.507,263.16 338.747,263.4 338.747,263.64 338.747,263.88 338.747,264.36 338.987,264.36 338.987,264.6 339.707,264.6 339.947,264.84 340.187,264.84 340.427,264.84 340.667,265.081 341.387,264.84 341.626,264.84 341.867,264.84 341.867,264.6 342.107,264.6 342.347,264.6 342.586,263.88 342.827,263.88 343.307,263.64 343.787,263.4 343.787,263.16 343.546,263.16 343.546,262.92 343.787,262.44 343.787,262.2 343.787,261.96 344.987,261.72 345.227,261.72 345.466,261.72 345.947,261.72 346.187,262.2 346.426,262.2 346.667,262.44 346.907,262.44 347.386,262.68 347.626,262.68 347.867,262.68 348.346,262.68 348.827,262.92 350.027,262.92 350.987,263.4 351.466,263.4 351.947,262.92 353.626,261.72 355.546,264.36 355.546,264.6 355.787,264.6 355.546,264.36 355.787,264.36 355.787,264.121 356.027,263.88 355.787,263.64 356.027,263.4 355.787,263.16 356.027,262.92 356.506,262.68 356.747,262.44 356.747,262.2 356.987,262.2 357.466,262.2 357.707,261.96 357.947,262.2 358.426,262.2 358.667,262.2 358.907,262.44 359.146,262.68 359.386,262.92 359.386,262.68 359.626,262.68 359.386,262.44 359.626,262.44 359.867,262.2 360.106,261.96 360.106,262.2 360.106,261.96 360.346,261.96 360.346,261.72 360.586,261.72 360.827,261.96 360.827,261.72 360.827,261.48 361.067,261.96 361.067,261.72 361.067,261.48 361.306,261.48 361.546,261.24 361.546,261 361.787,261.24 361.787,261 361.787,260.76 362.026,261 362.026,260.76 362.266,260.76 362.266,260.52 362.506,260.52 362.506,260.28 362.747,260.52 362.747,260.28 362.747,260.04 362.987,260.04 362.987,259.8 362.987,259.56 363.226,259.56 363.466,259.8 363.466,259.8 363.707,259.8 363.947,260.04 364.186,260.28 364.426,260.52 364.907,260.76 365.146,260.76 365.386,261 366.106,261 366.346,260.76 366.586,260.76 367.066,260.52 367.306,260.52 367.787,260.52 368.266,260.28 368.506,260.28 368.506,260.52 368.747,260.52 368.747,260.76 368.986,260.76 369.466,261.24 369.226,261.48 369.226,261.96 369.226,262.2 369.466,262.44 369.466,262.68 369.226,263.16 369.466,263.16 369.226,263.4 369.226,263.64 369.226,263.88 369.226,264.36 "
         style="color:#000000;fill:#622a21;fill-opacity:1;stroke:none;stroke-width:0.1366629;marker:none;visibility:visible;display:inline;overflow:visible;enable-background:accumulate"
         id="polygon288" />
      <polygon
         transform="matrix(0.07317275,0,0,0.07317275,4.0878249,16.135336)"
         points="255.469,287.642 255.229,287.642 255.229,287.881 255.229,288.122 255.229,287.881 254.989,288.122 254.989,287.642 254.749,287.642 254.509,287.881 254.269,287.642 254.269,287.881 254.269,287.642 254.029,287.642 253.789,287.162 253.549,287.162 253.069,287.162 252.829,287.402 253.069,287.402 252.829,287.642 252.589,287.881 252.829,287.881 252.829,288.602 253.069,288.842 252.589,289.322 252.589,289.562 252.589,289.802 252.349,289.802 252.109,289.802 252.109,289.562 251.869,289.562 251.629,289.802 251.389,289.802 251.389,289.562 251.629,289.562 251.629,289.082 251.389,288.842 251.149,289.082 250.909,288.842 250.909,289.082 250.668,289.082 249.949,288.842 249.469,288.842 249.229,288.842 248.989,288.842 248.269,289.082 248.029,289.082 247.549,289.322 247.069,289.322 245.869,289.802 245.629,290.042 245.149,290.522 244.909,290.282 244.669,290.282 244.429,290.042 243.949,290.282 244.189,290.282 243.949,290.282 244.189,290.522 244.189,290.762 244.189,291.002 243.949,291.002 243.949,291.242 243.709,291.242 243.709,291.482 243.469,291.482 243.469,291.962 243.469,292.442 243.229,292.442 242.989,292.442 242.75,292.442 242.75,292.682 242.75,292.442 242.509,292.442 242.509,292.922 242.269,292.922 242.269,293.163 242.269,293.402 242.269,293.642 242.269,293.882 242.029,294.123 242.029,294.362 242.269,294.362 242.509,294.602 242.509,294.362 242.75,294.362 242.989,294.123 242.989,294.362 242.989,294.123 242.989,294.362 243.229,294.123 243.229,294.362 243.469,294.362 243.229,294.362 243.469,294.362 243.709,294.362 243.709,294.602 243.709,294.362 243.949,294.362 244.189,294.362 244.429,294.362 244.669,294.362 244.909,294.362 245.149,294.362 245.389,294.362 245.629,294.362 245.869,294.362 245.869,294.602 246.109,294.602 246.589,294.842 246.589,295.083 246.589,295.323 246.349,295.323 246.589,295.323 246.589,295.562 246.589,295.802 246.589,296.042 246.349,296.042 246.589,297.243 246.829,297.243 247.069,297.483 247.549,297.962 247.309,298.203 247.549,298.682 247.789,299.163 247.549,299.163 247.789,299.403 247.789,299.643 248.029,299.643 248.269,299.882 248.509,300.603 248.509,300.842 248.749,301.083 248.749,301.323 248.989,301.323 248.989,301.563 249.229,301.803 249.229,302.042 249.229,302.523 248.989,302.523 248.989,302.763 248.749,302.763 248.749,302.523 248.509,302.763 247.549,303.002 247.549,303.243 247.789,303.483 247.549,303.962 247.309,304.443 247.549,304.443 247.549,304.683 247.789,304.683 247.789,304.923 247.309,305.163 247.069,305.403 246.829,305.643 246.589,305.883 247.069,306.363 247.789,306.843 248.269,307.563 248.029,307.803 248.029,308.043 247.789,308.283 248.029,308.523 247.549,308.763 247.549,309.244 247.549,309.483 247.309,309.723 247.309,309.963 247.789,310.683 247.549,311.164 247.549,311.404 247.309,311.643 247.549,311.643 247.309,311.643 247.549,312.364 248.029,312.843 247.549,313.323 247.309,313.564 247.069,314.043 247.309,314.043 247.549,314.284 247.549,314.524 247.549,314.763 247.309,314.763 247.069,314.763 247.309,315.003 246.829,315.244 246.589,315.724 246.109,316.204 246.109,316.444 246.349,317.164 246.349,317.644 247.069,319.564 247.069,320.044 246.829,320.764 246.829,321.244 246.829,321.724 246.349,322.205 246.109,322.205 246.349,322.444 246.829,322.924 247.309,323.404 247.549,323.404 247.789,323.644 247.549,323.884 247.309,324.125 246.829,325.325 246.829,326.044 246.829,326.525 247.069,327.004 247.309,327.485 247.069,327.724 246.829,327.964 246.829,327.724 246.349,327.724 246.109,327.724 245.629,327.485 245.389,327.004 244.669,324.844 244.189,323.644 243.469,322.444 242.029,320.764 241.549,320.284 240.349,319.323 239.389,318.364 238.669,317.884 237.709,317.164 235.069,315.484 232.91,314.043 231.95,313.803 231.469,313.323 230.75,313.083 230.269,312.603 229.79,312.364 229.79,312.603 229.549,312.603 229.309,312.603 228.83,312.364 228.589,312.124 228.349,312.124 228.349,312.364 228.349,312.124 228.11,312.124 228.349,312.124 228.11,312.124 228.11,311.883 227.629,311.643 225.95,310.683 225.469,310.443 224.75,310.204 224.75,310.443 224.509,310.443 224.27,310.204 224.27,310.443 224.27,310.204 224.27,310.443 224.03,310.443 223.07,310.204 221.389,310.204 218.99,310.204 217.31,310.204 216.35,310.443 215.87,310.443 215.87,310.683 215.63,310.683 215.87,310.923 215.39,310.923 214.91,311.164 214.67,311.404 214.19,311.404 213.71,311.164 213.47,311.164 213.23,310.683 213.23,309.483 213.23,309.003 212.99,308.523 212.75,308.283 212.51,308.043 212.75,307.563 212.99,307.083 212.75,306.363 212.51,305.883 212.51,305.643 212.51,305.403 212.51,304.923 212.51,304.203 212.75,303.723 212.75,302.763 212.75,302.523 212.51,302.283 212.27,301.803 212.03,301.803 212.03,301.563 212.03,301.323 212.27,301.323 212.51,301.323 212.51,301.083 212.27,300.842 212.03,300.603 212.03,300.363 212.27,299.882 212.03,299.163 211.79,298.922 212.03,298.682 212.03,298.443 212.03,298.203 211.55,297.962 211.31,297.483 211.31,297.002 211.07,297.002 210.83,297.002 210.59,296.762 210.59,296.283 210.35,295.802 210.35,295.562 210.35,295.323 210.59,295.323 210.83,295.562 210.83,295.083 210.59,295.083 210.59,294.842 211.07,294.602 211.07,294.362 211.31,294.123 211.07,293.882 211.07,293.642 211.31,293.642 211.55,293.642 211.55,293.402 211.79,293.163 211.79,292.922 212.03,292.922 212.27,292.442 212.51,292.202 212.27,291.962 212.75,291.962 212.75,291.722 212.75,291.482 212.75,291.242 212.99,291.242 212.99,290.762 212.75,290.762 212.99,290.522 213.23,290.282 212.99,290.042 213.23,289.802 213.23,289.562 213.47,289.082 213.71,288.602 213.71,288.362 213.71,288.122 213.95,288.122 213.95,287.642 213.95,287.402 214.19,287.402 214.43,287.402 214.43,287.162 214.67,287.162 214.67,287.402 214.91,287.402 214.91,287.162 215.15,286.921 215.39,286.682 215.63,286.442 215.87,286.202 216.11,286.202 216.11,285.961 216.35,285.961 216.35,285.721 216.59,285.721 216.83,285.482 217.31,285.242 217.31,285.001 217.55,284.761 217.79,284.522 218.03,284.522 218.03,284.282 218.03,283.801 218.27,283.561 218.509,283.322 218.75,282.841 218.75,282.601 218.75,282.122 218.99,282.122 218.99,281.881 219.23,281.881 219.23,281.641 219.469,281.401 219.469,281.162 219.469,280.681 219.709,280.441 219.709,280.202 219.95,279.721 219.709,279.721 219.95,279.24 219.469,279.001 219.469,278.761 219.709,278.761 219.709,278.521 219.95,278.521 220.19,278.281 220.429,278.521 220.429,278.281 220.669,278.521 220.91,278.281 221.389,278.281 221.389,278.042 221.87,278.042 222.11,278.281 222.349,278.521 222.589,278.281 222.83,278.281 222.83,278.521 223.07,278.281 223.07,278.042 223.309,278.042 223.549,278.281 224.03,278.042 223.79,277.801 223.79,277.321 224.03,277.321 224.03,277.081 223.79,277.081 224.03,276.841 224.03,277.081 224.27,276.841 224.27,276.601 224.509,276.601 224.509,276.841 224.509,276.601 224.75,276.601 224.75,276.361 224.99,276.601 225.23,276.841 225.469,276.841 225.709,277.081 225.709,276.841 225.709,277.081 225.95,277.081 225.95,277.561 226.19,277.561 226.429,277.561 226.429,277.801 226.669,277.561 226.91,277.321 227.15,277.321 227.389,277.561 227.629,277.561 227.87,277.321 227.87,277.561 227.87,277.081 228.11,276.841 227.87,276.601 227.87,276.361 228.349,276.121 228.349,275.641 228.349,275.401 228.349,274.681 228.589,274.201 228.83,274.201 228.83,273.96 229.07,273.96 229.07,273.721 229.309,273.24 229.07,273.24 229.309,273.24 229.309,273 229.549,273 229.549,272.761 229.309,272.761 229.549,272.521 229.549,272.281 229.79,272.281 229.549,272.04 229.309,272.281 229.07,272.04 229.07,271.8 229.309,271.561 229.549,271.081 230.269,270.361 230.509,270.121 230.75,270.121 230.75,270.361 230.99,270.361 231.229,270.361 231.469,270.361 231.469,270.601 231.709,270.601 231.95,270.84 232.669,271.321 233.149,271.321 233.87,271.561 234.349,271.321 234.83,271.321 234.83,271.561 234.83,272.04 234.83,272.281 234.589,272.281 234.589,272.761 234.109,273.24 234.109,273.721 234.109,274.201 234.589,273.96 234.589,274.201 234.83,274.201 235.069,274.201 235.309,274.201 235.549,274.201 235.309,274.441 235.549,274.441 235.309,274.681 235.79,274.681 235.79,274.921 236.029,274.921 236.269,274.921 236.509,275.161 236.75,274.921 236.509,274.921 236.75,274.681 236.75,274.921 236.989,274.921 236.989,274.681 237.229,274.681 237.229,274.921 237.469,274.921 237.95,274.921 237.95,274.681 238.189,274.921 238.429,274.921 238.91,275.161 238.91,274.921 239.149,274.921 239.149,275.161 239.389,275.161 239.389,274.921 239.629,274.921 239.87,274.921 240.109,274.921 240.349,275.401 240.589,275.401 240.589,275.881 240.83,275.881 241.069,276.121 241.309,276.841 241.309,277.081 241.309,277.561 241.069,277.801 241.309,277.801 241.069,278.042 241.309,278.042 241.549,278.042 241.79,278.042 241.549,278.042 241.79,277.801 242.269,277.801 242.509,277.801 243.229,278.042 244.189,278.281 243.949,278.521 244.189,278.521 244.189,278.761 244.429,278.761 244.669,278.761 244.909,278.761 244.909,278.521 245.149,278.521 244.909,278.521 244.669,278.042 244.909,277.801 245.149,277.561 245.389,277.321 245.629,277.321 245.869,277.081 245.389,276.841 245.869,276.601 246.109,276.841 246.829,276.841 247.069,277.081 247.549,277.321 248.269,277.081 248.269,277.321 248.269,277.561 248.509,278.042 248.509,278.521 248.509,279.001 248.749,279.001 249.229,279.24 249.469,279.481 249.708,279.721 249.949,279.721 250.189,280.202 250.668,280.202 250.909,280.441 251.389,280.441 251.629,280.441 251.869,280.441 251.869,280.681 251.869,280.921 252.109,280.921 252.349,280.921 253.069,280.921 253.309,280.921 253.549,281.162 253.549,281.401 253.789,281.641 254.029,281.881 254.029,281.881 253.789,282.362 254.269,283.082 254.509,283.082 254.509,282.841 254.749,282.841 254.989,282.601 254.989,282.841 254.989,282.601 255.229,282.601 255.229,283.082 255.469,283.082 255.708,283.322 255.708,283.561 255.469,283.561 255.229,284.042 254.989,284.042 254.989,284.282 254.509,284.522 254.509,284.761 254.509,285.001 254.509,285.242 254.749,285.242 254.989,285.242 255.229,285.242 255.229,285.721 255.229,286.202 255.469,286.202 255.708,286.682 255.708,286.921 255.469,287.162 255.708,287.402 "
         style="color:#000000;fill:#622a21;fill-opacity:1;stroke:none;stroke-width:0.1366629;marker:none;visibility:visible;display:inline;overflow:visible;enable-background:accumulate"
         id="polygon292" />
      <path
         inkscape:connector-curvature="0"
         d="m 25.257287,37.657124 0,-0.01764 -0.01756,0.01764 0,-0.01764 0,-0.01755 -0.01757,0 -0.01749,-0.01757 0,-0.01749 0.01749,-0.01757 -0.01749,-0.01763 0.01749,0 0.01757,-0.01756 0.01756,-0.01756 0.05269,-0.01749 0,-0.01756 0.07025,0.03504 0.03512,0 0.01749,0.03513 0.01755,0.01763 0.01756,0.03504 0.01757,0.01756 0.03505,0.07025 0,0.08781 -0.01749,0.01756 -0.01755,0 -0.01757,0.03505 0.03513,-0.01749 0.01749,-0.01756 0.01755,0 0.01757,-0.01756 0.01749,0.01756 0,0.03505 0,0.03513 0,0.01756 0,0.03504 -0.01749,0 0.01749,0.01756 -0.01749,0 0.01749,0.01756 0,0.01757 -0.01749,0.01748 0.01749,0.01764 -0.01749,0.01756 0,0.03512 -0.01757,0.01749 0.03505,0 -0.01749,0.01763 0.01749,0 0,0.01756 0.01756,0.01756 0.01756,0 0.01756,0 0,0.01756 -0.01756,0 0,0.01757 0,0.01756 0.01756,-0.01756 0.01756,0 -0.01756,0.03513 0,0.03504 0.03505,0.01756 0.01756,0.01757 0.01756,0.01756 -0.01756,0.01749 0,0.01757 0.05269,0 0.01757,0 0.03512,0 0,0.03513 -0.01756,0.03504 -0.01755,0.01756 0.01755,0.01756 0,-0.01756 0.01756,0.01756 -0.01756,0 0.01756,0 0,0.01756 0.01749,0.01749 0,0.01757 0.01755,0 0,0.01756 0.01756,0 0,0.01757 -0.01756,0.01749 0,0.01756 0.01756,0.01756 0.03505,0.0352 0.03512,0.05268 0.01756,-0.03512 0,0.01756 0.01749,-0.01756 0.01756,0 0.01756,0.01756 0.01757,0 0.03505,-0.01756 0.01756,0 0,-0.01749 -0.01756,0 0.01756,0 0.01756,-0.01756 -0.01756,0 0.01756,-0.01764 0,0.01764 0.03505,0 0,0.01756 0.01756,0 0,0.01749 0.01757,0 0,0.01756 0,0.01756 0.01749,-0.01756 0.01756,0 -0.01756,0 0,0.01756 0.01756,0 0.01757,0.01756 -0.01757,0 -0.01756,0 0,0.01749 -0.01749,0 0.01749,0.01756 0.01756,0 0.03512,0.01757 -0.01756,0.01756 0.01756,0.01756 -0.01756,0 -0.01757,-0.03513 -0.01756,0.01756 0,0.01756 0.01756,0.01749 0.01757,0 0.01756,0.03513 0,0.03504 0,0.01756 -0.01756,0 -0.01757,0 0,0.01756 -0.01756,-0.01756 -0.01749,0 0,0.01756 -0.01756,0 -0.01756,-0.01756 -0.03505,0 -0.01757,-0.01756 -0.01756,0.03512 -0.01756,0.01757 0.01756,0 0.03512,0.01756 -0.03512,0.01749 0,0.01756 0,0.03512 0.01756,0 0,0.01749 0.01757,0 0,0.01763 0.01748,0.01757 -0.05269,0.03513 -0.07025,0.01749 0,0.01756 -0.03505,0 -0.01757,0.01756 0,0.01757 -0.01757,0 -0.01756,0.01749 -0.01749,-0.01749 0,-0.03512 -0.01756,-0.01756 -0.01756,-0.01749 -0.01756,0 0,-0.01763 0.01756,-0.01756 -0.01756,0 0.01756,-0.01757 -0.01756,0 -0.03505,0 -0.01755,0 -0.01756,0 0,0.01757 -0.01748,0.03512 0.01748,0 0,0.01749 -0.01748,0 0.01748,0 -0.05269,0.05275 -0.01757,-0.01756 -0.01749,0.01756 -0.01755,0 0,-0.01756 0,-0.01756 -0.01756,-0.01756 0.01756,0 -0.01756,-0.01749 0,0.01749 -0.01757,0 -0.01756,0 0,0.01756 -0.01749,-0.01756 -0.01756,0 0,0.01756 -0.01756,0 0,0.03512 0.01756,0 0.03505,0.01749 0.01755,0.01756 0.01757,0.01756 0,0.07025 -0.03512,0.01756 0,0.01756 -0.01749,0 0,0.01749 -0.01756,-0.01749 -0.03505,0.01749 -0.01757,0.01756 -0.03512,0.05276 -0.01757,0 -0.01749,0.01749 -0.05276,0.03513 -0.01749,0 -0.01756,0 -0.01756,0.01756 0.01756,0 -0.01756,0.01749 0,-0.01749 -0.03505,0.03505 -0.01756,0.01764 -0.05269,0 -0.01757,0 -0.01756,0 -0.03505,0.01756 -0.01756,0.01756 0,-0.01756 -0.01757,0 0,-0.01756 -0.01757,0 -0.01749,0.05269 -0.01757,0.01757 -0.01758,0.01756 -0.03505,0.03504 0,0.01757 -0.03513,0.01756 -0.01754,0 -0.01749,0.01756 -0.03512,0.01756 -0.01757,0.03505 -0.01749,0 -0.01757,0.01756 -0.01757,0 -0.05269,-0.07025 -0.01757,-0.01757 0,-0.01756 -0.01758,-0.03505 -0.03505,-0.03513 -0.01757,-0.01756 -0.01758,-0.01749 0,-0.01756 0,-0.05276 -0.07024,0.07032 -0.01749,0 0,0.01749 -0.01754,0.03513 -0.01758,0 -0.01757,0 0,0.03504 0,-0.01749 -0.03505,0.01749 -0.01758,0 -0.01757,0.03512 -0.01757,0.01756 -0.03505,0.03505 -0.01757,0.01756 0.01757,0.01756 -0.07024,0.01756 0,-0.03513 -0.01757,0 0,-0.01756 0,-0.01749 0.01757,0 -0.03512,-0.01756 0,-0.03513 0,-0.01756 0.01757,0 0.01757,-0.01749 0.01758,-0.01757 0.01749,-0.01755 0,-0.01757 0.01758,-0.01749 0,-0.03512 -0.01758,-0.05268 0,-0.01757 0,-0.01756 -0.03505,0 -0.03513,0.03513 -0.01749,0 -0.01757,-0.01756 -0.05269,0.01756 -0.03513,0.01749 0.03513,0.07032 0.01749,0 0.01757,0.01749 0.01758,0.01757 0,0.01755 0,0.01757 -0.01758,0.03504 -0.01757,0 -0.01749,0.01756 -0.01758,0 0,0.03512 -0.01757,0 -0.01757,0 0,0.01749 -0.01749,0 0,0.01756 0,0.01756 -0.01757,0 -0.01757,0.01756 -0.01757,0 0,0.01749 -0.01749,0 0.03505,0.05276 0,0.03504 -0.07025,-0.03504 -0.03505,-0.01757 -0.01757,-0.01756 0,-0.08781 -0.01757,0.01756 -0.01757,-0.03505 0,0.01749 -0.01749,0.01756 -0.01757,0 -0.01757,-0.03505 -0.01757,0 -0.03505,0 -0.01757,-0.03512 -0.01757,-0.03513 -0.07024,0.05276 0,0.03504 0,0.03513 -0.01749,0.01756 -0.03512,0.01749 -0.01758,0 -0.03505,0 -0.01757,0 -0.03505,-0.01749 -0.03513,0 -0.03505,0 -0.01757,0 -0.01757,0 -0.07025,0.03505 -0.01757,0 -0.01757,0 -0.03505,0.03512 -0.01757,0.01757 -0.01757,0 -0.03505,0.12293 0,0.01756 0,0.01756 -0.08781,-0.03513 -0.03505,0 -0.01757,0 -0.03513,0 -0.01749,0.01757 -0.01757,0 -0.14049,-0.01757 -0.03513,-0.01755 -0.07025,0 -0.05269,-0.01757 -0.03505,-0.01749 -0.05276,-0.03512 -0.03505,-0.03505 -0.05269,-0.01756 -0.01757,0 -0.05269,0 -0.05276,-0.01756 -0.01758,0 -0.03504,0 -0.01757,0 -0.03505,-0.03513 0,-0.01749 -0.05276,0.01749 -0.07024,0.01757 -0.01749,-0.01757 -0.01757,0 -0.03512,-0.03504 -0.03505,-0.03512 -0.01757,-0.01749 0.01757,0 0.03505,-0.03513 0,-0.03512 0,-0.03505 0.01757,-0.05269 0,-0.03512 -0.05269,-0.140492 0,-0.03512 -0.01757,-0.05269 0,-0.01755 0.03513,-0.03505 0.01749,-0.03513 0.03513,-0.01756 -0.01757,-0.01756 0.01757,0 0.01757,0 0,-0.01748 0,-0.01756 -0.01757,-0.01757 -0.01757,0 0.01757,-0.03504 0.01757,-0.01763 0.03505,-0.03512 -0.03505,-0.03505 -0.01757,-0.05275 0.01757,0 -0.01757,0 0.01757,-0.01749 0,-0.01756 0.01749,-0.03513 -0.03505,-0.05269 0,-0.01756 0.01757,-0.01756 0,-0.01749 0,-0.03513 0.03504,-0.01756 -0.01757,-0.01756 0.01757,-0.01749 0,-0.01756 0.01757,-0.01756 -0.03513,-0.05269 -0.05269,-0.03512 -0.03505,-0.03505 0.01749,-0.01756 0.01757,-0.01757 0.01757,-0.01755 0.03505,-0.01749 0,-0.01756 -0.01749,0 0,-0.01757 -0.01757,0 0.01757,-0.03513 0.01749,-0.03504 -0.01749,-0.01756 0,-0.01756 0.07025,-0.01749 0.01749,-0.01756 0,0.01756 0.01758,0 0,-0.01756 0.01757,0 0,-0.03512 0,-0.01749 -0.01757,-0.01756 0,-0.01757 -0.01758,0 0,-0.01756 -0.01749,-0.01756 0,-0.01756 -0.01758,-0.05276 -0.01758,-0.01749 -0.01757,0 0,-0.01756 -0.01749,-0.01756 0.01749,0 -0.01749,-0.0352 -0.01757,-0.03504 0.01757,-0.01757 -0.03512,-0.03504 -0.01757,-0.01757 -0.01748,0 -0.01757,-0.08781 0.01757,0 0,-0.01756 0,-0.01757 0,-0.01749 -0.01757,0 0.01757,0 0,-0.01756 0,-0.01756 -0.03513,-0.01757 -0.01754,0 0,-0.01756 -0.01749,0 -0.01757,0 -0.01758,0 -0.01757,0 -0.01749,0 -0.01758,0 -0.01757,0 -0.01757,0 -0.01749,0 0,0.01756 0,-0.01756 -0.01757,0 -0.01757,0 0.01757,0 -0.01757,0 0,-0.01749 -0.01757,0.01749 0,-0.01749 0,0.01749 0,-0.01749 -0.01749,0.01749 -0.01757,0 0,0.01756 -0.01757,-0.01756 -0.01758,0 0,-0.01749 0.01758,-0.01763 0,-0.01757 0,-0.01756 0,-0.01749 0,-0.01756 0.01757,0 0,-0.03513 0.01757,0 0,0.01757 0,-0.01757 0.01749,0 0.01757,0 0.01757,0 0,-0.03504 0,-0.03513 0.01757,0 0,-0.01756 0.01749,0 0,-0.01749 0.01757,0 0,-0.01757 0,-0.01755 -0.01757,-0.01757 0.01757,0 -0.01757,0 0.03512,-0.01756 0.01757,0.01756 0.01749,0 0.01757,0.01757 0.03512,-0.03513 0.01749,-0.01749 0.08781,-0.03513 0.03512,0 0.03505,-0.01756 0.01757,0 0.05269,-0.01749 0.01757,0 0.01758,0 0.03505,0 0.05269,0.01749 0.01758,0 0,-0.01749 0.01757,0.01749 0.01757,-0.01749 0.01757,0.01749 0,0.03513 -0.01757,0 0,0.01756 0.01757,0 0.01749,-0.01756 0.01757,0 0,0.01756 0.01758,0 0.01757,0 0,-0.01756 0,-0.01757 0.03505,-0.03504 -0.01757,-0.01756 0,-0.05276 -0.01748,0 0.01748,-0.01749 0.01757,-0.01757 -0.01757,0 0.01757,-0.01756 0.03512,0 0.01749,0 0.01757,0.03513 0.01758,0 0,0.01749 0,-0.01749 0.01757,0.01749 0.01749,-0.01749 0.01758,0 0,0.03504 0.01757,-0.01756 0,0.01756 0,-0.01756 0,-0.01749 0.01757,0 0.01748,-0.01756 -0.01748,-0.01756 0.01748,-0.01756 0,-0.01756 -0.01748,-0.03513 -0.01757,0 0,-0.03512 0,-0.03505 -0.01757,0 -0.01758,0 -0.01749,0 0,-0.01756 0,-0.01763 0,-0.01749 0.03505,-0.01756 0,-0.01756 0.01757,0 0.01757,-0.03513 0.01749,0 0,-0.01749 -0.01749,-0.01757 -0.01757,0 0,-0.03512 -0.01757,0 0,0.01756 0,-0.01756 -0.01758,0.01756 -0.01749,0 0,0.01756 -0.01758,0 -0.03513,-0.05268 0.01758,-0.03512 0,-0.01756 0.03512,-0.01756 0,-0.01749 0.01749,0 0.01757,-0.01757 0,-0.01756 0.01758,0.01756 0.01757,-0.03512 0.01749,0 0.03512,-0.01749 0.01758,0 0.03505,0 0.01757,-0.01763 0.01758,0.01763 0.03505,-0.01763 0.01758,-0.01756 0.01757,0 0.01749,0 0.01758,0 0.01757,0 0.01757,0.01756 0.01749,-0.01756 0,0.01756 0.03512,-0.03513 0.01757,0.01757 0.01749,0 0.03513,0 0.01757,0 0.03505,-0.0352 0,-0.01749 0.01757,-0.01763 0,-0.01756 0,-0.01756 0,-0.01749 0,-0.01757 0.01757,-0.01756 0.01749,0 0.01757,-0.01756 0,-0.01756 0.01757,0 0,-0.01749 0,-0.01756 -0.05269,-0.03513 0,-0.01749 0,-0.01756 0.01749,-0.01756 0.01755,-0.03505 0.01757,-0.01756 0.03505,-0.01756 0.03513,0 0,-0.01756 0,-0.03505 0,-0.01756 0.01757,-0.01763 0.03505,0 0,-0.03505 0.01757,0 0.01757,0 0.01757,0 0.03504,0.01757 0,-0.01757 0.01757,-0.01755 0,0.01755 0,-0.01755 0,0.01755 0.01757,-0.01755 0.01749,0.01755 0.01757,-0.01755 0.01757,-0.01757 0.01757,0 0.01748,0 0.01758,0.01757 0.01757,0 0,-0.01757 0.01757,-0.01763 0,0.01763 0.01749,-0.01763 0.01757,0 0,-0.01756 0.01757,0.01756 0.01757,0.01763 0.01749,0 0.01757,0 0,0.01757 0.01758,-0.01757 0,0.01757 -0.01758,0 0.03512,0 0,0.03403 0,0.03512 0,-0.01763 -0.01757,-0.01756 -0.01757,0 -0.01757,0 0,0.01756 0.03512,0.0352 -0.03512,0.01749 0,0.01755 -0.01749,0.01757 -0.01757,0 -0.01757,-0.01757 -0.01758,0.01757 -0.01749,0.01756 0.01749,0.03505 0,0.01756 0,0.03512 0,0.01749 0,0.01757 0.03513,0 0.01757,0.01755 0.05269,0 0.05269,-0.05269 0,-0.03513 0.05269,-0.03505 0,-0.01756 0.03512,-0.01756 0.105297,0.01756 0.01758,0 0,0.05269 0.05269,0.01755 0.01757,0.01757 0.01757,0.01749 0,0.03513 0.01758,0.01756 0.01749,0.01749 0,0.01756 0.01754,0.01756 0.01757,0.01756 0.03505,0.03505 0,0.03512 0,0.01763 0,0.03505 0,0.01756 0,0.01756 0,0.01763 0,0.01749 0.01757,-0.01749 0,0.01749 0.01757,0.01756 0,0.03512 0.01757,0 0.01749,0.01749 0.01757,0 0.01757,0.01756 0.01757,0.01756 0.01749,0 0,0.01757 0.01758,0 0.01757,0.01756 0,0.01749 -0.01757,0 0,0.01756 0,0.01756 0.01757,0 -0.01757,0 0.01757,0.01756 -0.01757,0 0,0.01749 0.01757,0.01756 0,0.01756 0,0.01756 -0.01757,0.01756 0,0.01749 0.01757,0 0,0.01763 -0.01757,0 0.01757,0 0,0.01756 0,0.01756 0,-0.01756 0.01757,0.01756 -0.01757,0 0.01757,0.01749 0.01758,0 0.01749,0.01756 0.01754,0.01763 0.03513,0 0.01749,0.01756 0.01758,0 0.01757,0.01756 0.01757,0.01756 -0.01757,0.01756 0,0.01756 -0.01757,0.01757 0,0.03504 0,0.01756 0.01757,0.01756 0.01757,0.01756 0.01749,0.01748 0.03513,0.01756 0,0.01756 -0.01757,0.01756 0,0.01749 0.01757,0.01756 0,0.03513 0.01757,0.01756 0,0.01749 0,0.01756 -0.01757,0.01756 0,0.01756 0,0.01749 0,0.01756 -0.01757,-0.01756 -0.01757,0.01756 0,0.01756 -0.01749,-0.01756 0,-0.01756 -0.01757,-0.01749 -0.01758,0 -0.03505,0.03505 -0.01757,0.01756 0,0.01763 -0.01757,0.01756 -0.01754,0 0,-0.01756 0,-0.03512 -0.01749,0 -0.01757,0 -0.01757,0.01757 -0.01757,0.01763 0,0.03504 0,0.01756 0,0.01756 0.01757,0 0.01757,0 0.01757,0 -0.01757,0.01763 -0.01757,0.01749 -0.01757,0 0,0.01757 0,-0.01757 0,0.01757 0.01757,0 -0.01757,0 0.01757,0 0,0.01756 0,0.01756 0.01757,0 0.01757,0.01756 0,0.01749 0.01749,0.01756 0.01754,0 0.01757,0.01756 0.01757,0 0,0.03505 0,0.03513 0.01749,0 0.01758,-0.01756 0,-0.01756 0.01757,0 0.03505,-0.05269 0.01758,-0.01756 0.03513,-0.01749 0.05269,0 0.05269,-0.03512 0.01757,-0.01757 0.03505,-0.01756 0.01757,-0.01749 0.03513,-0.01763 0.08773,-0.05261 0.03513,0.03505 0.01757,0.03512 0.03505,-0.03512 0.01757,0.01756 0.01756,0 0.03505,0 -0.01756,-0.01756 0.01756,-0.01756 -0.01756,0 0,-0.03504 0,-0.01763 -0.03505,-0.01756 0.03505,0 0.01756,0 0.01756,0.03513 0,0.01756 0.01757,0.01749 -0.01757,0.01756 0.01757,0.01756 0.01749,0.01763 0.03592,0 0,0.0011 z m 0.12293,0.193104 -0.01756,0 -0.01749,-0.05269 0,-0.01755 0,-0.01757 0,-0.01749 0.01749,-0.01756 -0.01749,-0.01757 0,0.01757 -0.01756,0 -0.01756,0.01756 0,-0.01756 -0.01755,-0.01757 -0.07024,-0.01756 0,0.01756 0.08781,0.03512 0.01756,0.01749 -0.01756,0.05276 0.03513,-0.01757 0,0.05269 0.01749,0 0.01756,0.01756 0,-0.01763 0,0 z"
         style="color:#000000;fill:#622a21;fill-opacity:1;stroke:none;stroke-width:0.02;marker:none;visibility:visible;display:inline;overflow:visible;enable-background:accumulate"
         id="path298" />
      <polygon
         transform="matrix(0.07317275,0,0,0.07317275,4.0878249,16.135336)"
         points="377.866,292.202 377.866,292.442 377.866,292.682 377.626,292.682 377.386,293.402 377.386,294.362 377.386,294.602 377.386,294.842 377.626,294.842 377.626,295.323 377.626,295.562 377.866,295.802 377.626,296.283 376.906,296.283 376.667,296.042 376.426,296.283 376.186,296.283 375.706,296.042 375.226,295.802 375.226,296.522 375.706,296.762 375.946,297.483 375.946,297.962 375.706,297.962 375.706,298.203 375.946,298.203 375.946,298.682 375.706,298.922 376.426,299.403 376.186,299.643 376.426,299.882 376.186,299.882 376.426,300.363 376.186,300.363 375.706,300.363 375.226,300.603 374.986,300.603 374.746,300.363 374.506,300.123 374.506,300.363 374.506,300.603 374.026,300.842 373.786,300.842 373.546,300.842 373.066,300.842 373.066,301.083 373.066,301.323 373.066,301.563 372.586,302.042 371.626,302.042 371.386,302.042 370.906,302.763 370.667,302.763 370.186,303.002 369.946,303.243 369.466,303.483 369.466,303.723 369.226,304.203 368.747,304.443 368.506,304.683 368.266,304.923 367.546,305.643 367.306,305.883 367.306,306.123 367.306,306.363 367.546,306.603 367.306,307.563 367.066,307.563 366.827,307.803 366.827,308.043 367.066,308.283 366.827,308.523 366.827,308.763 367.066,308.763 366.827,309.003 366.827,309.244 366.586,309.244 366.586,309.483 366.586,309.723 366.586,309.963 366.586,310.204 366.586,310.443 366.586,310.683 366.346,311.404 366.586,311.883 366.586,312.124 366.827,312.124 366.586,312.843 366.346,312.603 366.106,312.843 365.867,312.603 365.626,312.603 365.386,312.364 365.146,312.364 365.146,312.124 364.667,312.124 364.426,312.124 364.426,311.883 364.186,312.124 363.466,312.364 363.226,312.124 363.466,312.124 363.226,311.883 362.987,311.883 362.987,311.643 362.747,311.404 362.987,311.164 362.747,311.164 362.987,310.923 362.747,310.923 362.266,310.923 362.026,310.683 361.787,310.443 361.546,310.204 361.306,310.204 361.067,310.204 360.827,310.204 360.586,310.204 360.586,310.443 360.346,310.683 360.346,310.923 360.106,311.164 360.346,311.404 360.106,311.404 359.867,311.643 360.106,311.643 359.626,312.124 359.626,312.364 359.867,312.603 359.626,313.323 359.626,313.803 359.626,314.043 359.386,313.803 359.386,314.043 359.146,314.284 359.146,314.763 358.667,315.003 358.426,315.003 357.947,315.244 357.947,315.724 357.947,315.963 357.707,315.963 357.707,316.204 357.466,316.444 357.466,316.684 357.466,316.923 357.466,317.164 357.226,317.404 357.466,317.644 356.747,317.644 356.266,317.644 355.787,317.644 355.546,317.644 355.306,316.923 355.067,316.923 354.827,316.684 354.827,316.923 354.827,317.404 355.067,317.404 355.067,317.884 354.827,317.884 354.827,318.124 355.067,318.604 355.067,319.323 355.546,320.044 355.546,320.524 355.787,320.524 355.787,321.004 356.027,321.004 356.027,321.244 356.266,321.244 356.506,321.724 356.506,321.964 356.506,322.205 356.506,322.444 356.266,322.684 356.266,322.924 356.027,323.165 355.787,323.165 355.306,323.165 355.067,323.404 354.586,323.644 354.827,324.125 354.586,324.125 354.586,324.365 354.827,324.365 354.586,324.365 354.586,324.604 354.346,324.604 354.107,324.844 353.867,325.084 353.626,325.084 353.386,324.844 353.386,325.325 353.386,325.564 353.626,325.564 353.626,325.804 353.867,326.044 354.107,326.285 354.346,326.285 354.346,326.525 354.586,327.004 354.827,327.724 354.586,328.205 354.346,328.205 353.386,328.445 353.147,328.685 352.667,329.165 351.227,330.125 351.227,330.365 351.227,330.845 351.466,331.325 351.466,331.565 351.227,331.565 350.987,331.805 350.506,331.565 350.267,331.805 350.027,331.565 349.787,331.565 349.546,331.565 349.067,331.565 348.827,331.805 348.346,331.565 348.107,331.565 347.626,331.325 347.147,331.565 346.907,331.565 346.426,331.805 345.707,332.044 345.466,331.805 344.987,332.044 344.747,332.044 344.506,332.285 344.267,332.285 344.027,332.765 344.027,333.004 343.787,333.004 343.546,333.004 343.307,333.004 343.067,333.004 343.067,333.245 342.827,333.245 342.586,333.245 342.347,333.485 342.107,333.725 341.867,333.725 340.907,333.725 340.667,333.725 340.427,333.725 339.947,333.725 338.987,332.765 338.747,332.765 338.747,332.525 338.507,332.525 338.507,332.765 338.747,332.765 338.267,332.525 337.787,333.004 337.307,332.765 336.827,332.525 336.107,331.805 335.627,331.805 334.907,331.805 334.667,331.805 334.427,331.565 334.187,331.805 333.947,332.044 333.708,332.285 333.227,332.285 332.747,332.044 332.747,332.285 332.507,332.285 332.267,332.285 332.027,332.285 332.027,332.525 332.027,332.765 331.787,332.765 331.787,332.525 331.787,332.285 331.307,332.044 330.827,332.044 330.827,332.285 330.587,332.285 330.587,332.044 330.347,332.044 330.347,331.565 330.347,331.325 330.347,331.084 330.347,330.845 330.347,330.365 330.587,330.365 330.587,330.125 330.827,330.125 330.827,329.884 330.587,329.645 330.827,329.405 330.107,328.924 330.107,328.685 329.867,328.685 329.867,328.445 329.867,328.205 329.147,327.724 329.147,327.485 328.907,327.245 328.427,327.245 328.427,327.004 327.947,327.245 327.708,327.485 327.708,327.245 327.467,327.485 327.227,327.245 326.987,327.004 327.227,327.004 326.987,327.004 326.748,326.764 326.507,326.764 326.267,326.764 326.027,326.525 326.027,326.764 325.788,326.525 325.788,326.285 325.547,326.044 325.307,326.044 325.067,325.804 325.067,326.044 324.828,325.804 324.587,325.804 324.347,325.804 323.868,325.564 323.627,325.804 323.387,325.804 322.908,325.564 322.908,325.325 322.187,325.084 321.948,325.325 321.708,325.084 321.467,324.844 321.227,324.365 320.987,324.365 320.748,324.125 320.507,324.125 320.267,323.884 320.028,323.644 320.028,323.165 319.788,323.404 318.828,323.165 317.868,322.924 317.868,322.684 317.627,322.684 317.147,321.964 316.667,321.724 316.427,321.484 316.187,321.004 316.187,320.764 315.948,320.524 315.227,320.284 314.988,320.284 314.988,320.524 314.507,320.524 314.507,320.044 314.507,319.564 314.267,319.083 314.267,318.364 314.267,317.644 314.267,317.404 314.028,317.164 314.028,316.923 314.028,316.684 314.028,316.444 314.028,315.963 313.788,315.724 313.547,315.244 313.307,315.003 313.068,313.803 312.828,313.803 313.068,313.564 313.788,313.083 314.028,313.083 314.267,312.843 314.988,312.124 315.227,311.883 315.227,311.164 314.988,310.923 314.988,310.683 315.467,310.443 315.708,309.483 315.948,309.244 315.948,308.523 315.708,308.043 315.948,307.563 316.187,307.563 316.187,307.323 316.667,307.083 316.908,307.083 317.147,307.083 317.387,307.083 317.868,307.083 318.347,307.563 318.587,307.323 318.828,306.603 319.307,306.123 319.547,305.883 320.028,305.643 320.267,305.643 320.267,305.403 320.267,305.163 320.748,304.923 321.227,305.163 321.227,304.923 321.708,305.163 322.427,304.923 322.667,304.923 322.908,305.163 323.387,305.163 324.107,305.643 324.347,305.643 324.587,305.883 325.067,306.123 325.547,306.123 326.027,306.123 326.267,306.123 326.507,305.883 326.748,305.883 327.227,305.643 328.187,305.643 328.427,305.883 328.667,305.883 328.667,305.403 328.907,305.163 329.147,305.163 329.147,304.923 329.147,304.683 329.387,304.443 329.387,303.962 329.627,303.962 329.627,303.723 329.867,303.002 329.627,303.002 329.627,302.763 329.867,302.763 330.347,302.523 330.347,302.283 330.347,302.042 330.107,301.803 330.347,301.563 330.587,301.563 330.827,301.803 330.827,302.042 331.787,301.803 332.267,301.563 332.267,301.803 332.747,301.323 332.747,301.083 333.227,300.842 333.467,300.603 333.708,300.603 334.187,300.603 334.427,300.363 334.907,300.123 335.387,300.123 335.627,300.123 336.347,299.403 336.827,299.403 336.587,299.163 337.067,299.163 337.307,298.682 337.787,298.682 337.787,298.443 337.787,298.203 338.507,297.962 338.507,297.722 338.507,297.483 338.507,297.243 339.467,296.522 340.187,297.243 340.907,297.243 341.147,297.483 341.147,297.722 341.387,297.962 341.626,298.203 341.867,298.203 342.107,298.443 342.586,298.443 342.827,298.682 343.307,298.682 343.546,298.682 343.787,298.443 344.027,298.443 344.267,298.203 344.506,298.203 344.987,297.962 345.227,297.962 345.466,297.962 345.947,297.722 346.187,297.722 346.426,297.483 346.426,297.002 346.667,296.762 346.907,296.522 347.147,296.042 347.386,295.802 347.147,295.802 347.386,295.562 348.107,295.802 348.346,295.802 348.827,295.562 349.787,295.562 350.267,295.562 350.987,296.283 351.227,296.283 351.227,296.522 351.707,296.762 351.947,297.002 352.426,297.002 352.426,297.243 352.667,297.483 352.907,297.483 352.907,297.243 353.147,297.243 353.386,297.243 353.386,297.002 353.626,297.002 353.867,297.002 353.867,296.762 354.107,296.762 354.107,296.522 354.346,296.522 354.586,296.522 354.586,296.762 354.827,296.522 354.827,296.762 354.827,296.522 354.827,296.762 355.067,296.762 355.546,297.002 355.787,297.243 356.027,297.002 356.266,297.243 356.506,297.243 356.506,297.002 356.266,296.762 356.506,296.522 356.506,296.283 356.506,295.802 357.707,295.323 358.186,294.842 358.907,294.602 359.146,294.362 359.386,294.123 359.386,293.882 358.907,293.882 358.907,293.642 358.667,292.922 358.907,292.202 358.667,292.202 358.667,291.962 358.907,291.722 358.667,291.242 358.907,291.002 359.146,290.762 359.626,290.762 359.626,290.042 359.626,289.802 359.867,289.562 360.106,289.082 360.346,288.842 360.586,288.602 360.827,288.362 360.827,288.122 361.067,287.881 361.067,287.642 361.306,287.402 361.546,287.162 361.546,286.921 361.306,286.921 361.546,286.202 361.787,285.961 362.026,285.482 362.266,285.242 362.506,284.761 362.506,284.522 362.987,284.042 362.987,284.282 363.226,284.282 363.466,284.042 363.707,283.801 363.947,283.801 364.186,283.322 364.186,283.082 364.426,282.841 364.667,282.601 364.907,282.601 364.907,282.362 365.146,282.362 365.386,282.122 365.626,282.122 365.867,282.362 365.867,282.601 366.106,282.601 366.346,282.601 366.586,282.362 366.827,282.362 367.066,281.881 367.787,281.641 368.266,281.162 368.266,280.921 368.506,280.921 368.506,279.24 368.506,279.001 368.506,278.761 368.266,278.761 368.266,278.521 368.747,278.521 368.747,278.281 368.986,278.281 368.986,278.042 369.226,278.042 369.466,278.042 369.226,278.042 369.466,277.801 369.946,277.801 370.186,277.801 370.426,278.042 370.667,278.042 370.906,278.281 371.626,278.281 371.866,278.521 372.346,278.761 372.346,279.001 372.586,278.761 372.826,279.001 373.306,279.001 373.786,279.24 374.026,279.721 374.506,279.721 374.746,279.721 374.986,279.721 375.706,280.202 376.186,280.202 376.667,279.961 376.667,279.961 377.386,280.441 377.866,280.681 378.106,280.921 378.106,281.401 378.826,282.601 379.066,282.841 379.306,283.082 379.546,283.561 380.026,283.801 380.266,284.042 380.506,284.042 380.986,284.282 379.786,285.242 379.546,285.482 379.306,285.721 378.826,285.721 378.346,285.721 378.346,285.961 378.106,286.682 378.346,287.402 378.346,287.642 378.346,287.881 378.106,288.602 378.106,289.082 378.346,289.322 378.106,289.562 378.346,289.562 378.826,290.042 378.586,291.002 378.346,291.242 378.346,291.482 "
         style="color:#000000;fill:#622a21;fill-opacity:1;stroke:none;stroke-width:0.1366629;marker:none;visibility:visible;display:inline;overflow:visible;enable-background:accumulate"
         id="polygon302" />
      <polygon
         transform="matrix(0.07317275,0,0,0.07317275,4.0878249,16.135336)"
         points="393.226,316.684 392.986,316.923 392.986,317.644 392.986,318.604 392.746,318.604 392.746,318.844 392.505,319.083 392.505,319.323 392.266,319.564 392.026,319.804 392.026,320.284 391.786,320.284 392.026,320.284 392.026,320.764 391.786,321.004 391.545,321.484 391.306,321.724 391.306,322.205 391.545,322.205 391.545,322.444 391.306,322.205 391.306,322.684 391.306,322.444 391.306,322.684 391.545,322.684 391.306,322.684 391.306,323.165 391.545,323.404 391.306,323.644 391.306,323.884 390.826,323.884 390.585,323.884 390.106,323.884 389.866,324.125 389.625,324.365 389.625,324.604 389.385,324.844 389.385,325.084 389.146,325.084 389.146,325.325 388.906,325.325 388.666,325.325 388.425,325.564 388.425,325.804 388.186,326.044 387.946,326.044 387.946,326.285 387.946,326.525 388.186,326.525 387.946,326.764 387.946,327.004 388.186,327.004 388.186,327.245 388.186,327.485 388.186,327.724 387.946,327.964 387.706,327.964 387.226,327.964 387.226,328.205 386.986,328.205 386.746,328.445 386.746,328.685 386.505,328.685 386.505,328.924 386.266,328.924 386.026,329.165 386.026,329.405 386.266,329.645 386.026,329.645 386.266,329.884 386.026,329.884 386.266,329.884 386.026,330.125 386.266,330.365 386.026,330.365 385.786,330.365 385.786,330.605 385.545,330.605 385.545,330.845 385.306,330.845 385.066,330.845 384.826,330.845 384.585,331.084 384.585,331.325 384.826,331.325 384.346,331.565 384.346,331.805 384.106,332.285 384.106,332.044 383.866,332.285 383.625,332.285 383.386,332.285 382.906,332.525 382.666,332.525 382.426,332.525 382.186,332.765 382.186,332.525 381.946,332.525 381.706,332.525 381.706,332.285 380.506,330.845 379.786,329.884 378.586,328.685 377.866,328.205 376.667,327.964 376.186,327.724 374.986,328.445 374.746,328.685 374.506,328.924 374.266,329.165 373.786,328.685 373.306,328.205 373.066,328.205 372.826,327.964 372.586,327.964 373.066,328.445 372.586,328.205 372.346,328.205 372.586,328.205 372.586,327.964 372.346,328.205 372.106,328.445 371.866,328.445 371.146,328.445 370.906,328.685 370.186,328.924 369.946,328.924 369.707,329.165 368.747,330.605 368.506,331.325 368.266,332.285 368.026,332.525 367.066,333.485 366.827,333.725 366.586,333.725 366.106,333.965 365.867,333.965 365.386,334.205 364.667,334.205 364.186,334.205 363.466,334.445 363.226,334.205 363.226,334.445 362.506,333.725 362.506,333.965 362.266,333.725 362.506,333.725 362.266,333.725 362.266,333.485 361.787,333.245 361.067,333.485 360.586,333.725 360.346,333.725 359.386,332.525 358.907,332.044 358.667,331.805 358.186,331.565 357.947,331.565 357.466,331.565 356.747,332.044 356.506,332.044 356.027,331.805 355.546,331.805 355.067,331.805 355.067,332.044 354.827,331.805 354.586,331.805 353.626,331.805 353.386,331.805 352.187,331.565 351.466,331.565 351.466,331.325 351.227,330.845 351.227,330.365 351.227,330.125 352.667,329.165 353.147,328.685 353.386,328.445 354.346,328.205 354.586,328.205 354.827,327.724 354.586,327.004 354.346,326.525 354.346,326.285 354.107,326.285 353.867,326.044 353.626,325.804 353.626,325.564 353.386,325.564 353.386,325.325 353.386,324.844 353.626,325.084 353.867,325.084 354.107,324.844 354.346,324.604 354.586,324.604 354.586,324.365 354.827,324.365 354.586,324.365 354.586,324.125 354.827,324.125 354.586,323.644 355.067,323.404 355.306,323.165 355.787,323.165 356.027,323.165 356.266,322.924 356.266,322.684 356.506,322.444 356.506,322.205 356.506,321.964 356.506,321.724 356.266,321.244 356.027,321.244 356.027,321.004 355.787,321.004 355.787,320.524 355.546,320.524 355.546,320.044 355.067,319.323 355.067,318.604 354.827,318.124 354.827,317.884 355.067,317.884 355.067,317.404 354.827,317.404 354.827,316.923 354.827,316.684 355.067,316.923 355.306,316.923 355.546,317.644 355.787,317.644 356.266,317.644 356.747,317.644 357.466,317.644 357.226,317.404 357.466,317.164 357.466,316.923 357.466,316.684 357.466,316.444 357.707,316.204 357.707,315.963 357.947,315.963 357.947,315.724 357.947,315.244 358.426,315.003 358.667,315.003 359.146,314.763 359.146,314.284 359.386,314.043 359.386,313.803 359.626,314.043 359.626,313.803 359.626,313.323 359.867,312.603 359.626,312.364 359.626,312.124 360.106,311.643 359.867,311.643 360.106,311.404 360.346,311.404 360.106,311.164 360.346,310.923 360.346,310.683 360.586,310.443 360.586,310.204 360.827,310.204 361.067,310.204 361.306,310.204 361.546,310.204 361.787,310.443 362.026,310.683 362.266,310.923 362.747,310.923 362.987,310.923 362.747,311.164 362.987,311.164 362.747,311.404 362.987,311.643 362.987,311.883 363.226,311.883 363.466,312.124 363.226,312.124 363.466,312.364 364.186,312.124 364.426,311.883 364.426,312.124 364.667,312.124 365.146,312.124 365.146,312.364 365.386,312.364 365.626,312.603 365.867,312.603 366.106,312.843 366.346,312.603 366.586,312.843 366.827,312.124 366.586,312.124 366.586,311.883 366.346,311.404 366.586,310.683 366.586,310.443 366.586,310.204 366.586,309.963 366.586,309.723 366.586,309.483 366.586,309.244 366.827,309.244 366.827,309.003 367.066,308.763 366.827,308.763 366.827,308.523 367.066,308.283 366.827,308.043 366.827,307.803 367.066,307.563 367.306,307.563 367.546,306.603 367.306,306.363 367.306,306.123 367.306,305.883 367.546,305.643 368.266,304.923 368.506,304.683 368.747,304.443 369.226,304.203 369.466,303.723 369.466,303.483 369.946,303.243 370.186,303.002 370.667,302.763 370.906,302.763 371.386,302.042 371.626,302.042 372.586,302.042 373.066,301.563 373.066,301.323 373.066,301.083 373.066,300.842 373.546,300.842 373.786,300.842 374.026,300.842 374.506,300.603 374.506,300.363 374.506,300.123 374.746,300.363 374.986,300.603 375.226,300.603 375.706,300.363 376.186,300.363 376.426,300.363 376.186,299.882 376.426,299.882 376.186,299.643 376.426,299.403 375.706,298.922 375.946,298.682 375.946,298.203 375.706,298.203 375.706,297.962 375.946,297.962 375.946,297.483 375.706,296.762 375.226,296.522 375.226,295.802 375.706,296.042 376.186,296.283 376.426,296.283 376.667,296.042 376.906,296.283 377.626,296.283 377.866,295.802 377.626,295.562 377.626,295.323 377.626,294.842 377.386,294.842 377.386,294.602 377.386,294.362 377.386,293.402 377.626,292.682 377.866,292.682 377.866,292.442 377.866,292.202 378.346,291.482 378.346,291.242 378.586,291.002 378.826,290.042 378.346,289.562 378.106,289.562 378.346,289.322 378.106,289.082 378.106,288.602 378.346,287.881 378.346,287.642 378.346,287.402 378.106,286.682 378.346,285.961 378.346,285.721 378.826,285.721 379.306,285.721 379.546,285.482 379.786,285.242 380.986,284.282 381.706,285.001 382.186,285.482 382.426,285.242 382.666,285.482 382.906,285.242 383.386,285.242 383.625,285.001 383.866,285.001 383.866,285.242 384.106,285.482 384.346,285.482 384.346,285.721 384.585,285.961 385.066,285.961 385.066,286.202 385.306,285.961 385.306,285.721 385.545,285.721 385.786,285.721 386.026,285.721 386.266,285.961 386.505,285.961 386.986,286.202 387.465,285.721 387.706,285.961 387.946,285.721 388.186,285.961 388.425,286.202 388.425,286.682 388.186,286.921 387.946,287.402 387.706,288.122 387.946,288.362 387.706,288.842 387.465,290.042 387.706,290.282 387.706,291.242 387.946,291.962 387.706,292.202 387.465,292.202 387.465,292.682 387.465,292.922 387.465,293.163 387.465,293.402 387.465,293.642 387.465,294.123 387.465,294.362 387.706,294.842 387.946,295.083 387.946,295.323 388.186,295.323 388.425,295.562 388.425,296.042 388.666,296.283 388.666,296.522 388.906,296.762 389.146,297.002 389.385,297.243 389.146,297.483 389.385,297.483 390.585,299.403 390.585,299.643 392.026,301.563 392.266,301.563 392.505,302.042 392.746,302.763 392.746,303.002 393.946,303.723 393.946,303.002 394.425,303.002 394.906,303.243 396.345,303.243 397.305,304.203 398.746,304.923 399.946,306.123 399.946,306.123 399.706,306.123 399.465,306.123 399.225,306.843 398.986,306.843 398.746,306.843 398.505,306.843 397.786,307.563 397.305,309.003 396.826,309.244 396.826,309.483 396.585,309.723 396.345,309.963 396.106,310.204 396.106,310.443 395.625,310.683 395.625,310.923 395.385,311.164 395.385,311.404 395.385,311.643 394.906,311.883 394.666,311.883 394.425,312.364 393.946,313.803 393.946,314.043 393.946,313.803 393.706,313.803 393.706,314.284 393.706,314.524 393.706,315.244 393.465,316.204 393.465,316.444 "
         style="color:#000000;fill:#622a21;fill-opacity:1;stroke:none;stroke-width:0.1366629;marker:none;visibility:visible;display:inline;overflow:visible;enable-background:accumulate"
         id="polygon304" />
      <polygon
         transform="matrix(0.07317275,0,0,0.07317275,4.0878249,16.135336)"
         points="320.028,323.644 320.267,323.884 320.507,324.125 320.748,324.125 320.987,324.365 321.227,324.365 321.467,324.844 321.708,325.084 321.948,325.325 322.187,325.084 322.908,325.325 322.908,325.564 323.387,325.804 323.627,325.804 323.868,325.564 324.347,325.804 324.587,325.804 324.828,325.804 325.067,326.044 325.067,325.804 325.307,326.044 325.547,326.044 325.788,326.285 325.788,326.525 326.027,326.764 326.027,326.525 326.267,326.764 326.507,326.764 326.748,326.764 326.987,327.004 327.227,327.004 326.987,327.004 327.227,327.245 327.467,327.485 327.708,327.245 327.708,327.485 327.947,327.245 328.427,327.004 328.427,327.245 328.907,327.245 329.147,327.485 329.147,327.724 329.867,328.205 329.867,328.445 329.867,328.685 330.107,328.685 330.107,328.924 330.827,329.405 330.587,329.645 330.827,329.884 330.827,330.125 330.587,330.125 330.587,330.365 330.347,330.365 330.347,330.845 330.347,331.084 330.347,331.325 330.347,331.565 330.347,332.044 330.107,331.805 330.107,331.565 329.867,331.565 329.387,331.565 328.907,331.325 328.667,331.325 328.427,331.325 328.187,331.325 327.467,331.325 327.227,331.805 326.987,331.805 326.267,331.805 326.027,331.805 325.788,331.805 325.547,332.044 324.587,332.285 324.347,332.285 324.107,332.285 323.387,331.805 323.147,331.805 322.908,331.805 322.667,331.805 322.427,331.565 322.187,331.805 321.948,331.565 321.467,331.565 321.227,331.565 320.987,331.325 320.507,331.565 319.788,332.525 319.547,332.525 319.067,332.285 318.828,332.525 317.627,332.765 315.708,332.765 315.227,333.004 313.788,332.765 313.547,332.765 313.307,332.765 313.068,332.765 312.587,332.765 312.347,332.765 312.108,332.765 311.868,332.525 311.387,332.525 310.427,332.285 309.948,332.525 309.708,332.765 309.708,333.004 309.708,332.765 309.708,332.525 309.467,332.765 309.708,332.765 309.467,332.765 309.708,332.765 309.467,333.004 309.467,332.765 309.228,333.004 308.988,333.485 308.507,334.685 308.028,334.925 307.788,335.405 307.068,336.605 306.587,337.325 305.868,337.805 305.868,338.045 305.627,338.045 305.387,338.045 304.908,338.045 304.667,338.045 304.427,338.045 303.948,338.286 303.708,338.525 303.467,338.765 303.228,339.005 302.988,339.485 302.988,339.725 303.228,339.485 302.988,339.725 302.507,340.446 302.268,340.925 302.028,340.925 301.788,340.925 301.547,340.925 301.308,341.166 301.068,340.925 300.587,341.645 300.348,341.645 300.108,341.645 299.868,341.645 299.627,341.645 299.148,341.645 298.908,341.885 298.667,341.645 296.988,341.166 295.788,340.925 295.308,340.925 294.588,340.685 294.108,340.925 293.868,340.685 293.388,340.925 292.908,341.166 292.668,340.925 291.948,341.645 291.708,341.645 291.468,341.885 291.228,341.885 290.508,342.365 290.268,342.606 289.788,342.606 289.308,342.606 288.828,342.845 288.588,342.845 288.348,342.845 288.108,342.845 287.868,342.845 286.908,343.566 286.428,343.805 285.948,343.805 285.708,344.045 285.468,344.286 285.228,344.286 284.749,344.286 284.508,344.526 284.028,345.246 283.789,345.246 283.789,345.486 283.548,345.726 283.308,345.726 283.068,345.965 282.348,348.125 282.348,348.365 282.108,348.365 281.869,347.886 281.628,347.886 281.388,347.406 280.909,347.406 279.949,347.886 279.949,347.646 280.188,347.166 279.949,346.926 279.708,346.446 279.468,345.965 279.468,345.726 279.468,345.486 279.468,345.005 279.468,344.766 279.228,344.045 278.749,343.805 278.749,343.566 278.989,343.326 278.268,342.606 277.548,341.885 277.548,341.406 277.308,341.166 277.308,340.925 277.068,340.925 277.308,340.685 277.068,340.446 277.068,339.965 276.588,339.725 276.588,339.485 276.588,339.246 275.869,339.246 275.628,339.246 275.388,339.485 275.148,339.246 274.668,339.246 274.428,339.246 274.428,339.485 274.188,339.485 273.949,339.965 273.708,340.206 273.708,340.446 273.468,340.685 273.228,340.446 272.268,340.446 271.789,339.965 271.548,339.965 271.308,339.965 271.308,340.206 271.069,340.206 270.829,339.965 270.829,339.485 270.588,339.246 270.829,339.005 270.588,338.765 271.069,338.525 271.308,338.525 271.789,338.525 272.029,338.525 272.029,338.765 272.749,339.005 272.989,339.005 272.989,339.485 273.468,339.246 273.949,339.005 274.188,338.765 274.428,338.286 274.668,337.805 275.148,337.565 275.628,337.085 275.628,336.605 275.628,336.125 275.869,335.885 276.348,336.125 276.588,335.885 277.068,335.885 277.308,335.645 277.789,335.405 278.268,335.405 278.749,334.925 279.228,334.685 279.228,334.445 279.468,334.205 279.708,333.725 280.188,333.725 279.949,333.485 280.188,333.245 280.428,333.004 280.188,333.004 279.949,333.004 279.949,332.765 280.188,332.044 280.188,331.805 280.668,331.325 280.668,330.605 281.148,330.125 281.388,329.645 280.909,329.405 280.428,329.165 280.188,328.445 279.949,328.205 279.949,327.964 279.708,327.964 279.949,327.485 279.949,327.004 280.668,326.285 280.909,326.285 281.148,325.804 281.869,325.564 282.108,325.325 282.108,325.564 282.829,326.285 283.308,326.285 283.548,326.525 283.548,326.764 283.548,327.004 284.268,327.245 284.508,327.485 284.749,327.724 284.988,327.485 284.988,327.724 285.228,327.724 285.708,327.485 286.428,327.245 286.668,327.004 286.908,326.525 287.148,326.044 287.148,325.804 287.388,325.084 287.628,325.084 287.628,324.844 287.388,324.844 287.628,324.844 287.868,324.844 288.108,324.604 287.868,324.365 287.868,323.884 287.628,323.404 287.628,322.684 287.388,322.444 287.628,322.205 287.868,321.964 287.388,321.724 287.388,321.484 287.148,321.244 286.908,321.004 286.908,320.764 286.428,320.524 286.668,320.284 286.908,319.564 287.148,319.564 287.148,319.804 287.388,319.804 287.388,320.044 287.628,319.804 288.108,319.564 288.348,319.564 288.588,319.564 289.308,319.564 289.548,319.323 290.028,318.844 290.028,319.083 290.268,318.844 290.028,318.844 290.268,318.604 290.508,318.604 290.748,318.604 291.468,318.124 291.708,317.884 291.948,317.884 292.428,317.164 292.668,316.923 293.148,316.684 293.388,316.923 293.388,316.684 293.627,316.684 293.627,316.444 294.108,316.204 294.108,315.244 293.868,315.003 293.627,314.763 293.148,314.524 292.908,314.524 292.908,314.043 293.148,314.043 293.148,313.803 293.388,313.803 293.627,314.043 293.627,313.803 293.868,313.803 294.108,313.803 294.108,313.564 294.348,313.803 294.108,313.803 294.348,314.043 294.348,314.284 294.348,314.524 294.588,314.524 294.828,314.284 295.068,314.524 295.788,313.803 295.548,313.803 295.788,313.803 295.788,313.564 295.548,313.564 295.788,313.083 295.788,312.843 296.028,312.843 296.268,312.843 296.748,312.843 296.988,312.843 296.748,313.083 296.988,313.083 296.748,313.323 296.748,313.564 296.988,313.564 297.228,313.803 297.468,314.043 297.468,314.524 297.708,314.763 297.948,314.524 298.188,314.524 298.188,314.284 298.428,314.043 298.908,314.043 298.908,313.803 299.868,313.564 300.587,313.083 300.348,312.843 300.348,312.603 300.108,312.603 300.108,312.364 299.868,312.364 299.868,311.883 299.868,311.643 300.348,311.404 299.868,311.164 299.627,311.164 299.868,310.923 300.108,310.443 300.348,310.683 300.828,310.683 301.068,310.923 301.308,310.923 301.308,310.683 301.547,310.683 301.788,310.923 301.788,310.683 302.028,310.683 302.268,310.683 302.507,311.164 302.988,310.683 303.467,310.683 303.708,310.683 303.708,311.164 303.708,311.404 303.948,311.404 303.948,311.643 304.188,311.883 304.188,312.124 303.948,312.124 303.948,312.364 303.948,312.603 304.427,312.603 304.908,312.603 304.908,312.364 305.387,312.124 305.627,312.364 305.868,312.364 306.108,312.364 306.108,312.603 307.068,312.124 307.307,311.883 307.307,312.124 307.547,311.883 307.547,311.404 307.788,311.404 307.788,311.643 308.028,311.404 308.028,311.164 307.788,311.164 307.788,310.923 308.028,310.683 308.268,310.923 308.507,310.923 308.268,310.683 308.507,310.683 308.748,310.683 308.748,310.443 308.988,310.204 308.988,309.963 309.228,309.963 309.467,309.963 309.708,309.963 309.948,309.723 310.188,309.963 310.427,310.204 310.427,309.963 310.667,309.963 310.908,310.204 311.148,309.963 311.148,310.204 311.148,310.443 311.148,310.683 311.387,310.683 311.148,311.164 311.148,311.404 310.908,311.643 311.387,312.364 311.387,312.603 312.347,312.603 312.828,312.843 313.068,312.843 312.828,313.083 312.828,313.323 312.587,313.564 312.828,313.564 312.828,313.803 312.828,313.803 313.068,313.803 313.307,315.003 313.547,315.244 313.788,315.724 314.028,315.963 314.028,316.444 314.028,316.684 314.028,316.923 314.028,317.164 314.267,317.404 314.267,317.644 314.267,318.364 314.267,319.083 314.507,319.564 314.507,320.044 314.507,320.524 314.988,320.524 314.988,320.284 315.227,320.284 315.948,320.524 316.187,320.764 316.187,321.004 316.427,321.484 316.667,321.724 317.147,321.964 317.627,322.684 317.868,322.684 317.868,322.924 318.828,323.165 319.788,323.404 320.028,323.165 "
         style="color:#000000;fill:#622a21;fill-opacity:1;stroke:none;stroke-width:0.1366629;marker:none;visibility:visible;display:inline;overflow:visible;enable-background:accumulate"
         id="polygon322" />
      <polygon
         transform="matrix(0.07317275,0,0,0.07317275,4.0878249,16.135336)"
         points="283.548,327.004 283.548,326.764 283.548,326.525 283.308,326.285 282.829,326.285 282.108,325.564 282.108,325.325 281.869,325.564 281.148,325.804 280.909,326.285 280.668,326.285 279.949,327.004 279.949,327.485 279.708,327.964 279.949,327.964 279.949,328.205 280.188,328.445 280.428,329.165 280.909,329.405 281.388,329.645 281.148,330.125 280.668,330.605 280.668,331.325 280.188,331.805 280.188,332.044 279.949,332.765 279.949,333.004 280.188,333.004 280.428,333.004 280.188,333.245 279.949,333.485 280.188,333.725 279.708,333.725 279.468,334.205 279.228,334.445 279.228,334.685 278.749,334.925 278.268,335.405 277.789,335.405 277.308,335.645 277.068,335.885 276.588,335.885 276.348,336.125 275.869,335.885 275.628,336.125 275.628,336.605 275.628,337.085 275.148,337.565 274.668,337.805 274.428,338.286 274.188,338.765 273.949,339.005 273.468,339.246 272.989,339.485 272.989,339.005 272.749,339.005 272.029,338.765 272.029,338.525 271.789,338.525 271.308,338.525 271.069,338.525 270.588,338.765 270.829,339.005 270.588,339.246 270.829,339.485 270.829,339.965 271.069,340.206 271.308,340.206 271.308,339.965 271.548,339.965 271.789,339.965 272.268,340.446 273.228,340.446 273.468,340.685 273.708,340.446 273.708,340.206 273.949,339.965 274.188,339.485 274.428,339.485 274.428,339.246 274.668,339.246 275.148,339.246 275.388,339.485 275.628,339.246 275.869,339.246 276.588,339.246 276.588,339.485 276.588,339.725 277.068,339.965 277.068,340.446 277.308,340.685 277.068,340.925 277.308,340.925 277.308,341.166 277.548,341.406 277.548,341.885 278.268,342.606 278.989,343.326 278.749,343.566 278.749,343.805 279.228,344.045 279.468,344.766 279.468,345.005 279.468,345.486 279.468,345.726 279.468,345.965 279.708,346.446 279.949,346.926 280.188,347.166 279.949,347.646 279.949,347.886 280.909,347.406 281.388,347.406 281.628,347.886 281.869,347.886 282.108,348.365 281.869,348.606 281.628,348.846 281.148,349.806 280.428,351.247 280.188,351.247 279.949,351.726 279.708,352.446 279.228,353.407 279.228,354.846 278.749,354.606 278.508,354.367 278.028,354.126 277.789,353.886 277.789,353.646 277.308,353.646 277.068,353.646 276.829,353.646 276.588,353.646 276.348,353.646 276.108,353.886 275.628,354.606 275.628,354.846 275.628,355.327 275.628,355.567 275.869,355.567 275.628,355.327 275.869,355.567 275.628,355.806 275.869,355.806 275.869,355.567 275.869,355.806 276.108,355.806 276.108,355.327 276.108,356.046 275.869,356.046 275.869,355.806 275.628,355.806 275.869,356.046 275.869,356.287 276.108,356.527 275.869,356.527 275.869,356.766 275.628,357.006 275.628,357.247 276.108,357.487 276.108,357.727 276.108,357.966 275.869,357.966 275.628,358.447 275.388,358.447 274.909,358.687 274.428,358.687 274.188,358.687 273.949,358.687 273.708,359.167 272.989,359.407 272.508,359.407 272.029,359.887 271.069,360.126 270.348,360.367 270.109,360.607 270.348,360.607 270.109,360.607 270.109,360.367 269.628,359.407 269.388,358.926 268.909,358.687 268.668,358.447 268.189,358.447 267.708,357.966 267.468,357.966 267.229,357.966 266.989,358.207 266.508,358.207 266.269,357.966 265.789,357.727 265.548,357.727 265.069,357.247 264.829,357.006 264.588,357.006 264.348,357.247 264.109,357.487 263.869,357.247 263.869,357.006 263.628,357.006 263.388,356.527 263.149,356.287 262.668,355.327 261.708,354.367 260.269,352.926 259.789,352.686 259.548,352.926 259.789,352.926 259.548,352.926 259.309,352.686 259.069,352.926 258.109,353.167 257.389,352.926 257.149,352.926 256.909,352.926 256.668,352.686 256.668,352.926 256.429,352.926 256.189,352.686 255.949,352.207 255.708,351.966 254.989,350.526 254.749,349.326 254.269,348.606 254.029,348.365 253.789,348.365 253.309,348.125 253.309,348.365 253.309,348.125 253.069,348.365 252.829,347.646 252.349,346.926 252.349,346.206 251.869,345.246 251.629,345.005 251.389,345.005 250.909,344.526 250.668,344.286 250.668,343.566 250.189,342.845 250.189,342.606 249.949,342.125 249.949,342.365 249.708,342.125 249.708,341.885 249.469,341.406 249.469,341.166 249.229,340.685 248.509,339.246 248.509,339.005 248.269,338.765 247.549,338.765 247.789,338.525 247.789,338.765 248.029,338.525 247.789,338.525 248.029,338.286 248.269,338.286 248.509,338.286 248.749,338.286 248.509,338.286 248.509,338.525 248.749,338.525 248.509,338.525 248.749,338.525 248.749,338.765 248.989,338.525 248.749,338.765 248.989,338.765 248.749,338.765 248.989,338.765 248.989,339.005 248.989,339.246 249.229,339.485 249.469,339.485 249.708,339.485 249.469,339.485 249.229,339.965 249.469,340.925 249.708,341.166 250.189,341.166 250.429,341.166 250.429,340.925 250.668,341.166 250.909,340.925 250.909,340.685 251.149,340.685 251.149,340.446 251.389,340.446 251.389,340.206 251.629,340.206 251.389,339.965 251.629,339.725 251.869,339.725 252.109,339.485 252.349,339.485 252.349,339.246 251.869,339.005 251.629,339.005 251.629,339.246 251.389,339.485 250.429,339.725 249.949,339.485 249.949,339.246 249.708,339.005 250.189,339.005 250.429,338.765 250.189,338.765 250.429,338.525 250.429,338.286 250.668,337.565 250.668,336.845 250.668,336.605 250.429,336.605 250.189,336.365 249.949,336.605 249.708,336.605 249.469,336.605 249.229,336.605 248.989,335.645 248.749,335.405 248.269,335.165 248.029,335.165 247.309,334.685 247.069,334.685 246.589,334.925 246.589,335.165 246.349,335.165 246.349,334.925 245.629,334.685 245.149,334.205 245.389,333.965 245.149,333.725 245.149,333.245 244.909,333.245 244.429,332.044 244.189,331.325 243.949,330.845 243.949,330.365 243.949,330.125 244.189,329.884 244.189,329.645 244.189,329.884 244.429,329.884 244.669,329.884 244.909,329.405 244.909,329.165 245.149,329.165 245.389,329.165 245.629,328.924 246.109,328.685 246.349,328.445 246.589,328.205 246.829,327.964 247.069,327.724 247.309,327.485 247.069,327.004 246.829,326.525 246.829,326.044 246.829,325.325 247.309,324.125 247.549,323.884 247.789,323.644 248.749,323.404 249.469,323.165 249.469,323.404 249.949,323.884 250.189,323.884 250.668,323.884 250.909,323.884 251.629,324.125 252.349,324.125 252.589,324.125 253.309,324.365 253.789,324.844 254.509,325.325 254.989,325.564 255.708,325.804 256.668,325.804 257.149,326.044 259.069,326.285 259.309,326.285 259.548,326.044 260.029,326.044 260.269,326.044 260.749,326.044 261.949,326.525 261.949,326.285 261.949,326.044 262.428,324.365 262.668,324.365 262.909,324.125 263.388,323.644 263.628,323.644 263.869,323.644 264.829,323.165 265.069,323.165 265.309,323.165 265.789,323.165 266.269,323.165 266.749,323.404 266.989,323.404 267.468,323.404 267.708,323.404 268.189,323.165 268.428,322.924 268.428,322.444 268.428,321.964 269.388,321.244 269.628,321.724 269.869,322.205 270.348,322.205 270.588,322.205 270.829,322.684 271.069,322.684 271.308,322.444 271.308,322.205 271.548,322.684 271.789,322.444 271.789,323.644 272.029,323.884 272.508,324.125 273.468,324.604 273.468,324.125 272.989,323.404 273.228,323.404 273.228,323.165 273.468,323.165 273.708,322.924 273.949,322.924 273.949,322.684 273.949,322.444 274.188,322.444 274.188,322.205 274.428,322.205 274.668,322.205 274.668,321.724 274.909,321.724 275.148,321.484 275.388,321.484 275.628,321.004 275.628,320.764 275.628,320.524 275.388,320.284 275.148,320.044 274.909,320.044 274.428,319.083 274.909,318.844 275.628,318.604 275.869,318.844 276.108,318.844 276.588,318.364 277.068,318.364 277.068,318.604 277.068,318.844 277.308,319.564 277.308,320.044 277.068,320.284 277.068,320.524 276.829,320.764 276.588,321.004 276.348,321.244 276.108,321.244 276.108,321.484 276.108,321.964 276.588,322.205 276.348,322.205 276.348,322.444 276.348,322.684 276.588,322.684 276.588,323.165 277.548,322.924 277.308,322.684 277.548,322.444 278.028,321.964 278.268,321.724 278.508,321.244 278.749,321.244 279.228,321.004 279.228,321.244 279.228,320.764 279.468,320.764 279.708,320.764 279.949,320.284 279.949,320.044 280.188,320.044 281.148,319.083 281.148,319.804 281.148,320.044 281.388,320.284 281.628,320.524 282.108,321.004 282.348,321.484 282.348,321.724 282.588,321.964 283.308,322.924 283.548,322.924 283.789,322.684 284.028,322.684 284.268,322.205 284.749,321.964 284.988,321.724 285.228,321.724 285.708,321.484 285.708,321.244 286.188,320.764 286.428,320.524 286.668,320.764 286.668,320.764 286.908,320.764 286.908,321.004 287.148,321.244 287.388,321.484 287.388,321.724 287.868,321.964 287.628,322.205 287.388,322.444 287.628,322.684 287.628,323.404 287.868,323.884 287.868,324.365 288.108,324.604 287.868,324.844 287.628,324.844 287.388,324.844 287.628,324.844 287.628,325.084 287.388,325.084 287.148,325.804 287.148,326.044 286.908,326.525 286.668,327.004 286.428,327.245 285.708,327.485 285.228,327.724 284.988,327.724 284.988,327.485 284.749,327.724 284.508,327.485 284.268,327.245 "
         style="color:#000000;fill:#622a21;fill-opacity:1;stroke:none;stroke-width:0.1366629;marker:none;visibility:visible;display:inline;overflow:visible;enable-background:accumulate"
         id="polygon400" />
    </g>
  </g>
</svg>
