<?xml version="1.0" encoding="UTF-8" standalone="no"?>
<svg
   xmlns:dc="http://purl.org/dc/elements/1.1/"
   xmlns:cc="http://creativecommons.org/ns#"
   xmlns:rdf="http://www.w3.org/1999/02/22-rdf-syntax-ns#"
   xmlns:svg="http://www.w3.org/2000/svg"
   xmlns="http://www.w3.org/2000/svg"
   xmlns:sodipodi="http://sodipodi.sourceforge.net/DTD/sodipodi-0.dtd"
   xmlns:inkscape="http://www.inkscape.org/namespaces/inkscape"
   height="256mm"
   width="256mm"
   version="1.1"
   viewBox="0 0 907.09048 907.0869"
   id="svg268"
   sodipodi:docname="Bulldozer3.svg"
   inkscape:export-filename="/home/vokimon/Documentos/webs/desconectaibex35.org/content/images/icons/Bulldozer3.png"
   inkscape:export-xdpi="500"
   inkscape:export-ydpi="500"
   inkscape:version="1.0.1 (3bc2e813f5, 2020-09-07)">
  <metadata
     id="metadata274">
    <rdf:RDF>
      <cc:Work
         rdf:about="">
        <dc:format>image/svg+xml</dc:format>
        <dc:type
           rdf:resource="http://purl.org/dc/dcmitype/StillImage" />
        <dc:title></dc:title>
      </cc:Work>
    </rdf:RDF>
  </metadata>
  <defs
     id="defs272" />
  <sodipodi:namedview
     pagecolor="#ffffff"
     bordercolor="#666666"
     borderopacity="1"
     objecttolerance="10"
     gridtolerance="10"
     guidetolerance="10"
     inkscape:pageopacity="0"
     inkscape:pageshadow="2"
     inkscape:window-width="1920"
     inkscape:window-height="1013"
     id="namedview270"
     showgrid="false"
     inkscape:zoom="0.48026893"
     inkscape:cx="309.73663"
     inkscape:cy="312.00097"
     inkscape:window-x="0"
     inkscape:window-y="0"
     inkscape:window-maximized="1"
     inkscape:current-layer="svg268" />
  <g
     id="g1232"
     transform="translate(27.863877,200.60319)">
    <g
       transform="translate(-122.26,-128.93)"
       id="g266">
      <rect
         style="color:#000000;isolation:auto;mix-blend-mode:normal;solid-color:#000000;color-rendering:auto;image-rendering:auto;shape-rendering:auto"
         ry="3.7446001"
         height="147.48"
         width="22.223"
         y="205.92999"
         x="159.3"
         fill="#333333"
         id="rect2" />
      <g
         fill-rule="evenodd"
         id="g40">
        <path
           d="m 607.61,523.6 206.54,-35.462 8.4271,62.676 -220.15,28.05 z"
           fill="#ffa000"
           id="path4" />
        <path
           d="m 595.07,382.4 229.39,138.86 c 4.4438,2.521 2.2019,13.694 -4.4424,11.338 l -236.66,-141.4 z"
           fill="#ffc107"
           id="path6" />
        <path
           d="m 592.84,378.14 143.1,85.26 c 1.3763,8.6898 -2.1447,14.251 -13.431,14.852 l -147.83,-89.5 z"
           fill="#ff8f00"
           id="path8" />
        <path
           d="m 821.82,453.47 22.036,25.228 c -19.757,43.525 -7.476,81.968 33.348,115.88 l -59.27,-14.87 c -4.7,-34.78 -16.29,-65.83 -14.1,-104.33 z"
           fill="#ff8f00"
           id="path10" />
        <path
           d="m 886.01,471.43 c -3.4824,0.61099 -57.716,18.844 -57.716,18.844 l -0.68538,91.181 75.774,26.119 z"
           fill="#ffa000"
           id="path12" />
        <path
           d="m 445.28,290.05 238.9,18.688 -18.688,104.05 46.467,154.55 h -504.07 l -69.701,-160.61 v -75.761 l 77.782,-30.81 126.77,-7.5761 57.579,82.327 z"
           fill="#ffca28"
           id="path14" />
        <path
           d="m 445.28,290.05 -20.613,38.91 42.111,0.53321 198.89,82.301 2.5312,-14.094 -222.52,-107.62 -0.40235,-0.0312 z m -102.53,2.5254 -126.77,7.5762 -15.307,6.0625 490.46,191.84 -9.1934,-30.578 -269.88,-114.7 -11.725,22.133 -26.984,-38.584 -19.422,-8.2539 13.771,0.17383 -24.943,-35.664 z"
           fill="#ffc107"
           id="path16" />
        <path
           d="m 445.28,290.05 -22.062,41.645 h 256.84 l 4.123,-22.957 -238.9,-18.688 z m -102.53,2.5254 -126.77,7.5762 -77.783,30.809 v 0.73438 h 231.92 l -27.359,-39.119 z"
           fill="#ffb300"
           id="path18" />
        <path
           d="m 151.2,325.81 -13.008,5.1523 v 75.762 l 69.701,160.62 h 463.88 l -520.57,-241.53 z"
           fill="#ffc107"
           id="path20" />
        <path
           d="m 178.2,165.72 h 243.57 c -1.7734,-9.0287 -10.253,-18.803 -18.214,-26.071 h -246.07 c 3.6777,8.921 4.3767,18.055 20.714,26.071 z"
           fill="#ffca28"
           id="path22" />
        <path
           d="m 198.29,157.21 4.5528,148.49 h 117.68 l 33.337,78.792 h 80.306 l 21.719,-91.925 -52.024,-135.36 h -205.57 z m 88.101,10.291 0.4375,17.703 h -73.718 l -0.4473,-16.096 73.728,-1.6074 z m 13.236,0.71876 h 94.822 l 48.393,123.21 -20.358,80.392 -56.642,-0.10352 -36.456,-80.163 -25.538,-0.53517 -4.2228,-122.8 z m -42.913,30.573 c 3.7466,0.0706 6.9104,1.4232 10.16,2.586 l 2.9668,20.051 0.4804,3.2481 0.6211,4.1876 9.2385,62.435 -31.387,-0.0234 0.4023,-90.906 v -0.002 c 2.8125,-1.2 5.2698,-1.6185 7.5177,-1.5762 z"
           fill="#333333"
           id="path24" />
        <path
           d="m 886.01,471.43 c -1.1137,0.19539 -7.9196,2.3748 -15.98,5.002 -0.87075,35.222 6.5306,65.974 12.934,97.266 l 17.895,2.8125 -14.848,-105.08 z"
           fill="#ff8f00"
           id="path26" />
        <path
           d="m 899.44,439.84 29.517,33.793 c -26.465,58.302 -10.014,109.8 44.67,155.23 L 894.24,608.947 c -6.2932,-46.585 -21.814,-88.184 -18.88,-139.76 z"
           fill="#ffc107"
           id="path28" />
        <path
           d="m 594.02,372.38 237.86,143.99 c 4.6078,2.6141 2.2832,14.2 -4.6064,11.757 l -245.4,-146.62 z"
           fill="#ffd54f"
           id="path30" />
        <path
           d="m 656.6,531.68 206.54,-35.462 8.4271,62.676 -220.15,28.05 z"
           fill="#ffc107"
           id="path32" />
        <path
           d="m 733.32,570.81 -13.597,-2.5693 -0.4425,6.9307 14.118,-1.5532 z"
           fill="#333333"
           id="path34" />
        <path
           d="m 615.43,483.17 -4.9527,12.921 6.7407,1.6713 0.98923,-14.169 z"
           fill="#333333"
           id="path36" />
        <path
           d="m 630.47,534.72 266.71,-78.587 c 5.0373,-1.6406 12.027,7.8876 5.5771,11.328 l -273.73,82.384 z"
           fill="#ffb300"
           id="path38" />
      </g>
      <g
         fill="#333333"
         fill-rule="evenodd"
         id="g136">
        <g
           transform="translate(207.27,-292.38)"
           id="g74">
          <path
             d="m 90,689.84 -4.0178,13.839 6.875,0.98215 -0.44644,-14.196 z"
             id="path42" />
          <path
             d="m 122.35,698.15 -5.3946,13.363 6.7407,1.6713 0.98923,-14.169 z"
             id="path44" />
          <path
             d="m 151.69,706.8 -4.9527,12.921 6.7407,1.6713 0.98923,-14.169 z"
             id="path46" />
          <path
             d="m 179.46,713.92 -4.9527,12.921 6.7407,1.6713 0.98923,-14.169 z"
             id="path48" />
          <path
             d="m 206.6,721.42 -4.9527,12.921 6.7407,1.6713 0.98923,-14.169 z"
             id="path50" />
          <path
             d="m 236.75,729.38 -4.9527,12.921 6.7407,1.6713 0.98923,-14.169 z"
             id="path52" />
          <path
             d="m 263.27,736.7 -4.9527,12.921 6.7407,1.6713 0.98923,-14.169 z"
             id="path54" />
          <path
             d="m 294.59,744.66 -4.9527,12.921 6.7407,1.6713 0.98923,-14.169 z"
             id="path56" />
          <path
             d="m 324.37,752.86 -4.9527,12.921 6.7407,1.6713 0.98923,-14.169 z"
             id="path58" />
          <path
             d="m 351.69,760.36 -4.9527,12.921 6.7407,1.6713 0.98923,-14.169 z"
             id="path60" />
          <path
             d="m 381.16,768.04 -4.9527,12.921 6.7407,1.6713 0.98923,-14.169 z"
             id="path62" />
          <path
             d="m -39.962,772.88 9.0925,10.431 4.6357,-5.1712 -12.053,-7.5147 z"
             id="path64" />
          <path
             d="m -20.648,752.17 8.4548,10.954 4.9356,-4.8858 -11.583,-8.2196 z"
             id="path66" />
          <path
             d="m -0.86959,732.68 8.2499,11.109 5.0255,-4.7932 -11.429,-8.4333 z"
             id="path68" />
          <path
             d="m 21.241,708.75 8.3234,11.054 4.9936,-4.8265 -11.484,-8.3573 z"
             id="path70" />
          <path
             d="m 50.76,691.67 2.4588,13.617 6.6313,-2.0632 -6.4954,-12.631 z"
             id="path72" />
        </g>
        <path
           d="m 643.65,490.66 -4.9527,12.921 6.7407,1.6713 0.98923,-14.169 z"
           id="path76" />
        <path
           d="m 705.15,509.93 -10.036,9.5272 5.3633,4.4119 6.9963,-12.361 z"
           id="path78" />
        <path
           d="m 728.14,540.18 -13.339,3.6798 2.6542,6.4176 11.992,-7.6107 z"
           id="path80" />
        <g
           transform="translate(206.78,-293.36)"
           id="g122">
          <path
             d="m 516.65,894.75 -10.543,-8.9622 -3.8148,5.8032 13.036,5.6381 z"
             id="path82" />
          <path
             d="m 489.77,918.95 -4.2414,-13.172 -6.2994,2.9236 8.1118,11.659 z"
             id="path84" />
          <path
             d="m 456.54,926.42 0.59515,-13.825 -6.9226,0.55481 3.5595,13.75 z"
             id="path86" />
          <path
             d="m 427.73,926.97 1.3858,-13.768 -6.943,0.1575 2.7663,13.931 z"
             id="path88" />
          <path
             d="m 396.75,927.08 1.3858,-13.768 -6.943,0.1575 2.7663,13.931 z"
             id="path90" />
          <path
             d="m 366.49,927.04 1.3858,-13.768 -6.943,0.15751 2.7663,13.931 z"
             id="path92" />
          <path
             d="m 335.57,927.24 1.3858,-13.768 -6.943,0.15751 2.7663,13.931 z"
             id="path94" />
          <path
             d="m 306.4,927.35 1.3858,-13.768 -6.943,0.15751 2.7663,13.931 z"
             id="path96" />
          <path
             d="m 276.09,927.35 1.3858,-13.768 -6.943,0.15751 2.7663,13.931 z"
             id="path98" />
          <path
             d="m 276.09,927.35 1.3858,-13.768 -6.943,0.15751 2.7663,13.931 z"
             id="path100" />
          <path
             d="m 247.05,927.35 1.3858,-13.768 -6.943,0.15751 2.7663,13.931 z"
             id="path102" />
          <path
             d="m 217.76,927.35 1.3858,-13.768 -6.943,0.15751 2.7663,13.931 z"
             id="path104" />
          <path
             d="m 188.46,927.35 1.3858,-13.768 -6.943,0.15751 2.7663,13.931 z"
             id="path106" />
          <path
             d="m 158.92,927.35 1.3858,-13.768 -6.943,0.15751 2.7663,13.931 z"
             id="path108" />
          <path
             d="m 129.37,927.35 1.3858,-13.768 -6.943,0.15751 2.7663,13.931 z"
             id="path110" />
          <path
             d="m 101.34,927.35 1.3858,-13.768 -6.943,0.15751 2.7663,13.931 z"
             id="path112" />
          <path
             d="m 71.537,927.35 1.3858,-13.768 -6.943,0.15751 2.7663,13.931 z"
             id="path114" />
          <path
             d="m 44.39,927.72 1.3858,-13.768 -6.943,0.15751 2.7663,13.931 z"
             id="path116" />
          <path
             d="m 14.211,927.85 1.3858,-13.768 -6.943,0.15751 2.7663,13.931 z"
             id="path118" />
          <path
             d="m -16.687,924.33 4.5657,-13.063 -6.7875,-1.4698 -0.56677,14.192 z"
             id="path120" />
        </g>
        <g
           transform="translate(207.27,-292.87)"
           id="g134">
          <path
             d="m -46.029,913.95 7.9113,-11.353 -6.1419,-3.2414 -4.3636,13.517 z"
             id="path124" />
          <path
             d="m -71.089,894.03 11.765,-7.2851 -4.353,-5.4113 -9.3658,10.678 z"
             id="path126" />
          <path
             d="m -84.718,862.48 13.755,1.5071 -0.0963,-6.9441 -13.955,2.6434 z"
             id="path128" />
          <path
             d="m -77.249,826.18 11.934,7.0051 2.7543,-6.3753 -13.815,-3.3 z"
             id="path130" />
          <path
             d="m -58.302,794.83 9.8957,9.6724 4.2084,-5.5245 -12.614,-6.5293 z"
             id="path132" />
        </g>
      </g>
      <g
         fill-rule="evenodd"
         id="g152">
        <path
           d="m 239.71,423.64 c 13.79,-9.3569 21.602,-13.363 36.871,-14.9 10.147,0.91316 20.221,1.8803 27.732,4.7705 l 386.75,103.63 c 17.842,8.3981 36.926,36.882 25.714,68.393 -12.48,29.193 -35.251,33.983 -64.464,34.821 l -438.75,0.89286 c -34.224,-3.1901 -61.593,-13.281 -76.429,-43.214 -11.439,-53.825 60.424,-105.91 102.58,-154.4 z"
           fill="#424242"
           id="path138" />
        <path
           d="M 673.58,307.91 652.26,412 l 14.428,4.7383 -1.1895,-3.957 18.688,-104.04 -10.605,-0.83008 z"
           fill="#ffc107"
           id="path140" />
        <path
           d="m 591.71,367.96 148.38,88.408 c 1.4271,9.0106 -2.2239,14.777 -13.926,15.401 l -147.35,-89.4 c 1.0922,-6.8643 2.5628,-13.485 12.893,-14.411 z"
           fill="#ffa000"
           id="path142" />
        <path
           d="m 671.85,498.22 -4.9527,12.921 6.7407,1.6713 0.98923,-14.169 z"
           fill="#333333"
           id="path144" />
        <path
           d="m 244.95,434.35 c 13.265,-8.5197 20.781,-12.168 35.468,-13.567 9.7608,0.83145 19.452,1.7121 26.677,4.3437 l 366.5,99.183 c 20.378,6.3966 41.057,28.76 30.272,57.452 -12.005,26.581 -33.91,26.121 -62.013,26.884 l -421.05,-1.4367 c -32.923,-2.9047 -54.904,-7.5213 -69.175,-34.777 -11.004,-49.009 52.769,-93.934 93.319,-138.08 z"
           fill="#ffc107"
           id="path146" />
        <path
           opacity="0.561"
           d="m 299.63,168.22 h 94.821 l 48.393,123.21 -20.357,80.393 -56.642,-0.10461 -36.456,-80.162 -25.537,-0.53572 z"
           fill="#d7ccc8"
           id="path148" />
        <path
           opacity="0.561"
           d="m 289.46,291.31 -3.0664,-123.81 -73.726,1.6071 3.3929,122.14 z"
           fill="#d7ccc8"
           id="path150" />
      </g>
      <g
         id="g168">
        <g
           fill="#333333"
           transform="matrix(0.5,0.86603,-0.86603,0.5,39.106,354.48)"
           id="g158">
          <path
             d="m 230.14,-208.48 c -1.6933,3.9552 -3.7807,8.0299 -7.39,10.568 3.935,0.2365 8.7774,1.8803 11.847,2.7121 -2.1837,-3.8496 -1.6175,-8.6966 -1.8385,-12.688 -0.84337,-0.0934 -1.8601,-0.60391 -2.6182,-0.59182 z m -29.298,1.1746 c -1.0374,0.90441 -3.7106,0.0631 -2.3055,2.1331 0.88999,3.7126 0.27277,8.3657 -0.72563,11.432 3.3733,-1.6908 8.4306,-2.8367 11.203,-3.7774 -4.0683,-1.955 -6.2459,-6.156 -8.1723,-9.7882 z m 57.31,13.71 c -3.1818,3.0994 -8.1808,4.7965 -12.181,5.0575 3.2878,2.6805 6.4138,5.7102 8.9558,9.0548 -0.0225,-4.6364 3.3805,-8.6609 5.2582,-12.228 -0.69916,-0.5841 -1.4995,-1.212 -2.0328,-1.8848 z m -84.449,4.1492 c -0.5059,1.0992 -2.542,1.9444 -0.68574,2.7687 2.7071,2.8392 4.8324,6.3771 5.4821,10.286 1.9276,-3.2791 4.7895,-6.5361 7.1623,-9.0626 -4.2993,0.1265 -8.454,-1.6754 -11.959,-3.9922 z m 87.843,22.027 c 1.4788,3.3635 2.1059,8.3195 2.8356,11.001 2.5751,-3.4049 6.6908,-5.3466 10.603,-6.5396 -0.67065,-1.1471 -0.29878,-3.6932 -2.2772,-2.5796 -3.9022,0.0142 -8.0062,-0.45306 -11.417,-2.5538 l 0.23465,0.61551 0.0213,0.056 z m -89.046,5.0047 c -3.5191,2.6145 -8.2209,3.3511 -12.351,3.3155 -1.3694,2.888 2.5515,2.127 4.1505,3.1534 2.5823,0.95705 5.0623,2.3439 6.9668,4.3614 -0.0996,-3.5513 0.74185,-7.876 1.2338,-10.83 z m 90.848,20.437 c -0.90469,3.8463 -2.2206,7.6032 -4.0488,11.111 4.0717,-1.8131 8.7967,-1.0343 12.806,0 -0.12664,-1.2362 1.9497,-2.6828 -0.28948,-2.9179 -3.4248,-1.9752 -6.5574,-4.7061 -8.4682,-8.1928 z m -89.234,6.7815 c -1.3994,4.0217 -5.3537,6.9245 -8.1658,9.2967 0.85137,2.4723 3.4386,-0.33681 5.2337,-0.13123 2.4959,-0.51669 5.1091,-0.67293 7.6113,-0.10936 -1.9021,-2.816 -3.4826,-5.9324 -4.6792,-9.0561 z m 75.636,17.134 c -2.3322,2.3578 -5.5276,4.584 -7.9304,6.2849 4.2942,0.68234 7.9018,3.8881 10.624,6.7339 2.8697,-1.2723 -0.52545,-3.7421 -0.66002,-5.8037 -0.88568,-2.5814 -1.4013,-5.3322 -1.1708,-8.0668 l -0.46892,0.46263 -0.39437,0.38907 z m -59.025,4.4078 c 0.95778,4.0809 -0.44469,8.4634 -1.9016,12.022 1.8426,2.0191 2.6598,-1.9625 4.1955,-2.7018 1.9033,-1.9354 4.2403,-3.6192 6.7364,-4.5493 -3.2095,-1.3756 -6.2655,-3.1053 -9.1089,-5.1321 l 0.0785,0.36153 z m 35.144,7.9484 c -3.2002,0.53694 -6.459,0.71139 -9.6994,0.55708 3.1566,2.984 4.5472,7.5177 5.0742,11.552 2.9251,0.43455 1.3503,-3.4551 2.3081,-5.1566 0.55586,-2.5146 1.4869,-4.9842 3.008,-7.08 l -0.6478,0.11943 -0.0431,0.008 z"
             id="path154" />
          <path
             d="m 244.58,-203.23 c -2.6593,3.3822 -5.7301,6.7777 -9.8734,8.2951 3.7397,1.2469 7.9917,4.088 10.741,5.6858 -1.1129,-4.2836 0.68848,-8.8189 1.5081,-12.732 -0.79046,-0.3085 -1.6404,-1.0648 -2.3758,-1.2493 z m -28.603,-6.4482 c -1.2361,0.60511 -3.6005,-0.89942 -2.7791,1.4637 -0.10123,3.8165 -1.9017,8.1512 -3.6598,10.855 3.696,-0.76015 8.8775,-0.55802 11.799,-0.74899 -3.4237,-2.9413 -4.4398,-7.5628 -5.3604,-11.57 z m 51.809,28.075 c -3.8756,2.1702 -9.1435,2.5157 -13.075,1.7324 2.482,3.4401 4.7173,7.1756 6.3071,11.064 1.1783,-4.4842 5.507,-7.4909 8.2437,-10.45 -0.52416,-0.74515 -1.1347,-1.5587 -1.4757,-2.3467 z m -82.645,-17.849 c -0.77316,0.93083 -2.9586,1.2202 -1.379,2.4969 1.88,3.4431 3.0172,7.4105 2.633,11.354 2.7106,-2.6684 6.3179,-5.0738 9.2638,-6.9 -4.1856,-0.99056 -7.7323,-3.8064 -10.518,-6.9513 z m 79.149,44.012 c 0.55783,3.6316 -0.11905,8.581 -0.10841,11.36 3.3686,-2.6224 7.8467,-3.4327 11.934,-3.5726 -0.35091,-1.2816 0.66728,-3.6447 -1.532,-3.081 -3.7729,-0.99625 -7.6162,-2.5098 -10.367,-5.4217 l 0.0673,0.65527 0.006,0.0596 z m -87.307,-18.213 c -4.0759,1.6146 -8.8081,1.1092 -12.788,0.006 -2.0702,2.4351 1.9141,2.7149 3.1929,4.1202 2.2466,1.5928 4.2832,3.5742 5.6005,6.016 0.82293,-3.4561 2.755,-7.4157 3.9949,-10.142 z m 82.463,43.254 c -1.8694,3.4811 -4.1128,6.7694 -6.7865,9.6843 4.4022,-0.69745 8.7647,1.2777 12.37,3.3146 0.19763,-1.2268 2.5776,-2.0868 0.4756,-2.8934 -2.7969,-2.7944 -5.1159,-6.2429 -6.0592,-10.105 z m -87.948,-16.545 c -2.3926,3.5225 -6.9634,5.3029 -10.294,6.8665 0.18249,2.6084 3.4086,0.56464 5.0894,1.2278 2.5446,0.14691 5.1092,0.67234 7.3803,1.8643 -1.1084,-3.2123 -1.8285,-6.6316 -2.1759,-9.9586 z m 68.624,36.127 c -2.8629,1.6738 -6.5256,2.9972 -9.2868,4.0182 3.9713,1.7705 6.6263,5.8008 8.5196,9.2542 3.1012,-0.48622 0.46097,-3.7506 0.86457,-5.7768 -0.18737,-2.7227 0.0265,-5.5132 0.95696,-8.0949 l -0.57268,0.3255 -0.48163,0.27374 z m -58.155,-11.019 c -0.13107,4.1897 -2.62,8.0599 -4.9482,11.12 1.2572,2.4272 3.0771,-1.2073 4.7518,-1.5239 2.3394,-1.3769 5.0326,-2.3984 7.6844,-2.6508 -2.7441,-2.1594 -5.2483,-4.6212 -7.4702,-7.3148 l -0.0177,0.36953 z m 31.889,16.773 c -3.2302,-0.30964 -6.423,-0.98456 -9.5131,-1.9723 2.2767,3.6993 2.4466,8.4384 1.9114,12.472 2.713,1.1768 2.1985,-2.9879 3.5641,-4.3835 1.1877,-2.285 2.7262,-4.4296 4.7379,-6.0602 l -0.65664,-0.0523 -0.0437,-0.003 z"
             id="path156" />
        </g>
        <g
           id="g166">
          <circle
             style="color:#000000;isolation:auto;mix-blend-mode:normal;solid-color:#000000;color-rendering:auto;image-rendering:auto;shape-rendering:auto"
             stroke-width="6.1001"
             stroke="#424242"
             cy="467.45001"
             cx="279.41"
             r="43.962002"
             fill="#333333"
             id="circle160" />
          <circle
             style="color:#000000;isolation:auto;mix-blend-mode:normal;solid-color:#000000;color-rendering:auto;image-rendering:auto;shape-rendering:auto"
             stroke-width="2.8356"
             stroke="#333333"
             cy="559.63"
             cx="192.36"
             r="42.130001"
             fill="#424242"
             id="circle162" />
          <circle
             style="color:#000000;isolation:auto;mix-blend-mode:normal;solid-color:#000000;color-rendering:auto;image-rendering:auto;shape-rendering:auto"
             stroke-width="2.8356"
             stroke="#333333"
             cy="565.35999"
             cx="665.53003"
             r="42.130001"
             fill="#424242"
             id="circle164" />
        </g>
      </g>
      <g
         fill="#333333"
         id="g176">
        <path
           d="m 213.58,530 h 455.58 c 0.0124,0 0.0224,0.01 0.0224,0.0224 l 16.162,40.063 -16.162,37.213 c -0.005,0.0114 -0.01,0.0224 -0.0224,0.0224 H 213.58 c -0.0124,0 -0.0224,-0.01 -0.0224,-0.0224 v -77.277 c 0,-0.0124 0.01,-0.0224 0.0224,-0.0224 z"
           style="color:#000000;isolation:auto;mix-blend-mode:normal;solid-color:#000000;color-rendering:auto;image-rendering:auto;shape-rendering:auto"
           id="path170" />
        <path
           d="m 213.75,607.25 -41.596,-9.2316 45.078,-39.27 z"
           fill-rule="evenodd"
           id="path172" />
        <path
           d="m 193.38,579.29 -23.258,-13.075 43.972,-35.854 3.1784,60.352 z"
           fill-rule="evenodd"
           id="path174" />
      </g>
      <rect
         style="color:#000000;isolation:auto;mix-blend-mode:normal;solid-color:#000000;color-rendering:auto;image-rendering:auto;shape-rendering:auto"
         ry="3.7446001"
         height="190.92"
         width="36.870998"
         y="128.92999"
         x="219"
         fill="#ff8f00"
         id="rect178" />
      <ellipse
         style="color:#000000;isolation:auto;mix-blend-mode:normal;solid-color:#000000;color-rendering:auto;image-rendering:auto;shape-rendering:auto"
         rx="3.7249"
         ry="3.8512001"
         cy="462.70001"
         cx="897.28003"
         fill="#ff6f00"
         id="ellipse180" />
      <g
         fill="#ff8f00"
         id="g190">
        <ellipse
           style="color:#000000;isolation:auto;mix-blend-mode:normal;solid-color:#000000;color-rendering:auto;image-rendering:auto;shape-rendering:auto"
           rx="4.7982001"
           ry="4.8614001"
           cy="508.41"
           cx="855.29999"
           id="ellipse182" />
        <ellipse
           style="color:#000000;isolation:auto;mix-blend-mode:normal;solid-color:#000000;color-rendering:auto;image-rendering:auto;shape-rendering:auto"
           rx="4.7982001"
           ry="4.8614001"
           cy="522.66998"
           cx="856.94"
           id="ellipse184" />
        <ellipse
           style="color:#000000;isolation:auto;mix-blend-mode:normal;solid-color:#000000;color-rendering:auto;image-rendering:auto;shape-rendering:auto"
           rx="4.7982001"
           ry="4.8614001"
           cy="536.44"
           cx="858.83002"
           id="ellipse186" />
        <ellipse
           style="color:#000000;isolation:auto;mix-blend-mode:normal;solid-color:#000000;color-rendering:auto;image-rendering:auto;shape-rendering:auto"
           rx="4.7982001"
           ry="4.8614001"
           cy="549.44"
           cx="861.22998"
           id="ellipse188" />
      </g>
      <path
         d="m 471.6,292.11 10.449,19.889 198.7,15.895 3.4394,-19.154 -212.59,-16.629 z"
         fill-rule="evenodd"
         fill="#333333"
         id="path192" />
      <path
         d="m 150.7,326 -1.7852,0.70703 v 104.73 l 1.7852,4.1133 v -109.55 z"
         style="color:#000000;isolation:auto;mix-blend-mode:normal;solid-color:#000000;color-rendering:auto;image-rendering:auto;shape-rendering:auto"
         fill="#ffa000"
         id="path194" />
      <rect
         style="color:#000000;isolation:auto;mix-blend-mode:normal;solid-color:#000000;color-rendering:auto;image-rendering:auto;shape-rendering:auto"
         ry="4.3081002"
         height="14.464"
         width="43.214001"
         y="392.89001"
         x="142.85001"
         fill="#ffa000"
         id="rect196" />
      <path
         d="m 343.43,168.22 0.37305,8.5254 52.082,30.07 11.059,-6.8066 -3.6484,-9.2891 -10.564,8.1328 -40.953,-23.645 v -6.9883 h -8.3477 z"
         fill-rule="evenodd"
         fill="#bcaaa4"
         id="path198" />
      <path
         d="m 299.63,168.22 0.58398,16.988 h 100.91 l -6.6719,-16.988 h -94.822 z"
         style="color:#000000;isolation:auto;mix-blend-mode:normal;solid-color:#000000;color-rendering:auto;image-rendering:auto;shape-rendering:auto"
         fill="#bcaaa4"
         id="path200" />
      <g
         stroke="#4a4a4a"
         stroke-width="3.1"
         fill="#333333"
         id="g210">
        <circle
           style="color:#000000;isolation:auto;mix-blend-mode:normal;solid-color:#000000;color-rendering:auto;image-rendering:auto;shape-rendering:auto"
           cy="444.85001"
           cx="279.41"
           r="14.643"
           id="circle202" />
        <circle
           style="color:#000000;isolation:auto;mix-blend-mode:normal;solid-color:#000000;color-rendering:auto;image-rendering:auto;shape-rendering:auto"
           cy="486.98999"
           cx="279.41"
           r="14.643"
           id="circle204" />
        <circle
           style="color:#000000;isolation:auto;mix-blend-mode:normal;solid-color:#000000;color-rendering:auto;image-rendering:auto;shape-rendering:auto"
           transform="rotate(90)"
           cy="-300.48001"
           cx="465.92001"
           r="14.643"
           id="circle206" />
        <circle
           style="color:#000000;isolation:auto;mix-blend-mode:normal;solid-color:#000000;color-rendering:auto;image-rendering:auto;shape-rendering:auto"
           transform="rotate(90)"
           cy="-258.32999"
           cx="465.92001"
           r="14.643"
           id="circle208" />
      </g>
      <g
         fill-rule="evenodd"
         id="g220">
        <path
           d="m 423.24,241.49 -20.488,18.988 -16.162,40.91 15.152,50.508 -5.5547,13.637 h -33.146 l 2.8145,6.1875 56.643,0.10547 20.357,-80.395 -19.615,-49.941 z"
           fill="#bcaaa4"
           id="path212" />
        <path
           d="m 423.52,242.21 -23.801,61.705 13.131,57.578 -7.5762,6.5664 -40.904,0.40235 1.4824,3.2598 56.643,0.10547 20.357,-80.395 -19.332,-49.223 z"
           fill="#a1887f"
           id="path214" />
        <path
           d="m 313.86,180.17 -7.5762,1.0117 4.8027,109.99 9.4824,0.19727 -6.709,-111.2 z"
           fill="#bcaaa4"
           id="path216" />
        <path
           d="m 594.92,397.25 c -10.33,0.92583 -11.8,7.5478 -12.893,14.412 l 53.887,32.693 c 10.142,-0.33405 13.863,-5.7002 11.547,-15.799 z"
           fill="#ffa000"
           id="path218" />
      </g>
      <circle
         style="color:#000000;isolation:auto;mix-blend-mode:normal;solid-color:#000000;color-rendering:auto;image-rendering:auto;shape-rendering:auto"
         cy="378.35001"
         cx="589.69"
         r="5.4927001"
         fill="#ff8f00"
         id="circle222" />
      <g
         fill="#ff6f00"
         id="g230">
        <circle
           style="color:#000000;isolation:auto;mix-blend-mode:normal;solid-color:#000000;color-rendering:auto;image-rendering:auto;shape-rendering:auto"
           cy="378.35001"
           cx="589.69"
           r="5.4927001"
           id="circle224" />
        <circle
           style="color:#000000;isolation:auto;mix-blend-mode:normal;solid-color:#000000;color-rendering:auto;image-rendering:auto;shape-rendering:auto"
           cy="408.88"
           cx="593.44"
           r="5.4927001"
           id="circle226" />
        <circle
           style="color:#000000;isolation:auto;mix-blend-mode:normal;solid-color:#000000;color-rendering:auto;image-rendering:auto;shape-rendering:auto"
           cy="433.17001"
           cx="637.19"
           r="5.4927001"
           id="circle228" />
      </g>
      <path
         d="m 167.85,444.49 h 20.357 l 61.964,-61.964 h 86.25 l -8.2143,-16.964 h -88.929 l -57.321,57.321 h -24.464 z"
         fill-rule="evenodd"
         fill="#ffa000"
         id="path232" />
      <circle
         style="color:#000000;isolation:auto;mix-blend-mode:normal;solid-color:#000000;color-rendering:auto;image-rendering:auto;shape-rendering:auto"
         transform="rotate(90)"
         cy="-653.89001"
         cx="326.01999"
         r="15.536"
         fill="#333333"
         id="circle234" />
      <rect
         style="color:#000000;isolation:auto;mix-blend-mode:normal;solid-color:#000000;color-rendering:auto;image-rendering:auto;shape-rendering:auto"
         ry="9.5529003"
         height="23.233999"
         width="38.638"
         y="205.8"
         x="138.34"
         fill="#333333"
         id="rect236" />
      <g
         fill="#424242"
         id="g246">
        <circle
           style="color:#000000;isolation:auto;mix-blend-mode:normal;solid-color:#000000;color-rendering:auto;image-rendering:auto;shape-rendering:auto"
           cy="582.71997"
           cx="269.39999"
           r="14.142"
           id="circle238" />
        <circle
           style="color:#000000;isolation:auto;mix-blend-mode:normal;solid-color:#000000;color-rendering:auto;image-rendering:auto;shape-rendering:auto"
           cy="552.40997"
           cx="350.22"
           r="14.142"
           id="circle240" />
        <circle
           style="color:#000000;isolation:auto;mix-blend-mode:normal;solid-color:#000000;color-rendering:auto;image-rendering:auto;shape-rendering:auto"
           cy="582.71997"
           cx="512.85999"
           r="14.142"
           id="circle242" />
        <circle
           style="color:#000000;isolation:auto;mix-blend-mode:normal;solid-color:#000000;color-rendering:auto;image-rendering:auto;shape-rendering:auto"
           cy="552.40997"
           cx="593.66998"
           r="14.142"
           id="circle244" />
      </g>
      <rect
         style="color:#000000;isolation:auto;mix-blend-mode:normal;solid-color:#000000;color-rendering:auto;image-rendering:auto;shape-rendering:auto"
         transform="matrix(1,0,0.33333,0.94281,0,0)"
         ry="0.023731999"
         height="12.122"
         width="250"
         y="547.16998"
         x="167.57001"
         fill="#333333"
         id="rect248" />
      <g
         fill="#424242"
         id="g264">
        <circle
           style="color:#000000;isolation:auto;mix-blend-mode:normal;solid-color:#000000;color-rendering:auto;image-rendering:auto;shape-rendering:auto"
           cy="541.19"
           cx="660.31"
           r="6.0735998"
           id="circle250" />
        <circle
           style="color:#000000;isolation:auto;mix-blend-mode:normal;solid-color:#000000;color-rendering:auto;image-rendering:auto;shape-rendering:auto"
           cy="561.02002"
           cx="667.98999"
           r="6.0735998"
           id="circle252" />
        <circle
           style="color:#000000;isolation:auto;mix-blend-mode:normal;solid-color:#000000;color-rendering:auto;image-rendering:auto;shape-rendering:auto"
           cy="579.22998"
           cx="667.27002"
           r="6.0735998"
           id="circle254" />
        <circle
           style="color:#000000;isolation:auto;mix-blend-mode:normal;solid-color:#000000;color-rendering:auto;image-rendering:auto;shape-rendering:auto"
           cy="596.37"
           cx="660.13"
           r="6.0735998"
           id="circle256" />
        <circle
           style="color:#000000;isolation:auto;mix-blend-mode:normal;solid-color:#000000;color-rendering:auto;image-rendering:auto;shape-rendering:auto"
           cy="562.51001"
           cx="194.14999"
           r="6.0735998"
           id="circle258" />
        <circle
           style="color:#000000;isolation:auto;mix-blend-mode:normal;solid-color:#000000;color-rendering:auto;image-rendering:auto;shape-rendering:auto"
           cy="549.13"
           cx="213.09"
           r="6.0735998"
           id="circle260" />
        <circle
           style="color:#000000;isolation:auto;mix-blend-mode:normal;solid-color:#000000;color-rendering:auto;image-rendering:auto;shape-rendering:auto"
           cy="591.81"
           cx="198.19"
           r="6.0735998"
           id="circle262" />
      </g>
    </g>
  </g>
</svg>
