<?xml version="1.0" encoding="UTF-8" standalone="no"?>
<!-- Generator: Adobe Illustrator 14.0.0, SVG Export Plug-In . SVG Version: 6.00 Build 43363)  -->

<svg
   xmlns:dc="http://purl.org/dc/elements/1.1/"
   xmlns:cc="http://creativecommons.org/ns#"
   xmlns:rdf="http://www.w3.org/1999/02/22-rdf-syntax-ns#"
   xmlns:svg="http://www.w3.org/2000/svg"
   xmlns="http://www.w3.org/2000/svg"
   xmlns:sodipodi="http://sodipodi.sourceforge.net/DTD/sodipodi-0.dtd"
   xmlns:inkscape="http://www.inkscape.org/namespaces/inkscape"
   version="1.1"
   id="Layer_1"
   x="0px"
   y="0px"
   width="720px"
   height="720px"
   viewBox="0 0 720 720"
   enable-background="new 0 0 720 720"
   xml:space="preserve"
   inkscape:version="0.48.4 r9939"
   sodipodi:docname="jgm104_Green_Umbrella.svg"
   inkscape:export-filename="/home/vokimon/Documents/desconexionibex/jgm104_Green_Umbrella.png"
   inkscape:export-xdpi="8"
   inkscape:export-ydpi="8"><defs
     id="defs3023" /><sodipodi:namedview
     pagecolor="#ffffff"
     bordercolor="#666666"
     borderopacity="1"
     objecttolerance="10"
     gridtolerance="10"
     guidetolerance="10"
     inkscape:pageopacity="0"
     inkscape:pageshadow="2"
     inkscape:window-width="786"
     inkscape:window-height="480"
     id="namedview3021"
     showgrid="false"
     inkscape:zoom="0.32777778"
     inkscape:cx="360"
     inkscape:cy="360"
     inkscape:window-x="205"
     inkscape:window-y="50"
     inkscape:window-maximized="0"
     inkscape:current-layer="Layer_1" /><g
     id="g2986"
     transform="matrix(1.6895043,0,0,1.6895043,-213.4414,-249.1618)"><linearGradient
       id="SVGID_1_"
       gradientUnits="userSpaceOnUse"
       x1="289.543"
       y1="363.64551"
       x2="565.54303"
       y2="527.64551"><stop
         offset="0"
         style="stop-color:#FFFFFF"
         id="stop2989" /><stop
         offset="1"
         style="stop-color:#231F20"
         id="stop2991" /></linearGradient><polygon
       points="348.219,526.184 341.219,526.184 341.219,266.679 348.219,266.679 348.219,526.184 "
       id="polygon2993"
       style="fill:url(#SVGID_1_)" /></g><g
     id="g2995"
     transform="matrix(1.6895043,0,0,1.6895043,-213.4414,-249.1618)"><linearGradient
       id="SVGID_2_"
       gradientUnits="userSpaceOnUse"
       x1="296.69189"
       y1="171.3315"
       x2="488.69189"
       y2="217.3315"><stop
         offset="0"
         style="stop-color:#FFFFFF"
         id="stop2998" /><stop
         offset="1"
         style="stop-color:#231F20"
         id="stop3000" /></linearGradient><polygon
       points="348.219,198.998 341.219,198.998 341.219,166.677 348.219,166.677 348.219,198.998 "
       id="polygon3002"
       style="fill:url(#SVGID_2_)" /></g><g
     id="g3004"
     transform="matrix(1.6895043,0,0,1.6895043,-213.4414,-249.1618)"><linearGradient
       id="SVGID_3_"
       gradientUnits="userSpaceOnUse"
       x1="138.0977"
       y1="180.74561"
       x2="536.09772"
       y2="375.74561"><stop
         offset="0"
         style="stop-color:#B4E2BB"
         id="stop3007" /><stop
         offset="0.4724"
         style="stop-color:#37B34A"
         id="stop3009" /><stop
         offset="1"
         style="stop-color:#31873E"
         id="stop3011" /></linearGradient><path
       d="m 198.261,300.806 c 18.387,0 35.326,6.168 48.888,16.532 13.562,-10.364 30.501,-16.532 48.888,-16.532 18.387,0 35.326,6.168 48.888,16.532 13.562,-10.364 30.501,-16.532 48.888,-16.532 18.387,0 35.326,6.168 48.889,16.532 13.562,-10.364 30.502,-16.532 48.889,-16.532 16.466,0 31.772,4.948 44.532,13.423 -27.962,-78.601 -103.001,-134.881 -191.197,-134.881 -88.196,0 -163.236,56.28 -191.198,134.881 12.76,-8.476 28.066,-13.423 44.533,-13.423 z"
       id="path3013"
       style="fill:url(#SVGID_3_)"
       inkscape:connector-curvature="0" /></g><g
     id="g3015"
     transform="matrix(1.6895043,0,0,1.6895043,-213.4414,-249.1618)"><path
       d="m 316.851,560.475 c -17.196,0 -34.983,-11.329 -34.983,-30.287 0,-2.762 2.239,-5 5,-5 2.761,0 5,2.238 5,5 0,12.698 12.703,20.287 24.983,20.287 6.248,0 11.876,-1.999 15.85,-5.628 4.657,-4.252 7.018,-10.531 7.018,-18.663 v -44.536 h 10 v 44.536 c 0,10.902 -3.553,19.909 -10.274,26.048 -5.821,5.315 -13.845,8.243 -22.594,8.243 l 0,0 z"
       id="path3017"
       inkscape:connector-curvature="0"
       style="fill:#5c3f22" /></g><metadata
     id="metadata3019"><rdf:RDF><cc:Work><dc:format>image/svg+xml</dc:format><dc:type
           rdf:resource="http://purl.org/dc/dcmitype/StillImage" /><cc:license
           rdf:resource="http://creativecommons.org/licenses/publicdomain/" /><dc:publisher><cc:Agent
             rdf:about="http://openclipart.org/"><dc:title>Open Clip Art Library</dc:title></cc:Agent></dc:publisher><dc:title>Green Umbrella</dc:title><dc:date>2010-01-19T17:51:31</dc:date><dc:description>A simple slightly gradiated illustration of an umbrella.</dc:description><dc:source>http://openclipart.org/detail/28978/green-umbrella-by-jgm104</dc:source><dc:creator><cc:Agent><dc:title>jgm104</dc:title></cc:Agent></dc:creator><dc:subject><rdf:Bag><rdf:li>clip art</rdf:li><rdf:li>clipart</rdf:li><rdf:li>clouds</rdf:li><rdf:li>clouds</rdf:li><rdf:li>cold</rdf:li><rdf:li>cold</rdf:li><rdf:li>green</rdf:li><rdf:li>green</rdf:li><rdf:li>illustration</rdf:li><rdf:li>illustration</rdf:li><rdf:li>image</rdf:li><rdf:li>media</rdf:li><rdf:li>png</rdf:li><rdf:li>public domain</rdf:li><rdf:li>rain</rdf:li><rdf:li>rain</rdf:li><rdf:li>svg</rdf:li><rdf:li>umbrella</rdf:li><rdf:li>umbrella</rdf:li><rdf:li>unchecked</rdf:li><rdf:li>weather</rdf:li><rdf:li>weather</rdf:li></rdf:Bag></dc:subject></cc:Work><cc:License
         rdf:about="http://creativecommons.org/licenses/publicdomain/"><cc:permits
           rdf:resource="http://creativecommons.org/ns#Reproduction" /><cc:permits
           rdf:resource="http://creativecommons.org/ns#Distribution" /><cc:permits
           rdf:resource="http://creativecommons.org/ns#DerivativeWorks" /></cc:License></rdf:RDF></metadata></svg>