<?xml version="1.0" encoding="UTF-8" standalone="no"?>
<!-- Created with Inkscape (http://www.inkscape.org/) -->

<svg
   xmlns:dc="http://purl.org/dc/elements/1.1/"
   xmlns:cc="http://creativecommons.org/ns#"
   xmlns:rdf="http://www.w3.org/1999/02/22-rdf-syntax-ns#"
   xmlns:svg="http://www.w3.org/2000/svg"
   xmlns="http://www.w3.org/2000/svg"
   xmlns:sodipodi="http://sodipodi.sourceforge.net/DTD/sodipodi-0.dtd"
   xmlns:inkscape="http://www.inkscape.org/namespaces/inkscape"
   width="64px"
   height="64px"
   id="svg3810"
   version="1.1"
   inkscape:version="0.48.3.1 r9886"
   sodipodi:docname="map_catalunya.svg"
   inkscape:export-filename="/home/vokimon/Documents/map_catalunya.png"
   inkscape:export-xdpi="90"
   inkscape:export-ydpi="90">
  <defs
     id="defs3812" />
  <sodipodi:namedview
     id="base"
     pagecolor="#ffffff"
     bordercolor="#666666"
     borderopacity="1.0"
     inkscape:pageopacity="0.0"
     inkscape:pageshadow="2"
     inkscape:zoom="5.5"
     inkscape:cx="36.636364"
     inkscape:cy="9.8282738"
     inkscape:current-layer="layer1"
     showgrid="true"
     inkscape:document-units="px"
     inkscape:grid-bbox="true"
     inkscape:window-width="1680"
     inkscape:window-height="995"
     inkscape:window-x="-2"
     inkscape:window-y="-3"
     inkscape:window-maximized="1" />
  <metadata
     id="metadata3815">
    <rdf:RDF>
      <cc:Work
         rdf:about="">
        <dc:format>image/svg+xml</dc:format>
        <dc:type
           rdf:resource="http://purl.org/dc/dcmitype/StillImage" />
        <dc:title></dc:title>
      </cc:Work>
    </rdf:RDF>
  </metadata>
  <g
     id="layer1"
     inkscape:label="Layer 1"
     inkscape:groupmode="layer">
    <g
       id="g6666"
       transform="matrix(4.0486389,0,0,4.0486389,-169.59724,-40.661131)">
      <polygon
         transform="matrix(0.1463455,0,0,0.1463455,-23.200961,-0.7883287)"
         points="504.583,100.189 504.823,100.189 505.063,100.668 505.303,100.668 505.543,100.668 505.783,100.909 506.023,101.148 506.263,100.668 506.503,100.668 506.983,100.668 507.223,100.668 507.463,100.429 507.703,100.189 507.943,100.429 508.183,100.189 508.183,99.948 508.903,99.469 508.903,98.989 509.143,98.989 509.143,98.508 509.143,98.269 509.623,98.029 510.103,97.789 510.343,97.789 510.823,98.029 510.823,97.789 511.063,98.029 511.063,97.789 511.542,98.029 511.542,97.789 511.783,97.789 511.783,97.548 512.023,97.789 512.023,97.548 512.263,97.548 512.502,97.309 512.743,97.309 512.983,97.069 513.223,97.069 513.463,97.069 513.703,97.309 513.943,97.309 514.183,97.548 514.422,97.548 514.422,97.309 514.663,97.309 514.903,97.309 514.903,97.548 515.143,97.789 515.383,97.789 515.623,97.789 515.863,98.029 516.343,98.269 516.583,98.269 516.823,98.269 517.063,98.269 517.303,98.508 517.542,98.508 517.783,98.508 518.263,98.508 518.502,98.508 518.502,98.749 518.502,98.989 518.502,99.229 518.743,99.469 518.983,99.469 519.223,99.469 519.223,99.708 519.462,99.708 519.703,100.189 519.943,100.429 520.663,100.429 520.903,100.429 520.903,100.668 521.382,100.668 521.863,100.668 521.863,100.429 522.103,100.429 522.103,100.189 522.103,99.948 522.103,99.708 522.103,99.948 522.583,99.708 522.823,99.708 523.542,99.708 523.542,99.948 523.783,99.948 524.502,99.948 524.743,100.189 524.983,99.948 525.462,100.189 525.703,100.189 525.703,99.948 525.703,99.469 525.703,99.229 525.462,99.229 525.222,98.989 525.462,98.989 525.222,98.749 525.222,98.508 524.983,98.508 524.983,98.269 525.462,98.269 525.703,97.789 525.462,97.548 525.703,97.548 526.182,97.548 526.182,97.309 526.422,97.309 526.903,96.829 527.143,96.829 527.382,96.588 527.863,96.588 528.102,96.588 528.102,96.829 528.583,97.069 528.823,96.829 529.063,96.829 529.302,96.829 529.302,96.349 529.542,96.109 529.783,95.869 530.023,95.869 530.262,95.388 530.262,95.148 530.502,94.909 530.743,95.148 530.983,95.148 531.222,94.909 531.222,94.668 531.462,94.668 531.703,94.909 531.943,94.909 532.422,94.909 532.663,94.909 532.903,94.909 532.903,94.668 533.142,94.189 533.623,93.948 534.102,94.189 534.102,94.428 534.583,94.428 534.823,94.189 535.302,94.189 535.542,94.428 535.783,94.189 536.262,93.948 536.502,93.948 536.502,94.428 536.743,94.668 536.982,95.148 537.222,95.148 537.462,95.388 537.703,95.628 537.942,95.869 538.182,95.869 538.422,95.869 538.422,95.388 538.902,95.148 538.902,95.388 539.382,95.388 539.623,95.388 539.862,95.388 540.102,95.148 540.583,95.148 540.583,95.388 540.342,95.388 540.102,95.388 540.102,95.628 540.342,95.628 540.342,95.869 540.342,96.109 540.342,96.349 540.102,96.349 540.102,96.588 540.342,96.588 539.862,97.069 540.102,97.069 540.342,97.069 540.342,97.309 540.102,97.309 540.102,97.548 540.102,97.789 540.342,97.789 540.583,98.029 540.342,98.029 540.342,98.269 540.583,98.269 540.823,98.508 541.062,98.508 541.062,98.749 541.062,98.508 541.062,98.749 541.062,98.989 541.302,98.989 541.302,99.229 541.542,99.229 541.542,98.989 541.542,98.749 541.782,98.989 541.782,98.749 542.022,98.749 542.022,98.508 542.262,98.749 542.262,98.508 542.743,98.508 542.743,98.749 542.743,98.989 542.743,99.229 542.982,98.989 542.982,99.229 542.982,99.469 543.222,99.229 542.982,99.229 543.222,99.229 543.462,99.229 543.462,98.989 543.942,98.989 543.942,99.229 544.182,99.229 544.182,99.469 544.182,99.229 544.422,99.469 544.422,99.229 544.663,99.469 544.902,99.469 544.902,99.708 544.902,99.469 545.382,99.708 545.142,99.708 545.142,99.948 544.902,99.708 544.902,99.948 544.663,99.948 544.663,100.189 544.422,100.189 544.182,100.429 544.422,100.429 544.422,100.668 544.182,100.668 544.422,100.909 544.663,100.909 544.663,101.148 544.422,101.148 544.182,101.148 544.182,100.909 543.942,100.909 543.942,101.148 544.182,101.389 543.942,101.148 543.942,101.389 544.182,101.629 544.422,101.629 544.422,101.869 544.182,102.349 543.942,102.349 543.703,102.349 543.703,102.589 543.462,102.349 543.462,102.589 543.462,102.829 543.703,102.829 543.942,102.829 543.703,103.069 543.462,103.069 543.222,102.589 542.982,102.589 542.982,102.829 542.743,102.589 542.743,102.829 542.743,103.069 542.502,103.069 542.743,103.069 542.502,103.309 542.262,103.309 542.022,103.309 542.022,103.069 541.782,103.069 541.782,102.829 541.542,102.829 541.302,102.829 541.062,102.589 541.302,102.589 541.062,102.589 541.302,102.589 541.302,102.349 540.823,102.109 540.583,102.349 540.342,102.349 540.342,102.589 540.342,102.349 540.102,102.589 539.862,102.829 539.862,103.069 539.623,103.309 539.382,104.029 539.382,104.75 539.382,105.709 539.623,107.148 539.862,107.389 539.862,107.629 539.862,107.869 540.102,107.869 540.342,107.869 540.342,108.11 540.342,108.349 540.583,108.349 540.583,108.11 540.823,108.11 541.062,108.11 541.062,108.349 541.302,108.11 541.302,108.349 541.542,108.349 541.542,108.589 541.302,108.589 541.542,108.589 541.782,108.589 541.782,108.83 542.022,108.83 542.262,109.309 542.262,109.549 542.262,109.309 542.262,109.549 542.502,109.549 542.262,109.549 542.502,109.79 542.502,110.03 542.743,110.03 542.502,110.03 542.743,110.27 542.743,110.509 542.502,110.75 542.502,110.509 542.262,110.75 542.262,111.469 542.502,112.43 542.502,112.669 542.743,113.629 542.982,113.629 542.982,113.869 543.222,113.869 543.462,113.869 543.703,113.869 543.703,114.11 543.462,114.11 543.703,114.35 543.462,114.35 543.703,114.35 543.462,114.59 543.703,114.83 543.462,114.83 543.462,115.069 543.222,115.069 543.222,115.31 543.462,115.31 543.222,115.55 543.462,115.55 543.222,115.55 543.222,115.79 543.462,115.79 543.222,115.79 543.462,115.79 543.462,116.03 543.222,116.03 542.982,116.03 542.982,116.27 543.222,116.51 542.982,116.51 543.222,116.75 542.982,116.75 542.982,117.23 542.743,117.23 542.743,116.99 542.743,117.23 542.502,117.23 542.502,117.47 542.262,117.47 542.502,117.71 542.262,117.71 542.262,117.95 542.262,118.19 542.022,118.43 541.782,118.43 541.782,118.67 541.542,118.43 541.542,118.67 541.302,118.67 541.302,118.911 541.062,119.15 541.062,119.39 540.583,119.39 540.823,119.39 540.823,119.15 540.583,119.15 540.342,119.15 539.862,119.39 539.862,119.63 539.862,119.871 539.623,119.871 539.623,120.11 539.382,120.11 539.382,120.35 539.142,120.59 539.142,121.071 538.902,121.31 538.902,121.79 538.663,121.79 538.663,121.55 538.422,121.79 538.663,121.79 538.422,122.031 538.182,122.27 538.182,122.031 537.942,122.031 538.182,122.27 538.182,122.51 537.942,122.51 537.942,122.27 537.462,122.51 537.222,122.75 536.743,122.99 536.502,122.99 536.502,123.231 536.262,123.231 536.262,123.71 536.022,123.71 536.022,123.951 535.783,123.951 535.783,124.191 535.783,124.43 535.542,124.43 535.542,124.67 535.302,124.67 535.302,124.911 535.062,124.911 534.823,124.911 534.823,125.151 534.583,125.151 534.342,125.391 533.863,125.63 533.863,125.391 533.623,125.63 533.382,125.63 532.903,125.63 532.663,125.871 532.422,126.111 532.422,125.871 532.182,126.111 531.943,126.351 531.703,126.59 531.462,126.831 531.222,126.831 531.462,126.831 531.222,126.831 531.222,127.071 530.983,127.071 530.743,127.791 530.262,127.311 530.262,127.071 530.023,126.59 530.502,126.351 530.502,125.871 530.262,124.911 530.502,124.67 530.502,124.43 529.542,124.43 528.823,124.191 528.342,124.191 528.102,124.191 527.863,124.43 527.863,124.191 527.623,123.951 527.623,124.191 527.863,124.43 527.623,124.43 527.143,124.191 526.903,124.191 526.903,124.43 526.663,124.191 526.422,124.43 526.182,124.67 525.943,124.911 525.703,124.911 525.462,124.911 525.222,125.151 524.983,125.151 524.502,125.151 524.262,125.151 523.542,125.63 523.302,125.391 523.063,125.151 523.063,124.911 523.063,124.67 522.823,124.67 522.583,124.43 522.583,124.191 522.583,123.951 521.863,123.71 521.382,123.47 521.143,123.231 521.143,122.75 520.663,122.99 520.183,122.99 520.183,122.51 519.943,122.27 519.703,122.27 519.462,122.27 519.223,122.27 519.223,122.51 518.983,122.51 518.743,122.27 518.502,122.27 518.263,122.27 518.023,122.51 517.783,122.27 517.542,122.27 517.303,122.031 517.303,121.79 517.303,121.55 517.303,121.31 517.063,121.071 516.823,120.831 516.583,120.35 516.823,120.11 516.583,119.871 516.343,119.63 516.583,119.39 516.823,119.15 517.063,119.15 517.303,119.15 517.303,119.39 517.542,119.15 517.783,119.39 517.783,119.15 517.783,119.39 518.023,119.63 518.263,119.63 518.263,119.39 518.502,119.39 518.502,119.15 518.743,118.911 518.983,118.67 519.223,118.67 519.462,118.67 519.703,118.67 519.703,118.911 519.943,118.911 520.183,118.911 520.183,118.67 520.422,118.43 520.422,118.19 520.663,118.19 520.903,117.95 520.903,117.71 521.143,117.71 520.903,117.47 521.143,117.23 520.663,116.75 520.422,116.75 520.422,116.51 520.183,116.75 520.183,116.51 519.943,116.51 519.943,116.75 519.703,116.75 519.703,116.51 519.703,116.27 519.703,116.03 519.703,115.79 519.462,115.79 519.462,115.55 519.703,115.55 519.943,115.55 520.183,115.79 520.183,115.55 520.183,115.79 520.422,115.55 520.663,115.55 520.663,115.31 520.903,115.069 521.143,114.83 520.422,114.59 520.663,114.35 520.903,114.35 521.143,114.35 521.143,114.11 521.382,114.11 521.382,113.869 521.623,113.869 521.382,113.869 521.382,113.629 521.143,113.39 521.382,113.39 521.382,113.15 521.623,112.91 521.382,112.91 521.143,112.669 520.903,112.43 520.663,112.19 521.143,111.95 521.143,111.709 520.903,111.469 520.663,111.469 520.422,111.709 520.183,111.23 519.943,111.23 519.703,111.23 519.703,111.469 519.462,111.469 519.223,111.709 518.983,111.95 518.983,111.709 518.743,111.709 518.502,111.709 518.502,111.23 518.023,110.99 518.023,110.75 518.023,110.509 518.263,110.27 518.023,110.27 517.542,110.27 517.303,109.79 517.063,109.549 516.823,109.79 516.583,109.549 516.343,109.79 515.623,109.79 515.623,110.03 515.383,110.27 514.903,110.509 514.903,110.27 515.143,110.03 515.143,109.79 515.143,109.549 515.143,109.309 514.903,109.309 514.663,109.309 514.422,109.309 514.422,109.069 514.183,109.069 514.183,108.83 513.943,109.069 513.703,109.069 513.463,109.069 513.223,109.069 513.223,108.83 512.502,109.069 512.263,109.069 512.502,109.309 512.263,109.309 512.502,109.549 512.263,109.549 512.263,109.79 512.023,109.79 511.783,109.79 511.783,109.549 511.783,109.309 511.542,109.309 511.063,109.309 510.343,109.549 510.343,109.79 510.343,110.03 509.863,110.27 509.623,110.27 509.143,110.03 509.143,109.79 508.903,109.79 509.143,109.309 508.903,109.309 508.903,109.069 508.663,109.309 508.183,109.309 508.183,109.549 507.943,109.549 507.703,109.549 507.703,109.309 507.463,109.309 507.223,109.309 506.983,109.069 506.743,109.069 506.503,109.069 506.023,109.069 506.263,109.069 506.023,109.069 506.263,108.83 505.783,108.589 505.783,108.349 505.783,108.11 505.543,108.11 505.783,107.869 505.543,107.869 505.303,107.869 505.063,107.869 505.063,108.11 504.823,108.11 504.823,107.148 505.063,107.148 505.303,107.148 505.543,107.389 506.023,107.389 505.783,107.389 505.783,107.629 506.023,107.629 506.023,108.11 505.783,108.11 506.023,108.349 506.023,108.589 506.263,108.589 506.743,108.589 506.743,108.349 506.983,108.11 506.983,107.869 507.223,107.869 507.703,107.869 507.703,107.389 507.943,107.389 507.703,107.148 507.463,107.148 507.463,106.91 507.463,106.669 507.463,106.429 507.463,106.189 507.223,106.189 506.983,106.189 506.743,106.429 506.503,105.95 506.263,105.709 506.503,105.709 506.503,105.469 506.743,105.469 506.503,105.229 506.743,105.229 506.503,104.989 506.743,104.989 506.503,104.989 506.743,104.989 506.503,104.989 506.743,104.75 506.983,104.509 506.983,104.269 507.223,104.029 507.223,103.79 507.463,103.549 507.703,103.549 507.703,103.309 507.463,103.069 506.983,103.069 506.743,102.829 506.503,102.829 506.263,102.589 506.023,102.829 505.783,102.829 505.543,103.069 505.303,103.069 505.063,103.069 504.823,103.069 504.343,102.589 504.103,102.589 503.863,102.829 503.863,102.589 503.624,102.349 503.143,102.589 502.664,102.349 502.423,102.349 502.423,102.589 502.183,102.589 501.943,102.829 501.463,102.829 501.223,102.829 500.983,103.069 500.743,102.589 500.743,102.349 500.503,102.349 500.743,102.109 500.743,101.629 500.743,101.389 500.503,101.148 500.983,101.148 500.983,100.909 500.983,100.668 501.223,100.429 500.983,100.429 500.743,100.189 500.743,100.429 500.503,100.189 500.263,99.948 500.023,100.429 499.784,100.668 499.543,100.429 499.543,100.189 499.784,99.708 499.543,98.989 499.784,98.989 499.543,98.508 499.303,98.269 499.303,98.029 498.583,98.029 498.343,98.269 498.103,98.029 497.624,98.029 497.383,97.789 497.383,97.548 497.143,97.548 497.143,97.309 497.143,97.069 497.383,96.588 497.143,96.349 496.903,95.869 497.143,95.628 497.383,95.628 497.383,95.628 497.624,95.628 498.103,95.869 498.343,95.869 499.063,95.869 499.303,95.628 499.784,95.869 500.023,95.869 500.503,96.109 500.743,96.349 500.503,96.349 500.743,96.349 500.743,96.588 500.983,96.829 501.223,96.588 501.704,96.829 501.943,97.309 501.943,97.069 501.943,97.309 502.183,97.309 502.183,97.069 502.664,97.309 502.903,97.309 503.383,96.829 503.624,97.309 503.624,97.789 504.103,98.029 504.103,98.508 504.343,98.989 504.343,99.229 504.343,99.469 504.343,99.708 "
         style="color:#000000;fill:#622a21;fill-opacity:1;stroke:none;stroke-width:0.1366629;marker:none;visibility:visible;display:inline;overflow:visible;enable-background:accumulate"
         id="polygon100" />
      <polygon
         transform="matrix(0.1463455,0,0,0.1463455,-23.200961,-0.7883287)"
         points="505.783,96.829 505.783,97.069 505.303,97.069 504.823,97.069 504.823,97.069 504.343,97.069 504.103,96.829 504.103,95.869 504.343,95.869 504.343,95.628 504.583,95.628 504.583,95.148 504.823,95.148 505.063,95.388 505.063,95.628 504.823,96.109 505.063,96.588 505.543,96.588 "
         style="color:#000000;fill:#622a21;fill-opacity:1;stroke:none;stroke-width:0.1366629;marker:none;visibility:visible;display:inline;overflow:visible;enable-background:accumulate"
         id="polygon110" />
      <polygon
         transform="matrix(0.1463455,0,0,0.1463455,-23.200961,-0.7883287)"
         points="505.543,96.588 505.783,96.829 505.783,97.069 505.303,97.069 504.823,97.069 504.583,97.069 504.583,97.069 504.343,97.069 504.103,96.829 504.103,95.869 504.343,95.869 504.343,95.628 504.583,95.628 504.583,95.148 504.823,95.148 505.063,95.388 505.063,95.628 504.823,96.109 505.063,96.588 "
         style="color:#000000;fill:#622a21;fill-opacity:1;stroke:none;stroke-width:0.1366629;marker:none;visibility:visible;display:inline;overflow:visible;enable-background:accumulate"
         id="polygon112" />
      <polygon
         transform="matrix(0.1463455,0,0,0.1463455,-23.200961,-0.7883287)"
         points="506.023,110.27 506.263,110.27 506.263,110.03 506.503,110.03 506.743,110.03 506.743,109.79 506.983,110.03 506.983,110.27 506.743,110.27 506.743,110.509 506.743,110.75 506.503,110.75 506.263,110.75 506.263,110.75 506.263,110.509 "
         style="color:#000000;fill:#622a21;fill-opacity:1;stroke:none;stroke-width:0.1366629;marker:none;visibility:visible;display:inline;overflow:visible;enable-background:accumulate"
         id="polygon138" />
      <polygon
         transform="matrix(0.1463455,0,0,0.1463455,-23.200961,-0.7883287)"
         points="506.023,110.27 506.263,110.27 506.263,110.03 506.503,110.03 506.743,110.03 506.743,109.79 506.983,110.03 506.983,110.27 506.743,110.27 506.743,110.509 506.743,110.75 506.503,110.75 506.263,110.75 506.263,110.75 506.263,110.509 "
         style="color:#000000;fill:#622a21;fill-opacity:1;stroke:none;stroke-width:0.1366629;marker:none;visibility:visible;display:inline;overflow:visible;enable-background:accumulate"
         id="polygon140" />
      <path
         inkscape:connector-curvature="0"
         d="m 44.812232,12.293204 0.03511,0 0.03513,0 0,-0.07024 0,-0.03497 0.03513,0 0,-0.03527 -0.03513,0 0,-0.03512 0,-0.03512 -0.03513,-0.03497 0,-0.03512 0,-0.03527 -0.03511,0 0,-0.03512 0,-0.03512 -0.07009,0.03512 -0.03513,-0.03512 0.07025,-0.03498 -0.03513,0 0.03513,-0.03512 0.03497,-0.03512 0.03513,-0.03512 -0.07009,0 -0.03513,-0.03497 0.03513,-0.07024 0.03497,-0.03512 0.03513,0 0,-0.03512 -0.03513,-0.03498 0,-0.03512 0.03513,0 -0.03513,-0.03512 -0.03497,-0.03512 0,-0.03498 0,-0.03512 0.07009,-0.03512 0,-0.03512 0.07025,0 0.03497,-0.03512 0.03513,0 0.03512,0 0.03512,0 0.03497,0.03512 0,0.03512 0.07025,0 0.07009,0.03512 0.07024,0.03512 0.03511,0 0.03498,-0.03512 0.03513,0 0.03513,0 0.105366,0.07009 0.03512,-0.03498 0.07009,0.03498 0,0.03512 0.03512,0 0.03513,0 0,0.03512 0.03513,0 0.105376,0.0701 0.03511,0 0.03513,0.07024 0.07009,0 -0.03513,-0.03512 0.03513,-0.03512 0.03511,-0.03498 0.07009,0 0.03511,0 0.03513,0.03498 0,0.03512 0.03513,0.03512 0.03497,0 0.03512,-0.03512 0.07025,0 0.07009,0.03512 0,-0.03512 0,0.03512 0,-0.03512 0.03513,0 0,0.03512 0.03512,0 0.03498,0 0.07025,0 0,-0.03512 0.07009,0.07024 0.03512,0 0.03513,0.03512 0.07009,0.03497 0.03513,0.07025 0,0.07009 0.03511,0 0,0.07024 0.03513,0 0.03497,0.03527 0.07025,0.07009 0.03513,0 0,-0.03498 0.03497,-0.03512 0.07025,0 0.03513,-0.03527 0.03497,0 0.07025,-0.03512 0.03513,0 0.03497,0.03512 0,0.03527 0.07025,0 0,-0.03527 0.03513,0 0.03497,0.03527 0.07025,-0.03527 0.03512,0 0.03497,0 0.03512,0 0.03512,-0.03512 0.03513,0 0,0.03512 0.105376,0 -0.03513,0.03527 0,0.03512 0,0.03498 0.03513,0 0.03511,0.03512 0.03513,0 0.07009,0.03512 -0.03513,0.07024 0.03513,0 0,0.03512 0.03511,0.03512 0.03497,0.03512 0.03513,0 0,0.03512 0.03511,0.03497 0,0.03512 0,0.03511 0,0.03513 0.03513,0.03498 0.03513,0 -0.03513,0.03513 0.07009,0.07024 0,0.07009 -0.03497,0 -0.03513,0.03513 0.03513,0.03513 0.07009,0.03511 0,0.03498 -0.105376,0.03527 0,0.07025 0,0.03527 -0.03513,0.03497 0.07025,-0.03497 0.03497,0 0.03511,0 0.03513,0.03497 0,0.0704 0.03513,0 0.03497,0.07009 -0.105377,0.105521 -0.07009,0 -0.03511,0.07009 0.07009,0 0.03511,0.03513 0,0.07025 0.03513,0.03497 -0.03513,0.03513 0.03513,0.03511 0,0.03513 0,-0.03513 0,0.03513 0.03513,0.03498 0.105377,0 0.03512,0 0.03497,0 0.105511,0.03512 0,-0.03512 0.03498,0 0.10551,0 0,-0.07009 0.03497,-0.03513 0,-0.03513 0,-0.03497 0.03513,0 0.03513,0.03497 0.03511,0.03513 0,-0.07009 0.0701,-0.03513 0.03511,0 0.07009,0 0.03513,0 0,-0.03513 0.03513,0 0.03511,0 0.03497,0 0.03513,-0.03511 -0.03513,-0.03497 0.03513,0 0,-0.07025 0,-0.07024 0.07025,0.03513 0.03497,0 0.07025,0.03511 0.03512,0 0.03497,-0.105377 0.03511,0.07024 -0.03511,0.03512 0.03511,0.07025 0.03513,0.03497 -0.03513,0.07025 0,0.03513 0,0.03497 0.03513,0 0,0.03513 0.03513,0.03512 0.0701,0 0.03513,0.03512 0.03513,-0.03512 0.105366,0 0,0.03512 0.03513,0.03498 0.03511,0.07025 -0.03511,0 0.03511,0.105376 -0.03511,0.07025 0,0.03511 0.03511,0.03497 0.03498,-0.03497 0.03511,-0.0704 0.03513,0.03527 0.03498,0.03513 0,-0.03513 0.03511,0.03513 0.03513,0 -0.03513,0.03497 0,0.03511 0,0.03513 -0.07009,0 0.03498,0.03527 0,0.03513 0,0.07009 -0.03498,0.03513 0.03498,0 0,0.03512 0.03513,0.07009 -0.03513,0 0,0.03512 -0.03498,0 -0.03512,0 -0.03513,0 -0.03498,0 -0.03512,0.03512 -0.03512,0 -0.03513,0.03512 -0.07009,0 -0.105511,0 -0.03498,0.07009 -0.03513,0 -0.03513,-0.03512 -0.07009,0.03512 0,-0.03512 -0.03513,0.03512 0,-0.03512 -0.03513,0.03512 -0.03511,0 -0.03498,0 0.07009,0.03512 0.03513,0 0.03513,0.07009 -0.03513,0.03511 -0.03513,0.03513 0.03513,0 0,0.03511 0.03513,0 0,0.03513 0.03497,0 0,0.03497 0,0.03512 -0.105366,0.03512 0.03511,0.03512 -0.03511,0.07009 0.03511,0 0.03513,0.03512 0.07009,0.07024 0.03513,-0.03527 0.03512,-0.03513 0.07009,0.03513 0,0.03527 0,0.07009 0,0.03511 0,0.03513 0,0.03511 -0.07009,0.03513 -0.03512,0 -0.03513,0 0,0.03513 0,0.03511 -0.03513,0.03513 0,0.03497 0.07024,0.03513 0,0.03511 0,0.03513 -0.03513,0.03497 0.03513,0 0.03511,0 0.03497,0.03511 0,0.03513 -0.03497,0.03513 -0.03511,0.03512 -0.07024,-0.03512 0,0.03512 0,0.03497 -0.03497,0.03513 -0.03513,0.07024 0,0.03497 0,0.03511 0,0.03527 0.03513,0 0,-0.03527 0,-0.03511 0,0.03511 0.03497,0 0.03513,0.03527 0,0.03512 0,0.03513 -0.03513,0 -0.03497,0.0701 -0.03513,-0.03513 0,0.03513 0,0.07039 -0.03511,0 0,-0.03513 0,-0.03527 0,-0.03513 -0.03513,0 0,0.03513 0,0.03527 0,0.03513 -0.03498,0 0,0.03497 0.03498,0 0,0.03513 0,-0.03513 0,-0.03497 0.03513,0 0,0.07009 0.03511,0 0.03513,0 0.03497,0 0.03513,0 0,0.03513 0.03513,0 -0.03513,-0.03513 0.03513,0 -0.03513,-0.07009 0,-0.07039 0.07024,0.03526 0,0.03512 0.03497,0.03498 0,0.03513 -0.03497,0 0.03497,0.03513 0,0.03511 -0.07009,0.03513 -0.07024,0.03497 -0.03497,0 -0.03513,0 0,-0.03497 0.03513,-0.03513 -0.03513,-0.03511 -0.03511,0.03511 0,0.03513 -0.03513,-0.03513 0,0.03513 -0.03498,0.03497 0,0.07024 0.03498,0 0,0.03513 0,0.03497 -0.03498,0 0,0.03513 0.0701,0.07024 -0.03513,0 -0.03498,0 -0.03513,0.03512 -0.03511,0.03497 0,0.03511 -0.03513,0 0,0.03513 -0.03497,0.03513 -0.03513,-0.03513 0,0.07009 -0.03513,0.03511 -0.03512,0 0,-0.03511 -0.03497,0.03511 -0.03512,0.07024 0.07009,0.03512 0.07024,-0.07024 0.03513,0 0.03497,0 0.03513,0 0,0.03513 0,0.03512 0.03511,0 0,0.07009 0,0.07024 0.03513,0 -0.03513,0.03497 -0.03511,0 -0.03513,0 0,0.03511 0.03513,0.03513 -0.03513,0.07024 -0.03497,0.03497 -0.03513,0 0,0.03513 0,0.03511 0,0.03513 0.03513,0 0,0.03497 -0.03513,0.03512 0,0.03512 -0.03513,0 -0.03512,-0.03512 -0.03497,0.03512 -0.03511,0 0,0.03513 -0.03513,0 -0.03513,0.07009 -0.03498,0.03513 -0.03511,-0.03513 0.03511,0 -0.03511,-0.03497 -0.03513,-0.03511 -0.03513,0 -0.03497,-0.07024 -0.03511,-0.03512 -0.03513,0.03512 -0.03513,-0.03512 0.03513,0.105521 -0.03513,0 0.03513,0 -0.03513,0 -0.03498,0.03511 0,-0.03511 -0.03511,0 0.03511,-0.03513 0,-0.03513 0,-0.03511 0,-0.03498 -0.03511,0 -0.07025,0 -0.03497,0 -0.07025,0 -0.03511,0.03498 0.03511,0 -0.03511,0.03511 0,0.07024 -0.03497,0 0.03497,0.07009 -0.03497,0.07025 0,0.03511 0.03497,0.03497 0.03511,0.03513 0.03513,0 -0.03513,0 -0.03511,0.03511 -0.03497,0.07009 -0.10551,0.07024 0.07025,0 0.03513,0 -0.03513,0.07025 0.03513,0 0,0.03498 0.07009,0.03512 0,-0.03512 0.03511,0.03512 -0.03511,0.03527 0.03511,0.03512 0,0.07009 0.03513,0 0,0.03512 0.03498,0.03513 0.03511,0 0,0.07009 -0.03511,0 -0.03498,0 0,0.03511 -0.03513,-0.03511 -0.03511,0 -0.105377,0 0,0.03511 0,0.03513 -0.105376,0.03513 -0.03512,0.03498 0.07009,0 0,0.03511 0.07024,0.03513 0.03513,0 0.03497,0 0.03513,0.03512 -0.03513,0.03512 -0.03497,0.03497 0,0.03512 0,0.03512 0.03497,0.03511 0,0.03498 -0.03497,0 -0.03513,0 -0.03511,0 -0.03513,-0.03498 -0.105377,0 -0.14049,0 -0.03512,-0.03511 -0.07009,0.03511 -0.07024,-0.03511 -0.07009,0.03511 -0.03511,0 -0.03513,0 -0.03513,0 -0.07009,0 0,0.03498 -0.03512,0.03511 0,0.03512 0,0.03511 -0.07009,0.03512 -0.07025,0 -0.03513,0 0,0.03497 0.03513,0 -0.03513,0.03511 -0.03497,-0.03511 0.03497,0.03511 0,0.07025 0,0.07009 0.03513,0.03513 0,0.03512 0.03513,0.03511 -0.03513,0 -0.07009,0.07009 -0.10551,0 -0.03498,0.03512 -0.03513,0 0,0.03511 -0.03513,0 -0.03512,-0.03511 -0.03497,-0.03512 0,0.03512 -0.07025,-0.03512 -0.07009,-0.03513 -0.03513,-0.03498 -0.07025,-0.03512 0.03511,0.03512 0,0.03498 0,0.03513 -0.03511,0 0.07025,0.105376 0.07009,0 0.03512,0.03512 -0.03512,0 -0.03497,0 0,0.03511 0,0.03513 -0.03513,0.03512 -0.03511,0 0,0.03498 -0.03513,0.03511 0,0.03513 -0.03497,0 0,0.03511 0,0.03497 -0.03513,0.03513 -0.07025,0 0,0.03511 -0.03497,0 0,0.03511 0,0.03513 -0.07025,0 -0.03513,0.03498 0,0.0704 -0.03497,0.03513 0,0.03511 0.03497,0 -0.03497,0.03512 -0.03513,0 -0.03512,0 0,0.03511 -0.03513,0 -0.07009,0 -0.03512,0 -0.03512,0 -0.03497,0 -0.03511,0.03513 -0.03513,0.03511 -0.03513,0 -0.03512,0 -0.105376,-0.07025 0,-0.07025 -0.03497,0.03511 -0.07024,0.175616 -0.03511,0 -0.03513,0 -0.03498,0 -0.105521,0 -0.03497,0 -0.03513,0 0,0.03513 -0.03511,0 0.03511,0.03512 -0.07025,0 -0.03497,0.03498 -0.03511,0 -0.03513,0 -0.03513,0.03512 -0.03497,0 0,-0.03512 -0.03513,0.03512 -0.03513,0 -0.03512,0 -0.03498,0 -0.03513,0.07024 -0.03513,0 -0.07009,0 -0.03513,0.03511 0,0.03497 0,-0.03497 -0.03513,0.03497 -0.03512,-0.03497 -0.03497,0 -0.03513,0 -0.03511,-0.07025 -0.03513,-0.03513 0,-0.03511 -0.03498,0 -0.07025,-0.03497 -0.03511,0.03497 -0.03498,0.07024 -0.03513,0.03511 -0.03513,0.0701 -0.03513,0 -0.07009,0 -0.03513,-0.0701 0,-0.03511 -0.07009,-0.03513 0,-0.03511 -0.03513,0 0.03513,-0.03497 -0.03513,0 -0.03511,-0.03511 -0.03513,0.03511 -0.07009,0.03497 -0.03513,0.03511 0,0.03513 0.03513,0.07025 -0.03513,0.07009 0.03513,0.07025 -0.07025,0 -0.140491,0 -0.105377,-0.10552 0,-0.03498 0,-0.07024 0,-0.03513 -0.07025,-0.03511 -0.03498,-0.03497 0.07009,-0.07024 0.03513,0 0.03513,-0.03512 -0.07024,-0.140492 -0.140493,-0.07024 -0.07009,-0.03513 0.07009,-0.105377 0.03513,-0.03512 0.03513,-0.07024 0,-0.03511 0,-0.07009 0.03497,-0.03513 -0.03497,-0.03511 -0.03513,-0.03497 0,-0.03512 0,-0.07024 0,-0.03511 0.105376,0 0.07025,0 0.03513,-0.03497 0.03498,0 0.03513,-0.07024 0.03511,-0.105376 0.03497,-0.03513 0.03512,-0.03511 0.03513,-0.07009 0.03511,0 -0.07025,-0.07024 -0.03513,-0.07009 0.03513,0 -0.03513,-0.07024 0.03513,-0.03511 -0.03513,-0.03512 0,-0.07009 -0.140345,0.07009 -0.03513,-0.03497 -0.175614,0 -0.03513,-0.140493 0.07024,-0.03513 -0.03512,-0.03511 -0.03513,0 -0.07009,-0.140491 -0.03513,0 0,-0.105377 0.03513,-0.03513 0,-0.03511 0.03497,-0.03513 0.03513,-0.03511 0.07024,-0.0701 0,-0.07024 0.03497,0 0.03512,-0.105377 0.07024,0.03511 0,-0.03511 0,-0.07024 0,-0.03498 0.03513,0 0.140344,-0.03513 0.03513,0 0.07024,0 0.03511,-0.03511 0,-0.105376 0.03497,-0.105377 0.03513,0 0.03511,0 0,-0.03513 0.03513,-0.03513 0.03497,-0.03511 0.03512,0 0.105376,0 0,-0.03513 0.03511,-0.0701 0,-0.03513 0,-0.03513 0,-0.03498 0.03513,0 0.07009,0 0,-0.03527 0,-0.03513 0.03511,0 0.03513,0 0.03513,-0.03513 0.03498,-0.03511 -0.07009,-0.03497 0,-0.03527 0,-0.03513 0,-0.07009 0,-0.03513 0,-0.03511 0.03513,0 0,-0.03513 -0.140493,-0.03513 -0.07025,0 0,-0.03498 0.03513,-0.03512 0.03512,-0.07024 0.03497,-0.03497 0,-0.03511 0.03512,0 0.03512,0.03511 0,-0.03511 0.03513,-0.03513 0.03498,-0.07024 0,-0.03498 0.03513,0 0.07025,-0.03513 0,0.03513 0,0.03498 0,-0.03498 0,-0.03513 0.03498,0 0.03513,-0.03511 0.03513,-0.07009 -0.03513,-0.03513 -0.03513,-0.03512 0.03513,-0.03512 -0.03513,-0.07009 0.07024,0 0,-0.03512 0,-0.03527 0,-0.03513 0.03511,-0.105375 0.03497,-0.105377 0.03513,-0.03513 0,-0.03511 0.03511,-0.105376 -0.03511,-0.03512 0,-0.07025 0,-0.07009 0.03511,-0.03512 0.03513,-0.03512 -0.07025,-0.03498 0,-0.07024 0,-0.03512 0.03513,0 0,-0.07024 0,-0.03512 0,-0.03513 0,-0.03512 0.03512,0 -0.03512,-0.03497 0.03512,-0.03527 0.03497,-0.07025 0,-0.03527 0.03513,0 0,-0.03498 0,-0.105521 0,-0.07009 0.03513,-0.03511 0,-0.07024 0.03513,-0.07009 0.03497,-0.07025 -0.03497,0 -0.03513,-0.03498 -0.03513,0.03498 0,-0.07009 0.03513,-0.03511 0,-0.03513 0.03513,0 0.03497,0 0.03513,-0.03513 -0.03513,0 0,-0.03497 -0.03497,0 -0.07024,0 -0.03513,0 -0.07009,-0.03511 0.03512,-0.03513 0.03497,0 0,-0.03513 0.03513,0 0,-0.03498 0,-0.03511 -0.03513,0 0,-0.07024 -0.07009,-0.03513 0.03511,0 0.03497,0 0,-0.03497 -0.03497,-0.03513 -0.03511,-0.03527 -0.03513,-0.03513 -0.03513,-0.03497 0,-0.07024 0,-0.03511 0,-0.03512 0,-0.03497 -0.07009,-0.03512 -0.03513,-0.07025 0.03513,0 0.03513,-0.03498 -0.03513,-0.03513 0.03513,0 0.03498,0.07009 0.07025,-0.07009 0.03512,-0.03511 0,-0.03513 -0.03512,-0.03497 -0.03513,0 0,-0.03512 0,-0.03513 0,-0.03511 0.07024,-0.03513 0.03498,0 -0.03498,-0.03513 0.03498,-0.03511 0,-0.03513 0.03513,-0.105376 0,-0.03513 0,-0.105377 0.03513,-0.03511 0,-0.07025 -0.07025,0 -0.03497,0 -0.03512,0 -0.03513,0 -0.03513,-0.03498 -0.03498,0 -0.07024,-0.03513 0.03513,-0.03511 -0.07025,-0.140492 0,-0.03513 -0.03498,0 0,-0.03511 -0.03513,0 0,-0.03498 0,-0.03512 -0.03511,0 -0.03395,-0.03351 0,0 z m 4.671348,3.231455 0.03497,-0.03497 -0.03497,-0.03512 -0.105509,0.03512 -0.03497,-0.03512 0,0.03512 -0.03511,0 0.105366,0.03497 0.03513,0 0.03513,0 0,0 z"
         style="color:#000000;fill:#622a21;fill-opacity:1;stroke:none;stroke-width:0.02;marker:none;visibility:visible;display:inline;overflow:visible;enable-background:accumulate"
         id="path360" />
      <path
         inkscape:connector-curvature="0"
         d="m 50.115646,14.295356 0.03513,-0.03513 0.03512,0 0.07009,0 0.03512,-0.03498 0.03513,0 0,-0.03512 0.03513,0 0.07009,0.03512 0.07024,-0.03512 0.03497,0.03512 0,0.03498 0.03513,-0.03498 0.03513,0 0.07009,0.0701 0.03513,0 0.03512,0 0.03513,0 0.03497,-0.03513 0.03513,0 0.03511,-0.03498 0.03513,0.03498 0.03497,0 0.03511,0.03513 0.07025,0 0.03497,0.03511 0,0.03513 -0.03497,0 -0.03513,0.03511 0,0.03497 -0.03511,0.03512 0,0.03513 -0.03513,0.03511 -0.03497,0.03497 0.03497,0 -0.03497,0 0.03497,0 -0.03497,0 0.03497,0.03512 -0.03497,0 0.03497,0.03512 -0.03497,0 0,0.03511 -0.03513,0 0.03513,0.03513 0.03497,0.07009 0.03513,-0.03511 0.03511,0 0.03513,0 0,0.03511 0,0.03513 0,0.03511 0,0.03497 0.03497,0 0.03513,0.03527 -0.03513,0 0,0.07025 -0.07009,0 -0.03511,0 0,0.03527 -0.03513,0.03498 0,0.03511 -0.07009,0 -0.03513,0 0,-0.03511 -0.03511,-0.03498 0.03511,0 0,-0.07024 -0.03511,0 0,-0.03512 0.03511,0 -0.07009,0 -0.03511,-0.03527 -0.03513,0 -0.03513,0 0,0.140638 0.03513,0 0,-0.03527 0.03513,0 0.03511,0 0.03498,0 -0.03498,0.03527 0.03498,0 0,0.03497 0,0.03513 0.07025,0.03513 -0.03513,0.03511 0.03513,0 -0.03513,0 0.07025,0 0.03497,0 0.03511,0 0.03513,0.03513 0.03513,0 0.03498,0 0,0.03511 0.03511,0 0.03513,0 0,-0.03511 0.07009,0 0.03513,-0.03513 0,0.03513 0.03513,0 -0.03513,0.07024 0.03513,0 0,0.03513 0.07009,0.03511 0.03513,0 0.07025,-0.03511 0,-0.03513 0,-0.03513 0.105377,-0.03511 0.0701,0 0.03513,0 0,0.03511 0,0.03513 0.03511,0 0.03513,0 0,-0.03513 0.03497,0 -0.03497,-0.03511 0.03497,0 -0.03497,-0.03512 0.03497,0 0.105521,-0.03512 0,0.03512 0.03512,0 0.03497,0 0.03513,0 0.03513,-0.03512 0,0.03512 0.03497,0 0,0.03512 0.03512,0 0.03512,0 0.03513,0 0,0.03511 0,0.03513 0,0.03513 -0.03513,0.03511 0,0.03497 0.07025,-0.03497 0.03497,-0.03511 0,-0.03513 0.10551,0 0.03498,-0.03513 0.03513,0.03513 0.03511,-0.03513 0.03513,0.03513 0.03497,0.07025 0.07025,0 0.03513,0 -0.03513,0.03498 0,0.03512 0,0.03512 0.07009,0.03512 0,0.07009 0.03513,0 0.03511,0 0,0.03511 0.03513,-0.03511 0.03497,-0.03513 0.03511,0 0,-0.03497 0.03513,0 0.03512,0 0.03498,0.07009 0.03513,-0.03513 0.03513,0 0.03512,0.03513 0,0.03511 -0.07024,0.03513 0.03513,0.03513 0.03512,0.03497 0.03497,0.03511 0.03512,0 -0.03512,0.03513 0,0.03513 -0.03497,0 0.03497,0.03498 0,0.03511 0.03512,0 -0.03512,0 0,0.03527 -0.03497,0 0,0.03513 -0.03512,0 -0.03513,0 -0.03513,0.03512 0.105511,0.03497 -0.03513,0.03511 -0.03513,0.03527 0,0.03512 -0.03511,0 -0.03497,0.03497 0,-0.03497 0,0.03497 -0.03512,-0.03497 -0.03513,0 -0.03513,0 0,0.03497 0.03513,0 0,0.03512 0,0.03512 0,0.03513 0,0.03511 0.03513,0 0,-0.03511 0.03512,0 0,0.03511 0.03497,-0.03511 0,0.03511 0.03511,0 0.07025,0.07009 -0.03511,0.03513 0.03511,0.03511 -0.03511,0 0,0.03497 -0.03513,0.03513 -0.03513,0 0,0.03511 -0.03498,0.03513 0,0.03513 -0.03511,0 -0.03513,0 0,-0.03513 -0.03512,0 -0.03497,0 -0.03513,0 -0.03511,0.03513 -0.03513,0.03498 0,0.03511 -0.03497,0 0,0.03513 -0.03513,0 -0.03513,-0.03513 0,-0.03511 0,0.03511 -0.03511,-0.03511 -0.03498,0.03511 0,-0.03511 -0.03513,0 -0.03513,0 -0.03511,0.03511 -0.03497,0.03513 0.03497,0.03513 0.03511,0.03497 -0.03511,0.03511 0.03511,0.07024 0.03513,0.03511 0.03513,0.03498 0,0.03513 0,0.03513 0,0.03527 0.03498,0.03498 0.03511,0 0.03513,0.03513 0.03513,-0.03513 0.03497,0 0.03513,0 0.03511,0.03513 0.03513,0 0,-0.03513 0.03497,0 0.03512,0 0.03513,0 0.03511,0.03513 0,0.07025 0.07009,0 0.07025,-0.03513 0,0.07025 0.03498,0.03497 0.07025,0.03512 0.105376,0.03512 0,0.03513 0,0.03498 0.03511,0.03511 0.03513,0 0,0.03513 0,0.03512 0.03497,0.03512 0.03512,0.03497 0.105376,-0.07009 0.03511,0 0.07025,0 0.03498,0 0.03513,-0.03512 0.03513,0 0.03511,0 0.03497,-0.03513 0.03513,-0.03511 0.03513,-0.03498 0.03512,0.03498 0,-0.03498 0.03513,0 0.07009,0.03498 0.03513,0 -0.03513,-0.03498 0,-0.03513 0.03513,0.03513 0,0.03498 0.03498,-0.03498 0.03513,0 0.07025,0 0.105376,0.03498 0.140492,0 0,0.03511 -0.03513,0.03513 0.03513,0.140494 0,0.07025 -0.0701,0.03497 0.03498,0.07025 0,0.03513 0.07025,0.07009 -0.140494,0.07024 -0.07025,0.03513 -0.03497,0.03497 -0.07025,0.03513 -0.14049,0.0704 -0.0701,0.03497 -0.07025,0.03511 -0.03511,0 -0.03513,0.03513 -0.105377,0.07025 -0.07009,0.03498 -0.03512,0 -0.03513,0.03511 0,0.03513 -0.03513,0 0.03513,0 0,-0.03513 -0.03513,0 -0.07009,0.03513 -0.03511,0.03512 -0.03513,0 -0.03497,0.03497 -0.03513,0.03512 -0.07024,0.03513 -0.105376,0.03512 -0.03513,0.03512 0,0.03498 -0.03497,0 -0.10551,0.105521 -0.105376,0.105377 -0.03513,0.03512 -0.07009,0.03512 -0.03513,0 0,0.03497 0,-0.03497 -0.07009,0.07009 -0.03513,0 -0.105366,0.03513 -0.03513,0 0.03513,0 -0.105511,0.03527 -0.105366,0.07009 -0.07009,0.07024 -0.03512,0.07009 -0.03512,0.07025 -0.03513,0.105376 -0.03513,0 0.03513,0 -0.03513,0.03511 -0.03497,0.03513 -0.03513,0.03511 -0.03513,0.03497 -0.03497,0.140492 -0.03513,0.07025 0,0.07024 0,-0.07024 0.03513,-0.07025 0,-0.03498 0,0.03498 0,-0.03498 0,-0.03512 0,-0.03513 0,0.03513 -0.03513,0.03512 0.03513,0 -0.03513,0 0,0.03498 0.03513,0 -0.03513,0 0,0.03513 -0.03511,0 0.03511,0 -0.03511,0 0,0.03511 0,-0.03511 0,0.03511 -0.03513,0.03512 -0.03513,0.03511 0,-0.03511 0,0.105377 0.03513,-0.07009 0.03513,0 -0.03513,0 -0.03513,0.140344 -0.03498,0.07025 -0.07024,0.105376 -0.07009,0.03511 -0.140493,0.07025 -0.14049,0.03511 -0.07025,0.03498 -0.105377,0 -0.245859,0.03511 -0.105511,0.03513 -0.07009,0.03511 -0.03513,0 -0.140492,0.07009 0,0.03511 0,-0.03511 0,0.03511 0,-0.03511 -0.03511,0.03511 -0.03497,0 -0.105521,0 -0.07009,0 0,0.03512 -0.03511,0 -0.03513,0.03513 -0.03498,0 0,0.03498 -0.03511,0 -0.07025,0.03511 -0.03512,0 -0.07009,0 0,0.03512 -0.03512,0 0,0.03513 0,-0.03513 0.03512,0 -0.03512,0 0.03512,0 0,-0.03512 -0.03512,0 0,0.03512 0,-0.03512 0,0.03512 -0.07009,0 -0.03513,0.03513 -0.03511,0 -0.07009,0.03511 -0.03513,0.03497 -0.140493,0 0,-0.03497 0,-0.03511 0.03511,0 -0.03511,0 0,-0.03513 0,-0.03512 0,-0.03511 -0.03513,-0.03498 -0.03511,0.03498 0,0.03511 -0.03498,0 -0.03513,0 0,-0.03511 -0.07025,-0.03498 -0.03498,0 -0.03511,0 -0.03513,-0.07025 0,-0.03511 -0.03513,-0.03498 0.07025,0 0.03513,0 0,0.03498 0.03497,-0.03498 0,0.03498 0.03513,0 0.03513,0 0.03512,0 0,-0.03498 0,-0.03511 0,-0.03513 0,-0.03513 -0.03512,0 0.03512,-0.03511 0,-0.07009 0.03498,0 -0.03498,-0.03512 0,0.03512 -0.03512,0 -0.03513,0.07009 0,-0.03497 -0.03513,0 -0.03497,0 0,-0.03513 -0.03513,0 0.03513,-0.07025 -0.03513,-0.03511 -0.03513,0 -0.03512,0 0,-0.07024 -0.03497,-0.03512 0,-0.03513 -0.03512,-0.03511 0.07009,-0.07024 0,-0.03527 -0.03497,0 0,-0.03497 -0.03512,0 -0.03513,0 -0.03513,-0.03512 0,-0.03511 -0.03498,-0.03513 -0.03513,0 -0.07024,0 0,-0.03511 -0.03497,0 -0.07025,0.03511 -0.03511,0.03513 -0.03497,0 0.03497,-0.03513 0,-0.07009 0.03511,0 -0.03511,-0.07025 -0.03497,-0.03513 0.03497,-0.03498 -0.03497,0 0,-0.03512 0.03497,0 0.03511,-0.03511 -0.07009,0 -0.03513,-0.03512 0.03513,-0.105377 0.03497,-0.03513 0,-0.03513 -0.03497,-0.03498 -0.03513,0 0,-0.03512 -0.03512,0 -0.03512,-0.03512 -0.03497,0 0,0.03512 0,-0.03512 -0.03512,-0.03512 -0.03512,0 -0.07009,0 0,-0.03511 -0.03511,0 -0.03513,0 -0.03511,-0.03497 0,-0.03527 0,-0.03511 0,-0.03513 0.03511,0 0,-0.03497 0.07025,0 0.07009,-0.03512 0.03513,0 0,-0.03511 0,-0.03512 -0.03513,0 -0.03511,0 0,-0.03513 0.03511,-0.03497 0.07025,-0.03511 -0.03513,-0.03511 -0.07025,0 0,-0.03513 -0.07009,0 -0.03511,0 0,0.03513 -0.07009,0 0,-0.03513 0.03497,-0.03497 0.03513,-0.03513 -0.03513,-0.03511 -0.03497,0 -0.03513,0 -0.07024,-0.03513 0,-0.03513 -0.07009,0 0.03512,-0.03497 0.105376,-0.03511 0,-0.03513 0,-0.03512 0.105377,0 0.03512,0 0.03512,0.03512 0,-0.03512 0.03498,0 0.03511,0 0,-0.07009 -0.03511,0 -0.03498,-0.03512 0,-0.03512 -0.03512,0 0,-0.0701 -0.03512,-0.03513 0.03512,-0.03527 -0.03512,-0.03513 0,0.03513 -0.07009,-0.03513 0,-0.03498 -0.03513,0 0.03513,-0.07025 -0.03513,0 -0.07025,0 0.105521,-0.07024 0.03497,-0.07009 0.03513,-0.03511 0.03512,0 -0.03512,0 -0.03513,-0.03513 -0.03497,-0.03497 0,-0.03513 0.03497,-0.07024 -0.03497,-0.07009 0.03497,0 0,-0.07024 0.03513,-0.03512 -0.03513,0 0.03513,-0.03497 0.07025,0 0.03498,0 0.07024,0 0.03513,0 0,0.03497 0,0.03512 0,0.03513 -0.03513,0.03512 0.03513,0 0,0.03512 0.03497,-0.03512 0.03513,0 -0.03513,0 0.03513,0 -0.03513,-0.105521 0.03513,0.03513 0.03513,-0.03513 0.03511,0.03513 0.03498,0.07025 0.03513,0 0.03511,0.03512 0.03513,0.03497 -0.03513,0 0.03513,0.03512 0.03497,-0.03512 0.03513,-0.07009 0.03513,0 0,-0.03513 0.03511,0 0.03497,-0.03512 0.03512,0.03512 0.03513,0 0,-0.03512 0.03513,-0.03512 0,-0.03497 -0.03513,0 0,-0.03512 0,-0.03512 0,-0.03513 0.03513,0 0.03498,-0.03497 0.03511,-0.07024 -0.03511,-0.03511 0,-0.03513 0.03511,0 0.03513,0 0.03513,-0.03497 -0.03513,0 0,-0.07025 0,-0.0701 -0.03513,0 0,-0.03513 0,-0.03513 -0.03511,0 -0.03498,0 -0.03513,0 -0.07025,0.07025 -0.07009,-0.03513 0.03513,-0.07025 0.03498,-0.03512 0,0.03512 0.03512,0 0.03513,-0.03512 0,-0.07009 0.03513,0.03512 0.03497,-0.03512 0,-0.03513 0.03513,0 0,-0.03512 0.03511,-0.03498 0.03513,-0.03512 0.03497,0 0.03513,0 -0.07009,-0.07025 0,-0.03512 0.03497,0 0,-0.03497 0,-0.03512 -0.03497,0 0,-0.07024 0.03497,-0.03497 0,-0.03511 0.03513,0.03511 0,-0.03511 0.03513,-0.03513 0.03511,0.03513 -0.03511,0.03511 0,0.03497 0.03511,0 0.03498,0 0.07025,-0.03497 0.07009,-0.03511 0,-0.03513 -0.03498,-0.03513 0.03498,0 0,-0.03513 -0.03498,-0.03497 0,-0.03512 -0.07025,-0.03526 0,0.0704 0.03513,0.07009 -0.03513,0 0.03513,0.03511 -0.03513,0 0,-0.03511 -0.03511,0 -0.03498,0 -0.03513,0 -0.03511,0 0,-0.07009 -0.03513,0 0,0.03497 0,0.03513 0,-0.03513 -0.03497,0 0,-0.03497 0.03497,0 0,-0.03511 0,-0.03527 0,-0.03513 0.03513,0 0,0.03513 0,0.03527 0,0.03511 0.03511,0 0,-0.0704 0,-0.03513 0.03513,0.03513 0.03498,-0.07009 0.03511,0 0,-0.03512 0,-0.03513 -0.03511,-0.03527 -0.03498,0 0,-0.03513 0,0.03513 0,0.03527 -0.03513,0 0,-0.03527 0,-0.03513 0,-0.03497 0.03513,-0.07024 0.03498,-0.03512 0,-0.03498 0,-0.03512 0.07024,0.03512 0.03513,-0.03512 0.03497,-0.03512 0,-0.03512 -0.03497,-0.03513 -0.03513,0 -0.03513,0 0.03513,-0.03497 0,-0.03512 0,-0.03512 -0.07024,-0.03513 0,-0.03497 0.03511,-0.03511 0,-0.03513 0,-0.03511 0.03513,0 0.03513,0 0.07009,-0.03513 0,-0.03511 0,-0.03513 0,-0.03513 0,-0.07009 0,-0.03527 -0.07009,-0.03511 -0.03513,0.03511 -0.03513,0.03527 -0.07009,-0.07024 -0.03511,-0.03512 -0.03513,0 0.03513,-0.07009 -0.03513,-0.03511 0.105376,-0.03513 0,-0.03513 0,-0.03497 -0.03497,0 0,-0.03512 -0.03512,0 0,-0.03513 -0.03512,0 0.03512,-0.03512 0.03512,-0.03512 -0.03512,-0.0701 -0.03512,0 -0.0701,-0.03511 0.03498,0 0.03513,0 0.03512,-0.03513 0,0.03513 0.03512,-0.03513 0,0.03513 0.07009,-0.03513 0.03513,0.03513 0.03513,0 0.03497,-0.07009 0.10552,0 0.07009,0 0.03512,-0.03513 0.03512,0 0.03513,-0.03511 0.03497,0 0.03513,0 0.03513,0 0.03498,0 0,-0.03513 0.03585,0 0,-8.85e-4 z m -0.456597,2.493874 0.03512,0.03511 0.03513,-0.07009 -0.03513,0 0,0.03497 -0.03512,-0.03497 0,0.03497 0,0 z m 1.264425,-1.369793 0.03497,0 0,-0.03512 0,-0.03497 0.03513,0 0,-0.03513 -0.03513,-0.03511 0,0.03511 -0.03497,0 -0.03511,0 0,0.03513 -0.03513,0 0.03513,0.03497 0,0.03512 0.03511,0 0,0 z m -1.404918,4.812131 -0.03497,0 0.03497,0 0.03512,0 -0.03512,0 0,0 z"
         style="color:#000000;fill:#622a21;fill-opacity:1;stroke:none;stroke-width:0.02;marker:none;visibility:visible;display:inline;overflow:visible;enable-background:accumulate"
         id="path366" />
      <polygon
         transform="matrix(0.1463455,0,0,0.1463455,-23.200961,-0.7883287)"
         points="466.184,145.792 466.184,146.032 466.184,145.792 466.424,145.552 466.904,145.552 467.144,145.552 467.384,145.072 467.624,145.072 467.864,145.072 468.104,145.072 468.344,144.832 468.344,145.072 468.583,145.072 468.824,144.832 469.064,144.832 469.304,144.832 469.543,144.592 470.024,144.592 469.784,144.352 470.024,144.352 470.024,144.112 470.264,144.112 470.503,144.112 471.224,144.112 471.463,144.112 471.704,144.112 471.944,144.112 472.424,142.912 472.664,142.671 472.664,143.152 473.383,143.632 473.624,143.632 473.864,143.632 474.104,143.392 474.344,143.152 474.583,143.152 474.824,143.152 475.064,143.152 475.543,143.152 475.784,143.152 475.784,142.912 476.024,142.912 476.264,142.912 476.503,142.671 476.264,142.671 476.264,142.432 476.503,142.192 476.503,141.711 476.744,141.472 477.224,141.472 477.224,141.232 477.224,140.992 477.463,140.992 477.463,140.751 477.944,140.751 478.184,140.511 478.184,140.272 478.184,140.032 478.423,140.032 478.423,139.792 478.664,139.551 478.664,139.312 478.904,139.312 479.144,139.072 479.144,138.832 479.144,138.591 479.383,138.591 479.624,138.591 479.383,138.351 478.904,138.351 478.423,137.631 478.664,137.631 478.664,137.391 478.664,137.152 478.423,136.912 478.904,137.152 479.144,137.391 479.624,137.631 480.104,137.872 480.104,137.631 480.343,137.872 480.583,138.112 480.824,138.112 480.824,137.872 481.064,137.872 481.303,137.631 482.024,137.631 482.503,137.152 482.744,137.152 482.503,136.912 482.503,136.671 482.263,136.431 482.263,135.952 482.263,135.471 482.024,135.231 482.263,135.471 482.503,135.231 482.263,135.231 482.263,134.992 482.503,134.992 482.984,134.992 483.463,134.751 483.463,134.511 483.463,134.271 483.704,134.031 483.704,133.792 484.183,133.792 484.423,133.792 484.664,133.792 484.904,133.792 485.383,133.551 485.864,133.792 486.343,133.551 486.583,133.792 487.543,133.792 488.263,133.792 488.503,134.031 488.744,134.031 488.984,134.031 489.223,134.031 489.223,133.792 488.984,133.551 488.984,133.311 489.463,133.311 489.463,133.071 489.704,133.071 490.183,133.071 490.183,133.311 490.664,133.311 490.904,133.551 490.423,133.792 490.183,134.031 490.183,134.271 490.423,134.271 490.664,134.271 490.664,134.511 490.664,134.751 490.423,134.751 489.944,134.992 489.463,134.992 489.463,135.231 489.223,135.231 489.223,135.471 489.223,135.711 489.223,135.952 489.463,136.191 489.704,136.191 489.944,136.191 489.944,136.431 490.423,136.431 490.664,136.431 490.904,136.671 490.904,136.912 490.904,136.671 491.143,136.671 491.383,136.912 491.624,136.912 491.624,137.152 491.864,137.152 492.103,137.391 492.103,137.631 491.864,137.872 491.624,138.591 491.864,138.832 492.343,138.832 492.103,139.072 491.864,139.072 491.864,139.312 492.103,139.312 491.864,139.551 492.103,139.792 492.343,140.272 492.103,140.272 492.103,140.751 491.864,140.992 492.103,140.992 492.343,140.751 492.824,140.511 493.063,140.511 493.063,140.751 493.543,140.751 493.784,140.751 494.023,140.992 494.023,141.232 494.263,141.472 494.503,141.472 494.744,141.472 494.744,141.711 494.983,141.711 494.983,141.952 494.503,142.432 494.744,142.671 494.744,142.912 494.983,143.152 494.983,143.632 495.223,143.632 495.463,143.632 495.704,143.872 495.463,144.352 495.704,144.352 495.704,144.592 495.943,144.592 496.183,144.592 496.183,144.832 496.423,144.352 496.664,144.352 496.664,144.112 496.903,144.352 496.664,144.352 496.664,144.832 496.423,145.072 496.664,145.072 496.664,145.312 496.664,145.552 496.664,145.792 496.664,146.032 496.423,146.032 496.183,146.032 495.943,146.032 495.943,145.792 495.704,146.032 495.704,145.792 495.463,145.792 494.983,145.792 495.223,146.032 495.223,146.272 495.463,146.752 495.704,146.752 495.943,146.752 496.423,146.992 496.423,147.232 496.664,147.232 496.903,147.232 496.903,146.992 497.143,146.752 497.383,146.992 497.383,147.232 497.383,147.472 497.383,147.712 497.624,147.712 497.383,147.712 497.383,147.953 497.383,148.192 496.664,148.432 494.983,148.913 494.023,149.152 492.824,149.392 492.343,149.632 492.103,149.632 491.864,149.873 491.383,150.352 490.183,150.833 489.944,151.312 489.704,151.312 489.463,151.073 489.223,151.312 488.744,151.552 488.503,151.552 488.263,151.552 488.024,151.552 487.784,151.552 487.543,151.552 486.824,151.552 486.583,151.792 486.583,152.033 486.343,152.033 486.104,152.273 485.864,152.273 485.624,152.273 485.624,152.512 485.383,152.512 485.143,152.752 484.904,152.993 485.143,152.752 485.383,152.512 485.624,152.512 485.383,152.273 485.143,152.512 485.383,152.512 485.143,152.512 485.143,152.752 485.143,152.512 484.904,152.512 485.143,152.752 484.904,152.512 484.664,152.512 484.423,152.752 484.423,152.993 484.664,152.993 484.423,152.993 484.423,152.752 483.944,153.233 483.704,153.712 483.463,154.193 483.463,154.433 483.223,154.672 482.984,154.672 482.744,154.433 482.503,154.193 482.503,154.433 482.503,154.193 482.263,153.953 482.024,153.953 481.784,153.953 481.543,153.953 480.583,154.433 480.343,154.433 480.104,154.433 479.864,154.433 479.383,154.433 478.664,155.153 478.423,155.153 478.184,155.393 477.704,155.393 477.704,155.632 477.224,156.113 476.984,156.113 476.264,157.073 476.024,157.553 475.784,157.792 475.543,157.792 475.304,158.033 475.304,158.273 475.064,158.273 474.824,158.752 474.583,158.752 474.583,158.993 474.583,159.233 474.344,159.233 474.104,159.473 473.864,159.953 473.864,160.193 473.624,160.433 473.383,160.673 473.144,160.913 472.904,161.153 472.904,161.393 472.664,161.633 472.664,161.874 472.424,162.113 472.424,162.353 472.424,162.113 472.184,162.113 472.184,162.353 472.184,162.113 472.184,162.353 471.944,162.833 471.704,163.073 471.224,163.313 471.224,163.553 471.224,163.793 470.984,163.553 470.744,163.793 470.744,164.034 470.503,164.034 470.503,164.513 470.503,164.753 470.264,164.753 470.024,164.994 469.543,165.233 469.304,165.473 469.543,165.954 469.543,166.194 470.024,166.433 470.264,166.914 470.503,166.914 471.224,167.154 471.463,167.154 471.704,166.914 471.944,166.914 471.944,166.673 471.704,166.673 471.463,166.433 471.224,166.433 470.744,166.194 470.503,166.194 470.503,165.954 470.264,166.194 470.264,165.954 470.264,166.194 470.503,165.954 471.224,165.954 471.463,165.954 471.704,166.194 472.184,166.914 473.383,168.114 473.624,168.354 473.864,168.354 474.104,168.354 473.864,168.354 474.104,168.593 474.344,168.593 474.104,168.593 474.344,168.593 474.583,168.593 474.824,168.114 475.064,168.593 474.824,169.553 474.583,169.793 474.104,170.273 473.864,170.514 473.383,170.753 472.424,171.234 471.463,171.713 470.984,172.194 470.024,174.114 469.543,174.834 468.824,175.314 468.104,175.554 467.624,175.794 467.144,175.554 466.904,175.554 466.664,175.314 466.424,175.073 466.424,174.834 466.664,174.834 466.904,174.834 467.144,174.834 467.144,175.073 467.144,174.594 467.144,174.834 467.144,174.354 467.384,174.594 467.624,174.594 468.104,174.354 468.344,174.594 468.344,174.354 468.344,174.114 468.583,174.114 468.824,174.114 469.064,174.114 469.304,174.114 469.304,173.634 469.304,174.114 469.543,174.114 470.024,174.114 470.984,172.434 470.744,172.434 470.984,172.194 470.744,172.194 470.744,171.954 470.503,172.194 470.503,171.954 470.503,172.194 470.264,172.194 470.264,171.954 470.264,172.194 470.024,172.194 469.784,172.194 469.543,172.194 469.304,172.194 469.064,172.194 469.064,172.434 469.064,172.194 469.064,172.434 468.583,172.674 468.344,172.674 468.104,172.674 467.864,172.914 467.384,172.914 466.904,172.914 466.664,172.914 466.424,173.154 466.664,173.154 466.424,173.394 466.664,173.154 466.424,173.154 466.184,173.154 466.424,173.154 466.664,173.394 466.424,173.154 465.944,173.634 465.464,174.594 464.984,175.073 465.224,175.073 464.984,175.073 464.744,175.314 464.504,175.794 464.504,176.034 464.264,176.273 464.024,176.994 463.544,176.994 463.064,176.754 462.824,176.754 462.344,176.514 462.104,176.514 461.864,176.514 461.864,176.273 461.625,176.273 461.625,176.034 461.625,175.794 461.384,175.554 461.625,175.314 461.625,175.073 461.864,174.834 461.384,174.834 461.144,174.834 460.904,174.594 460.424,174.354 460.665,174.114 460.424,174.114 460.184,174.114 460.184,173.874 459.944,173.874 459.464,173.874 458.745,173.874 458.264,173.634 457.784,173.634 457.544,173.634 457.304,173.394 457.304,173.154 457.064,173.394 456.584,173.154 456.584,172.674 456.344,172.674 456.104,172.434 456.344,172.434 456.104,171.954 456.344,171.474 456.584,171.234 456.824,170.994 456.824,170.753 456.344,170.514 456.104,170.034 455.864,170.034 455.625,170.034 455.384,170.273 455.144,170.273 455.144,170.034 454.904,169.553 454.665,169.314 454.904,168.833 454.424,169.073 453.944,169.314 453.705,169.073 453.464,169.073 453.224,169.073 452.984,168.833 452.984,168.593 452.745,168.354 452.984,168.354 452.984,168.593 453.224,168.593 453.224,168.354 453.224,168.114 453.464,168.114 453.705,168.354 453.944,167.874 454.424,167.633 454.665,167.633 454.904,167.633 454.904,167.393 454.904,167.154 454.904,166.673 455.384,166.433 455.384,166.194 455.625,166.194 455.625,165.954 455.864,165.713 456.104,165.473 456.344,165.233 455.864,164.994 455.864,164.753 455.864,164.513 455.625,164.513 455.625,164.273 455.625,164.034 455.384,164.034 455.384,163.793 455.384,163.553 455.384,163.313 455.625,163.073 455.384,163.073 455.144,163.073 454.904,162.833 455.144,162.593 455.384,162.353 455.384,162.113 455.384,161.874 455.144,161.633 455.384,161.633 455.384,161.393 455.625,160.913 455.864,160.913 456.104,160.673 455.864,160.433 456.104,160.193 456.104,159.953 456.344,159.713 456.344,159.473 456.584,159.233 456.344,159.233 456.104,159.233 456.104,158.993 456.104,158.752 456.104,158.513 455.864,158.273 455.625,158.273 455.625,158.033 455.864,157.792 455.625,157.792 455.384,157.553 455.384,157.313 455.625,157.313 455.864,157.313 456.104,157.313 455.864,157.073 455.384,157.073 455.144,156.833 454.904,156.353 454.904,156.592 454.904,156.833 454.665,156.833 454.424,156.592 454.665,156.353 454.424,156.353 454.184,156.592 454.184,156.353 454.184,156.113 454.424,155.873 454.184,155.873 454.184,155.632 454.184,155.393 454.184,155.153 453.944,154.913 454.184,154.913 453.944,154.672 453.705,154.913 453.464,154.672 453.464,153.953 453.705,153.712 453.705,153.472 453.464,153.233 453.464,152.993 453.944,152.752 453.705,152.752 453.944,152.512 454.665,152.752 454.904,152.752 454.904,152.512 455.144,152.273 454.904,152.033 455.625,152.033 456.104,151.792 456.584,151.312 456.344,151.312 456.584,151.073 456.584,150.592 456.584,150.113 456.824,150.113 456.824,149.632 456.824,149.152 457.064,148.913 457.304,149.152 457.544,148.672 457.784,148.913 458.264,148.913 458.264,148.432 458.745,148.432 458.504,148.192 458.504,147.953 458.745,147.712 458.504,147.472 458.745,146.992 458.984,146.752 459.464,146.752 459.464,146.752 459.944,146.752 460.424,146.752 460.184,146.272 460.424,145.792 460.184,145.312 460.184,145.072 460.424,144.832 460.904,144.592 461.144,144.352 461.384,144.592 461.625,144.592 461.384,144.832 461.625,144.832 461.625,145.072 462.104,145.312 462.104,145.552 462.344,146.032 462.824,146.032 463.064,146.032 463.304,145.552 463.544,145.312 463.784,144.832 464.024,144.592 464.504,144.832 464.744,144.832 464.744,145.072 464.984,145.312 465.224,145.792 465.464,145.792 465.704,145.792 465.944,146.032 "
         style="color:#000000;fill:#622a21;fill-opacity:1;stroke:none;stroke-width:0.1366629;marker:none;visibility:visible;display:inline;overflow:visible;enable-background:accumulate"
         id="polygon370" />
    </g>
  </g>
</svg>
