<?xml version="1.0" encoding="UTF-8" standalone="no"?>
<!-- Created with Inkscape (http://www.inkscape.org/) -->

<svg
   xmlns:dc="http://purl.org/dc/elements/1.1/"
   xmlns:cc="http://creativecommons.org/ns#"
   xmlns:rdf="http://www.w3.org/1999/02/22-rdf-syntax-ns#"
   xmlns:svg="http://www.w3.org/2000/svg"
   xmlns="http://www.w3.org/2000/svg"
   xmlns:sodipodi="http://sodipodi.sourceforge.net/DTD/sodipodi-0.dtd"
   xmlns:inkscape="http://www.inkscape.org/namespaces/inkscape"
   width="64px"
   height="64px"
   id="svg3810"
   version="1.1"
   inkscape:version="0.48.3.1 r9886"
   sodipodi:docname="map_barcelona.svg"
   inkscape:export-filename="/home/vokimon/Documents/map_barcelona.png"
   inkscape:export-xdpi="90"
   inkscape:export-ydpi="90">
  <defs
     id="defs3812" />
  <sodipodi:namedview
     id="base"
     pagecolor="#ffffff"
     bordercolor="#666666"
     borderopacity="1.0"
     inkscape:pageopacity="0.0"
     inkscape:pageshadow="2"
     inkscape:zoom="5.5"
     inkscape:cx="36.636364"
     inkscape:cy="25.164888"
     inkscape:current-layer="layer1"
     showgrid="true"
     inkscape:document-units="px"
     inkscape:grid-bbox="true"
     inkscape:window-width="1680"
     inkscape:window-height="995"
     inkscape:window-x="-2"
     inkscape:window-y="-3"
     inkscape:window-maximized="1" />
  <metadata
     id="metadata3815">
    <rdf:RDF>
      <cc:Work
         rdf:about="">
        <dc:format>image/svg+xml</dc:format>
        <dc:type
           rdf:resource="http://purl.org/dc/dcmitype/StillImage" />
        <dc:title></dc:title>
      </cc:Work>
    </rdf:RDF>
  </metadata>
  <g
     id="layer1"
     inkscape:label="Layer 1"
     inkscape:groupmode="layer">
    <path
       id="path366"
       style="color:#000000;fill:#622a21;fill-opacity:1;stroke:none;stroke-width:0.02;marker:none;visibility:visible;display:inline;overflow:visible;enable-background:accumulate"
       d="m 22.058261,5.0599836 0.294893,-0.2948928 0.294807,0 0.588357,0 0.294807,-0.2936324 0.294893,0 0,-0.2948072 0.294891,0 0.588357,0.2948072 0.589616,-0.2948072 0.293548,0.2948072 0,0.2936324 0.294894,-0.2936324 0.29489,0 0.588357,0.5884426 0.294891,0 0.294808,0 0.294894,0 0.293548,-0.2948944 0.294891,0 0.294725,-0.2936308 0.294891,0.2936308 0.29355,0 0.294723,0.2948944 0.5897,0 0.29355,0.294723 0,0.2948914 -0.29355,0 -0.294891,0.2947245 0,0.2935497 -0.294725,0.2948072 0,0.2948913 -0.294891,0.2947246 -0.29355,0.2935482 0.29355,0 -0.29355,0 0.29355,0 -0.29355,0 0.29355,0.2948087 -0.29355,0 0.29355,0.2948072 -0.29355,0 0,0.2947246 -0.29489,0 0.29489,0.2948913 0.29355,0.5883554 0.294891,-0.2947216 0.294725,0 0.294891,0 0,0.2947216 0,0.2948942 0,0.294725 0,0.2935477 0.29355,0 0.294891,0.296066 -0.294891,0 0,0.5897 -0.588357,0 -0.294725,0 0,0.296066 -0.294891,0.293636 0,0.294724 -0.588357,0 -0.294891,0 0,-0.294724 -0.294725,-0.293636 0.294725,0 0,-0.589616 -0.294725,0 0,-0.294807 0.294725,0 -0.588357,0 -0.294725,-0.296068 -0.294894,0 -0.29489,0 0,1.180559 0.29489,0 0,-0.296066 0.294894,0 0.294725,0 0.293632,0 -0.293632,0.296066 0.293632,0 0,0.29355 0,0.294889 0.589699,0.294895 -0.294892,0.294724 0.294892,0 -0.294892,0 0.589699,0 0.29355,0 0.294724,0 0.294893,0.294892 0.294891,0 0.293633,0 0,0.294723 0.294723,0 0.294893,0 0,-0.294723 0.588358,0 0.294891,-0.294892 0,0.294892 0.294892,0 -0.294892,0.589616 0.294892,0 0,0.294892 0.588357,0.294722 0.294892,0 0.589699,-0.294722 0,-0.294892 0,-0.294893 0.884567,-0.294723 0.58844,0 0.294894,0 0,0.294723 0,0.294893 0.294725,0 0.294889,0 0,-0.294893 0.29355,0 -0.29355,-0.294723 0.29355,0 -0.29355,-0.294809 0.29355,0 0.885775,-0.294807 0,0.294807 0.294809,0 0.293548,0 0.294892,0 0.294891,-0.294807 0,0.294807 0.29355,0 0,0.294809 0.294808,0 0.294808,0 0.294891,0 0,0.294723 0,0.294893 0,0.294892 -0.294891,0.294722 0,0.29355 0.5897,-0.29355 0.293548,-0.294722 0,-0.294892 0.885683,0 0.293634,-0.294893 0.294891,0.294893 0.294725,-0.294893 0.294891,0.294893 0.293547,0.5897 0.589702,0 0.294892,0 -0.294892,0.293632 0,0.294807 0,0.294809 0.588357,0.294808 0,0.588356 0.294891,0 0.294724,0 0,0.294724 0.294893,-0.294724 0.293547,-0.294891 0.294724,0 0,-0.29355 0.294895,0 0.294807,0 0.293631,0.588357 0.294893,-0.29489 0.294892,0 0.294809,0.29489 0,0.294724 -0.589616,0.294893 0.294892,0.29489 0.294807,0.293551 0.293548,0.294723 0.294809,0 -0.294809,0.294893 0,0.29489 -0.293548,0 0.293548,0.293634 0,0.294724 0.294809,0 -0.294809,0 0,0.296066 -0.293548,0 0,0.294895 -0.294807,0 -0.294892,0 -0.294893,0.294807 0.885692,0.293548 -0.294893,0.294725 -0.294892,0.296066 0,0.294807 -0.294723,0 -0.293549,0.29355 0,-0.29355 0,0.29355 -0.294808,-0.29355 -0.294892,0 -0.294893,0 0,0.29355 0.294893,0 0,0.294807 0,0.294809 0,0.294891 0,0.294725 0.294892,0 0,-0.294725 0.294808,0 0,0.294725 0.293549,-0.294725 0,0.294725 0.294723,0 0.589699,0.588358 -0.294722,0.294891 0.294722,0.294723 -0.294722,0 0,0.293549 -0.294892,0.294892 -0.294893,0 0,0.294725 -0.293631,0.29489 0,0.294894 -0.294725,0 -0.294891,0 0,-0.294894 -0.29481,0 -0.293548,0 -0.294892,0 -0.294724,0.294894 -0.294892,0.293632 0,0.294723 -0.293549,0 0,0.294893 -0.29489,0 -0.294894,-0.294893 0,-0.294723 0,0.294723 -0.294725,-0.294723 -0.293631,0.294723 0,-0.294723 -0.294893,0 -0.29489,0 -0.294724,0.294723 -0.29355,0.294893 0.29355,0.294892 0.294724,0.293548 -0.294724,0.294724 0.294724,0.589618 0.29489,0.294721 0.294893,0.293636 0,0.29489 0,0.294892 0,0.29607 0.293631,0.29363 0.294725,0 0.294894,0.294893 0.29489,-0.294893 0.293549,0 0.294892,0 0.294724,0.294893 0.294892,0 0,-0.294893 0.293548,0 0.29481,0 0.294891,0 0.294725,0.294893 0,0.589699 0.588355,0 0.5897,-0.294892 0,0.589702 0.293633,0.293548 0.5897,0.294807 0.884559,0.294809 0,0.294891 0,0.293633 0.294724,0.294724 0.294892,0 0,0.29489 0,0.29481 0.293549,0.294809 0.294807,0.293548 0.884558,-0.588357 0.294725,0 0.5897,0 0.29363,0 0.294895,-0.29481 0.294891,0 0.294723,0 0.29355,-0.29489 0.294891,-0.294724 0.294895,-0.293633 0.294807,0.293633 0,-0.293633 0.294891,0 0.588357,0.293633 0.29489,0 -0.29489,-0.293633 0,-0.294891 0.29489,0.294891 0,0.293633 0.293635,-0.293633 0.29489,0 0.5897,0 0.88456,0.293633 1.179332,0 0,0.294724 -0.294893,0.29489 0.294893,1.179352 0,0.589699 -0.588439,0.293549 0.29363,0.5897 0,0.294892 0.589702,0.588355 -1.17935,0.589617 -0.5897,0.294892 -0.293547,0.293549 -0.589702,0.294892 -1.179316,0.590957 -0.588441,0.29355 -0.5897,0.294725 -0.294724,0 -0.29489,0.294894 -0.884567,0.589697 -0.588357,0.293634 -0.294809,0 -0.294893,0.294724 0,0.29489 -0.294891,0 0.294891,0 0,-0.29489 -0.294891,0 -0.588357,0.29489 -0.294723,0.294809 -0.294891,0 -0.293552,0.293549 -0.294891,0.294809 -0.589616,0.294891 -0.884557,0.294808 -0.294892,0.294808 0,0.293634 -0.293549,0 -0.885685,0.885774 -0.884555,0.884567 -0.294894,0.294807 -0.588357,0.294808 -0.294892,0 0,0.293551 0,-0.293551 -0.588356,0.588358 -0.294893,0 -0.884473,0.294891 -0.294891,0 0.294891,0 -0.885691,0.296068 -0.884474,0.588357 -0.588357,0.589614 -0.29481,0.588359 -0.294807,0.5897 -0.294892,0.884558 -0.294891,0 0.294891,0 -0.294891,0.294725 -0.293548,0.294891 -0.294895,0.294723 -0.294889,0.293548 -0.29355,1.179334 -0.294892,0.5897 0,0.589616 0,-0.589616 0.294892,-0.5897 0,-0.293632 0,0.293632 0,-0.293632 0,-0.294809 0,-0.294893 0,0.294893 -0.294892,0.294809 0.294892,0 -0.294892,0 0,0.293632 0.294892,0 -0.294892,0 0,0.294891 -0.294724,0 0.294724,0 -0.294724,0 0,0.294725 0,-0.294725 0,0.294725 -0.294891,0.294807 -0.294893,0.294725 0,-0.294725 0,0.884568 0.294893,-0.588357 0.294891,0 -0.294891,0 -0.294893,1.178091 -0.293633,0.5897 -0.589615,0.884557 -0.588357,0.294724 -1.179342,0.5897 -1.179316,0.294724 -0.589701,0.293633 -0.884566,0 -2.063813,0.294725 -0.885692,0.29489 -0.588357,0.294724 -0.294893,0 -1.179331,0.588357 0,0.294725 0,-0.294725 0,0.294725 0,-0.294725 -0.294724,0.294725 -0.293552,0 -0.885772,0 -0.588357,0 0,0.294807 -0.294724,0 -0.294895,0.294894 -0.293631,0 0,0.293631 -0.294724,0 -0.5897,0.294725 -0.294807,0 -0.588357,0 0,0.294808 -0.294807,0 0,0.294892 0,-0.294892 0.294807,0 -0.294807,0 0.294807,0 0,-0.294808 -0.294807,0 0,0.294808 0,-0.294808 0,0.294808 -0.588359,0 -0.294891,0.294892 -0.294725,0 -0.588357,0.294723 -0.294891,0.293548 -1.179341,0 0,-0.293548 0,-0.294723 0.294724,0 -0.294724,0 0,-0.294892 0,-0.294808 0,-0.294725 -0.294893,-0.293631 -0.294723,0.293631 0,0.294725 -0.293634,0 -0.294891,0 0,-0.294725 -0.5897,-0.293631 -0.293633,0 -0.294724,0 -0.294892,-0.589701 0,-0.294725 -0.294891,-0.293632 0.5897,0 0.294891,0 0,0.293632 0.293549,-0.293632 0,0.293632 0.294892,0 0.294892,0 0.294807,0 0,-0.293632 0,-0.294725 0,-0.294891 0,-0.294891 -0.294807,0 0.294807,-0.294725 0,-0.588355 0.293634,0 -0.293634,-0.294809 0,0.294809 -0.294807,0 -0.294892,0.588355 0,-0.293548 -0.294892,0 -0.293549,0 0,-0.294894 -0.294891,0 0.294891,-0.589699 -0.294891,-0.294723 -0.294893,0 -0.294807,0 0,-0.589617 -0.293551,-0.294808 0,-0.294892 -0.294807,-0.294722 0.588358,-0.589619 0,-0.296066 -0.293551,0 0,-0.293548 -0.294807,0 -0.294892,0 -0.294891,-0.294807 0,-0.294726 -0.293632,-0.294892 -0.294893,0 -0.589616,0 0,-0.294723 -0.29355,0 -0.589699,0.294723 -0.294723,0.294892 -0.293549,0 0.293549,-0.294892 0,-0.588357 0.294723,0 -0.294723,-0.5897 -0.293549,-0.294891 0.293549,-0.293632 -0.293549,0 0,-0.294809 0.293549,0 0.294723,-0.294725 -0.588358,0 -0.29489,-0.294807 0.29489,-0.884566 0.293551,-0.294891 0,-0.294894 -0.293551,-0.293631 -0.29489,0 0,-0.294809 -0.29481,0 -0.2948073,-0.294807 -0.2935482,0 0,0.294807 0,-0.294807 -0.2948087,-0.294809 -0.2948072,0 -0.5883554,0 0,-0.294723 -0.294726,0 -0.2948929,0 -0.2947215,-0.293549 0,-0.296068 0,-0.294723 0,-0.294893 0.2947215,0 0,-0.29355 0.5897016,0 0.5883554,-0.294807 0.2948928,0 0,-0.294725 0,-0.294807 -0.2948928,0 -0.2947231,0 0,-0.294891 0.2947231,-0.29355 0.5897,-0.294723 -0.2948899,-0.294724 -0.5897,0 0,-0.294892 -0.5883569,0 -0.2947245,0 0,0.294892 -0.5883554,0 0,-0.294892 0.2935482,-0.293549 0.2948898,-0.29489 -0.2948898,-0.294725 -0.2935482,0 -0.2948944,0 -0.5896143,-0.294894 0,-0.294891 -0.5883569,0 0.2948072,-0.293549 0.8845583,-0.294724 0,-0.294892 0,-0.294807 0.8845673,0 0.2948072,0 0.2948087,0.294807 0,-0.294807 0.2936308,0 0.2947245,0 0,-0.588357 -0.2947245,0 -0.2936308,-0.294807 0,-0.294812 -0.2948087,0 0,-0.588438 -0.2948072,-0.294892 0.2948072,-0.296067 -0.2948072,-0.294892 0,0.294892 -0.5883584,-0.294892 0,-0.293633 -0.2948914,0 0.2948914,-0.589698 -0.2948914,0 -0.5897,0 0.8857752,-0.589619 0.2935497,-0.588357 0.2948914,-0.294723 0.2948072,0 -0.2948072,0 -0.2948914,-0.294891 -0.2935497,-0.29355 0,-0.294891 0.2935497,-0.589615 -0.2935497,-0.588358 0.2935497,0 0,-0.589618 0.2948914,-0.294807 -0.2948914,0 0.2948914,-0.293548 0.5897015,0 0.2936308,0 0.5896174,0 0.2948898,0 0,0.293548 0,0.294807 0,0.294893 -0.2948898,0.294807 0.2948898,0 0,0.294809 0.2935497,-0.294809 0.2948925,0 -0.2948925,0 0.2948925,0 -0.2948925,-0.885773 0.2948925,0.29489 0.294893,-0.29489 0.294723,0.29489 0.293633,0.5897 0.294891,0 0.294725,0.29481 0.294893,0.293546 -0.294893,0 0.294893,0.294811 0.293549,-0.294811 0.29489,-0.588356 0.294892,0 0,-0.29489 0.294726,0 0.293548,-0.29481 0.294807,0.29481 0.294894,0 0,-0.29481 0.29489,-0.294808 0,-0.293548 -0.29489,0 0,-0.294807 0,-0.294809 0,-0.294893 0.29489,0 0.293634,-0.293549 0.294723,-0.589615 -0.294723,-0.294724 0,-0.29489 0.294723,0 0.294891,0 0.294895,-0.29355 -0.294895,0 0,-0.5897 0,-0.588441 -0.294891,0 0,-0.294891 0,-0.294891 -0.294723,0 -0.293634,0 -0.29489,0 -0.589701,0.589698 -0.588357,-0.294891 0.294891,-0.589702 0.293634,-0.294807 0,0.294807 0.294809,0 0.29489,-0.294807 0,-0.588357 0.294891,0.294809 0.29355,-0.294809 0,-0.294891 0.294892,0 0,-0.294807 0.294722,-0.293633 0.294894,-0.29481 0.293549,0 0.294892,0 -0.588357,-0.589698 0,-0.294809 0.293549,0 0,-0.29355 0,-0.294807 -0.293549,0 0,-0.589614 0.293549,-0.29355 0,-0.294725 0.294891,0.294725 0,-0.294725 0.294893,-0.294891 0.294724,0.294891 -0.294724,0.294725 0,0.29355 0.294724,0 0.293633,0 0.5897,-0.29355 0.588355,-0.294725 0,-0.294891 -0.293631,-0.294893 0.293631,0 0,-0.294891 -0.293631,-0.293548 0,-0.294809 -0.5897,-0.295982 0,0.590957 0.29489,0.588357 -0.29489,0 0.29489,0.294725 -0.29489,0 0,-0.294725 -0.294724,0 -0.293633,0 -0.294892,0 -0.294725,0 0,-0.588357 -0.294891,0 0,0.293549 0,0.294892 0,-0.294892 -0.293549,0 0,-0.293549 0.293549,0 0,-0.294723 0,-0.296067 0,-0.294892 0.294891,0 0,0.294892 0,0.296067 0,0.294723 0.294725,0 0,-0.590957 0,-0.294894 0.294892,0.294894 0.293633,-0.588359 0.294724,0 0,-0.294807 0,-0.294893 -0.294724,-0.296066 -0.293633,0 0,-0.294891 0,0.294891 0,0.296066 -0.294892,0 0,-0.296066 0,-0.294891 0,-0.29355 0.294892,-0.589616 0.293633,-0.294808 0,-0.293633 0,-0.294807 0.589614,0.294807 0.294893,-0.294807 0.293548,-0.294807 0,-0.29481 -0.293548,-0.29489 -0.294893,0 -0.29489,0 0.29489,-0.293551 0,-0.294807 0,-0.294809 -0.589614,-0.29489 0,-0.29355 0.294724,-0.294724 0,-0.294892 0,-0.294723 0.29489,0 0.294893,0 0.588355,-0.294894 0,-0.294725 0,-0.294889 0,-0.294893 0,-0.588356 0,-0.296067 -0.588355,-0.294723 -0.294893,0.294723 -0.29489,0.296067 -0.588357,-0.589618 -0.294724,-0.294808 -0.294893,0 0.294893,-0.5883567 -0.294893,-0.294724 0.88456,-0.29489 0,-0.2948928 0,-0.2935482 -0.29355,0 0,-0.2948072 -0.294809,0 0,-0.2948943 -0.294807,0 0.294807,-0.2948072 0.294809,-0.2948072 -0.294809,-0.588441 -0.294807,0 -0.588439,-0.2947231 0.293631,0 0.294892,0 0.294808,-0.2948928 0,0.2948928 0.294807,-0.2948928 0,0.2948928 0.588357,-0.2948928 0.294892,0.2948928 0.294893,0 0.293548,-0.5883569 0.885768,0 0.588357,0 0.294807,-0.2948913 0.294807,0 0.294892,-0.2947246 0.29355,0 0.294892,0 0.294892,0 0.293632,0 0,-0.2948943 0.300935,0 0,-0.00751 z m -3.832814,20.9343394 0.294807,0.294721 0.294892,-0.588357 -0.294892,0 0,0.293549 -0.294807,-0.293549 0,0.293549 0,0 z m 10.613968,-11.498462 0.29355,0 0,-0.294807 0,-0.29355 0.29489,0 0,-0.294889 -0.29489,-0.294725 0,0.294725 -0.29355,0 -0.294724,0 0,0.294889 -0.294892,0 0.294892,0.29355 0,0.294807 0.294724,0 0,0 z m -11.793309,40.394495 -0.29355,0 0.29355,0 0.294807,0 -0.294807,0 0,0 z"
       inkscape:connector-curvature="0" />
  </g>
</svg>
