<?xml version="1.0" encoding="UTF-8" standalone="no"?>
<svg
   xmlns:dc="http://purl.org/dc/elements/1.1/"
   xmlns:cc="http://creativecommons.org/ns#"
   xmlns:rdf="http://www.w3.org/1999/02/22-rdf-syntax-ns#"
   xmlns:svg="http://www.w3.org/2000/svg"
   xmlns="http://www.w3.org/2000/svg"
   xmlns:xlink="http://www.w3.org/1999/xlink"
   xmlns:sodipodi="http://sodipodi.sourceforge.net/DTD/sodipodi-0.dtd"
   xmlns:inkscape="http://www.inkscape.org/namespaces/inkscape"
   id="svg2"
   viewBox="0 0 222 222"
   version="1.1"
   inkscape:version="0.48.4 r9939"
   width="100%"
   height="100%"
   sodipodi:docname="t-shirt.svg"
   inkscape:export-filename="/home/vokimon/Documents/desconexionibex/t-shirt-64x64.png"
   inkscape:export-xdpi="25.950001"
   inkscape:export-ydpi="25.950001">
  <sodipodi:namedview
     pagecolor="#ffffff"
     bordercolor="#666666"
     borderopacity="1"
     objecttolerance="10"
     gridtolerance="10"
     guidetolerance="10"
     inkscape:pageopacity="0"
     inkscape:pageshadow="2"
     inkscape:window-width="1680"
     inkscape:window-height="983"
     id="namedview20"
     showgrid="false"
     inkscape:zoom="1.1218863"
     inkscape:cx="110.355"
     inkscape:cy="105.18"
     inkscape:window-x="-2"
     inkscape:window-y="-3"
     inkscape:window-maximized="1"
     inkscape:current-layer="svg2" />
  <defs
     id="defs4">
    <linearGradient
       id="linearGradient3726"
       x1="253.21001"
       gradientUnits="userSpaceOnUse"
       y1="651.28998"
       gradientTransform="matrix(1,0,0,1.0181,0,-11.577)"
       x2="251.07001"
       y2="838.21997">
      <stop
         id="stop3680"
         stop-color="#3fa1e3"
         offset="0" />
      <stop
         id="stop3686"
         stop-color="#6ea7cd"
         offset=".5" />
      <stop
         id="stop3682"
         stop-color="#3e84b3"
         offset="1" />
    </linearGradient>
    <linearGradient
       inkscape:collect="always"
       xlink:href="#linearGradient3726"
       id="linearGradient3011"
       gradientUnits="userSpaceOnUse"
       gradientTransform="matrix(1,0,0,1.0181,0,-11.577)"
       x1="253.21001"
       y1="651.28998"
       x2="251.07001"
       y2="838.21997" />
    <linearGradient
       inkscape:collect="always"
       xlink:href="#linearGradient3726"
       id="linearGradient3023"
       gradientUnits="userSpaceOnUse"
       gradientTransform="matrix(1,0,0,1.0181,0,-11.577)"
       x1="253.21001"
       y1="651.28998"
       x2="251.07001"
       y2="838.21997" />
  </defs>
  <g
     id="layer1"
     transform="translate(-177.5,-624.72)">
    <g
       id="g3716"
       transform="matrix(0.9717,0,0,1.0462,43.892,-37.423)">
      <path
         id="path2890"
         d="m 137.5,706.39 33.571,34.906 h 4.6429 l 8.5714,-8.3628 v 104.72 l 1.4286,3.636 129.64,-0.36361 3.9286,-2.5452 -1.0714,-104.35 9.6428,8.7264 3.9286,-0.7272 32.857,-34.178 v -5.0904 l -43.214,-43.632 -45,-18.907 c 0,0 -16.429,17.816 -48.929,0.72721 l -42.86,15.26 -47.14,50.17 z"
         inkscape:connector-curvature="0"
         style="fill:url(#linearGradient3023)" />
      <path
         id="path2892"
         style="text-indent:0;text-transform:none;block-progression:tb;color:#000000;fill:#336699"
         d="m 185.53,659.22 a 1.0001,1.0001 0 0 0 -0.8125,1.0938 c 0,0 1.1573,14.44 1.7812,29.594 0.31199,7.5769 0.4788,15.314 0.3125,21.5 -0.0831,3.0931 -0.25587,5.8049 -0.53125,7.875 -0.27538,2.0701 -0.73329,3.5506 -1,3.9062 a 1.0032039,1.0032039 0 1 0 1.5938,1.2188 c 0.80471,-1.073 1.1152,-2.656 1.4062,-4.8438 0.29103,-2.1877 0.44699,-4.9592 0.53125,-8.0938 0.16852,-6.2691 5.1e-4,-14.055 -0.3125,-21.656 -0.62602,-15.203 -1.7812,-29.688 -1.7812,-29.688 a 1.0001,1.0001 0 0 0 -1.1875,-0.90625 z"
         inkscape:connector-curvature="0" />
      <path
         id="path2894"
         style="text-indent:0;text-transform:none;block-progression:tb;color:#000000;fill:#336699"
         d="m 218.78,645.28 a 1.0001,1.0001 0 0 0 -0.84375,1.125 c 0,0 0.99448,7.762 5.6875,15.188 4.693,7.4255 13.292,14.579 27.906,13.188 15.16,-1.4438 23.162,-5.9315 27.688,-11.344 4.5257,-5.4122 5.5323,-11.583 7.0938,-16.094 a 1.0080008,1.0080008 0 1 0 -1.9062,-0.65625 c -1.6528,4.7748 -2.615,10.524 -6.75,15.469 -4.135,4.9449 -11.472,9.2116 -26.312,10.625 -13.909,1.3246 -21.605,-5.2464 -26.031,-12.25 -4.4263,-7.0036 -5.4062,-14.375 -5.4062,-14.375 a 1.0001,1.0001 0 0 0 -1.125,-0.875 z"
         inkscape:connector-curvature="0" />
      <path
         id="path2896"
         style="text-indent:0;text-transform:none;block-progression:tb;color:#000000;fill:#336699"
         d="m 226.78,644.53 -1.5625,1.2188 c 0.0377,0.0617 0.0873,0.0949 0.125,0.15625 5.9474,9.6635 12.356,14.736 18.688,16.719 6.3718,1.9956 12.545,0.84318 17.875,-1.5 10.659,-4.6864 18.156,-14.219 18.156,-14.219 l -1.2188,-1.5 c -17.31,8.8316 -30.333,8.5292 -39.031,6.0938 -8.6981,-2.4355 -13.031,-6.9688 -13.031,-6.9688 z m 48.188,4.875 c -2.9977,3.0839 -7.4156,7.0801 -13.844,9.9062 -5.0276,2.2104 -10.684,3.2277 -16.5,1.4062 -4.6955,-1.4706 -9.5549,-4.9872 -14.312,-11.219 2.2674,1.3668 5.1419,2.8347 8.9688,3.9062 8.3078,2.3262 20.333,2.6806 35.688,-4 z"
         inkscape:connector-curvature="0" />
      <path
         id="path2898"
         style="text-indent:0;text-transform:none;block-progression:tb;color:#000000;fill:#336699"
         d="m 187.41,832.07 a 1.0011,1.0011 0 1 0 0.0937,2 l 129.28,0.375 a 1.0001,1.0001 0 1 0 0,-2 l -129.28,-0.37 a 1.0001,1.0001 0 0 0 -0.0937,0 z"
         inkscape:connector-curvature="0" />
      <path
         id="path2900"
         style="text-indent:0;text-transform:none;block-progression:tb;color:#000000;fill:#336699"
         d="m 360.97,702.06 a 1.0001,1.0001 0 0 0 -0.59375,0.3125 l -33.594,33.219 a 1.0055,1.0055 0 1 0 1.43,1.41 l 33.562,-33.219 a 1.0001,1.0001 0 0 0 -0.8125,-1.7188 z"
         inkscape:connector-curvature="0" />
      <path
         id="path2902"
         style="text-indent:0;text-transform:none;block-progression:tb;color:#000000;fill:#336699"
         d="m 143.47,702.06 a 1.0001,1.0001 0 0 0 -0.59375,1.7188 l 31.781,31.781 a 1.0001,1.0001 0 1 0 1.4062,-1.4062 l -31.79,-31.77 a 1.0001,1.0001 0 0 0 -0.8125,-0.3125 z"
         inkscape:connector-curvature="0" />
      <path
         id="path2904"
         style="text-indent:0;text-transform:none;block-progression:tb;color:#000000;fill:#336699"
         d="m 316.66,661 a 1.0001,1.0001 0 0 0 -0.84375,0.8125 c 0,0 -2.25,12.384 -3.2812,26.688 -0.51564,7.1517 -0.74365,14.799 -0.21875,21.656 0.5249,6.8575 1.768,12.929 4.3438,17.031 a 1.0001,1.0001 0 1 0 1.6875,-1.0625 c -2.2457,-3.5764 -3.5182,-9.4222 -4.0312,-16.125 -0.51305,-6.7028 -0.29239,-14.286 0.21875,-21.375 1.0223,-14.179 3.25,-26.438 3.25,-26.438 a 1.0001,1.0001 0 0 0 -1.13,-1.18 z"
         inkscape:connector-curvature="0" />
    </g>
  </g>
  <metadata
     id="metadata18">
    <rdf:RDF>
      <cc:Work>
        <dc:format>image/svg+xml</dc:format>
        <dc:type
           rdf:resource="http://purl.org/dc/dcmitype/StillImage" />
        <cc:license
           rdf:resource="http://creativecommons.org/licenses/publicdomain/" />
        <dc:publisher>
          <cc:Agent
             rdf:about="http://openclipart.org/">
            <dc:title>Openclipart</dc:title>
          </cc:Agent>
        </dc:publisher>
        <dc:title>T-shirt</dc:title>
        <dc:date>2010-08-04T22:57:01</dc:date>
        <dc:description>Blue T-shirt</dc:description>
        <dc:source>http://openclipart.org/detail/77599/t-shirt-by-shokunin</dc:source>
        <dc:creator>
          <cc:Agent>
            <dc:title>shokunin</dc:title>
          </cc:Agent>
        </dc:creator>
        <dc:subject>
          <rdf:Bag>
            <rdf:li>blue</rdf:li>
            <rdf:li>clip art</rdf:li>
            <rdf:li>clipart</rdf:li>
            <rdf:li>clothes</rdf:li>
            <rdf:li>clothing</rdf:li>
            <rdf:li>fashion</rdf:li>
            <rdf:li>shirt</rdf:li>
            <rdf:li>shopping</rdf:li>
            <rdf:li>t-shirt</rdf:li>
          </rdf:Bag>
        </dc:subject>
      </cc:Work>
      <cc:License
         rdf:about="http://creativecommons.org/licenses/publicdomain/">
        <cc:permits
           rdf:resource="http://creativecommons.org/ns#Reproduction" />
        <cc:permits
           rdf:resource="http://creativecommons.org/ns#Distribution" />
        <cc:permits
           rdf:resource="http://creativecommons.org/ns#DerivativeWorks" />
      </cc:License>
    </rdf:RDF>
  </metadata>
</svg>
