<?xml version="1.0" encoding="UTF-8" standalone="no"?>
<svg
   xmlns:dc="http://purl.org/dc/elements/1.1/"
   xmlns:cc="http://creativecommons.org/ns#"
   xmlns:rdf="http://www.w3.org/1999/02/22-rdf-syntax-ns#"
   xmlns:svg="http://www.w3.org/2000/svg"
   xmlns="http://www.w3.org/2000/svg"
   xmlns:sodipodi="http://sodipodi.sourceforge.net/DTD/sodipodi-0.dtd"
   xmlns:inkscape="http://www.inkscape.org/namespaces/inkscape"
   width="414.36154"
   height="391.13376"
   viewBox="0 0 414.36154 391.13376"
   version="1.1"
   id="svg22"
   sodipodi:docname="logo-alternativeto.svg"
   inkscape:version="1.0.1 (3bc2e813f5, 2020-09-07)">
  <metadata
     id="metadata26">
    <rdf:RDF>
      <cc:Work
         rdf:about="">
        <dc:format>image/svg+xml</dc:format>
        <dc:type
           rdf:resource="http://purl.org/dc/dcmitype/StillImage" />
        <dc:title>Group</dc:title>
      </cc:Work>
    </rdf:RDF>
  </metadata>
  <sodipodi:namedview
     pagecolor="#ffffff"
     bordercolor="#666666"
     borderopacity="1"
     objecttolerance="10"
     gridtolerance="10"
     guidetolerance="10"
     inkscape:pageopacity="0"
     inkscape:pageshadow="2"
     inkscape:window-width="1920"
     inkscape:window-height="1013"
     id="namedview24"
     showgrid="false"
     inkscape:zoom="1.3713163"
     inkscape:cx="320.42159"
     inkscape:cy="224.29378"
     inkscape:window-x="0"
     inkscape:window-y="0"
     inkscape:window-maximized="1"
     inkscape:current-layer="Group"
     inkscape:document-rotation="0"
     fit-margin-top="16"
     lock-margins="true"
     fit-margin-left="16"
     fit-margin-right="16"
     fit-margin-bottom="16" />
  <!-- Generator: Sketch 48.2 (47327) - http://www.bohemiancoding.com/sketch -->
  <title
     id="title2">Group</title>
  <desc
     id="desc4">Created with Sketch.</desc>
  <defs
     id="defs6" />
  <g
     id="Artboard"
     stroke="none"
     stroke-width="1"
     fill="none"
     fill-rule="evenodd"
     transform="translate(-231.60655,189.26096)">
    <g
       id="Group"
       transform="translate(116,91)"
       fill="#FFFFFF">
      <g
         id="Logo"
         fill-rule="nonzero"
         style="fill:#5581a6;fill-opacity:1"
         transform="matrix(2.5346898,0,0,2.5346898,189.86006,-264.8469)">
        <path
           d="m 91.72,47.7 c -0.948243,-0.05618 -1.852135,0.407259 -2.36,1.21 -0.94,-0.59 -3.49,-1.83 -4.48,-2.34 l -0.36,-0.18 c -0.05751,-0.02445 -0.122492,-0.02445 -0.18,0 v -0.06 c 0.0052,-0.07324 0.0052,-0.146759 0,-0.22 1,-20.58 -19.83,-36.57 -40,-30.38 -9.793749,3.115247 -17.464272,10.793228 -20.57,20.59 -0.822211,2.995621 -1.259067,6.083861 -1.3,9.19 l -0.76,0.3 -0.55,0.23 c -1,0.44 -2,0.91 -3,1.42 -1,0.51 -2,1 -2.91,1.63 -0.13198,0.08164 -0.183257,0.248289 -0.12,0.39 0.07604,0.149939 0.255149,0.215465 0.41,0.15 1,-0.46 2,-0.87 3,-1.25 1,-0.38 2.05,-0.72 3.09,-1 h 0.06 c 0.5,-0.15 1,-0.28 1.51,-0.41 l 0.78,-0.18 h 0.09 l 0.7,-0.15 c 1.05,-0.23 2.11,-0.37 3.17,-0.5 h 0.12 c 0.409089,-0.05976 0.749156,-0.34582 0.878086,-0.738634 0.128929,-0.392813 0.02453,-0.824758 -0.26958,-1.115321 C 28.3744,43.995482 27.941222,43.89632 27.55,44.03 c -1,0.24 -2,0.5 -2.91,0.81 l 0.19,-0.06 c 0.05765,-2.768607 0.457352,-5.519469 1.19,-8.19 2.877462,-9.039728 9.960272,-16.122538 19,-19 0.813333,-0.246667 1.623333,-0.456667 2.43,-0.63 0.79,-0.17 3.95,-0.62 0.5,1.31 -5.733874,3.296752 -10.017613,8.630006 -12,14.94 -1,3.23 -1.39,9.6 -0.69,14.49 0.22,1.53 -0.3,1.83 -1.25,2.23 -2,0.85 -5.5,2.39 -7.3,4.57 -0.7,0.84 -1,0 -1.17,-0.6 -0.350078,-1.646297 -0.564133,-3.318604 -0.64,-5 -0.0075,-0.146652 -0.08031,-0.282224 -0.198478,-0.369397 -0.118167,-0.08717 -0.2692,-0.116754 -0.411522,-0.0806 -0.49,0.12 -1,0.24 -1.46,0.4 -0.203484,0.07016 -0.337362,0.264887 -0.33,0.48 0.28,6.43 1.91,12.41 5.81,12.22 0.15043,-0.011 0.28867,-0.08678 0.378862,-0.207674 0.09019,-0.120895 0.123446,-0.274995 0.09114,-0.422326 -0.609714,-0.329104 -1.086718,-0.859107 -1.35,-1.5 -1.29,-3.86 10.67,-8.91 26,-11.2 14.08,-2.11 26.17,-1.15 28.27,2.06 0.434159,0.549435 0.481977,1.310546 0.12,1.91 -0.884864,1.588928 -2.207228,2.890467 -3.81,3.75 -0.135591,0.0823 -0.231562,0.216536 -0.26557,0.37146 -0.03401,0.154924 -0.0031,0.317017 0.08557,0.44854 0.158316,0.247339 0.478642,0.333914 0.74,0.2 1.961394,-0.959432 3.59626,-2.476032 4.7,-4.36 0.621652,-1.414043 0.961336,-2.935826 1,-4.48 1,0.31 3.64,1.37 4.65,1.78 H 89 c -0.04204,0.16723 -0.06882,0.33793 -0.08,0.51 -0.06009,1.536447 1.089449,2.852715 2.62,3 0.701036,0.0325 1.385986,-0.216529 1.902455,-0.69168 C 93.958923,52.243169 94.264069,51.58131 94.29,50.88 94.3898,49.338665 93.255935,47.993027 91.72,47.83 Z M 72,41.2 c 0.01456,0.384407 -0.133173,0.757224 -0.407081,1.027327 C 71.319012,42.49743 70.944166,42.639931 70.56,42.62 67.195225,42.360174 63.81338,42.420445 60.46,42.8 60.070939,42.831547 59.686896,42.695637 59.404283,42.426391 59.12167,42.157145 58.967326,41.780132 58.98,41.39 v -1.18 c 0.0021,-0.297834 0.20937,-0.554855 0.5,-0.62 3.969119,-0.662147 8.016514,-0.709367 12,-0.14 0.295674,0.04983 0.509168,0.310295 0.5,0.61 z m 7.06,-3.35 c -0.135165,0.208728 -0.399192,0.292546 -0.63,0.2 C 69.71,34.74 56.1,36.61 56.1,36.61 51.432127,37.074337 46.842094,38.12944 42.44,39.75 41.959651,39.933883 41.419209,39.865819 40.999453,39.568576 40.579697,39.271333 40.336046,38.784154 40.35,38.27 c 0.03522,-1.197029 0.155527,-2.390038 0.36,-3.57 0.441755,-3.228248 1.743935,-6.278179 3.77,-8.83 0.12,-0.14 0.24,-0.28 0.37,-0.41 0.02097,-0.03751 0.048,-0.0713 0.08,-0.1 l 0.06,-0.07 0.15,-0.16 0.07,-0.07 c 5.93,-6.2 16.36,-6.91 23.68,-2.87 3.660343,2.060564 6.694385,5.073872 8.78,8.72 0.32,0.6 2.34,5.27 1.39,6.94 z"
           id="Shape"
           style="fill:#5581a6;fill-opacity:1" />
        <path
           d="m 74.42,30.09 c -1.653949,-2.820928 -4.176231,-5.030994 -7.19,-6.3 -3.360894,-1.414231 -7.020604,-1.97092 -10.65,-1.62 -1.288964,0.101255 -2.557689,0.380576 -3.77,0.83 -0.24224,0.06969 -0.397231,0.305902 -0.364735,0.555866 0.0325,0.249963 0.242727,0.438693 0.494735,0.444134 2.73441,-0.288637 5.494972,-0.214664 8.21,0.22 10,2 13.2,6.81 13.55,7 0.1,0.05 0.22,-0.05 0.17,-0.15 -0.12913,-0.340777 -0.275997,-0.674567 -0.44,-1"
           id="path9"
           style="fill:#5581a6;fill-opacity:1" />
        <path
           d="m 29.7,47.54 c 0.171639,0.241529 0.441551,0.394504 0.736947,0.417672 0.295397,0.02317 0.585858,-0.08586 0.793053,-0.297672 0.332706,-0.334787 0.576727,-0.747216 0.71,-1.2 0.306533,-1.162414 0.232943,-2.392426 -0.21,-3.51 -0.285051,-0.713198 -0.803181,-1.308872 -1.47,-1.69 -0.121838,-0.07714 -0.269469,-0.102348 -0.41,-0.07 -0.410207,0.137344 -0.76238,0.408517 -1,0.77 -0.05962,0.07467 -0.08395,0.171529 -0.06668,0.265513 0.01726,0.09399 0.07442,0.175873 0.156683,0.224487 0.812503,0.428884 1.383685,1.206428 1.55,2.11 0.115348,0.924031 -0.172457,1.853021 -0.79,2.55 -0.1062,0.123661 -0.1062,0.306339 0,0.43"
           id="path11"
           style="fill:#5581a6;fill-opacity:1" />
        <path
           d="M 11,49 C 10.136854,48.928333 9.2809456,49.205237 8.6233409,49.768898 7.9657363,50.332559 7.5611866,51.136047 7.5,52 c -0.029421,1.862044 1.4202331,3.413351 3.28,3.51 1.761963,0.127119 3.301011,-1.180626 3.46,-2.94 C 14.313976,50.695663 12.872707,49.107599 11,49"
           id="path13"
           style="fill:#5581a6;fill-opacity:1" />
        <path
           d="M 104.69,52.5 C 104.69171,28.058064 87.75183,6.8796335 63.906548,1.5120665 40.061267,-3.8555005 15.680576,8.0216798 5.2090439,30.106861 -5.2624883,52.192042 0.97248674,78.585424 20.22,93.65 l 1,0.79 c 0.34,0.26 0.69,0.51 1,0.76 5.371632,3.800912 11.414922,6.5494 17.81,8.1 h 0.15 l 0.89,0.21 0.27,0.05 0.84,0.18 0.33,0.06 0.82,0.15 0.32,0.06 c 0.54,0.0867 1.08,0.16667 1.62,0.24 l 0.32,0.05 0.61,0.07 0.62,0.07 0.58,0.06 0.67,0.06 h 0.55 0.72 0.51 0.83 0.42 1.25 c 0.45,0 0.89,0 1.33,0 h 0.44 0.89 0.53 0.78 l 0.57,-0.05 0.73,-0.06 0.6,-0.07 0.7,-0.08 0.61,-0.08 0.67,-0.1 0.62,-0.1 0.65,-0.1 0.63,-0.12 0.64,-0.12 0.63,-0.14 0.62,-0.13 0.63,-0.15 0.61,-0.15 0.77,-0.11 0.58,-0.16 0.65,-0.18 0.57,-0.17 0.64,-0.21 c 0.189902,-0.0494 0.376865,-0.10952 0.56,-0.18 l 0.65,-0.22 0.54,-0.19 0.65,-0.24 0.52,-0.2 0.64,-0.25 0.5,-0.2 0.66,-0.28 0.49,-0.21 0.66,-0.3 0.47,-0.22 0.66,-0.32 0.45,-0.23 0.66,-0.33 0.44,-0.24 c 0.23,-0.11 0.45,-0.23 0.66,-0.35 l 0.43,-0.24 0.66,-0.38 0.4,-0.24 0.67,-0.4 0.38,-0.24 0.67,-0.42 0.36,-0.24 0.67,-0.45 0.34,-0.23 0.68,-0.48 0.31,-0.23 0.69,-0.51 0.28,-0.21 0.7,-0.54 0.25,-0.21 0.71,-0.57 0.21,-0.19 0.73,-0.61 0.17,-0.15 0.75,-0.68 0.11,-0.09 0.79,-0.75 C 98.917555,80.414135 104.73995,66.774345 104.72,52.52 M 68.35,70 c -0.07,-0.58 -0.14,-1.17 -0.23,-1.75 -0.09,-0.58 -0.17,-1.16 -0.28,-1.73 -0.11,-0.57 -0.2,-1.15 -0.31,-1.72 -0.11,-0.57 -0.25,-1.15 -0.39,-1.67 -0.08441,-0.392895 0.143504,-0.785618 0.526515,-0.90725 0.383011,-0.121632 0.795748,0.06764 0.953485,0.43725 0.22,0.62 0.37,1.18 0.53,1.78 0.16,0.6 0.3,1.17 0.43,1.76 0.25,1.19 0.45,2.37 0.64,3.56 0.24,1.56 0.4,3.13 0.53,4.69 1,0.05 2.07,0.12 3.1,0.22 2.793124,0.286568 5.548313,0.866432 8.22,1.73 0.339954,0.124998 0.531318,0.485856 0.444074,0.837398 C 82.42683,77.58894 82.08895,77.818453 81.73,77.77 h -0.05 c -1.34,-0.23 -2.64,-0.55 -4,-0.7 l -1,-0.15 -0.5,-0.07 h -0.5 l -2,-0.19 c -0.34,-0.05 -0.68,0 -1,-0.07 l -1,-0.06 h -0.74 c 0,0.17 0,0.34 0,0.51 l 0.08,1.79 v 1.8 c 0,1.2 0,2.4 0,3.6 0,1.2 -0.09,2.39 -0.13,3.58 -0.04,1.19 -0.17,2.39 -0.28,3.58 -0.05933,0.395019 -0.407496,0.681377 -0.806539,0.663356 C 69.404419,92.035335 69.08348,91.718759 69.06,91.32 c 0,-1.18 0,-2.36 0.06,-3.54 0.06,-1.18 0,-2.37 0,-3.55 0,-1.18 0,-2.36 -0.06,-3.53 L 69,78.93 V 77 c 0,-0.23 0,-0.45 0,-0.67 h -1.34 -2 c -0.68,0 -1.36,0.06 -2,0.08 -0.64,0.02 -1.36,0.07 -2,0.13 -1.36,0.09 -2.72,0.22 -4.07,0.37 -2.71,0.31 -5.43,0.7 -8.08,1.22 -0.385891,0.07378 -0.759683,-0.175417 -0.84,-0.56 -0.06566,-0.363718 0.154733,-0.71808 0.51,-0.82 1.37,-0.37 2.71,-0.66 4.08,-0.93 1.37,-0.27 2.73,-0.49 4.11,-0.7 0.68,-0.11 1.38,-0.18 2.07,-0.27 0.69,-0.09 1.38,-0.16 2.07,-0.22 0.69,-0.06 1.38,-0.13 2.08,-0.16 0.7,-0.03 1.39,-0.1 2.09,-0.11 1.1,-0.05 2.2,-0.06 3.31,0 -0.12,-1.47 -0.26,-2.93 -0.44,-4.38 m -26.7,-7.09 c -0.5,1.66 -1.67,5.66 -2.4,8.79 -1.873711,9.123831 -3.239148,18.344703 -4.09,27.62 -4.508708,-1.66055 -8.750274,-3.971682 -12.59,-6.86 0.801898,-6.020768 2.089429,-11.966819 3.85,-17.78 0.640511,-2.109706 1.519523,-4.139486 2.62,-6.05 0.881406,-1.28436 2.099175,-2.301474 3.52,-2.94 l 0.26,-0.12 0.43,-0.24 0.55,-0.28 c 0.38,-0.18 0.75,-0.36 1.12,-0.52 l 0.57,-0.25 0.56,-0.23 1.14,-0.44 c 1,-0.37 2.7,-0.89 3.76,-1.2 0.55,-0.16 0.84,0 0.7,0.5 m 44.54,14 c -1.56,-5.81 -3.67,-14.91 -9.9,-17 -6.64,-2.26 -13.78,-2.51 -20.68,-2.07 -4.912055,0.315473 -9.772815,1.184305 -14.49,2.59 -2.09,0.61 -8.79,3.18 -10.12,3.86 -1.520867,0.685827 -2.824741,1.77527 -3.77,3.15 -1.179855,2.046206 -2.122607,4.220241 -2.81,6.48 -1.680515,5.569341 -2.967026,11.250039 -3.85,17 -1.17,-1 -2.31,-2 -3.4,-3.11 C -2.0406679,68.385988 -2.1282892,36.945941 17.173922,17.434038 36.476134,-2.077864 67.915293,-2.3299434 87.527896,16.86994 107.1405,36.069823 107.55703,67.507233 88.46,87.22 87.994779,83.738708 87.303315,80.291412 86.39,76.9"
           id="path15"
           style="fill:#5581a6;fill-opacity:1" />
      </g>
      <g
         id="g843"
         transform="translate(5.9214798)">
        <path
           d="m 130.07997,94.872793 c -3.26992,0 -4.3949,-2.791791 -4.3949,-5.347239 0,-2.378192 1.15497,-5.34724 4.3949,-5.34724 1.99496,0 3.20993,1.107854 3.65992,2.200936 l -1.61996,0.723798 c -0.52499,-0.782883 -1.04998,-1.226025 -2.03996,-1.226025 -1.93496,0 -2.53494,2.023679 -2.53494,3.648531 0,1.71348 0.76498,3.633759 2.53494,3.633759 0.94498,0 1.52997,-0.546541 2.00996,-1.329424 l 1.66496,0.620398 c -0.64498,1.432824 -1.79996,2.422506 -3.67492,2.422506 z m 6.37708,-0.177256 V 84.355571 h 4.6499 c 2.60994,0 3.44992,1.521452 3.44992,3.146304 0,1.18171 -0.67498,2.511134 -2.15995,2.954276 l 2.09996,4.239386 h -2.02496 l -2.02495,-4.047358 h -2.18996 v 4.047358 z m 1.79996,-5.731296 h 2.87994 c 1.16997,0 1.55997,-0.709026 1.55997,-1.462366 0,-0.694255 -0.33,-1.462367 -1.55997,-1.462367 h -2.87994 z m 13.35193,5.908552 c -3.37492,0 -4.6049,-2.791791 -4.6049,-5.347239 0,-2.555449 1.22998,-5.34724 4.6049,-5.34724 3.38993,0 4.6049,2.791791 4.6049,5.34724 0,2.555448 -1.21497,5.347239 -4.6049,5.347239 z m 0,-1.698708 c 2.02496,0 2.74494,-2.067994 2.74494,-3.648531 0,-1.698709 -0.70498,-3.648531 -2.74494,-3.648531 -2.03995,0 -2.74494,2.053222 -2.74494,3.648531 0,1.683937 0.70499,3.648531 2.74494,3.648531 z m 8.70203,1.521452 -2.24995,-10.339966 h 1.84496 l 1.24497,6.085808 c 0.09,0.472684 0.15,0.753341 0.18,0.989683 0.03,-0.236342 0.09,-0.516999 0.20999,-0.989683 l 1.54497,-6.085808 h 1.52997 l 1.57496,6.071037 c 0.135,0.472684 0.18,0.75334 0.21,0.989682 0.03,-0.236342 0.075,-0.516998 0.17999,-0.974911 l 1.24498,-6.085808 h 1.81496 l -2.26495,10.339966 h -1.64997 l -1.69496,-6.396008 c -0.12,-0.413598 -0.18,-0.694255 -0.21,-0.960139 -0.03,0.265884 -0.09,0.546541 -0.19499,0.945368 l -1.66497,6.410779 z m 11.73196,-10.339966 h 3.23993 c 3.67492,0 5.05489,2.599763 5.05489,5.169983 0,2.363421 -1.25997,5.169983 -5.11488,5.169983 h -3.17994 z m 3.43493,8.6708 c 2.23495,0 2.99993,-1.875965 2.99993,-3.500817 0,-1.743023 -0.83998,-3.500817 -2.83494,-3.500817 h -1.79996 v 7.001634 z m 11.11698,1.846422 c -1.93496,0 -3.38993,-1.033996 -3.95992,-2.67362 l 1.66497,-0.605626 c 0.43499,0.945368 1.27497,1.595309 2.35494,1.595309 1.07998,0 1.79996,-0.487456 1.79996,-1.432824 0,-0.989682 -1.06497,-1.358967 -2.24995,-1.757794 -1.49996,-0.502227 -3.17993,-1.078311 -3.17993,-3.042904 0,-1.506681 1.24498,-2.77702 3.44993,-2.77702 1.82996,0 2.98493,0.945369 3.35992,2.215707 l -1.61996,0.53177 c -0.26999,-0.605626 -0.86998,-1.063539 -1.85996,-1.063539 -0.94498,0 -1.49997,0.398827 -1.49997,1.107853 0,0.75334 0.91498,1.063539 2.00996,1.418053 1.52997,0.531769 3.41992,1.18171 3.41992,3.367874 0,1.994136 -1.61996,3.116761 -3.68991,3.116761 z m 10.74198,0 c -3.37493,0 -4.6049,-2.791791 -4.6049,-5.347239 0,-2.555449 1.22997,-5.34724 4.6049,-5.34724 3.38993,0 4.6049,2.791791 4.6049,5.34724 0,2.555448 -1.21497,5.347239 -4.6049,5.347239 z m 0,-1.698708 c 2.02496,0 2.74494,-2.067994 2.74494,-3.648531 0,-1.698709 -0.70498,-3.648531 -2.74494,-3.648531 -2.03995,0 -2.74494,2.053222 -2.74494,3.648531 0,1.683937 0.70499,3.648531 2.74494,3.648531 z m 11.52197,1.698708 c -2.15995,0 -4.09491,-1.019225 -4.09491,-4.121215 v -6.396007 h 1.79996 v 6.396007 c 0,1.890737 0.92998,2.422507 2.29495,2.422507 1.34997,0 2.29495,-0.53177 2.29495,-2.422507 v -6.396007 h 1.79996 v 6.396007 c 0,3.057676 -1.87496,4.121215 -4.09491,4.121215 z m 7.29206,-0.177256 V 84.355571 h 4.6499 c 2.60994,0 3.44992,1.521452 3.44992,3.146304 0,1.18171 -0.67498,2.511134 -2.15995,2.954276 l 2.09995,4.239386 h -2.02495 l -2.02496,-4.047358 h -2.18995 v 4.047358 z m 1.79996,-5.731296 h 2.87994 c 1.16997,0 1.55996,-0.709026 1.55996,-1.462366 0,-0.694255 -0.32999,-1.462367 -1.55996,-1.462367 h -2.87994 z m 13.14193,5.908552 c -3.26993,0 -4.3949,-2.791791 -4.3949,-5.347239 0,-2.378192 1.15497,-5.34724 4.3949,-5.34724 1.99496,0 3.20993,1.107854 3.65992,2.200936 l -1.61996,0.723798 c -0.52499,-0.782883 -1.04998,-1.226025 -2.03996,-1.226025 -1.93496,0 -2.53494,2.023679 -2.53494,3.648531 0,1.71348 0.76498,3.633759 2.53494,3.633759 0.94498,0 1.52997,-0.546541 2.00996,-1.329424 l 1.66496,0.620398 c -0.64499,1.432824 -1.79996,2.422506 -3.67492,2.422506 z m 6.37708,-0.177256 V 84.355571 h 6.83985 v 1.669166 h -5.03989 V 88.5211 h 3.10493 v 1.669166 h -3.10493 v 2.836105 h 5.36988 v 1.669166 z m 9.91701,-10.339966 h 3.23992 c 3.67492,0 5.05489,2.599763 5.05489,5.169983 0,2.363421 -1.25997,5.169983 -5.11488,5.169983 h -3.17993 z m 3.43492,8.6708 c 2.23495,0 2.99993,-1.875965 2.99993,-3.500817 0,-1.743023 -0.83998,-3.500817 -2.83493,-3.500817 h -1.79996 v 7.001634 z m 15.5141,1.846422 c -1.93496,0 -3.38992,-1.033996 -3.95991,-2.67362 l 1.66496,-0.605626 c 0.43499,0.945368 1.27497,1.595309 2.35495,1.595309 1.07998,0 1.79996,-0.487456 1.79996,-1.432824 0,-0.989682 -1.06498,-1.358967 -2.24995,-1.757794 -1.49997,-0.502227 -3.17993,-1.078311 -3.17993,-3.042904 0,-1.506681 1.24497,-2.77702 3.44992,-2.77702 1.82996,0 2.98494,0.945369 3.35993,2.215707 l -1.61996,0.53177 c -0.27,-0.605626 -0.86998,-1.063539 -1.85996,-1.063539 -0.94498,0 -1.49997,0.398827 -1.49997,1.107853 0,0.75334 0.91498,1.063539 2.00996,1.418053 1.52996,0.531769 3.41992,1.18171 3.41992,3.367874 0,1.994136 -1.61996,3.116761 -3.68992,3.116761 z m 10.74199,0 c -3.37493,0 -4.6049,-2.791791 -4.6049,-5.347239 0,-2.555449 1.22997,-5.34724 4.6049,-5.34724 3.38992,0 4.60489,2.791791 4.60489,5.34724 0,2.555448 -1.21497,5.347239 -4.60489,5.347239 z m 0,-1.698708 c 2.02495,0 2.74494,-2.067994 2.74494,-3.648531 0,-1.698709 -0.70499,-3.648531 -2.74494,-3.648531 -2.03996,0 -2.74494,2.053222 -2.74494,3.648531 0,1.683937 0.70498,3.648531 2.74494,3.648531 z m 7.50205,1.521452 V 84.355571 h 6.77985 v 1.669166 h -4.97989 V 88.5211 h 3.17993 v 1.669166 h -3.17993 v 4.505271 z m 13.33693,-8.641257 v 8.641257 h -1.79996 V 86.05428 h -2.98493 v -1.698709 h 7.76982 v 1.698709 z m 7.15707,8.641257 -2.24996,-10.339966 h 1.84496 l 1.24498,6.085808 c 0.09,0.472684 0.14999,0.753341 0.17999,0.989683 0.03,-0.236342 0.09,-0.516999 0.21,-0.989683 l 1.54496,-6.085808 h 1.52997 l 1.57497,6.071037 c 0.13499,0.472684 0.17999,0.75334 0.20999,0.989682 0.03,-0.236342 0.075,-0.516998 0.18,-0.974911 l 1.24497,-6.085808 h 1.81496 l -2.26495,10.339966 h -1.64996 l -1.69497,-6.396008 c -0.11999,-0.413598 -0.17999,-0.694255 -0.20999,-0.960139 -0.03,0.265884 -0.09,0.546541 -0.195,0.945368 l -1.66496,6.410779 z m 18.24181,0 -0.82498,-2.260021 h -4.1549 l -0.82499,2.260021 h -1.90495 l 3.91491,-10.339966 h 1.78496 l 3.89991,10.339966 z m -1.39496,-3.85533 -1.15498,-3.10199 c -0.12,-0.295428 -0.26999,-0.738569 -0.34499,-1.048768 -0.09,0.310199 -0.24,0.75334 -0.34499,1.048768 l -1.16998,3.10199 z m 5.61209,3.85533 V 84.355571 h 4.6499 c 2.60994,0 3.44992,1.521452 3.44992,3.146304 0,1.18171 -0.67498,2.511134 -2.15995,2.954276 l 2.09996,4.239386 h -2.02496 l -2.02495,-4.047358 h -2.18996 v 4.047358 z m 1.79996,-5.731296 h 2.87994 c 1.16997,0 1.55997,-0.709026 1.55997,-1.462366 0,-0.694255 -0.33,-1.462367 -1.55997,-1.462367 h -2.87994 z m 9.19702,5.731296 V 84.355571 h 6.83985 v 1.669166 h -5.03989 V 88.5211 h 3.10493 v 1.669166 h -3.10493 v 2.836105 h 5.36988 v 1.669166 z m 14.31413,0 V 84.355571 h 4.6499 c 2.60994,0 3.44992,1.521452 3.44992,3.146304 0,1.18171 -0.67498,2.511134 -2.15995,2.954276 l 2.09995,4.239386 h -2.02495 l -2.02496,-4.047358 h -2.18995 v 4.047358 z m 1.79996,-5.731296 h 2.87994 c 1.16997,0 1.55996,-0.709026 1.55996,-1.462366 0,-0.694255 -0.32999,-1.462367 -1.55996,-1.462367 h -2.87994 z m 9.19702,5.731296 V 84.355571 h 6.83985 v 1.669166 h -5.03989 V 88.5211 h 3.10493 v 1.669166 h -3.10493 v 2.836105 h 5.36988 v 1.669166 z m 13.56192,0.177256 c -3.26992,0 -4.3949,-2.791791 -4.3949,-5.347239 0,-2.378192 1.15497,-5.34724 4.3949,-5.34724 1.99496,0 3.20993,1.107854 3.65992,2.200936 l -1.61996,0.723798 c -0.52499,-0.782883 -1.04998,-1.226025 -2.03996,-1.226025 -1.93495,0 -2.53494,2.023679 -2.53494,3.648531 0,1.71348 0.76498,3.633759 2.53494,3.633759 0.94498,0 1.52997,-0.546541 2.00996,-1.329424 l 1.66496,0.620398 c -0.64498,1.432824 -1.79996,2.422506 -3.67492,2.422506 z m 10.45699,0 c -3.37492,0 -4.60489,-2.791791 -4.60489,-5.347239 0,-2.555449 1.22997,-5.34724 4.60489,-5.34724 3.38993,0 4.6049,2.791791 4.6049,5.34724 0,2.555448 -1.21497,5.347239 -4.6049,5.347239 z m 0,-1.698708 c 2.02496,0 2.74494,-2.067994 2.74494,-3.648531 0,-1.698709 -0.70498,-3.648531 -2.74494,-3.648531 -2.03995,0 -2.74494,2.053222 -2.74494,3.648531 0,1.683937 0.70499,3.648531 2.74494,3.648531 z m 17.05685,1.521452 h -1.79996 v -5.494954 c 0,-0.369284 0.03,-0.960139 0.06,-1.240795 -0.135,0.398827 -0.32999,0.901054 -0.47999,1.270338 l -2.54994,5.642667 -2.54995,-5.67221 c -0.16499,-0.354513 -0.35999,-0.841968 -0.49499,-1.240795 0.03,0.280656 0.06,0.871511 0.06,1.240795 v 5.494954 h -1.79996 V 84.355571 h 1.81496 l 2.69994,6.071037 c 0.105,0.251113 0.21,0.53177 0.28499,0.768112 0.075,-0.236342 0.18,-0.516999 0.285,-0.768112 l 2.71494,-6.071037 h 1.75496 z m 12.82694,0 h -1.79996 v -5.494954 c 0,-0.369284 0.03,-0.960139 0.06,-1.240795 -0.135,0.398827 -0.32999,0.901054 -0.47999,1.270338 l -2.54995,5.642667 -2.54994,-5.67221 c -0.165,-0.354513 -0.35999,-0.841968 -0.49499,-1.240795 0.03,0.280656 0.06,0.871511 0.06,1.240795 v 5.494954 h -1.79996 V 84.355571 h 1.81496 l 2.69994,6.071037 c 0.105,0.251113 0.21,0.53177 0.28499,0.768112 0.075,-0.236342 0.18,-0.516999 0.285,-0.768112 l 2.71494,-6.071037 h 1.75496 z m 3.27215,0 V 84.355571 h 6.83985 v 1.669166 h -5.03989 V 88.5211 h 3.10493 v 1.669166 h -3.10493 v 2.836105 h 5.36988 v 1.669166 z m 18.07682,0 h -1.63496 l -4.34991,-6.52895 c -0.13499,-0.206799 -0.29999,-0.502227 -0.43499,-0.768112 0.03,0.236342 0.045,0.53177 0.045,0.768112 v 6.52895 h -1.78496 V 84.355571 h 1.73996 l 4.24491,6.42555 c 0.15,0.221571 0.29999,0.516998 0.43499,0.782883 -0.03,-0.265885 -0.045,-0.561312 -0.045,-0.782883 v -6.42555 h 1.78496 z m 3.27215,-10.339966 h 3.23993 c 3.67492,0 5.05489,2.599763 5.05489,5.169983 0,2.363421 -1.25997,5.169983 -5.11489,5.169983 h -3.17993 z m 3.43493,8.6708 c 2.23495,0 2.99993,-1.875965 2.99993,-3.500817 0,-1.743023 -0.83998,-3.500817 -2.83494,-3.500817 h -1.79996 v 7.001634 z m 14.10191,1.669166 -0.82499,-2.260021 h -4.1549 l -0.82499,2.260021 h -1.90495 l 3.91491,-10.339966 h 1.78496 l 3.89991,10.339966 z m -1.39497,-3.85533 -1.15498,-3.10199 c -0.11999,-0.295428 -0.26999,-0.738569 -0.34499,-1.048768 -0.09,0.310199 -0.23999,0.75334 -0.34499,1.048768 l -1.16998,3.10199 z m 8.52203,-4.785927 v 8.641257 h -1.79996 V 86.05428 h -2.98493 v -1.698709 h 7.76983 v 1.698709 z m 5.6571,8.641257 V 84.355571 h 1.79996 v 10.339966 z m 9.37701,0.177256 c -3.37492,0 -4.60489,-2.791791 -4.60489,-5.347239 0,-2.555449 1.22997,-5.34724 4.60489,-5.34724 3.38993,0 4.6049,2.791791 4.6049,5.34724 0,2.555448 -1.21497,5.347239 -4.6049,5.347239 z m 0,-1.698708 c 2.02496,0 2.74494,-2.067994 2.74494,-3.648531 0,-1.698709 -0.70498,-3.648531 -2.74494,-3.648531 -2.03995,0 -2.74494,2.053222 -2.74494,3.648531 0,1.683937 0.70499,3.648531 2.74494,3.648531 z m 15.66188,1.521452 h -1.63496 l -4.34991,-6.52895 c -0.13499,-0.206799 -0.29999,-0.502227 -0.43499,-0.768112 0.03,0.236342 0.045,0.53177 0.045,0.768112 v 6.52895 h -1.78496 V 84.355571 h 1.73996 l 4.24491,6.42555 c 0.15,0.221571 0.29999,0.516998 0.43499,0.782883 -0.03,-0.265885 -0.045,-0.561312 -0.045,-0.782883 v -6.42555 h 1.78496 z m 6.63208,0.177256 c -1.93496,0 -3.38993,-1.033996 -3.95992,-2.67362 l 1.66497,-0.605626 c 0.43499,0.945368 1.27497,1.595309 2.35494,1.595309 1.07998,0 1.79996,-0.487456 1.79996,-1.432824 0,-0.989682 -1.06497,-1.358967 -2.24994,-1.757794 -1.49997,-0.502227 -3.17994,-1.078311 -3.17994,-3.042904 0,-1.506681 1.24498,-2.77702 3.44993,-2.77702 1.82996,0 2.98493,0.945369 3.35992,2.215707 l -1.61996,0.53177 c -0.26999,-0.605626 -0.86998,-1.063539 -1.85996,-1.063539 -0.94498,0 -1.49997,0.398827 -1.49997,1.107853 0,0.75334 0.91498,1.063539 2.00996,1.418053 1.52997,0.531769 3.41992,1.18171 3.41992,3.367874 0,1.994136 -1.61996,3.116761 -3.68991,3.116761 z"
           id="CROWDSOURCED-SOFTWAR"
           style="fill:#5581a6;fill-opacity:1" />
        <path
           d="m 150.98812,57.162263 h -9.06562 c -1.24757,0 -1.91293,0.65524 -2.16244,1.720006 l -2.24562,9.255271 c -0.41585,1.801911 -1.74659,2.784771 -3.65952,2.784771 h -5.4061 c -1.82976,0 -2.82781,-0.98286 -2.32879,-2.784771 L 139.3442,18.99451 c 0.49903,-1.720006 1.74659,-2.702866 3.57635,-2.702866 h 7.56855 c 1.82976,0 3.07732,0.98286 3.57635,2.702866 l 12.97465,48.897314 c 0.49903,1.801912 -0.49902,3.030487 -2.32878,3.030487 h -5.65562 c -1.91293,0 -3.24367,-0.98286 -3.65952,-2.784771 l -2.24561,-9.255271 c -0.24952,-1.064766 -0.91488,-1.720006 -2.16245,-1.720006 z m -5.95097,-9.500986 h 4.90708 c 0.91488,0 1.49708,-0.409525 1.24756,-1.392385 l -3.65952,-15.480055 -3.74268,15.480055 c -0.24952,0.98286 0.33268,1.392385 1.24756,1.392385 z m 36.7582,-28.584862 v 49.14303 c 0,1.801911 -0.91488,2.702866 -2.82781,2.702866 h -5.23977 c -1.82975,0 -2.74463,-0.900955 -2.74463,-2.702866 v -49.14303 c 0,-1.883816 0.91488,-2.784771 2.74463,-2.784771 h 5.23977 c 1.91293,0 2.82781,0.900955 2.82781,2.784771 z m 6.81668,42.344911 V 37.668861 h -0.91487 c -1.82976,0 -2.74464,-0.900955 -2.74464,-2.702866 v -3.603822 c 0,-1.801911 0.91488,-2.702867 2.74464,-2.702867 h 0.91487 v -5.979069 c 0,-1.720006 0.33269,-3.685727 2.5783,-4.340967 l 4.40806,-1.228576 c 2.41195,-0.65524 3.82586,0.16381 3.82586,2.457152 v 9.09146 h 3.57635 c 1.82976,0 2.74464,0.900956 2.74464,2.702867 v 3.603822 c 0,1.801911 -0.91488,2.702866 -2.74464,2.702866 h -3.57635 V 59.86513 c 0,2.129531 1.24756,2.866676 2.82781,2.866676 h 1.16439 c 1.24756,0 2.07927,0.409526 2.07927,2.293342 v 2.784771 c 0,2.784772 -2.82781,3.931443 -5.82196,3.931443 -5.48928,0 -11.06173,-3.030487 -11.06173,-10.320036 z m 49.56652,-19.411497 v 8.1086 c 0,1.801911 -0.91488,2.702866 -2.74464,2.702866 h -16.551 v 2.948582 c 0,4.586683 2.16244,7.043834 7.23586,7.043834 3.49318,0 4.82391,-1.392385 7.06953,-1.392385 1.9961,0 2.74464,1.556196 2.74464,2.702866 v 1.310481 c 0,3.440012 -3.32684,6.306689 -10.47953,6.306689 -11.39441,0 -17.38272,-6.552404 -17.38272,-16.87244 V 42.009829 c 0,-8.681935 6.40416,-14.169573 15.05393,-14.169573 8.64977,0 15.05393,5.487638 15.05393,14.169573 z m -10.72904,2.702867 v -2.702867 c 0,-3.931442 -1.66342,-5.897164 -4.32489,-5.897164 -2.66147,0 -4.24171,1.965722 -4.24171,5.897164 v 2.702867 z m 27.02721,-0.245716 v 23.752465 c 0,1.801911 -0.91488,2.702866 -2.82781,2.702866 h -5.23977 c -1.82976,0 -2.74464,-0.900955 -2.74464,-2.702866 V 31.444078 c 0,-1.883816 0.91488,-2.784772 2.74464,-2.784772 h 5.23977 c 1.9961,0 2.82781,0.900956 2.82781,2.948582 1.66341,-1.720006 4.24171,-3.767632 7.48538,-3.767632 1.9961,0 2.24561,1.228575 2.24561,2.293341 v 4.340967 c 0,2.375247 -2.07927,2.620962 -4.07537,2.866677 -3.41001,0.409525 -5.65562,3.112392 -5.65562,7.125739 z m 33.59771,23.752465 V 42.665069 c 0,-3.358107 -1.58025,-5.815258 -4.74075,-5.815258 -3.16049,0 -4.74074,2.457151 -4.74074,5.815258 v 25.554376 c 0,1.801911 -0.91488,2.702866 -2.82781,2.702866 h -5.23976 c -1.82976,0 -2.74464,-0.900955 -2.74464,-2.702866 V 31.444078 c 0,-1.883816 0.91488,-2.784772 2.74464,-2.784772 h 5.23976 c 1.82976,0 2.82781,0.900956 2.82781,2.702867 0,0 2.82781,-3.521917 8.40026,-3.521917 8.06758,0 11.89344,5.897163 11.89344,14.824813 v 25.554376 c 0,1.801911 -0.91488,2.702866 -2.82781,2.702866 h -5.23977 c -1.82976,0 -2.74463,-0.900955 -2.74463,-2.702866 z M 317.7631,35.70314 c -4.82391,0 -6.65367,1.228576 -8.23392,1.228576 -0.99805,0 -2.24561,-0.49143 -2.24561,-2.047626 v -2.211436 c 0,-3.521918 5.40611,-4.832398 10.64587,-4.832398 7.23587,0 16.63418,1.801911 16.63418,13.432428 V 68.13754 c 0,1.883816 -0.91488,2.784771 -2.74464,2.784771 h -3.9922 c -1.74659,0 -2.66147,-0.737145 -2.82781,-2.129531 -0.24952,0.245715 -2.91098,2.948582 -7.81807,2.948582 -8.06757,0 -13.72319,-5.979069 -13.72319,-13.596238 0,-12.777188 10.06368,-16.54482 20.29369,-17.609586 -0.16634,-2.866677 -1.33073,-4.832398 -5.9883,-4.832398 z m -3.49318,21.295313 c 0,3.030487 1.49708,5.569543 4.74075,5.569543 3.07732,0 4.74073,-2.457151 4.74073,-5.569543 v -8.76384 c -4.82391,1.064765 -9.48148,2.620961 -9.48148,8.76384 z m 26.61136,4.422873 V 37.668861 h -0.91488 c -1.82976,0 -2.74464,-0.900955 -2.74464,-2.702866 v -3.603822 c 0,-1.801911 0.91488,-2.702867 2.74464,-2.702867 h 0.91488 v -5.979069 c 0,-1.720006 0.33268,-3.685727 2.5783,-4.340967 l 4.40805,-1.228576 c 2.41196,-0.65524 3.82586,0.16381 3.82586,2.457152 v 9.09146 h 3.57635 c 1.82976,0 2.74464,0.900956 2.74464,2.702867 v 3.603822 c 0,1.801911 -0.91488,2.702866 -2.74464,2.702866 h -3.57635 V 59.86513 c 0,2.129531 1.24757,2.866676 2.82781,2.866676 h 1.16439 c 1.24757,0 2.07928,0.409526 2.07928,2.293342 v 2.784771 c 0,2.784772 -2.82781,3.931443 -5.82196,3.931443 -5.48928,0 -11.06173,-3.030487 -11.06173,-10.320036 z m 31.93429,-29.977248 v 36.775367 c 0,1.801911 -0.91488,2.702866 -2.82781,2.702866 h -5.23977 c -1.82976,0 -2.74464,-0.900955 -2.74464,-2.702866 V 31.444078 c 0,-1.883816 0.91488,-2.784772 2.74464,-2.784772 h 5.23977 c 1.91293,0 2.82781,0.900956 2.82781,2.784772 z m 0,-12.367663 v 3.440012 c 0,1.801911 -0.91488,2.702867 -2.82781,2.702867 h -5.23977 c -1.82976,0 -2.74464,-0.900956 -2.74464,-2.702867 v -3.440012 c 0,-1.883816 0.91488,-2.784771 2.74464,-2.784771 h 5.23977 c 1.91293,0 2.82781,0.900955 2.82781,2.784771 z m 31.43526,9.582891 h 4.07538 c 1.82976,0 3.16049,1.228576 2.32878,3.603822 l -12.05978,35.956317 c -0.41585,1.392385 -1.4139,2.702866 -3.57634,2.702866 h -3.82586 c -2.16245,0 -3.1605,-1.310481 -3.57635,-2.702866 L 376.22225,32.263128 c -0.74854,-2.375246 0.49902,-3.603822 2.32878,-3.603822 h 4.5744 c 2.24561,0 3.24367,1.064766 3.65952,2.784772 l 6.65367,23.261034 7.1527,-23.261034 c 0.49902,-1.720006 1.4139,-2.784772 3.65951,-2.784772 z m 39.58601,13.350523 v 8.1086 c 0,1.801911 -0.91487,2.702866 -2.74463,2.702866 H 424.5412 v 2.948582 c 0,4.586683 2.16244,7.043834 7.23587,7.043834 3.49317,0 4.82391,-1.392385 7.06952,-1.392385 1.9961,0 2.74464,1.556196 2.74464,2.702866 v 1.310481 c 0,3.440012 -3.32683,6.306689 -10.47953,6.306689 -11.39441,0 -17.38271,-6.552404 -17.38271,-16.87244 V 42.009829 c 0,-8.681935 6.40416,-14.169573 15.05393,-14.169573 8.64977,0 15.05392,5.487638 15.05392,14.169573 z m -10.72904,2.702867 v -2.702867 c 0,-3.931442 -1.66342,-5.897164 -4.32488,-5.897164 -2.66147,0 -4.24172,1.965722 -4.24172,5.897164 v 2.702867 z m 43.33722,-28.421052 c 1.91293,0 2.82781,0.900955 2.82781,2.784771 v 3.931443 c 0,1.801911 -0.91488,2.702866 -2.82781,2.702866 h -7.1527 c -1.08122,0 -1.66342,0.573336 -1.66342,1.638101 v 40.87062 c 0,1.801911 -0.91488,2.702866 -2.74463,2.702866 h -5.65562 c -1.91293,0 -2.82781,-0.900955 -2.82781,-2.702866 v -40.87062 c 0,-1.064765 -0.5822,-1.638101 -1.66342,-1.638101 h -7.1527 c -1.91293,0 -2.82781,-0.900955 -2.82781,-2.702866 v -3.931443 c 0,-1.883816 0.91488,-2.784771 2.82781,-2.784771 z m 0.66204,41.525859 V 41.764114 c 0,-9.746701 7.65172,-13.923858 15.46978,-13.923858 7.81806,0 15.46978,4.177157 15.46978,13.923858 v 16.053389 c 0,9.746701 -7.65172,13.923859 -15.46978,13.923859 -7.81806,0 -15.46978,-4.177158 -15.46978,-13.923859 z m 10.81221,-16.053389 v 16.053389 c 0,3.194297 1.82976,4.914303 4.65757,4.914303 2.82781,0 4.65757,-1.720006 4.65757,-4.914303 V 41.764114 c 0,-3.194297 -1.82976,-4.914303 -4.65757,-4.914303 -2.82781,0 -4.65757,1.720006 -4.65757,4.914303 z"
           id="AlternativeTo"
           style="fill:#5581a6;fill-opacity:1" />
      </g>
    </g>
  </g>
</svg>
