<svg xmlns="http://www.w3.org/2000/svg" xmlns:xlink="http://www.w3.org/1999/xlink" viewBox="0 0 249.2 67.91"><defs><style>.cls-1{fill:none;}.cls-2,.cls-3{fill:#1d1d1b;}.cls-2{fill-rule:evenodd;}.cls-4{fill:#acaaa0;}.cls-5{clip-path:url(#clip-path);}.cls-6{fill:#fff;}.cls-10,.cls-11,.cls-12,.cls-13,.cls-14,.cls-7,.cls-8,.cls-9{fill:#0077be;}.cls-10,.cls-11,.cls-12,.cls-13,.cls-14,.cls-8,.cls-9{stroke:#0077be;stroke-miterlimit:3.86;}.cls-8{stroke-width:0.89px;}.cls-9{stroke-width:0.53px;}.cls-10{stroke-width:0.45px;}.cls-11{stroke-width:0.81px;}.cls-12{stroke-width:0.72px;}.cls-13{stroke-width:0.65px;}.cls-14{stroke-width:0.59px;}</style><clipPath id="clip-path"><polygon class="cls-1" points="0.44 0 63.5 0 63.5 58.01 0.44 58.01 0.44 0 0.44 0"/></clipPath></defs><g id="Capa_2" data-name="Capa 2"><g id="Capa_1-2" data-name="Capa 1"><path class="cls-2" d="M80.3,49.91c1.48,0,2,1.38,2,2.88,0,1.32-.36,2.89-2,2.89s-2.08-1.57-2.08-3,.52-2.78,2.08-2.78Zm5.29-6.19H82.2v5h0a3.47,3.47,0,0,0-3-1.41c-2.93,0-4.37,2.55-4.37,5.25,0,2.91,1.38,5.71,4.63,5.71a3.32,3.32,0,0,0,2.86-1.5h0V58h3.23V43.72Z"/><path class="cls-2" d="M90.81,51.73A2.24,2.24,0,0,1,93,49.61a2.1,2.1,0,0,1,2,2.12Zm7.61,1.9c.16-3.52-1.7-6.31-5.42-6.31a5.44,5.44,0,0,0-5.59,5.45c0,3.47,2.3,5.51,5.67,5.51,2.32,0,4.54-1,5.16-3.43H95.06A2,2,0,0,1,93.12,56a2.2,2.2,0,0,1-2.31-2.35Z"/><polygon class="cls-3" points="106.52 57.98 109.92 57.98 109.92 43.72 106.52 43.72 106.52 57.98 106.52 57.98"/><path class="cls-3" d="M112.55,47.44H114a1.77,1.77,0,0,1-1.44,1.87v1.6A3.6,3.6,0,0,0,115.73,47V43.72h-3.18v3.72Z"/><path class="cls-2" d="M124.09,47.67h0l1.58,5h-3.24l1.62-5ZM116.9,58h3.82l.9-2.56h5l.88,2.56h3.87L126,43.72h-3.77L116.9,58Z"/><path class="cls-2" d="M132.4,58h3.39V47.61H132.4V58Zm3.39-14.26H132.4v2.6h3.39v-2.6Z"/><path class="cls-2" d="M145,52.53c0,1.3-.62,2.42-2.06,2.42s-2-1.22-2-2.44.48-2.6,2-2.6,2,1.3,2,2.62Zm3.21-4.92H145v1.3h0a3,3,0,0,0-2.78-1.59c-2.93,0-4.55,2.31-4.55,5.07s1.42,5.15,4.55,5.15A3.29,3.29,0,0,0,144.9,56h0v1c0,1.28-.16,2.42-1.78,2.42a2.7,2.7,0,0,1-1.24-.22,1.11,1.11,0,0,1-.58-.9H138c.4,2.78,2.67,3.32,5.09,3.32,4.86,0,5.17-3.2,5.17-4.9V47.61Z"/><path class="cls-3" d="M160.69,47.61H157.3v5.56c0,1.84-1.12,2.31-1.86,2.31-1.08,0-1.68-.47-1.68-1.85v-6h-3.39v6.24c0,2.71.86,4.43,3.83,4.43a3.82,3.82,0,0,0,3.16-1.72h0V58h3.29V47.61Z"/><path class="cls-2" d="M165.81,55c0-.82.64-1.14,1.4-1.32a9.65,9.65,0,0,0,2.09-.56c.08,2.13-.46,3-2.07,3-.76,0-1.42-.34-1.42-1.17Zm.2-4.2a1.52,1.52,0,0,1,1.69-1.3c.7,0,1.64.3,1.64,1.08s-.32.84-.9,1c-2.35.48-6,.22-6,3.6,0,2.13,1.56,3.13,3.54,3.13A4.66,4.66,0,0,0,169.36,57a4.06,4.06,0,0,0,.2,1H173a6,6,0,0,1-.4-2.66V50.79c0-2.94-2.38-3.47-4.84-3.47a7,7,0,0,0-3.29.71,3.19,3.19,0,0,0-1.62,2.78Z"/><path class="cls-2" d="M81.2,27.69h0l1.58,5H79.58l1.62-5ZM74,38h3.81l.9-2.56h5L84.58,38h3.87L83.12,23.74H79.34L74,38Z"/><path class="cls-2" d="M96.2,32.55c0,1.3-.62,2.41-2.06,2.41s-2-1.21-2-2.43.48-2.6,2-2.6,2,1.3,2,2.62Zm3.21-4.92H96.16v1.3h0a3,3,0,0,0-2.78-1.6c-2.93,0-4.55,2.32-4.55,5.08,0,2.91,1.42,5.15,4.55,5.15A3.29,3.29,0,0,0,96.1,36h0v1c0,1.28-.16,2.42-1.78,2.42a2.7,2.7,0,0,1-1.24-.22,1.11,1.11,0,0,1-.58-.9H89.15c.4,2.78,2.67,3.32,5.09,3.32,4.85,0,5.17-3.2,5.17-4.9V27.63Z"/><path class="cls-2" d="M106.5,23.54h-3.6l3.14,3h2.4l-1.94-3Zm-2,8.21a2.24,2.24,0,0,1,2.2-2.12,2.1,2.1,0,0,1,2,2.12Zm7.61,1.9c.16-3.52-1.69-6.32-5.41-6.32a5.44,5.44,0,0,0-5.59,5.46c0,3.47,2.29,5.51,5.67,5.51,2.32,0,4.53-1,5.15-3.44h-3.17A2,2,0,0,1,106.8,36a2.21,2.21,0,0,1-2.32-2.35Z"/><path class="cls-3" d="M113.79,38h3.39V32.35c0-1.14.56-2.22,1.84-2.22,1.86,0,1.7,1.44,1.7,2.86v5h3.39V31.35c0-1.5-.28-4-3.73-4a3.92,3.92,0,0,0-3.26,1.72h0V27.63h-3.29V38Z"/><path class="cls-3" d="M136.42,31.43c-.24-2.74-2.54-4.1-5.12-4.1-3.33,0-5.43,2.36-5.43,5.66a5.16,5.16,0,0,0,5.43,5.31c2.76,0,4.92-1.6,5.22-4.37h-3.3a1.82,1.82,0,0,1-1.94,1.77c-1.43,0-2-1.37-2-2.71s.3-3.06,2.19-3.06a1.6,1.6,0,0,1,1.66,1.5Z"/><path class="cls-2" d="M138.33,38h3.4V27.63h-3.4V38Zm3.4-14.26h-3.4v2.6h3.4v-2.6Z"/><path class="cls-2" d="M147,35c0-.81.64-1.13,1.39-1.31a9.6,9.6,0,0,0,2.1-.56c.08,2.13-.46,3.05-2.08,3.05-.75,0-1.41-.34-1.41-1.18Zm.2-4.19a1.52,1.52,0,0,1,1.69-1.3c.7,0,1.64.3,1.64,1.08s-.32.84-.9,1c-2.35.48-6,.22-6,3.59,0,2.14,1.56,3.14,3.54,3.14A4.68,4.68,0,0,0,150.51,37a4.06,4.06,0,0,0,.2,1h3.42a6,6,0,0,1-.4-2.66V30.81c0-2.94-2.38-3.48-4.84-3.48a6.83,6.83,0,0,0-3.29.72A3.19,3.19,0,0,0,144,30.83Z"/><path class="cls-3" d="M175.58,28.83c-.1-3.43-3.44-5.39-6.52-5.39-4.31,0-7.11,3.29-7.11,7.43s2.8,7.43,7.11,7.43c3.62,0,6.32-2.16,6.52-5.83h-3.72A2.64,2.64,0,0,1,169,35.1c-2.39,0-3.31-2.11-3.31-4.23s.92-4.23,3.31-4.23a2.58,2.58,0,0,1,2.88,2.19Z"/><path class="cls-2" d="M180.25,35c0-.81.64-1.13,1.4-1.31a9.5,9.5,0,0,0,2.09-.56c.08,2.13-.46,3.05-2.07,3.05-.76,0-1.42-.34-1.42-1.18Zm.2-4.19a1.52,1.52,0,0,1,1.7-1.3c.69,0,1.63.3,1.63,1.08s-.32.84-.9,1c-2.35.48-6,.22-6,3.59,0,2.14,1.56,3.14,3.54,3.14A4.66,4.66,0,0,0,183.8,37a4.06,4.06,0,0,0,.2,1h3.42a6,6,0,0,1-.4-2.66V30.81c0-2.94-2.38-3.48-4.83-3.48a6.85,6.85,0,0,0-3.3.72,3.19,3.19,0,0,0-1.62,2.78Z"/><path class="cls-3" d="M195.5,27.63h-2.09V24.5H190v3.13h-1.72v2.2H190v4.61c0,2.82.74,3.66,3.64,3.66.62,0,1.24-.08,1.85-.1V35.5c-.29,0-.59,0-.87,0-.74,0-1.22-.18-1.22-1V29.83h2.09v-2.2Z"/><path class="cls-2" d="M199.86,35c0-.81.63-1.13,1.39-1.31a9.6,9.6,0,0,0,2.1-.56c.08,2.13-.46,3.05-2.08,3.05-.76,0-1.41-.34-1.41-1.18Zm.2-4.19a1.51,1.51,0,0,1,1.69-1.3c.7,0,1.64.3,1.64,1.08s-.32.84-.9,1c-2.35.48-6,.22-6,3.59,0,2.14,1.56,3.14,3.54,3.14A4.68,4.68,0,0,0,203.41,37a4.06,4.06,0,0,0,.2,1H207a6,6,0,0,1-.4-2.66V30.81c0-2.94-2.38-3.48-4.84-3.48a6.81,6.81,0,0,0-3.29.72,3.19,3.19,0,0,0-1.62,2.78Z"/><polygon class="cls-3" points="208.98 38 212.38 38 212.38 23.74 208.98 23.74 208.98 38 208.98 38"/><path class="cls-2" d="M217.61,35c0-.81.64-1.13,1.39-1.31a9.6,9.6,0,0,0,2.1-.56c.08,2.13-.46,3.05-2.08,3.05-.75,0-1.41-.34-1.41-1.18Zm.2-4.19a1.51,1.51,0,0,1,1.69-1.3c.7,0,1.64.3,1.64,1.08s-.32.84-.9,1c-2.35.48-6,.22-6,3.59,0,2.14,1.56,3.14,3.54,3.14A4.68,4.68,0,0,0,221.16,37a4.06,4.06,0,0,0,.2,1h3.42a6,6,0,0,1-.4-2.66V30.81c0-2.94-2.38-3.48-4.84-3.48a6.81,6.81,0,0,0-3.29.72,3.19,3.19,0,0,0-1.62,2.78Z"/><path class="cls-3" d="M226.61,38H230V32.35c0-1.14.56-2.22,1.83-2.22,1.86,0,1.7,1.44,1.7,2.86v5h3.4V31.35c0-1.5-.28-4-3.74-4A3.9,3.9,0,0,0,230,29.05h0V27.63h-3.3V38Z"/><path class="cls-2" d="M242,35c0-.81.64-1.13,1.4-1.31a9.6,9.6,0,0,0,2.1-.56c.08,2.13-.46,3.05-2.08,3.05-.76,0-1.42-.34-1.42-1.18Zm.2-4.19a1.52,1.52,0,0,1,1.7-1.3c.7,0,1.64.3,1.64,1.08s-.32.84-.9,1c-2.36.48-6,.22-6,3.59,0,2.14,1.56,3.14,3.54,3.14A4.68,4.68,0,0,0,245.59,37a4.06,4.06,0,0,0,.2,1h3.41a6,6,0,0,1-.4-2.66V30.81c0-2.94-2.38-3.48-4.83-3.48a6.85,6.85,0,0,0-3.3.72,3.19,3.19,0,0,0-1.62,2.78Z"/><polygon class="cls-4" points="0.44 0 63.5 0 63.5 58.01 0.44 58.01 0.44 0 0.44 0"/><g class="cls-5"><path class="cls-6" d="M24.25,22.07c.8-4.4,3.8-6.5,8.5-6.5,3.5,0,8.2,1.5,8.2,5.4,0,3.2-1.6,4.2-4.5,4.8-11.8,2.4-30.2,1.1-30.2,18,0,10.7,7.8,15.7,17.7,15.7,6.2,0,35.19.15,35.19.15-2-4.1-2-10.55-2-15V22c0-14.7-11.89-17.4-24.19-17.4-5.9,0-11.9,1-16.5,3.6s-7.8,7.1-8.1,13.9Z"/></g><path class="cls-7" d="M40.87,45.51c0,5.49-3.74,8.16-7.77,8.16a7.82,7.82,0,0,1-7.82-7.81,7.49,7.49,0,0,1,.7-3.32l0-.07c.38-.81,3.76-6.69,14.86-13.54V45.51Z"/><path class="cls-8" d="M59.55,65a2.31,2.31,0,1,1,2.31,2.44A2.37,2.37,0,0,1,59.55,65Z"/><path class="cls-9" d="M8.59,66A1.37,1.37,0,1,1,10,67.47,1.4,1.4,0,0,1,8.59,66Z"/><path class="cls-10" d="M.22,66.3a1.15,1.15,0,0,1,1.11-1.17,1.17,1.17,0,0,1,0,2.34A1.15,1.15,0,0,1,.22,66.3Z"/><path class="cls-11" d="M48.38,65.27a2.08,2.08,0,1,1,2.08,2.2,2.14,2.14,0,0,1-2.08-2.2Z"/><path class="cls-12" d="M37.67,65.49a1.88,1.88,0,1,1,1.87,2,1.93,1.93,0,0,1-1.87-2Z"/><path class="cls-13" d="M27.47,65.69a1.69,1.69,0,1,1,1.69,1.78,1.74,1.74,0,0,1-1.69-1.78Z"/><path class="cls-14" d="M18.16,65.87a1.52,1.52,0,1,1,1.52,1.6,1.56,1.56,0,0,1-1.52-1.6Z"/><path class="cls-10" d="M.22,66.3a1.15,1.15,0,0,1,1.11-1.17,1.17,1.17,0,0,1,0,2.34A1.15,1.15,0,0,1,.22,66.3Z"/></g></g></svg>