<?xml version="1.0" encoding="UTF-8"?>
<svg width="606px" height="180px" viewBox="0 0 606 180" version="1.1" xmlns="http://www.w3.org/2000/svg" xmlns:xlink="http://www.w3.org/1999/xlink">
    <!-- Generator: Sketch 50.2 (55047) - http://www.bohemiancoding.com/sketch -->
    <title>logo_amap</title>
    <desc>Created with Sketch.</desc>
    <defs></defs>
    <g id="Page-1" stroke="none" stroke-width="1" fill="none" fill-rule="evenodd">
        <g id="logo_amap" fill-rule="nonzero">
            <path d="M237.573,68.358 L214.049,68.358 L209.487,82.044 L195.622,82.044 L218.879,18.626 C221.383,17.373 223.977,16.747 226.482,16.747 C231.133,16.747 234.621,19.163 236.589,24.619 L257.52,82.044 L242.135,82.044 L237.573,68.358 Z M233.906,57.267 L225.856,31.328 L217.716,57.267 L233.906,57.267 Z" id="Shape" fill="#1E1D20"></path>
            <path d="M323.176,82.044 L319.151,40.272 L305.287,82.044 L292.049,82.044 L277.559,39.735 L274.07,82.044 L260.832,82.044 L267.988,18.626 C269.866,17.642 272.907,16.748 275.054,16.748 C280.063,16.748 283.82,18.268 285.341,22.741 L300.278,67.285 L315.573,18.805 C317.452,17.553 319.956,16.748 322.371,16.748 C327.47,16.748 329.975,18.537 330.779,24.887 L337.935,82.044 L323.176,82.044 Z" id="Shape" fill="#1E1D20"></path>
            <path d="M383.018,68.358 L359.494,68.358 L354.932,82.044 L341.068,82.044 L364.325,18.626 C366.829,17.373 369.423,16.747 371.928,16.747 C376.579,16.747 380.068,19.163 382.035,24.619 L402.966,82.044 L387.58,82.044 L383.018,68.358 Z M379.35,57.267 L371.3,31.328 L363.16,57.267 L379.35,57.267 Z" id="Shape" fill="#1E1D20"></path>
            <path d="M456.276,37.32 C456.276,50.558 446.526,58.34 429.799,58.34 C427.473,58.34 424.879,58.251 422.107,58.161 L422.107,82.044 L407.617,82.044 L407.617,17.642 C413.968,17.105 424.88,16.747 429.888,16.747 C446.436,16.748 456.276,24.351 456.276,37.32 M441.249,37.32 C441.249,31.417 437.045,27.839 429.889,27.839 C427.743,27.839 425.059,27.928 422.108,28.018 L422.108,47.159 C424.792,47.159 427.385,47.249 429.8,47.249 C437.224,47.25 441.249,43.493 441.249,37.32" id="Shape" fill="#1E1D20"></path>
            <path d="M210.808,133.678 L202.389,133.678 L200.757,138.574 L195.794,138.574 L204.118,115.879 C205.014,115.43 205.943,115.207 206.839,115.207 C208.504,115.207 209.752,116.07 210.456,118.023 L217.948,138.574 L212.441,138.574 L210.808,133.678 Z M209.496,129.709 L206.615,120.424 L203.702,129.709 L209.496,129.709 Z" id="Shape" fill="#1E1D20"></path>
            <path d="M231.968,123.914 L230.175,126.666 C228.735,125.93 227.422,125.514 225.789,125.514 C224.701,125.514 223.804,125.868 223.804,126.635 C223.804,127.563 224.957,128.012 226.59,128.524 C229.375,129.389 232.288,130.475 232.288,133.743 C232.288,136.942 229.695,138.895 225.309,138.895 C222.716,138.895 220.283,138.383 218.426,136.911 L219.739,133.807 C221.436,134.991 223.613,135.375 225.085,135.375 C226.59,135.375 227.454,134.99 227.454,134.094 C227.454,133.198 226.046,132.75 224.349,132.268 C221.916,131.565 218.97,130.413 218.97,127.211 C218.97,123.977 221.531,122.057 225.629,122.057 C227.966,122.057 230.175,122.697 231.968,123.914" id="Shape" fill="#1E1D20"></path>
            <path d="M247.334,123.914 L245.541,126.666 C244.101,125.93 242.788,125.514 241.155,125.514 C240.067,125.514 239.17,125.868 239.17,126.635 C239.17,127.563 240.323,128.012 241.956,128.524 C244.741,129.389 247.654,130.475 247.654,133.743 C247.654,136.942 245.061,138.895 240.675,138.895 C238.082,138.895 235.649,138.383 233.792,136.911 L235.105,133.807 C236.802,134.991 238.979,135.375 240.451,135.375 C241.956,135.375 242.82,134.99 242.82,134.094 C242.82,133.198 241.412,132.75 239.715,132.268 C237.282,131.565 234.336,130.413 234.336,127.211 C234.336,123.977 236.897,122.057 240.995,122.057 C243.332,122.057 245.541,122.697 247.334,123.914" id="Shape" fill="#1E1D20"></path>
            <path d="M249.478,130.477 C249.478,125.194 252.647,122.057 258.089,122.057 C263.532,122.057 266.733,125.194 266.733,130.477 C266.733,135.758 263.532,138.897 258.089,138.897 C252.647,138.896 249.478,135.758 249.478,130.477 M261.707,130.477 C261.707,127.661 260.362,125.961 258.122,125.961 C255.88,125.961 254.536,127.66 254.536,130.477 C254.536,133.294 255.88,134.957 258.122,134.957 C260.362,134.957 261.707,133.293 261.707,130.477" id="Shape" fill="#1E1D20"></path>
            <path d="M277.104,138.896 C271.854,138.896 268.716,135.757 268.716,130.445 C268.716,125.162 272.174,122.056 276.687,122.056 C278.672,122.056 281.874,122.857 282.898,126.603 L279.281,128.042 C278.865,126.792 278.096,125.96 276.944,125.96 C274.927,125.96 273.743,127.626 273.743,130.444 C273.743,133.292 275.183,134.956 277.52,134.956 C279.024,134.956 280.753,134.413 281.874,133.581 L283.442,137.038 C281.682,138.32 279.312,138.896 277.104,138.896" id="Shape" fill="#1E1D20"></path>
            <path d="M285.267,117.223 C285.267,115.559 286.323,114.631 288.02,114.631 C289.716,114.631 290.772,115.559 290.772,117.223 C290.772,118.92 289.716,119.881 288.02,119.881 C286.323,119.881 285.267,118.92 285.267,117.223 Z M285.586,138.574 L290.548,138.574 L290.548,122.377 L285.586,122.377 L285.586,138.574 Z" id="Shape" fill="#1E1D20"></path>
            <path d="M307.675,128.139 L307.675,138.223 C306.811,138.608 305.914,138.897 305.018,138.897 C303.77,138.897 302.969,137.872 302.873,136.399 C301.561,138.254 299.8,138.897 298.039,138.897 C294.806,138.897 292.853,137.006 292.853,133.934 C292.853,130.541 295.702,128.555 300.728,128.555 C301.369,128.555 302.041,128.555 302.713,128.586 C302.617,126.826 301.977,125.772 299.896,125.772 C298.487,125.772 297.047,126.217 295.766,127.051 L293.781,123.979 C295.83,122.731 298.039,122.057 300.728,122.057 C305.114,122.057 307.675,124.297 307.675,128.139 M302.713,131.438 C302.041,131.405 301.433,131.405 300.857,131.405 C298.743,131.405 297.559,132.173 297.559,133.487 C297.559,134.51 298.135,135.247 299.416,135.247 C301.112,135.246 302.713,134.189 302.713,131.438" id="Shape" fill="#1E1D20"></path>
            <path d="M318.591,138.896 C313.341,138.896 310.203,135.757 310.203,130.445 C310.203,125.162 313.66,122.056 318.175,122.056 C320.159,122.056 323.361,122.857 324.385,126.603 L320.768,128.042 C320.352,126.792 319.583,125.96 318.431,125.96 C316.414,125.96 315.23,127.626 315.23,130.444 C315.23,133.292 316.67,134.956 319.007,134.956 C320.512,134.956 322.24,134.413 323.361,133.581 L324.93,137.038 C323.169,138.32 320.8,138.896 318.591,138.896" id="Shape" fill="#1E1D20"></path>
            <path d="M326.753,117.223 C326.753,115.559 327.81,114.631 329.506,114.631 C331.203,114.631 332.26,115.559 332.26,117.223 C332.26,118.92 331.203,119.881 329.506,119.881 C327.81,119.881 326.753,118.92 326.753,117.223 Z M327.073,138.574 L332.035,138.574 L332.035,122.377 L327.073,122.377 L327.073,138.574 Z" id="Shape" fill="#1E1D20"></path>
            <path d="M334.724,130.477 C334.724,125.194 337.894,122.057 343.336,122.057 C348.777,122.057 351.979,125.194 351.979,130.477 C351.979,135.758 348.778,138.897 343.336,138.897 C337.894,138.896 334.724,135.758 334.724,130.477 Z M346.953,130.477 C346.953,127.659 345.607,125.963 343.367,125.963 C341.127,125.963 339.782,127.658 339.782,130.477 C339.782,133.293 341.127,134.959 343.367,134.959 C345.607,134.959 346.953,133.293 346.953,130.477 Z M348.586,117.127 L341.511,120.232 L340.166,117.863 L346.185,113.156 L348.586,117.127 Z" id="Shape" fill="#1E1D20"></path>
            <path d="M377.46,115.91 L377.46,138.222 C376.596,138.607 375.667,138.896 374.803,138.896 C373.554,138.896 372.754,137.837 372.658,136.367 C371.281,138.254 369.328,138.896 367.376,138.896 C363.63,138.896 361.165,135.982 361.165,131.021 C361.165,125.353 364.494,122.056 370.129,122.056 C370.737,122.056 371.569,122.087 372.498,122.12 L372.498,114.276 C373.362,113.893 374.29,113.604 375.155,113.604 C376.627,113.605 377.46,114.566 377.46,115.91 Z M372.498,125.771 C371.762,125.738 371.121,125.738 370.577,125.738 C367.888,125.738 366.191,127.691 366.191,131.021 C366.191,133.517 367.279,134.99 369.232,134.99 C371.153,134.99 372.498,133.869 372.498,130.476 L372.498,125.771 Z" id="Shape" fill="#1E1D20"></path>
            <path d="M393.177,133.9 L395.13,137.007 C393.146,138.255 390.937,138.896 388.247,138.896 C383.157,138.896 380.147,135.917 380.147,130.859 C380.147,125.353 383.317,122.056 388.727,122.056 C392.792,122.056 395.162,124.105 395.162,127.466 C395.162,130.698 392.184,132.62 387.223,132.62 C386.519,132.62 385.815,132.556 385.11,132.491 C385.463,134.188 386.519,135.18 388.6,135.18 C390.424,135.182 391.896,134.732 393.177,133.9 M385.014,129.709 C385.75,129.771 386.487,129.805 387.159,129.805 C389.208,129.805 390.361,129.035 390.361,127.69 C390.361,126.604 389.592,125.899 388.248,125.899 C386.453,125.898 385.27,127.307 385.014,129.709" id="Shape" fill="#1E1D20"></path>
            <path d="M426.181,138.576 L424.741,123.625 L419.779,138.576 L415.041,138.576 L409.854,123.433 L408.606,138.576 L403.868,138.576 L406.43,115.879 C407.102,115.527 408.191,115.207 408.958,115.207 C410.751,115.207 412.096,115.75 412.64,117.35 L417.987,133.293 L423.461,115.941 C424.134,115.494 425.03,115.207 425.895,115.207 C427.719,115.207 428.616,115.846 428.904,118.119 L431.466,138.576 L426.181,138.576 Z" id="Shape" fill="#1E1D20"></path>
            <path d="M449.292,124.361 L449.292,138.222 C448.428,138.607 447.499,138.894 446.635,138.894 C445.354,138.894 444.586,137.839 444.49,136.333 C443.21,138.222 441.417,138.894 439.559,138.894 C435.974,138.894 433.893,136.654 433.893,132.812 L433.893,122.728 C434.757,122.343 435.686,122.056 436.55,122.056 C438.023,122.056 438.855,123.017 438.855,124.361 L438.855,131.918 C438.855,133.805 439.656,134.959 441.161,134.959 C443.145,134.959 444.33,133.805 444.33,130.475 L444.33,122.729 C445.194,122.344 446.123,122.057 446.987,122.057 C448.46,122.057 449.292,123.018 449.292,124.361" id="Shape" fill="#1E1D20"></path>
            <path d="M468.403,128.139 L468.403,138.577 L463.441,138.577 L463.441,129.003 C463.441,127.148 462.64,125.962 461.135,125.962 C458.99,125.962 457.646,127.116 457.646,130.509 L457.646,138.577 L452.684,138.577 L452.684,122.73 C453.548,122.345 454.477,122.056 455.341,122.056 C456.621,122.056 457.422,123.113 457.486,124.681 C458.863,122.73 460.752,122.056 462.736,122.056 C466.322,122.057 468.403,124.299 468.403,128.139" id="Shape" fill="#1E1D20"></path>
            <path d="M471.411,117.223 C471.411,115.559 472.468,114.631 474.164,114.631 C475.861,114.631 476.918,115.559 476.918,117.223 C476.918,118.92 475.861,119.881 474.164,119.881 C472.468,119.881 471.411,118.92 471.411,117.223 Z M471.731,138.574 L476.693,138.574 L476.693,122.377 L471.731,122.377 L471.731,138.574 Z" id="Shape" fill="#1E1D20"></path>
            <path d="M487.802,138.896 C482.552,138.896 479.414,135.757 479.414,130.445 C479.414,125.162 482.871,122.056 487.386,122.056 C489.37,122.056 492.573,122.857 493.596,126.603 L489.979,128.042 C489.563,126.792 488.794,125.96 487.642,125.96 C485.625,125.96 484.441,127.626 484.441,130.444 C484.441,133.292 485.881,134.956 488.218,134.956 C489.723,134.956 491.451,134.413 492.572,133.581 L494.14,137.038 C492.38,138.32 490.011,138.896 487.802,138.896" id="Shape" fill="#1E1D20"></path>
            <path d="M495.964,117.223 C495.964,115.559 497.022,114.631 498.717,114.631 C500.414,114.631 501.471,115.559 501.471,117.223 C501.471,118.92 500.414,119.881 498.717,119.881 C497.021,119.881 495.964,118.92 495.964,117.223 Z M496.284,138.574 L501.246,138.574 L501.246,122.377 L496.284,122.377 L496.284,138.574 Z" id="Shape" fill="#1E1D20"></path>
            <path d="M520.998,129.965 C520.998,135.598 517.668,138.897 512.066,138.897 C511.458,138.897 510.593,138.864 509.665,138.833 L509.665,145.94 L504.703,145.94 L504.703,122.73 C505.567,122.345 506.496,122.056 507.36,122.056 C508.64,122.056 509.41,123.081 509.505,124.617 C510.882,122.697 512.835,122.056 514.787,122.056 C518.533,122.057 520.998,125.002 520.998,129.965 M515.972,129.965 C515.972,127.467 514.915,125.963 512.963,125.963 C511.042,125.963 509.665,127.113 509.665,130.508 L509.665,135.182 C510.401,135.215 511.042,135.215 511.586,135.215 C514.307,135.215 515.972,133.293 515.972,129.965" id="Shape" fill="#1E1D20"></path>
            <path d="M523.43,117.223 C523.43,115.559 524.487,114.631 526.183,114.631 C527.88,114.631 528.938,115.559 528.938,117.223 C528.938,118.92 527.88,119.881 526.183,119.881 C524.486,119.881 523.43,118.92 523.43,117.223 Z M523.75,138.574 L528.712,138.574 L528.712,122.377 L523.75,122.377 L523.75,138.574 Z" id="Shape" fill="#1E1D20"></path>
            <path d="M544.718,123.914 L542.926,126.666 C541.485,125.93 540.172,125.514 538.54,125.514 C537.451,125.514 536.555,125.868 536.555,126.635 C536.555,127.563 537.707,128.012 539.34,128.524 C542.125,129.389 545.038,130.475 545.038,133.743 C545.038,136.942 542.445,138.895 538.059,138.895 C535.466,138.895 533.033,138.383 531.176,136.911 L532.488,133.807 C534.185,134.991 536.362,135.375 537.835,135.375 C539.34,135.375 540.204,134.99 540.204,134.094 C540.204,133.198 538.796,132.75 537.099,132.268 C534.666,131.565 531.721,130.413 531.721,127.211 C531.721,123.977 534.282,122.057 538.38,122.057 C540.717,122.057 542.926,122.697 544.718,123.914" id="Shape" fill="#1E1D20"></path>
            <path d="M197.459,150.568 C197.459,148.902 198.516,147.976 200.212,147.976 C201.909,147.976 202.965,148.902 202.965,150.568 C202.965,152.265 201.909,153.226 200.212,153.226 C198.516,153.227 197.459,152.266 197.459,150.568 Z M197.779,171.922 L202.741,171.922 L202.741,155.723 L197.779,155.723 L197.779,171.922 Z" id="Shape" fill="#1E1D20"></path>
            <polygon id="Shape" fill="#1E1D20" points="228.383 167.951 228.383 171.922 213.273 171.922 213.273 148.873 228.031 148.873 228.031 152.842 218.459 152.842 218.459 158.123 226.91 158.123 226.91 162.094 218.459 162.094 218.459 167.951"></polygon>
            <path d="M246.854,161.484 L246.854,171.922 L241.892,171.922 L241.892,162.348 C241.892,160.493 241.092,159.307 239.587,159.307 C237.442,159.307 236.098,160.461 236.098,163.854 L236.098,171.922 L231.136,171.922 L231.136,156.074 C232,155.691 232.929,155.402 233.793,155.402 C235.073,155.402 235.874,156.459 235.938,158.027 C237.314,156.074 239.203,155.402 241.188,155.402 C244.772,155.402 246.854,157.645 246.854,161.484" id="Shape" fill="#1E1D20"></path>
            <path d="M261.323,171.377 C260.011,171.953 258.634,172.24 256.969,172.24 C253.32,172.24 251.207,170.224 251.207,166.734 L251.207,159.435 L248.838,159.435 L248.838,155.722 L251.367,155.722 L251.367,152.072 C252.231,151.689 253.159,151.4 254.024,151.4 C255.368,151.4 256.169,152.361 256.169,153.705 L256.169,155.723 L261.035,155.723 L261.035,159.436 L256.169,159.436 L256.169,165.903 C256.169,167.376 256.937,168.305 258.345,168.305 C259.082,168.305 260.011,168.112 260.682,167.696 L261.323,171.377 Z" id="Shape" fill="#1E1D20"></path>
            <path d="M263.115,150.568 C263.115,148.902 264.171,147.976 265.868,147.976 C267.565,147.976 268.621,148.902 268.621,150.568 C268.621,152.265 267.565,153.226 265.868,153.226 C264.171,153.227 263.115,152.266 263.115,150.568 Z M263.435,171.922 L268.397,171.922 L268.397,155.723 L263.435,155.723 L263.435,171.922 Z" id="Shape" fill="#1E1D20"></path>
            <path d="M283.155,171.377 C281.843,171.953 280.466,172.24 278.801,172.24 C275.152,172.24 273.039,170.224 273.039,166.734 L273.039,159.435 L270.67,159.435 L270.67,155.722 L273.199,155.722 L273.199,152.072 C274.063,151.689 274.991,151.4 275.856,151.4 C277.2,151.4 278.001,152.361 278.001,153.705 L278.001,155.723 L282.867,155.723 L282.867,159.436 L278.001,159.436 L278.001,165.903 C278.001,167.376 278.769,168.305 280.177,168.305 C280.914,168.305 281.843,168.112 282.515,167.696 L283.155,171.377 Z" id="Shape" fill="#1E1D20"></path>
            <path d="M298.936,161.484 L298.936,171.568 C298.072,171.953 297.175,172.242 296.279,172.242 C295.031,172.242 294.23,171.217 294.134,169.744 C292.822,171.599 291.061,172.242 289.3,172.242 C286.067,172.242 284.113,170.351 284.113,167.279 C284.113,163.886 286.962,161.9 291.988,161.9 C292.629,161.9 293.301,161.9 293.973,161.931 C293.877,160.171 293.237,159.117 291.156,159.117 C289.747,159.117 288.307,159.562 287.026,160.396 L285.041,157.324 C287.09,156.074 289.299,155.402 291.988,155.402 C296.375,155.402 298.936,157.643 298.936,161.484 M293.974,164.783 C293.302,164.75 292.694,164.75 292.118,164.75 C290.004,164.75 288.82,165.518 288.82,166.832 C288.82,167.855 289.396,168.592 290.677,168.592 C292.373,168.592 293.974,167.535 293.974,164.783" id="Shape" fill="#1E1D20"></path>
            <path d="M313.309,171.377 C311.997,171.953 310.62,172.24 308.955,172.24 C305.306,172.24 303.192,170.224 303.192,166.734 L303.192,159.435 L300.823,159.435 L300.823,155.722 L303.352,155.722 L303.352,152.072 C304.216,151.689 305.145,151.4 306.009,151.4 C307.354,151.4 308.154,152.361 308.154,153.705 L308.154,155.723 L313.02,155.723 L313.02,159.436 L308.154,159.436 L308.154,165.903 C308.154,167.376 308.923,168.305 310.33,168.305 C311.067,168.305 311.996,168.112 312.668,167.696 L313.309,171.377 Z" id="Shape" fill="#1E1D20"></path>
            <path d="M327.97,157.26 L326.178,160.012 C324.737,159.276 323.424,158.86 321.792,158.86 C320.703,158.86 319.807,159.214 319.807,159.981 C319.807,160.909 320.959,161.358 322.592,161.87 C325.377,162.735 328.29,163.821 328.29,167.089 C328.29,170.288 325.697,172.241 321.311,172.241 C318.718,172.241 316.285,171.729 314.428,170.257 L315.74,167.153 C317.437,168.337 319.614,168.721 321.087,168.721 C322.592,168.721 323.456,168.336 323.456,167.44 C323.456,166.544 322.048,166.096 320.351,165.614 C317.918,164.911 314.973,163.759 314.973,160.557 C314.973,157.323 317.534,155.403 321.632,155.403 C323.969,155.402 326.178,156.041 327.97,157.26" id="Shape" fill="#1E1D20"></path>
            <path d="M353.739,163.311 C353.739,168.944 350.41,172.243 344.807,172.243 C344.199,172.243 343.334,172.21 342.406,172.177 L342.406,179.286 L337.443,179.286 L337.443,156.075 C338.308,155.692 339.237,155.403 340.101,155.403 C341.381,155.403 342.15,156.426 342.246,157.964 C343.623,156.042 345.576,155.403 347.527,155.403 C351.274,155.402 353.739,158.348 353.739,163.311 M348.713,163.311 C348.713,160.813 347.656,159.309 345.704,159.309 C343.783,159.309 342.406,160.459 342.406,163.854 L342.406,168.528 C343.142,168.561 343.783,168.561 344.327,168.561 C347.048,168.561 348.713,166.639 348.713,163.311" id="Shape" fill="#1E1D20"></path>
            <path d="M368.752,167.246 L370.705,170.353 C368.721,171.601 366.512,172.242 363.822,172.242 C358.732,172.242 355.722,169.263 355.722,164.205 C355.722,158.699 358.892,155.402 364.302,155.402 C368.367,155.402 370.737,157.451 370.737,160.812 C370.737,164.044 367.759,165.966 362.798,165.966 C362.094,165.966 361.39,165.902 360.685,165.837 C361.038,167.534 362.094,168.526 364.175,168.526 C365.999,168.527 367.472,168.078 368.752,167.246 M360.589,163.055 C361.325,163.117 362.062,163.151 362.735,163.151 C364.783,163.151 365.936,162.381 365.936,161.036 C365.936,159.95 365.167,159.245 363.823,159.245 C362.029,159.244 360.845,160.652 360.589,163.055" id="Shape" fill="#1E1D20"></path>
            <path d="M385.238,155.947 L383.798,160.332 C383.253,159.98 382.549,159.756 381.78,159.756 C379.731,159.756 378.451,161.133 378.451,165.135 L378.451,171.922 L373.489,171.922 L373.489,156.074 C374.353,155.691 375.282,155.402 376.146,155.402 C377.491,155.402 378.291,156.554 378.291,158.218 C379.476,156.138 381.108,155.402 382.773,155.402 C383.638,155.402 384.502,155.627 385.238,155.947" id="Shape" fill="#1E1D20"></path>
            <path d="M393.081,167.535 L393.081,147.623 C393.945,147.24 394.873,146.951 395.738,146.951 C397.211,146.951 398.043,147.912 398.043,149.256 L398.043,167.119 C398.043,167.889 398.459,168.305 399.195,168.305 C399.707,168.305 400.187,168.207 400.572,168.08 L401.212,171.217 C400.124,171.922 399.003,172.242 397.627,172.242 C394.777,172.242 393.081,170.545 393.081,167.535" id="Shape" fill="#1E1D20"></path>
            <path d="M407.646,152.586 C407.646,155.436 406.141,157.867 402.812,158.57 L402.14,157.355 C404.317,156.714 405.181,155.658 405.501,154.058 C404.988,154.218 404.477,154.314 403.932,154.314 C402.458,154.314 401.626,153.32 401.626,151.593 C401.626,149.671 402.747,148.552 404.636,148.552 C406.494,148.553 407.646,150.088 407.646,152.586" id="Shape" fill="#1E1D20"></path>
            <path d="M421.154,167.023 L412.736,167.023 L411.103,171.919 L406.141,171.919 L414.464,149.224 C415.36,148.775 416.288,148.552 417.185,148.552 C418.85,148.552 420.098,149.415 420.802,151.366 L428.293,171.919 L422.787,171.919 L421.154,167.023 Z M419.843,163.055 L416.962,153.77 L414.049,163.055 L419.843,163.055 Z" id="Shape" fill="#1E1D20"></path>
            <path d="M429.445,150.568 C429.445,148.902 430.502,147.976 432.198,147.976 C433.896,147.976 434.952,148.902 434.952,150.568 C434.952,152.265 433.896,153.226 432.198,153.226 C430.502,153.227 429.445,152.266 429.445,150.568 Z M429.766,171.922 L434.728,171.922 L434.728,155.723 L429.766,155.723 L429.766,171.922 Z" id="Shape" fill="#1E1D20"></path>
            <path d="M453.743,155.723 L453.743,172.881 C453.743,177.139 450.958,179.604 446.156,179.604 C443.177,179.604 440.809,178.965 438.568,177.715 L440.552,174.611 C442.026,175.441 443.754,175.89 445.323,175.89 C448.011,175.89 448.781,174.451 448.781,171.986 L448.781,169.935 C447.404,171.665 445.548,172.242 443.659,172.242 C439.913,172.242 437.448,169.328 437.448,164.367 C437.448,158.699 440.777,155.402 446.412,155.402 C448.045,155.402 451.438,155.531 453.743,155.723 Z M448.781,159.117 C448.045,159.084 447.404,159.084 446.86,159.084 C444.171,159.084 442.474,161.037 442.474,164.367 C442.474,166.863 443.562,168.336 445.515,168.336 C447.436,168.336 448.781,167.182 448.781,163.822 L448.781,159.117 Z" id="Shape" fill="#1E1D20"></path>
            <path d="M472.438,157.707 L472.438,171.568 C471.574,171.953 470.645,172.24 469.781,172.24 C468.5,172.24 467.732,171.185 467.636,169.679 C466.356,171.568 464.563,172.24 462.705,172.24 C459.12,172.24 457.039,170 457.039,166.158 L457.039,156.074 C457.903,155.689 458.832,155.402 459.696,155.402 C461.168,155.402 462,156.361 462,157.707 L462,165.264 C462,167.151 462.802,168.305 464.307,168.305 C466.291,168.305 467.476,167.151 467.476,163.821 L467.476,156.075 C468.34,155.69 469.269,155.403 470.133,155.403 C471.605,155.402 472.438,156.361 472.438,157.707" id="Shape" fill="#1E1D20"></path>
            <path d="M489.5,161.484 L489.5,171.568 C488.636,171.953 487.739,172.242 486.843,172.242 C485.594,172.242 484.794,171.217 484.697,169.744 C483.385,171.599 481.625,172.242 479.864,172.242 C476.631,172.242 474.677,170.351 474.677,167.279 C474.677,163.886 477.527,161.9 482.552,161.9 C483.193,161.9 483.864,161.9 484.537,161.931 C484.44,160.171 483.801,159.117 481.72,159.117 C480.31,159.117 478.87,159.562 477.59,160.396 L475.606,157.324 C477.655,156.074 479.864,155.402 482.552,155.402 C486.938,155.402 489.5,157.643 489.5,161.484 M484.538,164.783 C483.865,164.75 483.257,164.75 482.681,164.75 C480.569,164.75 479.384,165.518 479.384,166.832 C479.384,167.855 479.96,168.592 481.24,168.592 C482.938,168.592 484.538,167.535 484.538,164.783" id="Shape" fill="#1E1D20"></path>
            <path d="M517.895,155.914 C517.895,160.652 514.405,163.437 508.418,163.437 C507.586,163.437 506.657,163.404 505.665,163.373 L505.665,171.922 L500.479,171.922 L500.479,148.873 C502.751,148.68 506.657,148.553 508.45,148.553 C514.373,148.553 517.895,151.271 517.895,155.914 M512.516,155.914 C512.516,153.803 511.012,152.521 508.451,152.521 C507.682,152.521 506.722,152.552 505.666,152.585 L505.666,159.435 C506.627,159.435 507.555,159.468 508.419,159.468 C511.075,159.469 512.516,158.123 512.516,155.914" id="Shape" fill="#1E1D20"></path>
            <path d="M535.372,157.707 L535.372,171.568 C534.508,171.953 533.579,172.242 532.715,172.242 C531.435,172.242 530.666,171.183 530.57,169.68 C529.29,171.569 527.497,172.242 525.639,172.242 C522.054,172.242 519.973,170 519.973,166.158 L519.973,156.074 C520.837,155.689 521.766,155.402 522.63,155.402 C524.103,155.402 524.935,156.361 524.935,157.707 L524.935,165.264 C524.935,167.151 525.736,168.305 527.241,168.305 C529.225,168.305 530.41,167.151 530.41,163.821 L530.41,156.075 C531.274,155.69 532.203,155.403 533.067,155.403 C534.54,155.402 535.372,156.361 535.372,157.707 Z M525.864,153.578 L524.519,151.209 L530.538,146.504 L532.939,150.473 L525.864,153.578 Z" id="Shape" fill="#1E1D20"></path>
            <path d="M555.06,163.311 C555.06,168.944 551.731,172.243 546.128,172.243 C544.463,172.243 541.069,172.114 538.764,171.921 L538.764,147.624 C539.629,147.241 540.558,146.952 541.422,146.952 C542.895,146.952 543.727,147.913 543.727,149.257 L543.727,157.741 C545.104,156.012 546.96,155.403 548.848,155.403 C552.595,155.402 555.06,158.348 555.06,163.311 M550.033,163.311 C550.033,160.813 548.976,159.309 547.024,159.309 C545.103,159.309 543.726,160.459 543.726,163.854 L543.726,168.528 C544.462,168.561 545.103,168.561 545.647,168.561 C548.368,168.561 550.033,166.639 550.033,163.311" id="Shape" fill="#1E1D20"></path>
            <path d="M557.716,167.535 L557.716,147.623 C558.58,147.24 559.508,146.951 560.373,146.951 C561.846,146.951 562.678,147.912 562.678,149.256 L562.678,167.119 C562.678,167.889 563.094,168.305 563.83,168.305 C564.342,168.305 564.822,168.207 565.207,168.08 L565.847,171.217 C564.759,171.922 563.638,172.242 562.262,172.242 C559.412,172.242 557.716,170.545 557.716,167.535" id="Shape" fill="#1E1D20"></path>
            <path d="M567.223,150.568 C567.223,148.902 568.28,147.976 569.976,147.976 C571.673,147.976 572.729,148.902 572.729,150.568 C572.729,152.265 571.673,153.226 569.976,153.226 C568.279,153.227 567.223,152.266 567.223,150.568 Z M567.543,171.922 L572.505,171.922 L572.505,155.723 L567.543,155.723 L567.543,171.922 Z" id="Shape" fill="#1E1D20"></path>
            <path d="M583.613,172.242 C578.363,172.242 575.225,169.103 575.225,163.791 C575.225,158.508 578.683,155.402 583.197,155.402 C585.181,155.402 588.383,156.203 589.407,159.949 L585.79,161.388 C585.374,160.138 584.605,159.306 583.453,159.306 C581.436,159.306 580.252,160.972 580.252,163.79 C580.252,166.638 581.692,168.302 584.029,168.302 C585.534,168.302 587.262,167.759 588.383,166.927 L589.951,170.384 C588.191,171.666 585.822,172.242 583.613,172.242" id="Shape" fill="#1E1D20"></path>
            <path d="M605.766,161.484 L605.766,171.568 C604.902,171.953 604.005,172.242 603.109,172.242 C601.86,172.242 601.06,171.217 600.963,169.744 C599.651,171.599 597.891,172.242 596.13,172.242 C592.897,172.242 590.943,170.351 590.943,167.279 C590.943,163.886 593.793,161.9 598.818,161.9 C599.459,161.9 600.13,161.9 600.803,161.931 C600.706,160.171 600.067,159.117 597.986,159.117 C596.576,159.117 595.136,159.562 593.856,160.396 L591.872,157.324 C593.921,156.074 596.13,155.402 598.818,155.402 C603.204,155.402 605.766,157.643 605.766,161.484 M600.804,164.783 C600.131,164.75 599.523,164.75 598.947,164.75 C596.835,164.75 595.65,165.518 595.65,166.832 C595.65,167.855 596.226,168.592 597.506,168.592 C599.203,168.592 600.804,167.535 600.804,164.783" id="Shape" fill="#1E1D20"></path>
            <path d="M17.006,65.818 C25.985,65.818 33.264,73.097 33.264,82.076 C33.264,91.055 25.985,98.334 17.006,98.334 C8.027,98.334 0.748,91.055 0.748,82.076 C0.748,73.097 8.027,65.818 17.006,65.818" id="Shape" fill="#4DA6DE"></path>
            <path d="M24.681,126.936 C31.468,126.936 36.969,121.434 36.969,114.647 C36.969,107.86 31.468,102.36 24.681,102.36 C17.895,102.36 12.393,107.86 12.393,114.647 C12.393,121.434 17.895,126.936 24.681,126.936" id="Shape" fill="#63AFE2"></path>
            <path d="M41.79,149.902 C48.263,149.902 53.511,144.654 53.511,138.179 C53.511,131.708 48.263,126.46 41.79,126.46 C35.317,126.46 30.069,131.708 30.069,138.179 C30.069,144.654 35.317,149.902 41.79,149.902" id="Shape" fill="#76B7E5"></path>
            <path d="M69.593,159.729 C75.44,159.729 80.179,154.991 80.179,149.143 C80.179,143.295 75.44,138.557 69.593,138.557 C63.746,138.557 59.007,143.295 59.007,149.143 C59.007,154.991 63.746,159.729 69.593,159.729" id="Shape" fill="#89C0E8"></path>
            <path d="M96.066,163.465 C101.391,163.465 105.708,159.149 105.708,153.822 C105.708,148.498 101.391,144.181 96.066,144.181 C90.741,144.181 86.425,148.497 86.425,153.822 C86.425,159.148 90.741,163.465 96.066,163.465" id="Shape" fill="#9AC9EB"></path>
            <path d="M119.187,154.406 C123.885,154.406 127.694,150.595 127.694,145.898 C127.694,141.201 123.885,137.39 119.187,137.39 C114.489,137.39 110.68,141.201 110.68,145.898 C110.68,150.595 114.488,154.406 119.187,154.406" id="Shape" fill="#ABD2EE"></path>
            <path d="M136.643,140.828 C140.611,140.828 143.827,137.611 143.827,133.642 C143.827,129.677 140.611,126.46 136.643,126.46 C132.676,126.46 129.459,129.677 129.459,133.642 C129.458,137.611 132.676,140.828 136.643,140.828" id="Shape" fill="#BCDBF2"></path>
            <path d="M149.176,124.143 C152.517,124.143 155.225,121.434 155.225,118.092 C155.225,114.75 152.517,112.043 149.176,112.043 C145.835,112.043 143.126,114.75 143.126,118.092 C143.126,121.434 145.835,124.143 149.176,124.143" id="Shape" fill="#CDE3F5"></path>
            <path d="M156.574,104.875 C159.289,104.875 161.489,102.676 161.489,99.961 C161.489,97.246 159.289,95.045 156.574,95.045 C153.86,95.045 151.659,97.246 151.659,99.961 C151.659,102.676 153.86,104.875 156.574,104.875" id="Shape" fill="#DEEDF8"></path>
            <path d="M158.983,86.235 C161.28,86.235 163.142,84.373 163.142,82.076 C163.142,79.779 161.28,77.917 158.983,77.917 C156.686,77.917 154.824,79.779 154.824,82.076 C154.824,84.373 156.687,86.235 158.983,86.235" id="Shape" fill="#E7F1F9"></path>
            <path d="M24.681,37.217 C31.468,37.217 36.969,42.718 36.969,49.505 C36.969,56.291 31.468,61.793 24.681,61.793 C17.895,61.793 12.393,56.291 12.393,49.505 C12.393,42.718 17.895,37.217 24.681,37.217" id="Shape" fill="#63AFE2"></path>
            <path d="M41.79,13.809 C48.263,13.809 53.511,19.057 53.511,25.53 C53.511,32.003 48.263,37.25 41.79,37.25 C35.317,37.25 30.069,32.003 30.069,25.53 C30.069,19.057 35.317,13.809 41.79,13.809" id="Shape" fill="#76B7E5"></path>
            <path d="M69.593,3.546 C75.44,3.546 80.179,8.286 80.179,14.132 C80.179,19.98 75.44,24.719 69.593,24.719 C63.746,24.719 59.007,19.98 59.007,14.132 C59.007,8.286 63.746,3.546 69.593,3.546" id="Shape" fill="#89C0E8"></path>
            <path d="M96.066,0.854 C101.391,0.854 105.708,5.17 105.708,10.495 C105.708,15.82 101.391,20.137 96.066,20.137 C90.741,20.137 86.425,15.82 86.425,10.495 C86.425,5.17 90.741,0.854 96.066,0.854" id="Shape" fill="#9AC9EB"></path>
            <path d="M119.187,8.869 C123.885,8.869 127.694,12.678 127.694,17.376 C127.694,22.075 123.885,25.883 119.187,25.883 C114.489,25.883 110.68,22.075 110.68,17.376 C110.68,12.678 114.488,8.869 119.187,8.869" id="Shape" fill="#ABD2EE"></path>
            <path d="M136.643,22.883 C140.611,22.883 143.827,26.099 143.827,30.067 C143.827,34.034 140.611,37.25 136.643,37.25 C132.676,37.25 129.459,34.034 129.459,30.067 C129.458,26.1 132.676,22.883 136.643,22.883" id="Shape" fill="#BCDBF2"></path>
            <path d="M149.176,40.01 C152.517,40.01 155.225,42.718 155.225,46.059 C155.225,49.401 152.517,52.109 149.176,52.109 C145.835,52.109 143.126,49.401 143.126,46.059 C143.126,42.718 145.835,40.01 149.176,40.01" id="Shape" fill="#CDE3F5"></path>
            <path d="M156.574,59.276 C159.289,59.276 161.489,61.477 161.489,64.191 C161.489,66.906 159.289,69.107 156.574,69.107 C153.86,69.107 151.659,66.906 151.659,64.191 C151.659,61.477 153.86,59.276 156.574,59.276" id="Shape" fill="#DEEDF8"></path>
        </g>
    </g>
</svg>