<?xml version="1.0" encoding="UTF-8" standalone="no"?>
<svg
   xmlns:dc="http://purl.org/dc/elements/1.1/"
   xmlns:cc="http://creativecommons.org/ns#"
   xmlns:rdf="http://www.w3.org/1999/02/22-rdf-syntax-ns#"
   xmlns:svg="http://www.w3.org/2000/svg"
   xmlns="http://www.w3.org/2000/svg"
   xmlns:xlink="http://www.w3.org/1999/xlink"
   xmlns:sodipodi="http://sodipodi.sourceforge.net/DTD/sodipodi-0.dtd"
   xmlns:inkscape="http://www.inkscape.org/namespaces/inkscape"
   width="48"
   height="48"
   viewBox="0 0 12.7 12.7"
   version="1.1"
   id="svg8"
   inkscape:version="1.0.1 (3bc2e813f5, 2020-09-07)"
   sodipodi:docname="cuidados.svg"
   inkscape:export-filename="/home/vokimon/Documentos/webs/desconectaibex35.org/content/images/categories/cuidados.png"
   inkscape:export-xdpi="512"
   inkscape:export-ydpi="512">
  <defs
     id="defs2">
    <linearGradient
       inkscape:collect="always"
       id="linearGradient4505">
      <stop
         style="stop-color:#ffa35e;stop-opacity:1;"
         offset="0"
         id="stop4501" />
      <stop
         style="stop-color:#ffb47d;stop-opacity:1"
         offset="1"
         id="stop4503" />
    </linearGradient>
    <linearGradient
       inkscape:collect="always"
       id="linearGradient4321">
      <stop
         style="stop-color:#ffbc8a;stop-opacity:1"
         offset="0"
         id="stop4317" />
      <stop
         style="stop-color:#ffa766;stop-opacity:1"
         offset="1"
         id="stop4319" />
    </linearGradient>
    <inkscape:path-effect
       effect="bspline"
       id="path-effect834"
       is_visible="true"
       lpeversion="1"
       weight="33.333333"
       steps="2"
       helper_size="0"
       apply_no_weight="true"
       apply_with_weight="true"
       only_selected="false" />
    <filter
       inkscape:collect="always"
       style="color-interpolation-filters:sRGB"
       id="filter4089"
       x="-0.056215743"
       width="1.1124315"
       y="-0.060979686"
       height="1.1219594">
      <feGaussianBlur
         inkscape:collect="always"
         stdDeviation="0.15305702"
         id="feGaussianBlur4091" />
    </filter>
    <filter
       inkscape:collect="always"
       style="color-interpolation-filters:sRGB"
       id="filter4313"
       x="-0.15053931"
       width="1.3010786"
       y="-0.17029965"
       height="1.3405993">
      <feGaussianBlur
         inkscape:collect="always"
         stdDeviation="0.36218165"
         id="feGaussianBlur4315" />
    </filter>
    <linearGradient
       inkscape:collect="always"
       xlink:href="#linearGradient4321"
       id="linearGradient4323"
       x1="3.6856744"
       y1="7.2776098"
       x2="3.7776344"
       y2="10.154012"
       gradientUnits="userSpaceOnUse" />
    <filter
       inkscape:collect="always"
       style="color-interpolation-filters:sRGB"
       id="filter4497"
       x="-0.059845775"
       width="1.1196916"
       y="-0.062178202"
       height="1.1243564">
      <feGaussianBlur
         inkscape:collect="always"
         stdDeviation="0.71607886"
         id="feGaussianBlur4499" />
    </filter>
    <linearGradient
       inkscape:collect="always"
       xlink:href="#linearGradient4505"
       id="linearGradient4507"
       x1="-9.0462065"
       y1="2.1712272"
       x2="-8.3410406"
       y2="5.0694618"
       gradientUnits="userSpaceOnUse" />
  </defs>
  <sodipodi:namedview
     id="base"
     pagecolor="#ffffff"
     bordercolor="#666666"
     borderopacity="1.0"
     inkscape:pageopacity="0.0"
     inkscape:pageshadow="2"
     inkscape:zoom="7.9195959"
     inkscape:cx="12.890247"
     inkscape:cy="33.090889"
     inkscape:document-units="mm"
     inkscape:current-layer="layer1"
     inkscape:document-rotation="0"
     showgrid="false"
     units="px"
     showguides="true"
     inkscape:guide-bbox="true"
     inkscape:window-width="1920"
     inkscape:window-height="1013"
     inkscape:window-x="0"
     inkscape:window-y="0"
     inkscape:window-maximized="1">
    <sodipodi:guide
       position="12.699831,7.9542064"
       orientation="1,0"
       id="guide836" />
  </sodipodi:namedview>
  <metadata
     id="metadata5">
    <rdf:RDF>
      <cc:Work
         rdf:about="">
        <dc:format>image/svg+xml</dc:format>
        <dc:type
           rdf:resource="http://purl.org/dc/dcmitype/StillImage" />
        <dc:title />
      </cc:Work>
    </rdf:RDF>
  </metadata>
  <g
     inkscape:label="Capa 1"
     inkscape:groupmode="layer"
     id="layer1">
    <path
       id="path1762"
       style="fill:#200000;fill-opacity:1;stroke:none;stroke-width:0.999999px;stroke-linecap:butt;stroke-linejoin:miter;stroke-opacity:1;filter:url(#filter4497)"
       d="m 19,9.7480469 c -0.37984,0.03025 -0.770615,0.095998 -1.175781,0.1992187 -3.241328,0.8257624 -7.345166,4.1406294 -6.15625,9.1269534 1.188916,4.986324 7.672729,11.643437 14.148437,18.292969 C 32.292115,30.717656 38.775928,24.060542 39.964844,19.074219 41.153759,14.087895 37.051874,10.773028 33.810547,9.9472656 30.569219,9.121503 28.191496,10.785491 25.816406,12.449219 23.738203,10.993457 21.658879,9.5362997 19,9.7480469 Z"
       transform="matrix(0.37438091,0,0,0.37438091,-3.3636431,-2.4251652)" />
    <path
       id="path832"
       style="fill:#c90000;fill-opacity:1;stroke:#862e2e;stroke-width:0.264583;stroke-linecap:butt;stroke-linejoin:miter;stroke-miterlimit:4;stroke-dasharray:none;stroke-opacity:1"
       d="M 3.8314075,1.2354953 C 3.6892026,1.2468201 3.542904,1.2714352 3.3912175,1.310079 2.1777263,1.6192286 0.6413277,2.8602515 1.0864351,4.7270361 1.5315426,6.5938205 3.9589583,9.0861165 6.3833398,11.575574 8.8077215,9.0861165 11.235137,6.5938202 11.680245,4.7270361 12.125352,2.8602515 10.589685,1.6192286 9.3761935,1.310079 8.1627022,1.0009292 7.2725281,1.6238946 6.3833398,2.2467626 5.6053002,1.7017531 4.826841,1.1562211 3.8314075,1.2354953 Z" />
    <path
       id="path1670"
       style="fill:#df1515;fill-opacity:1;stroke:none;stroke-width:0.264583px;stroke-linecap:butt;stroke-linejoin:miter;stroke-opacity:1;filter:url(#filter4089)"
       d="M 5.0710083,3.1067872 C 4.3945116,3.1909654 3.7155749,3.6812024 3.5798992,4.375699 3.4816721,5.0280379 3.8725086,5.6188257 4.2132191,6.1389741 4.9754406,7.2259782 5.9142608,8.1718271 6.8305907,9.1270914 7.835761,8.071486 8.8885629,7.036655 9.669397,5.7965649 9.9760115,5.2936176 10.262516,4.6566407 9.9890542,4.0772704 9.7122799,3.5120886 9.095044,3.1148099 8.4655619,3.1049947 7.8278428,3.1407301 7.3412442,3.6099075 6.8300739,3.938261 6.3110961,3.6042031 5.8127807,3.1215189 5.1609251,3.1031698 c -0.029972,0.00121 -0.059945,0.00241 -0.089917,0.00362 z"
       transform="matrix(1.4149829,0,0,1.4149829,-3.2660032,-2.4139874)" />
    <path
       id="path3002"
       style="fill:#f7e3e3;fill-opacity:0.4380568;stroke:none;stroke-width:0.264583px;stroke-linecap:butt;stroke-linejoin:miter;stroke-opacity:1;filter:url(#filter4313)"
       d="M 4.9199219,3.5175781 C 4.1062218,3.6766681 3.6481531,4.6492803 4.1640625,5.3417969 4.8582417,6.5687334 5.8729604,7.5679125 6.8300781,8.5878906 7.8819362,7.4302828 9.0892522,6.371346 9.6835938,4.8769531 9.9739487,3.8256519 8.4556802,3.0421058 7.7002765,3.7941666 7.2533539,4.0519983 6.8145407,4.6651947 6.3703045,4.0756567 5.9415783,3.7990322 5.4728563,3.3580788 4.9199219,3.5175781 Z"
       transform="matrix(1.4149829,0,0,1.4149829,-3.2660032,-2.4139874)" />
    <rect
       style="fill:url(#linearGradient4323);fill-opacity:1;stroke:#a53f0c;stroke-width:0.264583;stroke-linecap:round;stroke-linejoin:bevel;stroke-miterlimit:4;stroke-dasharray:none;stroke-opacity:1;paint-order:fill markers stroke"
       id="rect2269"
       width="1.7475359"
       height="4.820025"
       x="2.5210586"
       y="6.2679634"
       ry="0.45945358"
       transform="rotate(-30)" />
    <rect
       style="fill:url(#linearGradient4507);fill-opacity:1;stroke:#a53f0c;stroke-width:0.264583;stroke-linecap:round;stroke-linejoin:bevel;stroke-miterlimit:4;stroke-dasharray:none;stroke-opacity:1;paint-order:fill markers stroke"
       id="rect2267"
       width="1.7475359"
       height="4.820025"
       x="-9.5517445"
       y="0.98481435"
       ry="0.41643757"
       transform="rotate(-120)" />
  </g>
</svg>
