<svg class="main-svg" xmlns="http://www.w3.org/2000/svg" xmlns:xlink="http://www.w3.org/1999/xlink" width="700" height="700" style="" viewBox="0 0 700 700"><rect x="0" y="0" width="700" height="700" style="fill: rgb(255, 255, 255); fill-opacity: 1;"/><defs id="defs-9554fa"><g class="clips"/><g class="gradients"/><g class="patterns"/></defs><g class="bglayer"/><g class="layer-below"><g class="imagelayer"/><g class="shapelayer"/></g><g class="cartesianlayer"/><g class="polarlayer"/><g class="smithlayer"/><g class="ternarylayer"/><g class="geolayer"/><g class="funnelarealayer"/><g class="pielayer"><g class="trace" stroke-linejoin="round" style="opacity: 1;"><g class="slice"><path class="surface" d="M350,314.5l-137.87794227776266,-164.3165330490208a214.5,214.5 0 0 1 312.6172564619793,39.91226431828299Z" style="pointer-events: all; stroke-width: 0; fill: rgb(99, 110, 250); fill-opacity: 1; stroke: rgb(68, 68, 68); stroke-opacity: 1;"/><g class="slicetext"><text data-notex="1" class="slicetext" transform="translate(365.6604332814626,188.53322426527967)" text-anchor="middle" x="0" y="0" style="font-family: 'Open Sans', verdana, arial, sans-serif; font-size: 12px; fill: rgb(255, 255, 255); fill-opacity: 1; white-space: pre;"><tspan class="line" dy="0em" x="0" y="0">REPSOL</tspan><tspan class="line" dy="1.3em" x="0" y="0">3085</tspan></text></g></g><g class="slice"><path class="surface" d="M350,314.5l-213.30540985927374,-22.606462013487324a214.5,214.5 0 0 1 75.42746758151108,-141.71007103553347Z" style="pointer-events: all; stroke-width: 0; fill: rgb(239, 85, 59); fill-opacity: 1; stroke: rgb(68, 68, 68); stroke-opacity: 1;"/><g class="slicetext"><text data-notex="1" class="slicetext" transform="translate(212.00910040576073,237.85555036884193)" text-anchor="middle" x="0" y="0" style="font-family: 'Open Sans', verdana, arial, sans-serif; font-size: 12px; fill: rgb(68, 68, 68); fill-opacity: 1; white-space: pre;"><tspan class="line" dy="0em" x="0" y="0">CEPSA</tspan><tspan class="line" dy="1.3em" x="0" y="0">1434</tspan></text></g></g><g class="slice"><path class="surface" d="M350,314.5l-205.52771114194937,61.38900514547715a214.5,214.5 0 0 1 -7.77769871732437,-83.99546715896447Z" style="pointer-events: all; stroke-width: 0; fill: rgb(0, 204, 150); fill-opacity: 1; stroke: rgb(68, 68, 68); stroke-opacity: 1;"/><g class="slicetext"><text data-notex="1" class="slicetext" transform="translate(171.44003116095448,327.7228564034891)" text-anchor="middle" x="0" y="0" style="font-family: 'Open Sans', verdana, arial, sans-serif; font-size: 12px; fill: rgb(68, 68, 68); fill-opacity: 1; white-space: pre;"><tspan class="line" dy="0em" x="0" y="0">BP</tspan><tspan class="line" dy="1.3em" x="0" y="0">740</tspan></text></g></g><g class="slice"><path class="surface" d="M350,314.5l-179.9638939801895,116.71866544596503a214.5,214.5 0 0 1 -25.563817161759857,-55.32966030048788Z" style="pointer-events: all; stroke-width: 0; fill: rgb(171, 99, 250); fill-opacity: 1; stroke: rgb(68, 68, 68); stroke-opacity: 1;"/><g class="slicetext"><text data-notex="1" class="slicetext" transform="translate(179.50227216774638,389.96992844971686)" text-anchor="middle" x="0" y="0" style="font-family: 'Open Sans', verdana, arial, sans-serif; font-size: 12px; fill: rgb(68, 68, 68); fill-opacity: 1; white-space: pre;"><tspan class="line" dy="0em" x="0" y="0">GALP</tspan><tspan class="line" dy="1.3em" x="0" y="0">533</tspan></text></g></g><g class="slice"><path class="surface" d="M350,314.5l-149.35599203181732,153.95790867698778a214.5,214.5 0 0 1 -30.607901948372188,-37.239243231022755Z" style="pointer-events: all; stroke-width: 0; fill: rgb(255, 161, 90); fill-opacity: 1; stroke: rgb(68, 68, 68); stroke-opacity: 1;"/><g class="slicetext"><text data-notex="1" class="slicetext" transform="translate(198.8412609721817,434.4635929498215)rotate(-39.41767410182183)" text-anchor="middle" x="0" y="0" style="font-family: 'Open Sans', verdana, arial, sans-serif; font-size: 12px; fill: rgb(68, 68, 68); fill-opacity: 1; white-space: pre;"><tspan class="line" dy="0em" x="0" y="0">SHELL</tspan><tspan class="line" dy="1.3em" x="0" y="0">421</tspan></text></g></g><g class="slice"><path class="surface" d="M350,314.5l-134.84699786175358,166.81288070071875a214.5,214.5 0 0 1 -14.508994170063744,-12.854972023730966Z" style="pointer-events: all; stroke-width: 0; fill: rgb(25, 211, 243); fill-opacity: 1; stroke: rgb(68, 68, 68); stroke-opacity: 1;"/><g class="slicetext"><text data-notex="1" class="slicetext" transform="translate(186.3508726570343,480.8789870062201)" text-anchor="middle" x="0" y="0" style="font-family: 'Open Sans', verdana, arial, sans-serif; font-size: 12px; fill: rgb(42, 63, 95); fill-opacity: 1; white-space: pre;"><tspan class="line" dy="0em" x="0" y="0">AVIA</tspan><tspan class="line" dy="1.3em" x="0" y="0">169</tspan></text></g></g><g class="slice"><path class="surface" d="M350,314.5l-119.52270600566692,178.11393193426198a214.5,214.5 0 0 1 -15.32429185608666,-11.301051233543234Z" style="pointer-events: all; stroke-width: 0; fill: rgb(255, 102, 146); fill-opacity: 1; stroke: rgb(68, 68, 68); stroke-opacity: 1;"/><g class="slicetext"><text data-notex="1" class="slicetext" transform="translate(183.3029713723409,513.4883620062201)" text-anchor="middle" x="0" y="0" style="font-family: 'Open Sans', verdana, arial, sans-serif; font-size: 12px; fill: rgb(42, 63, 95); fill-opacity: 1; white-space: pre;"><tspan class="line" dy="0em" x="0" y="0">BALLENOIL</tspan><tspan class="line" dy="1.3em" x="0" y="0">166</tspan></text></g><path class="textline" stroke-width="1.5" d="M222.6896901223409,487.13352802643647V516.7930495062201h-8.15234375" fill="none" style="stroke: rgb(42, 63, 95); stroke-opacity: 1;"/></g><g class="slice"><path class="surface" d="M350,314.5l-105.8613936542287,186.55727092124934a214.5,214.5 0 0 1 -13.661312351438212,-8.443338986987357Z" style="pointer-events: all; stroke-width: 0; fill: rgb(182, 232, 128); fill-opacity: 1; stroke: rgb(68, 68, 68); stroke-opacity: 1;"/><g class="slicetext"><text data-notex="1" class="slicetext" transform="translate(215.52968305463907,546.0977370062201)" text-anchor="middle" x="0" y="0" style="font-family: 'Open Sans', verdana, arial, sans-serif; font-size: 12px; fill: rgb(42, 63, 95); fill-opacity: 1; white-space: pre;"><tspan class="line" dy="0em" x="0" y="0">DISA</tspan><tspan class="line" dy="1.3em" x="0" y="0">140</tspan></text></g><path class="textline" stroke-width="1.5" d="M237.22890180463907,496.9635015881595V549.4024245062201h-8.15234375" fill="none" style="stroke: rgb(42, 63, 95); stroke-opacity: 1;"/></g><g class="slice"><path class="surface" d="M350,314.5l-94.29521794092548,192.66204056189525a214.5,214.5 0 0 1 -11.566175713303224,-6.104769640645912Z" style="pointer-events: all; stroke-width: 0; fill: rgb(255, 151, 255); fill-opacity: 1; stroke: rgb(68, 68, 68); stroke-opacity: 1;"/><g class="slicetext"><text data-notex="1" class="slicetext" transform="translate(210.53531245783876,578.7071120062201)" text-anchor="middle" x="0" y="0" style="font-family: 'Open Sans', verdana, arial, sans-serif; font-size: 12px; fill: rgb(42, 63, 95); fill-opacity: 1; white-space: pre;"><tspan class="line" dy="0em" x="0" y="0">PETROPRIX</tspan><tspan class="line" dy="1.3em" x="0" y="0">114</tspan></text></g><path class="textline" stroke-width="1.5" d="M249.87515620783876,504.1978272295055V582.0117995062201h-8.15234375" fill="none" style="stroke: rgb(42, 63, 95); stroke-opacity: 1;"/></g><g class="slice"><path class="surface" d="M350,314.5l-82.69621482354978,197.9181296745129a214.5,214.5 0 0 1 -11.599003117375702,-5.256089112617644Z" style="pointer-events: all; stroke-width: 0; fill: rgb(254, 203, 82); fill-opacity: 1; stroke: rgb(68, 68, 68); stroke-opacity: 1;"/><g class="slicetext"><text data-notex="1" class="slicetext" transform="translate(229.266051136923,611.3164870062201)" text-anchor="middle" x="0" y="0" style="font-family: 'Open Sans', verdana, arial, sans-serif; font-size: 12px; fill: rgb(42, 63, 95); fill-opacity: 1; white-space: pre;"><tspan class="line" dy="0em" x="0" y="0">PLENOIL</tspan><tspan class="line" dy="1.3em" x="0" y="0">111</tspan></text></g><path class="textline" stroke-width="1.5" d="M261.465269886923,509.8761796222984V614.6211745062201h-8.15234375" fill="none" style="stroke: rgb(42, 63, 95); stroke-opacity: 1;"/></g><g class="slice"><path class="surface" d="M350,314.5l-71.56341384646507,202.21010805258862a214.5,214.5 0 0 1 -11.132800977084713,-4.291978378075726Z" style="pointer-events: all; stroke-width: 0; fill: rgb(198, 202, 253); fill-opacity: 1; stroke: rgb(68, 68, 68); stroke-opacity: 1;"/><g class="slicetext"><text data-notex="1" class="slicetext" transform="translate(254.2504936732871,643.9258620062201)" text-anchor="middle" x="0" y="0" style="font-family: 'Open Sans', verdana, arial, sans-serif; font-size: 12px; fill: rgb(42, 63, 95); fill-opacity: 1; white-space: pre;"><tspan class="line" dy="0em" x="0" y="0">Q8</tspan><tspan class="line" dy="1.3em" x="0" y="0">104</tspan></text></g><path class="textline" stroke-width="1.5" d="M272.8403374232871,514.6415410929171V647.2305495062201h-8.15234375" fill="none" style="stroke: rgb(42, 63, 95); stroke-opacity: 1;"/></g><g class="slice"><path class="surface" d="M350,314.5l-36.864537328786305,211.30843780486978a214.5,214.5 0 0 1 -34.69887651767876,-9.09832975228116Z" style="pointer-events: all; stroke-width: 0; fill: rgb(247, 167, 153); fill-opacity: 1; stroke: rgb(68, 68, 68); stroke-opacity: 1;"/><g class="slicetext"><text data-notex="1" class="slicetext" transform="translate(242.94315229962854,676.5352370062201)" text-anchor="middle" x="0" y="0" style="font-family: 'Open Sans', verdana, arial, sans-serif; font-size: 12px; fill: rgb(42, 63, 95); fill-opacity: 1; white-space: pre;"><tspan class="line" dy="0em" x="0" y="0">Supermercados</tspan><tspan class="line" dy="1.3em" x="0" y="0">313</tspan></text></g><path class="textline" stroke-width="1.5" d="M295.59549604962854,521.9859030149133V679.8399245062201h-8.15234375" fill="none" style="stroke: rgb(42, 63, 95); stroke-opacity: 1;"/></g><g class="slice"><path class="surface" d="M350,314.5l37.454678149160884,211.2046331990441a214.5,214.5 0 0 1 -74.31921547794718,0.10380460582567252Z" style="pointer-events: all; stroke-width: 0; fill: rgb(51, 255, 201); fill-opacity: 1; stroke: rgb(68, 68, 68); stroke-opacity: 1;"/><g class="slicetext"><text data-notex="1" class="slicetext" transform="translate(353.5366360735529,480.5619614190732)rotate(89.91997275668314)" text-anchor="middle" x="0" y="0" style="font-family: 'Open Sans', verdana, arial, sans-serif; font-size: 12px; fill: rgb(68, 68, 68); fill-opacity: 1; white-space: pre;"><tspan class="line" dy="0em" x="0" y="0">Cooperativas</tspan><tspan class="line" dy="1.3em" x="0" y="0">651</tspan></text></g></g><g class="slice"><path class="surface" d="M350,314.5l174.73931418421697,-124.40426873073733a214.5,214.5 0 0 1 -137.28463603505608,335.60890192978144Z" style="pointer-events: all; stroke-width: 0; fill: rgb(224, 198, 253); fill-opacity: 1; stroke: rgb(68, 68, 68); stroke-opacity: 1;"/><g class="slicetext"><text data-notex="1" class="slicetext" transform="translate(457.4515063373814,355.2070967701884)" text-anchor="middle" x="0" y="0" style="font-family: 'Open Sans', verdana, arial, sans-serif; font-size: 12px; fill: rgb(68, 68, 68); fill-opacity: 1; white-space: pre;"><tspan class="line" dy="0em" x="0" y="0">Otros</tspan><tspan class="line" dy="1.3em" x="0" y="0">3765</tspan></text></g></g></g></g><g class="iciclelayer"/><g class="treemaplayer"/><g class="sunburstlayer"/><g class="glimages"/><defs id="topdefs-9554fa"><g class="clips"/></defs><g class="layer-above"><g class="imagelayer"/><g class="shapelayer"/></g><g class="infolayer"><g class="g-gtitle"/></g></svg>